%TF.GenerationSoftware,KiCad,Pcbnew,9.0.3*%
%TF.CreationDate,2025-07-14T12:36:22+02:00*%
%TF.ProjectId,CalliopeGamePad,43616c6c-696f-4706-9547-616d65506164,rev?*%
%TF.SameCoordinates,Original*%
%TF.FileFunction,Copper,L2,Bot*%
%TF.FilePolarity,Positive*%
%FSLAX46Y46*%
G04 Gerber Fmt 4.6, Leading zero omitted, Abs format (unit mm)*
G04 Created by KiCad (PCBNEW 9.0.3) date 2025-07-14 12:36:22*
%MOMM*%
%LPD*%
G01*
G04 APERTURE LIST*
%TA.AperFunction,ComponentPad*%
%ADD10C,2.000000*%
%TD*%
%TA.AperFunction,ComponentPad*%
%ADD11R,1.700000X1.700000*%
%TD*%
%TA.AperFunction,ComponentPad*%
%ADD12C,1.700000*%
%TD*%
%TA.AperFunction,ComponentPad*%
%ADD13C,1.600000*%
%TD*%
%TA.AperFunction,ViaPad*%
%ADD14C,1.600000*%
%TD*%
%TA.AperFunction,Conductor*%
%ADD15C,0.600000*%
%TD*%
%TA.AperFunction,Conductor*%
%ADD16C,0.400000*%
%TD*%
%TA.AperFunction,Conductor*%
%ADD17C,0.300000*%
%TD*%
G04 APERTURE END LIST*
D10*
%TO.P,U8,1,1*%
%TO.N,/C14*%
X196839673Y-109876443D03*
X202468838Y-113126443D03*
%TO.P,U8,2,2*%
%TO.N,GND*%
X194589673Y-113773557D03*
X200218838Y-117023557D03*
%TD*%
%TO.P,U6,1,1*%
%TO.N,/C9*%
X201739673Y-100826443D03*
X207368838Y-104076443D03*
%TO.P,U6,2,2*%
%TO.N,GND*%
X199489672Y-104723558D03*
X205118839Y-107973558D03*
%TD*%
%TO.P,U2,1,1*%
%TO.N,/P1*%
X92611800Y-103599760D03*
X99111800Y-103599760D03*
%TO.P,U2,2,2*%
%TO.N,GND*%
X92611800Y-108099760D03*
X99111800Y-108099760D03*
%TD*%
%TO.P,U4,1,1*%
%TO.N,/P3*%
X100639400Y-111564760D03*
X107139400Y-111564760D03*
%TO.P,U4,2,2*%
%TO.N,GND*%
X100639400Y-116064760D03*
X107139400Y-116064760D03*
%TD*%
D11*
%TO.P,J2,1,Pin_1*%
%TO.N,GND*%
X146000000Y-110000000D03*
D12*
%TO.P,J2,2,Pin_2*%
%TO.N,+3.3V*%
X148540000Y-110000000D03*
%TO.P,J2,3,Pin_3*%
%TO.N,/SCL*%
X151080000Y-110000000D03*
%TO.P,J2,4,Pin_4*%
%TO.N,/SDA*%
X153620000Y-110000000D03*
%TD*%
D10*
%TO.P,U7,1,1*%
%TO.N,/C13*%
X186389673Y-103876443D03*
X192018838Y-107126443D03*
%TO.P,U7,2,2*%
%TO.N,GND*%
X184139673Y-107773557D03*
X189768838Y-111023557D03*
%TD*%
%TO.P,U3,1,1*%
%TO.N,/P2*%
X108615000Y-103538360D03*
X115115000Y-103538360D03*
%TO.P,U3,2,2*%
%TO.N,GND*%
X108615000Y-108038360D03*
X115115000Y-108038360D03*
%TD*%
%TO.P,U5,1,1*%
%TO.N,/C8*%
X191239673Y-94976443D03*
X196868838Y-98226443D03*
%TO.P,U5,2,2*%
%TO.N,GND*%
X188989673Y-98873557D03*
X194618838Y-102123557D03*
%TD*%
%TO.P,U1,1,1*%
%TO.N,/P0*%
X100623010Y-95815070D03*
X107123010Y-95815070D03*
%TO.P,U1,2,2*%
%TO.N,GND*%
X100623010Y-100315070D03*
X107123010Y-100315070D03*
%TD*%
D13*
%TO.P,R4,1*%
%TO.N,+3.3V*%
X142720951Y-113969293D03*
%TO.P,R4,2*%
%TO.N,/P0*%
X127480951Y-113969293D03*
%TD*%
%TO.P,R1,1*%
%TO.N,+3.3V*%
X142720951Y-119969293D03*
%TO.P,R1,2*%
%TO.N,/P1*%
X127480951Y-119969293D03*
%TD*%
%TO.P,R7,1*%
%TO.N,+3.3V*%
X157000000Y-114000000D03*
%TO.P,R7,2*%
%TO.N,/C14*%
X172240000Y-114000000D03*
%TD*%
%TO.P,R3,1*%
%TO.N,+3.3V*%
X142720951Y-122969293D03*
%TO.P,R3,2*%
%TO.N,/P3*%
X127480951Y-122969293D03*
%TD*%
%TO.P,R5,1*%
%TO.N,+3.3V*%
X157000000Y-120000000D03*
%TO.P,R5,2*%
%TO.N,/C13*%
X172240000Y-120000000D03*
%TD*%
%TO.P,R8,1*%
%TO.N,+3.3V*%
X157000000Y-123000000D03*
%TO.P,R8,2*%
%TO.N,/C9*%
X172240000Y-123000000D03*
%TD*%
%TO.P,R6,1*%
%TO.N,+3.3V*%
X157000000Y-117000000D03*
%TO.P,R6,2*%
%TO.N,/C8*%
X172240000Y-117000000D03*
%TD*%
%TO.P,R2,1*%
%TO.N,+3.3V*%
X142720951Y-116969293D03*
%TO.P,R2,2*%
%TO.N,/P2*%
X127480951Y-116969293D03*
%TD*%
D11*
%TO.P,J1,1,Pin_1*%
%TO.N,GND*%
X132540000Y-92500000D03*
D12*
%TO.P,J1,2,Pin_2*%
%TO.N,+3.3V*%
X132540000Y-95040000D03*
%TO.P,J1,3,Pin_3*%
%TO.N,/P0*%
X135080000Y-92500000D03*
%TO.P,J1,4,Pin_4*%
%TO.N,/P1*%
X135080000Y-95040000D03*
%TO.P,J1,5,Pin_5*%
%TO.N,/P2*%
X137620000Y-92500000D03*
%TO.P,J1,6,Pin_6*%
%TO.N,/P3*%
X137620000Y-95040000D03*
%TO.P,J1,7,Pin_7*%
%TO.N,/C4*%
X140160000Y-92500000D03*
%TO.P,J1,8,Pin_8*%
%TO.N,/C5*%
X140160000Y-95040000D03*
%TO.P,J1,9,Pin_9*%
%TO.N,/C6*%
X142700000Y-92500000D03*
%TO.P,J1,10,Pin_10*%
%TO.N,/C7*%
X142700000Y-95040000D03*
%TO.P,J1,11,Pin_11*%
%TO.N,/C8*%
X145240000Y-92500000D03*
%TO.P,J1,12,Pin_12*%
%TO.N,/C9*%
X145240000Y-95040000D03*
%TO.P,J1,13,Pin_13*%
%TO.N,/C10*%
X147780000Y-92500000D03*
%TO.P,J1,14,Pin_14*%
%TO.N,/C11*%
X147780000Y-95040000D03*
%TO.P,J1,15,Pin_15*%
%TO.N,/C12*%
X150320000Y-92500000D03*
%TO.P,J1,16,Pin_16*%
%TO.N,/C13*%
X150320000Y-95040000D03*
%TO.P,J1,17,Pin_17*%
%TO.N,/C14*%
X152860000Y-92500000D03*
%TO.P,J1,18,Pin_18*%
%TO.N,/C15*%
X152860000Y-95040000D03*
%TO.P,J1,19,Pin_19*%
%TO.N,/C16*%
X155400000Y-92500000D03*
%TO.P,J1,20,Pin_20*%
%TO.N,/C17*%
X155400000Y-95040000D03*
%TO.P,J1,21,Pin_21*%
%TO.N,/C18*%
X157940000Y-92500000D03*
%TO.P,J1,22,Pin_22*%
%TO.N,/SCL*%
X157940000Y-95040000D03*
%TO.P,J1,23,Pin_23*%
%TO.N,/SDA*%
X160480000Y-92500000D03*
%TO.P,J1,24,Pin_24*%
%TO.N,GND*%
X160480000Y-95040000D03*
%TO.P,J1,25,Pin_25*%
%TO.N,/M0+*%
X163020000Y-92500000D03*
%TO.P,J1,26,Pin_26*%
%TO.N,/M1+*%
X163020000Y-95040000D03*
%TO.P,J1,27,Pin_27*%
%TO.N,/M0-*%
X165560000Y-92500000D03*
%TO.P,J1,28,Pin_28*%
%TO.N,/M1-*%
X165560000Y-95040000D03*
%TO.P,J1,29,Pin_29*%
%TO.N,/VM+*%
X168100000Y-92500000D03*
%TO.P,J1,30,Pin_30*%
%TO.N,GND*%
X168100000Y-95040000D03*
%TD*%
D14*
%TO.N,GND*%
X154000000Y-104000000D03*
X149000000Y-101000000D03*
X121750000Y-110250000D03*
X133000000Y-120000000D03*
X167000000Y-116500000D03*
X196750000Y-106250000D03*
X104000000Y-107500000D03*
X117750000Y-109250000D03*
X134000000Y-102500000D03*
X141500000Y-97750000D03*
X165000000Y-98250000D03*
%TO.N,/C8*%
X182250000Y-99500000D03*
%TO.N,GND*%
X129500000Y-98750000D03*
X104500000Y-124000000D03*
X143750000Y-104500000D03*
X212250000Y-107750000D03*
X188250000Y-89750000D03*
X177500000Y-101750000D03*
X190000000Y-120000000D03*
X87000000Y-102750000D03*
X102500000Y-89000000D03*
X92750000Y-115000000D03*
X112250000Y-116750000D03*
X144750000Y-89000000D03*
%TO.N,/P0*%
X121000000Y-99750000D03*
%TO.N,/P3*%
X136500000Y-120500000D03*
%TO.N,/P1*%
X125750000Y-103250000D03*
%TO.N,/P2*%
X127000000Y-98000000D03*
%TD*%
D15*
%TO.N,/SCL*%
X153500000Y-100000000D02*
X152447822Y-101052178D01*
%TO.N,GND*%
X162500000Y-98000000D02*
G75*
G03*
X163103553Y-98250019I603600J603600D01*
G01*
X163103553Y-98250000D02*
X165000000Y-98250000D01*
X162000000Y-97500000D02*
X162500000Y-98000000D01*
X161144680Y-96644681D02*
X162000000Y-97500000D01*
X160480000Y-95040000D02*
G75*
G03*
X161144672Y-96644689I2269400J0D01*
G01*
%TO.N,/C13*%
X187310661Y-110439339D02*
X189636944Y-108113056D01*
X179250000Y-114250000D02*
X180055456Y-113444544D01*
X174390954Y-119109045D02*
X179250000Y-114250000D01*
X189636944Y-108113056D02*
G75*
G02*
X192018838Y-107126455I2381856J-2381844D01*
G01*
X180055456Y-113444544D02*
G75*
G02*
X184750000Y-111500004I4694544J-4694556D01*
G01*
X184750000Y-111500000D02*
G75*
G03*
X187310657Y-110439335I0J3621300D01*
G01*
X172240000Y-120000000D02*
G75*
G03*
X174390953Y-119109044I0J3041900D01*
G01*
%TO.N,/C8*%
X189281745Y-94976443D02*
X191239673Y-94976443D01*
X182171406Y-99578594D02*
X185000000Y-96750000D01*
X180250000Y-104250000D02*
X180250475Y-104216132D01*
X176098062Y-115401939D02*
X178500000Y-113000000D01*
X185000000Y-96750000D02*
G75*
G02*
X189281745Y-94976462I4281700J-4281700D01*
G01*
X180250000Y-108775126D02*
X180250000Y-104250000D01*
X180250475Y-104216132D02*
G75*
G02*
X182171399Y-99578587I6558425J32D01*
G01*
X178500000Y-113000000D02*
G75*
G03*
X180250011Y-108775126I-4224900J4224900D01*
G01*
X172240000Y-117000000D02*
G75*
G03*
X176098057Y-115401934I0J5456100D01*
G01*
%TO.N,/SDA*%
X159229000Y-97745530D02*
X159229000Y-96750000D01*
X159241735Y-97758265D02*
X159229000Y-97745530D01*
X155472620Y-105527380D02*
X156750000Y-104250000D01*
X159241735Y-98206201D02*
X159241735Y-97758265D01*
X153620000Y-110000000D02*
G75*
G02*
X155472628Y-105527388I6325200J0D01*
G01*
X156750000Y-104250000D02*
G75*
G03*
X159249986Y-98214466I-6035500J6035500D01*
G01*
X159250000Y-98214466D02*
X159241735Y-98206201D01*
%TO.N,/SCL*%
X157940000Y-97801469D02*
X157940000Y-95040000D01*
X157757192Y-98242807D02*
G75*
G03*
X157939992Y-97801469I-441292J441307D01*
G01*
D16*
%TO.N,/SDA*%
X159229000Y-97729000D02*
X159250000Y-97750000D01*
D17*
X159229000Y-93751000D02*
X159229000Y-97729000D01*
D16*
X160480000Y-92500000D02*
X159229000Y-93751000D01*
D15*
%TO.N,/SCL*%
X156533868Y-98749525D02*
G75*
G03*
X157757205Y-98242820I32J1730025D01*
G01*
X153512563Y-99987437D02*
G75*
G02*
X156500000Y-98750008I2987437J-2987463D01*
G01*
X153500000Y-100000000D02*
X153512563Y-99987437D01*
X156500000Y-98750000D02*
X156533868Y-98749525D01*
X151080000Y-104354393D02*
G75*
G02*
X152447833Y-101052189I4670000J-7D01*
G01*
X151080000Y-110000000D02*
X151080000Y-104354393D01*
%TO.N,/P1*%
X132687210Y-117812790D02*
X135750000Y-114750000D01*
X136250000Y-101993952D02*
G75*
G03*
X135079970Y-99169352I-3994600J-48D01*
G01*
X135750000Y-114750000D02*
G75*
G03*
X136249997Y-113542893I-1207100J1207100D01*
G01*
X136250000Y-113542893D02*
X136250000Y-101993952D01*
X127480951Y-119969293D02*
G75*
G03*
X132687241Y-117812821I49J7362793D01*
G01*
%TO.N,/P2*%
X124473612Y-115723613D02*
X121250000Y-112500000D01*
X119500000Y-108275126D02*
X119500000Y-107000000D01*
X119500000Y-107000000D02*
G75*
G03*
X118439336Y-104439344I-3621300J0D01*
G01*
X117538360Y-103538360D02*
X115115000Y-103538360D01*
X121250000Y-112500000D02*
G75*
G02*
X119499989Y-108275126I4224900J4224900D01*
G01*
X118439340Y-104439340D02*
X117538360Y-103538360D01*
X127480951Y-116969293D02*
G75*
G02*
X124473642Y-115723583I49J4252993D01*
G01*
%TO.N,/P0*%
X121000000Y-99750000D02*
X121000000Y-99603553D01*
X126471834Y-112960176D02*
G75*
G02*
X120999997Y-99750000I13210166J13210176D01*
G01*
X127480951Y-113969293D02*
X126471834Y-112960176D01*
%TO.N,/P1*%
X135080000Y-99169322D02*
X135080000Y-95040000D01*
X134428554Y-99820768D02*
X135080000Y-99169322D01*
X129750000Y-101250000D02*
X130878680Y-101250000D01*
X130878680Y-101250000D02*
G75*
G03*
X134428549Y-99820762I-680J5124800D01*
G01*
X125750000Y-103250000D02*
X126335786Y-102664214D01*
X126335786Y-102664214D02*
G75*
G02*
X129750000Y-101249992I3414214J-3414186D01*
G01*
%TO.N,/P3*%
X137620000Y-117796081D02*
X137620000Y-95040000D01*
X136500000Y-120500000D02*
G75*
G03*
X137619992Y-117796081I-2703900J2703900D01*
G01*
%TO.N,/P2*%
X137620000Y-91434007D02*
X137620000Y-92500000D01*
X137000000Y-90000000D02*
X137044884Y-90045554D01*
X136707107Y-89707107D02*
X137000000Y-90000000D01*
X130414214Y-89000000D02*
X135000000Y-89000000D01*
X127000000Y-98000000D02*
X127000000Y-92414214D01*
X137044884Y-90045554D02*
G75*
G02*
X137619986Y-91434007I-1388484J-1388446D01*
G01*
X135000000Y-89000000D02*
G75*
G02*
X136707104Y-89707110I0J-2414200D01*
G01*
X128000000Y-90000000D02*
G75*
G02*
X130414214Y-89000006I2414200J-2414200D01*
G01*
X127000000Y-92414214D02*
G75*
G02*
X127999996Y-89999996I3414200J14D01*
G01*
%TD*%
%TA.AperFunction,Conductor*%
%TO.N,GND*%
G36*
X158186907Y-99175520D02*
G01*
X158243445Y-99227981D01*
X158266179Y-99301682D01*
X158264293Y-99331524D01*
X158203594Y-99699176D01*
X158201692Y-99708739D01*
X158090455Y-100185820D01*
X158087931Y-100195238D01*
X157945733Y-100664004D01*
X157942599Y-100673237D01*
X157770045Y-101131706D01*
X157766314Y-101140714D01*
X157564139Y-101586925D01*
X157559826Y-101595670D01*
X157328909Y-102027687D01*
X157324034Y-102036131D01*
X157065350Y-102452130D01*
X157059933Y-102460237D01*
X156774598Y-102858421D01*
X156768663Y-102866156D01*
X156457894Y-103244831D01*
X156451464Y-103252163D01*
X156115223Y-103611162D01*
X156111833Y-103614665D01*
X154768395Y-104958105D01*
X154768260Y-104958253D01*
X154668628Y-105057885D01*
X154356680Y-105413591D01*
X154068688Y-105788905D01*
X153805847Y-106182273D01*
X153805840Y-106182285D01*
X153569304Y-106591972D01*
X153569303Y-106591973D01*
X153360054Y-107016286D01*
X153360048Y-107016298D01*
X153179008Y-107453363D01*
X153081431Y-107740815D01*
X153026935Y-107901355D01*
X152969517Y-108115641D01*
X152908346Y-108343934D01*
X152904489Y-108358327D01*
X152864266Y-108560541D01*
X152830159Y-108732005D01*
X152796046Y-108801179D01*
X152771603Y-108823479D01*
X152675066Y-108893618D01*
X152675060Y-108893623D01*
X152513624Y-109055060D01*
X152513618Y-109055066D01*
X152489581Y-109088151D01*
X152479391Y-109102177D01*
X152470543Y-109114355D01*
X152410603Y-109162893D01*
X152334424Y-109174958D01*
X152262419Y-109147317D01*
X152229457Y-109114355D01*
X152220609Y-109102177D01*
X152186379Y-109055063D01*
X152024937Y-108893621D01*
X152024936Y-108893620D01*
X152024141Y-108892825D01*
X151985577Y-108826030D01*
X151980500Y-108787466D01*
X151980500Y-104357639D01*
X151980642Y-104351139D01*
X151982078Y-104318242D01*
X151994561Y-104032350D01*
X151995694Y-104019409D01*
X152000353Y-103984022D01*
X152036921Y-103706262D01*
X152039172Y-103693490D01*
X152107542Y-103385101D01*
X152110893Y-103372594D01*
X152205882Y-103071332D01*
X152210321Y-103059137D01*
X152331201Y-102767308D01*
X152336673Y-102755575D01*
X152482533Y-102475383D01*
X152489006Y-102464171D01*
X152658730Y-102197761D01*
X152666171Y-102187135D01*
X152858447Y-101936559D01*
X152866800Y-101926605D01*
X152995780Y-101785849D01*
X153082648Y-101691050D01*
X153087104Y-101686394D01*
X154074033Y-100699465D01*
X154074036Y-100699464D01*
X154146757Y-100626741D01*
X154151989Y-100621761D01*
X154385625Y-100410007D01*
X154396905Y-100400750D01*
X154647198Y-100215121D01*
X154659347Y-100207004D01*
X154926628Y-100046803D01*
X154939510Y-100039917D01*
X155221215Y-99906682D01*
X155234695Y-99901098D01*
X155528113Y-99796112D01*
X155542064Y-99791880D01*
X155844353Y-99716162D01*
X155858689Y-99713310D01*
X156166910Y-99667590D01*
X156181456Y-99666158D01*
X156495089Y-99650749D01*
X156500322Y-99650583D01*
X156503184Y-99650543D01*
X156505325Y-99650514D01*
X156507387Y-99650500D01*
X156590989Y-99650500D01*
X156601013Y-99650007D01*
X156681580Y-99650009D01*
X156975179Y-99616933D01*
X157263229Y-99551192D01*
X157263231Y-99551191D01*
X157263236Y-99551190D01*
X157542097Y-99453617D01*
X157542099Y-99453616D01*
X157542100Y-99453615D01*
X157542107Y-99453613D01*
X157808306Y-99325422D01*
X158038014Y-99181090D01*
X158111712Y-99158357D01*
X158186907Y-99175520D01*
G37*
%TD.AperFunction*%
%TA.AperFunction,Conductor*%
G36*
X166917580Y-93352681D02*
G01*
X166950538Y-93385639D01*
X166993621Y-93444937D01*
X167155063Y-93606379D01*
X167299844Y-93711569D01*
X167348382Y-93771509D01*
X167360447Y-93847688D01*
X167340193Y-93900448D01*
X167338282Y-93924729D01*
X167970590Y-94557037D01*
X167907007Y-94574075D01*
X167792993Y-94639901D01*
X167699901Y-94732993D01*
X167634075Y-94847007D01*
X167617037Y-94910590D01*
X166984729Y-94278282D01*
X166963080Y-94279986D01*
X166952711Y-94288383D01*
X166876532Y-94300446D01*
X166804528Y-94272804D01*
X166771569Y-94239844D01*
X166759144Y-94222743D01*
X166666379Y-94095063D01*
X166504937Y-93933621D01*
X166445642Y-93890540D01*
X166397107Y-93830604D01*
X166385041Y-93754425D01*
X166412681Y-93682420D01*
X166445639Y-93649461D01*
X166504937Y-93606379D01*
X166666379Y-93444937D01*
X166709459Y-93385642D01*
X166769396Y-93337107D01*
X166845575Y-93325041D01*
X166917580Y-93352681D01*
G37*
%TD.AperFunction*%
%TA.AperFunction,Conductor*%
G36*
X161837580Y-93352681D02*
G01*
X161870538Y-93385639D01*
X161913621Y-93444937D01*
X162075063Y-93606379D01*
X162134355Y-93649458D01*
X162182893Y-93709397D01*
X162194958Y-93785576D01*
X162167317Y-93857581D01*
X162134356Y-93890541D01*
X162117092Y-93903085D01*
X162075066Y-93933618D01*
X161913618Y-94095066D01*
X161808430Y-94239845D01*
X161748490Y-94288383D01*
X161672311Y-94300448D01*
X161619544Y-94280192D01*
X161595270Y-94278282D01*
X160962962Y-94910589D01*
X160945925Y-94847007D01*
X160880099Y-94732993D01*
X160787007Y-94639901D01*
X160672993Y-94574075D01*
X160609408Y-94557037D01*
X161241716Y-93924729D01*
X161240012Y-93903085D01*
X161231616Y-93892716D01*
X161219551Y-93816537D01*
X161247192Y-93744532D01*
X161280155Y-93711570D01*
X161424937Y-93606379D01*
X161586379Y-93444937D01*
X161629459Y-93385642D01*
X161689396Y-93337107D01*
X161765575Y-93325041D01*
X161837580Y-93352681D01*
G37*
%TD.AperFunction*%
%TA.AperFunction,Conductor*%
G36*
X196001626Y-86000535D02*
G01*
X196881368Y-86020002D01*
X196887933Y-86020293D01*
X197764309Y-86078546D01*
X197770807Y-86079122D01*
X198643758Y-86176083D01*
X198650223Y-86176946D01*
X199518059Y-86312430D01*
X199524487Y-86313580D01*
X200385446Y-86487312D01*
X200391867Y-86488757D01*
X201244261Y-86700392D01*
X201250560Y-86702104D01*
X202092845Y-86951263D01*
X202099069Y-86953256D01*
X202929454Y-87239408D01*
X202935574Y-87241670D01*
X203752494Y-87564276D01*
X203758552Y-87566824D01*
X204560396Y-87925245D01*
X204566315Y-87928050D01*
X205098864Y-88194960D01*
X205351511Y-88321585D01*
X205357304Y-88324650D01*
X206124384Y-88752566D01*
X206129994Y-88755861D01*
X206877318Y-89217240D01*
X206882844Y-89220822D01*
X207288040Y-89496455D01*
X207609052Y-89714822D01*
X207614415Y-89718647D01*
X207703331Y-89785069D01*
X208318021Y-90244257D01*
X208323214Y-90248318D01*
X208765990Y-90610671D01*
X208997618Y-90800228D01*
X209002901Y-90804551D01*
X209007906Y-90808835D01*
X209050472Y-90846935D01*
X209662310Y-91394578D01*
X209667124Y-91399082D01*
X209874763Y-91602177D01*
X210295004Y-92013222D01*
X210299587Y-92017908D01*
X210592972Y-92331441D01*
X210899690Y-92659223D01*
X210904086Y-92664135D01*
X211475210Y-93331340D01*
X211479385Y-93336442D01*
X212020427Y-94028242D01*
X212024373Y-94033523D01*
X212534307Y-94748610D01*
X212538015Y-94754061D01*
X213015809Y-95490989D01*
X213019272Y-95496598D01*
X213464016Y-96253962D01*
X213467227Y-96259720D01*
X213878008Y-97035965D01*
X213880962Y-97041858D01*
X214257018Y-97835542D01*
X214259709Y-97841561D01*
X214600295Y-98651116D01*
X214602716Y-98657247D01*
X214907154Y-99481056D01*
X214909302Y-99487289D01*
X215177003Y-100323768D01*
X215178873Y-100330090D01*
X215409314Y-101177595D01*
X215410902Y-101183993D01*
X215603626Y-102040842D01*
X215604930Y-102047304D01*
X215759564Y-102911848D01*
X215760581Y-102918361D01*
X215876823Y-103788901D01*
X215877551Y-103795453D01*
X215955174Y-104670295D01*
X215955611Y-104676873D01*
X215994460Y-105554271D01*
X215994606Y-105560862D01*
X215994606Y-106439137D01*
X215994460Y-106445728D01*
X215955611Y-107323126D01*
X215955174Y-107329704D01*
X215877551Y-108204546D01*
X215876823Y-108211098D01*
X215760581Y-109081638D01*
X215759564Y-109088151D01*
X215604930Y-109952695D01*
X215603626Y-109959157D01*
X215410902Y-110816006D01*
X215409314Y-110822404D01*
X215178873Y-111669909D01*
X215177003Y-111676231D01*
X214909302Y-112512710D01*
X214907154Y-112518943D01*
X214602716Y-113342752D01*
X214600295Y-113348883D01*
X214259709Y-114158438D01*
X214257018Y-114164457D01*
X213880962Y-114958141D01*
X213878008Y-114964034D01*
X213467227Y-115740279D01*
X213464016Y-115746037D01*
X213019272Y-116503401D01*
X213015809Y-116509010D01*
X212538015Y-117245938D01*
X212534307Y-117251389D01*
X212024373Y-117966476D01*
X212020427Y-117971757D01*
X211479385Y-118663557D01*
X211475210Y-118668659D01*
X210904086Y-119335864D01*
X210899690Y-119340776D01*
X210299600Y-119982078D01*
X210294990Y-119986791D01*
X209667124Y-120600917D01*
X209662310Y-120605421D01*
X209007909Y-121191161D01*
X209002901Y-121195448D01*
X208323214Y-121751681D01*
X208318021Y-121755742D01*
X207614419Y-122281349D01*
X207609052Y-122285177D01*
X206882850Y-122779173D01*
X206877318Y-122782759D01*
X206130014Y-123244126D01*
X206124351Y-123247452D01*
X205408195Y-123646960D01*
X205357338Y-123675331D01*
X205351511Y-123678414D01*
X204566334Y-124071940D01*
X204560376Y-124074763D01*
X203758561Y-124433171D01*
X203752485Y-124435727D01*
X202935606Y-124758317D01*
X202929422Y-124760602D01*
X202099096Y-125046734D01*
X202092818Y-125048744D01*
X201250591Y-125297886D01*
X201244229Y-125299615D01*
X200391867Y-125511242D01*
X200385436Y-125512689D01*
X199524522Y-125686412D01*
X199518032Y-125687573D01*
X198650257Y-125823048D01*
X198643723Y-125823920D01*
X197770842Y-125920873D01*
X197764275Y-125921456D01*
X196887943Y-125979705D01*
X196881357Y-125979997D01*
X196001627Y-125999464D01*
X195998331Y-125999500D01*
X104001669Y-125999500D01*
X103998373Y-125999464D01*
X103118642Y-125979997D01*
X103112056Y-125979705D01*
X102235724Y-125921456D01*
X102229157Y-125920873D01*
X101356276Y-125823920D01*
X101349742Y-125823048D01*
X100481967Y-125687573D01*
X100475477Y-125686412D01*
X99614563Y-125512689D01*
X99608132Y-125511242D01*
X98755770Y-125299615D01*
X98749408Y-125297886D01*
X97907181Y-125048744D01*
X97900903Y-125046734D01*
X97070577Y-124760602D01*
X97064400Y-124758319D01*
X96772872Y-124643194D01*
X96247514Y-124435727D01*
X96241438Y-124433171D01*
X95439623Y-124074763D01*
X95433665Y-124071940D01*
X94648488Y-123678414D01*
X94642678Y-123675340D01*
X93875629Y-123247441D01*
X93869985Y-123244126D01*
X93122681Y-122782759D01*
X93117149Y-122779173D01*
X92390947Y-122285177D01*
X92385580Y-122281349D01*
X91681978Y-121755742D01*
X91676785Y-121751681D01*
X90997098Y-121195448D01*
X90992090Y-121191161D01*
X90337689Y-120605421D01*
X90332875Y-120600917D01*
X89866386Y-120144636D01*
X89704995Y-119986777D01*
X89700413Y-119982092D01*
X89100309Y-119340776D01*
X89095913Y-119335864D01*
X88783358Y-118970727D01*
X88704588Y-118878706D01*
X118149500Y-118878706D01*
X118149500Y-119121293D01*
X118181160Y-119361781D01*
X118243947Y-119596103D01*
X118275405Y-119672049D01*
X118336776Y-119820212D01*
X118458064Y-120030289D01*
X118605735Y-120222738D01*
X118777262Y-120394265D01*
X118969711Y-120541936D01*
X119179788Y-120663224D01*
X119403900Y-120756054D01*
X119638211Y-120818838D01*
X119638217Y-120818838D01*
X119638218Y-120818839D01*
X119703600Y-120827446D01*
X119878712Y-120850500D01*
X120121288Y-120850500D01*
X120361789Y-120818838D01*
X120596100Y-120756054D01*
X120820212Y-120663224D01*
X121030289Y-120541936D01*
X121222738Y-120394265D01*
X121394265Y-120222738D01*
X121541936Y-120030289D01*
X121663224Y-119820212D01*
X121756054Y-119596100D01*
X121818838Y-119361789D01*
X121850500Y-119121288D01*
X121850500Y-118878712D01*
X121823207Y-118671398D01*
X121818839Y-118638218D01*
X121818838Y-118638217D01*
X121818838Y-118638211D01*
X121756054Y-118403900D01*
X121663224Y-118179788D01*
X121541936Y-117969711D01*
X121394265Y-117777262D01*
X121222738Y-117605735D01*
X121030289Y-117458064D01*
X120960263Y-117417634D01*
X120820216Y-117336778D01*
X120820214Y-117336777D01*
X120820212Y-117336776D01*
X120688932Y-117282398D01*
X120596103Y-117243947D01*
X120596101Y-117243946D01*
X120596100Y-117243946D01*
X120361789Y-117181162D01*
X120361787Y-117181161D01*
X120361781Y-117181160D01*
X120121293Y-117149500D01*
X120121288Y-117149500D01*
X119878712Y-117149500D01*
X119878706Y-117149500D01*
X119638218Y-117181160D01*
X119403896Y-117243947D01*
X119179783Y-117336778D01*
X118969712Y-117458063D01*
X118906068Y-117506899D01*
X118777262Y-117605735D01*
X118777260Y-117605736D01*
X118777256Y-117605740D01*
X118605740Y-117777256D01*
X118605736Y-117777260D01*
X118605735Y-117777262D01*
X118573304Y-117819527D01*
X118458063Y-117969712D01*
X118336778Y-118179783D01*
X118243947Y-118403896D01*
X118181160Y-118638218D01*
X118149500Y-118878706D01*
X88704588Y-118878706D01*
X88524789Y-118668659D01*
X88520614Y-118663557D01*
X88332675Y-118423250D01*
X87979567Y-117971750D01*
X87975626Y-117966476D01*
X87915142Y-117881659D01*
X87465692Y-117251389D01*
X87461984Y-117245938D01*
X86984190Y-116509010D01*
X86980727Y-116503401D01*
X86736577Y-116087633D01*
X86653823Y-115946710D01*
X99139400Y-115946710D01*
X99139400Y-116182809D01*
X99176334Y-116416010D01*
X99249294Y-116640553D01*
X99249298Y-116640565D01*
X99356486Y-116850931D01*
X99356490Y-116850938D01*
X99416740Y-116933865D01*
X100115612Y-116234993D01*
X100126882Y-116277052D01*
X100199290Y-116402468D01*
X100301692Y-116504870D01*
X100427108Y-116577278D01*
X100469165Y-116588547D01*
X99770293Y-117287418D01*
X99853228Y-117347673D01*
X100063594Y-117454861D01*
X100063606Y-117454865D01*
X100288149Y-117527825D01*
X100521351Y-117564760D01*
X100757449Y-117564760D01*
X100990650Y-117527825D01*
X101215193Y-117454865D01*
X101215210Y-117454858D01*
X101425567Y-117347676D01*
X101425572Y-117347673D01*
X101508505Y-117287419D01*
X101508505Y-117287418D01*
X100809634Y-116588547D01*
X100851692Y-116577278D01*
X100977108Y-116504870D01*
X101079510Y-116402468D01*
X101151918Y-116277052D01*
X101163187Y-116234994D01*
X101862058Y-116933865D01*
X101862059Y-116933865D01*
X101922313Y-116850932D01*
X101922316Y-116850927D01*
X102029498Y-116640570D01*
X102029505Y-116640553D01*
X102102465Y-116416010D01*
X102139400Y-116182809D01*
X102139400Y-115946710D01*
X105639400Y-115946710D01*
X105639400Y-116182809D01*
X105676334Y-116416010D01*
X105749294Y-116640553D01*
X105749298Y-116640565D01*
X105856486Y-116850931D01*
X105856490Y-116850938D01*
X105916740Y-116933865D01*
X106615612Y-116234993D01*
X106626882Y-116277052D01*
X106699290Y-116402468D01*
X106801692Y-116504870D01*
X106927108Y-116577278D01*
X106969165Y-116588547D01*
X106270293Y-117287418D01*
X106353228Y-117347673D01*
X106563594Y-117454861D01*
X106563606Y-117454865D01*
X106788149Y-117527825D01*
X107021351Y-117564760D01*
X107257449Y-117564760D01*
X107490650Y-117527825D01*
X107715193Y-117454865D01*
X107715210Y-117454858D01*
X107925567Y-117347676D01*
X107925572Y-117347673D01*
X108008505Y-117287419D01*
X108008505Y-117287418D01*
X107309634Y-116588547D01*
X107351692Y-116577278D01*
X107477108Y-116504870D01*
X107579510Y-116402468D01*
X107651918Y-116277052D01*
X107663187Y-116234994D01*
X108362058Y-116933865D01*
X108362059Y-116933865D01*
X108422313Y-116850932D01*
X108422316Y-116850927D01*
X108529498Y-116640570D01*
X108529505Y-116640553D01*
X108602465Y-116416010D01*
X108639400Y-116182809D01*
X108639400Y-115946710D01*
X108602465Y-115713509D01*
X108529505Y-115488966D01*
X108529501Y-115488954D01*
X108422313Y-115278588D01*
X108422313Y-115278587D01*
X108362058Y-115195653D01*
X107663187Y-115894524D01*
X107651918Y-115852468D01*
X107579510Y-115727052D01*
X107477108Y-115624650D01*
X107351692Y-115552242D01*
X107309633Y-115540972D01*
X108008505Y-114842100D01*
X108008505Y-114842099D01*
X107925578Y-114781850D01*
X107925571Y-114781846D01*
X107715205Y-114674658D01*
X107715193Y-114674654D01*
X107490650Y-114601694D01*
X107257449Y-114564760D01*
X107021351Y-114564760D01*
X106788149Y-114601694D01*
X106563606Y-114674654D01*
X106563594Y-114674658D01*
X106353228Y-114781846D01*
X106353223Y-114781849D01*
X106270293Y-114842099D01*
X106969166Y-115540972D01*
X106927108Y-115552242D01*
X106801692Y-115624650D01*
X106699290Y-115727052D01*
X106626882Y-115852468D01*
X106615612Y-115894526D01*
X105916739Y-115195653D01*
X105856489Y-115278583D01*
X105856486Y-115278588D01*
X105749298Y-115488954D01*
X105749294Y-115488966D01*
X105676334Y-115713509D01*
X105639400Y-115946710D01*
X102139400Y-115946710D01*
X102102465Y-115713509D01*
X102029505Y-115488966D01*
X102029501Y-115488954D01*
X101922313Y-115278588D01*
X101922313Y-115278587D01*
X101862058Y-115195653D01*
X101163187Y-115894524D01*
X101151918Y-115852468D01*
X101079510Y-115727052D01*
X100977108Y-115624650D01*
X100851692Y-115552242D01*
X100809633Y-115540972D01*
X101508505Y-114842100D01*
X101508505Y-114842099D01*
X101425578Y-114781850D01*
X101425571Y-114781846D01*
X101215205Y-114674658D01*
X101215193Y-114674654D01*
X100990650Y-114601694D01*
X100757449Y-114564760D01*
X100521351Y-114564760D01*
X100288149Y-114601694D01*
X100063606Y-114674654D01*
X100063594Y-114674658D01*
X99853228Y-114781846D01*
X99853223Y-114781849D01*
X99770293Y-114842099D01*
X100469166Y-115540972D01*
X100427108Y-115552242D01*
X100301692Y-115624650D01*
X100199290Y-115727052D01*
X100126882Y-115852468D01*
X100115612Y-115894526D01*
X99416739Y-115195653D01*
X99356489Y-115278583D01*
X99356486Y-115278588D01*
X99249298Y-115488954D01*
X99249294Y-115488966D01*
X99176334Y-115713509D01*
X99139400Y-115946710D01*
X86653823Y-115946710D01*
X86535976Y-115746026D01*
X86532772Y-115740279D01*
X86121976Y-114964005D01*
X86119037Y-114958141D01*
X86097348Y-114912366D01*
X85742977Y-114164448D01*
X85740290Y-114158438D01*
X85720003Y-114110218D01*
X85463797Y-113501228D01*
X85399704Y-113348883D01*
X85397283Y-113342752D01*
X85279311Y-113023519D01*
X85092839Y-112518927D01*
X85090697Y-112512710D01*
X85090492Y-112512070D01*
X84822996Y-111676231D01*
X84821126Y-111669909D01*
X84767324Y-111472038D01*
X84758286Y-111438798D01*
X99038900Y-111438798D01*
X99038900Y-111690722D01*
X99078310Y-111939545D01*
X99156159Y-112179139D01*
X99269009Y-112400620D01*
X99270531Y-112403606D01*
X99270531Y-112403607D01*
X99281629Y-112418882D01*
X99418607Y-112607416D01*
X99596744Y-112785553D01*
X99800555Y-112933630D01*
X100025021Y-113048001D01*
X100264615Y-113125850D01*
X100513438Y-113165260D01*
X100513443Y-113165260D01*
X100765357Y-113165260D01*
X100765362Y-113165260D01*
X101014185Y-113125850D01*
X101253779Y-113048001D01*
X101478245Y-112933630D01*
X101682056Y-112785553D01*
X101860193Y-112607416D01*
X102008270Y-112403605D01*
X102122641Y-112179139D01*
X102200490Y-111939545D01*
X102239900Y-111690722D01*
X102239900Y-111438798D01*
X105538900Y-111438798D01*
X105538900Y-111690722D01*
X105578310Y-111939545D01*
X105656159Y-112179139D01*
X105769009Y-112400620D01*
X105770531Y-112403606D01*
X105770531Y-112403607D01*
X105781629Y-112418882D01*
X105918607Y-112607416D01*
X106096744Y-112785553D01*
X106300555Y-112933630D01*
X106525021Y-113048001D01*
X106764615Y-113125850D01*
X107013438Y-113165260D01*
X107013443Y-113165260D01*
X107265357Y-113165260D01*
X107265362Y-113165260D01*
X107514185Y-113125850D01*
X107753779Y-113048001D01*
X107978245Y-112933630D01*
X108182056Y-112785553D01*
X108360193Y-112607416D01*
X108508270Y-112403605D01*
X108622641Y-112179139D01*
X108700490Y-111939545D01*
X108739900Y-111690722D01*
X108739900Y-111438798D01*
X108700490Y-111189975D01*
X108622641Y-110950381D01*
X108508270Y-110725915D01*
X108360193Y-110522104D01*
X108182056Y-110343967D01*
X107978245Y-110195890D01*
X107753779Y-110081519D01*
X107514185Y-110003670D01*
X107265362Y-109964260D01*
X107013438Y-109964260D01*
X106809013Y-109996638D01*
X106764614Y-110003670D01*
X106573319Y-110065826D01*
X106525021Y-110081519D01*
X106525015Y-110081521D01*
X106525015Y-110081522D01*
X106300553Y-110195891D01*
X106300552Y-110195891D01*
X106096745Y-110343966D01*
X106096742Y-110343968D01*
X105918608Y-110522102D01*
X105918606Y-110522105D01*
X105770531Y-110725912D01*
X105770531Y-110725913D01*
X105656162Y-110950375D01*
X105656157Y-110950387D01*
X105581638Y-111179734D01*
X105578310Y-111189975D01*
X105538900Y-111438798D01*
X102239900Y-111438798D01*
X102200490Y-111189975D01*
X102122641Y-110950381D01*
X102008270Y-110725915D01*
X101860193Y-110522104D01*
X101682056Y-110343967D01*
X101478245Y-110195890D01*
X101253779Y-110081519D01*
X101014185Y-110003670D01*
X100765362Y-109964260D01*
X100513438Y-109964260D01*
X100309013Y-109996638D01*
X100264614Y-110003670D01*
X100073319Y-110065826D01*
X100025021Y-110081519D01*
X100025015Y-110081521D01*
X100025015Y-110081522D01*
X99800553Y-110195891D01*
X99800552Y-110195891D01*
X99596745Y-110343966D01*
X99596742Y-110343968D01*
X99418608Y-110522102D01*
X99418606Y-110522105D01*
X99270531Y-110725912D01*
X99270531Y-110725913D01*
X99156162Y-110950375D01*
X99156157Y-110950387D01*
X99081638Y-111179734D01*
X99078310Y-111189975D01*
X99038900Y-111438798D01*
X84758286Y-111438798D01*
X84590685Y-110822404D01*
X84589097Y-110816006D01*
X84540400Y-110599500D01*
X84396368Y-109959132D01*
X84395074Y-109952720D01*
X84240434Y-109088145D01*
X84239418Y-109081638D01*
X84238487Y-109074669D01*
X84123175Y-108211096D01*
X84122448Y-108204546D01*
X84114560Y-108115641D01*
X84102677Y-107981710D01*
X91111800Y-107981710D01*
X91111800Y-108217809D01*
X91148734Y-108451010D01*
X91221694Y-108675553D01*
X91221698Y-108675565D01*
X91328886Y-108885931D01*
X91328890Y-108885938D01*
X91389140Y-108968865D01*
X92088012Y-108269993D01*
X92099282Y-108312052D01*
X92171690Y-108437468D01*
X92274092Y-108539870D01*
X92399508Y-108612278D01*
X92441565Y-108623547D01*
X91742693Y-109322418D01*
X91825628Y-109382673D01*
X92035994Y-109489861D01*
X92036006Y-109489865D01*
X92260549Y-109562825D01*
X92493751Y-109599760D01*
X92729849Y-109599760D01*
X92963050Y-109562825D01*
X93187593Y-109489865D01*
X93187610Y-109489858D01*
X93397967Y-109382676D01*
X93397972Y-109382673D01*
X93480905Y-109322419D01*
X93480905Y-109322418D01*
X92782034Y-108623547D01*
X92824092Y-108612278D01*
X92949508Y-108539870D01*
X93051910Y-108437468D01*
X93124318Y-108312052D01*
X93135587Y-108269994D01*
X93834458Y-108968865D01*
X93834459Y-108968865D01*
X93894713Y-108885932D01*
X93894716Y-108885927D01*
X94001898Y-108675570D01*
X94001905Y-108675553D01*
X94074865Y-108451010D01*
X94111800Y-108217809D01*
X94111800Y-107981710D01*
X97611800Y-107981710D01*
X97611800Y-108217809D01*
X97648734Y-108451010D01*
X97721694Y-108675553D01*
X97721698Y-108675565D01*
X97828886Y-108885931D01*
X97828890Y-108885938D01*
X97889140Y-108968865D01*
X98588012Y-108269993D01*
X98599282Y-108312052D01*
X98671690Y-108437468D01*
X98774092Y-108539870D01*
X98899508Y-108612278D01*
X98941565Y-108623547D01*
X98242693Y-109322418D01*
X98325628Y-109382673D01*
X98535994Y-109489861D01*
X98536006Y-109489865D01*
X98760549Y-109562825D01*
X98993751Y-109599760D01*
X99229849Y-109599760D01*
X99463050Y-109562825D01*
X99687593Y-109489865D01*
X99687610Y-109489858D01*
X99897967Y-109382676D01*
X99897972Y-109382673D01*
X99980905Y-109322419D01*
X99980905Y-109322418D01*
X99282034Y-108623547D01*
X99324092Y-108612278D01*
X99449508Y-108539870D01*
X99551910Y-108437468D01*
X99624318Y-108312052D01*
X99635587Y-108269994D01*
X100334458Y-108968865D01*
X100334459Y-108968865D01*
X100394713Y-108885932D01*
X100394716Y-108885927D01*
X100501898Y-108675570D01*
X100501905Y-108675553D01*
X100574865Y-108451010D01*
X100611800Y-108217809D01*
X100611800Y-107981711D01*
X100604839Y-107937762D01*
X100604839Y-107937761D01*
X100602075Y-107920310D01*
X107115000Y-107920310D01*
X107115000Y-108156409D01*
X107151934Y-108389610D01*
X107224894Y-108614153D01*
X107224898Y-108614165D01*
X107332086Y-108824531D01*
X107332090Y-108824538D01*
X107392340Y-108907465D01*
X108091212Y-108208593D01*
X108102482Y-108250652D01*
X108174890Y-108376068D01*
X108277292Y-108478470D01*
X108402708Y-108550878D01*
X108444765Y-108562147D01*
X107745893Y-109261018D01*
X107828828Y-109321273D01*
X108039194Y-109428461D01*
X108039206Y-109428465D01*
X108263749Y-109501425D01*
X108496951Y-109538360D01*
X108733049Y-109538360D01*
X108966250Y-109501425D01*
X109190793Y-109428465D01*
X109190810Y-109428458D01*
X109401167Y-109321276D01*
X109401172Y-109321273D01*
X109484105Y-109261019D01*
X109484105Y-109261018D01*
X108785234Y-108562147D01*
X108827292Y-108550878D01*
X108952708Y-108478470D01*
X109055110Y-108376068D01*
X109127518Y-108250652D01*
X109138787Y-108208594D01*
X109837658Y-108907465D01*
X109837659Y-108907465D01*
X109897913Y-108824532D01*
X109897916Y-108824527D01*
X110005098Y-108614170D01*
X110005105Y-108614153D01*
X110078065Y-108389610D01*
X110115000Y-108156409D01*
X110115000Y-107920310D01*
X113615000Y-107920310D01*
X113615000Y-108156409D01*
X113651934Y-108389610D01*
X113724894Y-108614153D01*
X113724898Y-108614165D01*
X113832086Y-108824531D01*
X113832090Y-108824538D01*
X113892340Y-108907465D01*
X114591212Y-108208593D01*
X114602482Y-108250652D01*
X114674890Y-108376068D01*
X114777292Y-108478470D01*
X114902708Y-108550878D01*
X114944765Y-108562147D01*
X114245893Y-109261018D01*
X114328828Y-109321273D01*
X114539194Y-109428461D01*
X114539206Y-109428465D01*
X114763749Y-109501425D01*
X114996951Y-109538360D01*
X115233049Y-109538360D01*
X115466250Y-109501425D01*
X115690793Y-109428465D01*
X115690810Y-109428458D01*
X115901167Y-109321276D01*
X115901172Y-109321273D01*
X115984105Y-109261019D01*
X115984105Y-109261018D01*
X115285234Y-108562147D01*
X115327292Y-108550878D01*
X115452708Y-108478470D01*
X115555110Y-108376068D01*
X115627518Y-108250652D01*
X115638787Y-108208594D01*
X116337658Y-108907465D01*
X116337659Y-108907465D01*
X116397913Y-108824532D01*
X116397916Y-108824527D01*
X116505098Y-108614170D01*
X116505105Y-108614153D01*
X116578065Y-108389610D01*
X116615000Y-108156409D01*
X116615000Y-107920310D01*
X116578065Y-107687109D01*
X116505105Y-107462566D01*
X116505101Y-107462554D01*
X116397913Y-107252188D01*
X116397913Y-107252187D01*
X116337658Y-107169253D01*
X115638787Y-107868124D01*
X115627518Y-107826068D01*
X115555110Y-107700652D01*
X115452708Y-107598250D01*
X115327292Y-107525842D01*
X115285233Y-107514572D01*
X115984105Y-106815700D01*
X115984105Y-106815699D01*
X115901178Y-106755450D01*
X115901171Y-106755446D01*
X115690805Y-106648258D01*
X115690793Y-106648254D01*
X115466250Y-106575294D01*
X115233049Y-106538360D01*
X114996951Y-106538360D01*
X114763749Y-106575294D01*
X114539206Y-106648254D01*
X114539194Y-106648258D01*
X114328828Y-106755446D01*
X114328823Y-106755449D01*
X114245893Y-106815699D01*
X114944766Y-107514572D01*
X114902708Y-107525842D01*
X114777292Y-107598250D01*
X114674890Y-107700652D01*
X114602482Y-107826068D01*
X114591212Y-107868126D01*
X113892339Y-107169253D01*
X113832089Y-107252183D01*
X113832086Y-107252188D01*
X113724898Y-107462554D01*
X113724894Y-107462566D01*
X113651934Y-107687109D01*
X113615000Y-107920310D01*
X110115000Y-107920310D01*
X110078065Y-107687109D01*
X110005105Y-107462566D01*
X110005101Y-107462554D01*
X109897913Y-107252188D01*
X109897913Y-107252187D01*
X109837658Y-107169253D01*
X109138787Y-107868124D01*
X109127518Y-107826068D01*
X109055110Y-107700652D01*
X108952708Y-107598250D01*
X108827292Y-107525842D01*
X108785233Y-107514572D01*
X109484105Y-106815700D01*
X109484105Y-106815699D01*
X109401178Y-106755450D01*
X109401171Y-106755446D01*
X109190805Y-106648258D01*
X109190793Y-106648254D01*
X108966250Y-106575294D01*
X108733049Y-106538360D01*
X108496951Y-106538360D01*
X108263749Y-106575294D01*
X108039206Y-106648254D01*
X108039194Y-106648258D01*
X107828828Y-106755446D01*
X107828823Y-106755449D01*
X107745893Y-106815699D01*
X108444766Y-107514572D01*
X108402708Y-107525842D01*
X108277292Y-107598250D01*
X108174890Y-107700652D01*
X108102482Y-107826068D01*
X108091212Y-107868126D01*
X107392339Y-107169253D01*
X107332089Y-107252183D01*
X107332086Y-107252188D01*
X107224898Y-107462554D01*
X107224894Y-107462566D01*
X107151934Y-107687109D01*
X107115000Y-107920310D01*
X100602075Y-107920310D01*
X100574865Y-107748509D01*
X100501905Y-107523966D01*
X100501901Y-107523954D01*
X100394713Y-107313588D01*
X100394713Y-107313587D01*
X100334458Y-107230653D01*
X99635587Y-107929524D01*
X99624318Y-107887468D01*
X99551910Y-107762052D01*
X99449508Y-107659650D01*
X99324092Y-107587242D01*
X99282033Y-107575972D01*
X99980905Y-106877100D01*
X99980905Y-106877099D01*
X99897978Y-106816850D01*
X99897971Y-106816846D01*
X99687605Y-106709658D01*
X99687593Y-106709654D01*
X99463050Y-106636694D01*
X99229849Y-106599760D01*
X98993751Y-106599760D01*
X98760549Y-106636694D01*
X98536006Y-106709654D01*
X98535994Y-106709658D01*
X98325628Y-106816846D01*
X98325623Y-106816849D01*
X98242693Y-106877099D01*
X98941566Y-107575972D01*
X98899508Y-107587242D01*
X98774092Y-107659650D01*
X98671690Y-107762052D01*
X98599282Y-107887468D01*
X98588012Y-107929526D01*
X97889139Y-107230653D01*
X97828889Y-107313583D01*
X97828886Y-107313588D01*
X97721698Y-107523954D01*
X97721694Y-107523966D01*
X97648734Y-107748509D01*
X97611800Y-107981710D01*
X94111800Y-107981710D01*
X94074865Y-107748509D01*
X94001905Y-107523966D01*
X94001901Y-107523954D01*
X93894713Y-107313588D01*
X93894713Y-107313587D01*
X93834458Y-107230653D01*
X93135587Y-107929524D01*
X93124318Y-107887468D01*
X93051910Y-107762052D01*
X92949508Y-107659650D01*
X92824092Y-107587242D01*
X92782033Y-107575972D01*
X93480905Y-106877100D01*
X93480905Y-106877099D01*
X93397978Y-106816850D01*
X93397971Y-106816846D01*
X93187605Y-106709658D01*
X93187593Y-106709654D01*
X92963050Y-106636694D01*
X92729849Y-106599760D01*
X92493751Y-106599760D01*
X92260549Y-106636694D01*
X92036006Y-106709654D01*
X92035994Y-106709658D01*
X91825628Y-106816846D01*
X91825623Y-106816849D01*
X91742693Y-106877099D01*
X92441566Y-107575972D01*
X92399508Y-107587242D01*
X92274092Y-107659650D01*
X92171690Y-107762052D01*
X92099282Y-107887468D01*
X92088012Y-107929526D01*
X91389139Y-107230653D01*
X91328889Y-107313583D01*
X91328886Y-107313588D01*
X91221698Y-107523954D01*
X91221694Y-107523966D01*
X91148734Y-107748509D01*
X91111800Y-107981710D01*
X84102677Y-107981710D01*
X84044822Y-107329665D01*
X84044390Y-107323165D01*
X84005540Y-106445728D01*
X84005394Y-106439137D01*
X84005394Y-105560862D01*
X84005540Y-105554271D01*
X84014665Y-105348186D01*
X84044390Y-104676831D01*
X84044822Y-104670336D01*
X84122448Y-103795446D01*
X84123176Y-103788901D01*
X84128854Y-103746380D01*
X84165251Y-103473798D01*
X91011300Y-103473798D01*
X91011300Y-103725722D01*
X91050710Y-103974545D01*
X91128559Y-104214139D01*
X91226110Y-104405594D01*
X91242931Y-104438606D01*
X91242931Y-104438607D01*
X91280868Y-104490822D01*
X91391007Y-104642416D01*
X91569144Y-104820553D01*
X91772955Y-104968630D01*
X91997421Y-105083001D01*
X92237015Y-105160850D01*
X92485838Y-105200260D01*
X92485843Y-105200260D01*
X92737757Y-105200260D01*
X92737762Y-105200260D01*
X92986585Y-105160850D01*
X93226179Y-105083001D01*
X93450645Y-104968630D01*
X93654456Y-104820553D01*
X93832593Y-104642416D01*
X93980670Y-104438605D01*
X94095041Y-104214139D01*
X94172890Y-103974545D01*
X94212300Y-103725722D01*
X94212300Y-103473798D01*
X97511300Y-103473798D01*
X97511300Y-103725722D01*
X97550710Y-103974545D01*
X97628559Y-104214139D01*
X97726110Y-104405594D01*
X97742931Y-104438606D01*
X97742931Y-104438607D01*
X97780868Y-104490822D01*
X97891007Y-104642416D01*
X98069144Y-104820553D01*
X98272955Y-104968630D01*
X98497421Y-105083001D01*
X98737015Y-105160850D01*
X98985838Y-105200260D01*
X98985843Y-105200260D01*
X99237757Y-105200260D01*
X99237762Y-105200260D01*
X99486585Y-105160850D01*
X99726179Y-105083001D01*
X99950645Y-104968630D01*
X100154456Y-104820553D01*
X100332593Y-104642416D01*
X100480670Y-104438605D01*
X100595041Y-104214139D01*
X100672890Y-103974545D01*
X100712300Y-103725722D01*
X100712300Y-103473798D01*
X100702575Y-103412398D01*
X107014500Y-103412398D01*
X107014500Y-103664322D01*
X107053910Y-103913145D01*
X107131759Y-104152739D01*
X107243634Y-104372307D01*
X107246131Y-104377206D01*
X107246131Y-104377207D01*
X107297430Y-104447814D01*
X107394207Y-104581016D01*
X107572344Y-104759153D01*
X107776155Y-104907230D01*
X108000621Y-105021601D01*
X108240215Y-105099450D01*
X108489038Y-105138860D01*
X108489043Y-105138860D01*
X108740957Y-105138860D01*
X108740962Y-105138860D01*
X108989785Y-105099450D01*
X109229379Y-105021601D01*
X109453845Y-104907230D01*
X109657656Y-104759153D01*
X109835793Y-104581016D01*
X109983870Y-104377205D01*
X110098241Y-104152739D01*
X110176090Y-103913145D01*
X110215500Y-103664322D01*
X110215500Y-103412398D01*
X113514500Y-103412398D01*
X113514500Y-103664322D01*
X113553910Y-103913145D01*
X113631759Y-104152739D01*
X113743634Y-104372307D01*
X113746131Y-104377206D01*
X113746131Y-104377207D01*
X113797430Y-104447814D01*
X113894207Y-104581016D01*
X114072344Y-104759153D01*
X114276155Y-104907230D01*
X114500621Y-105021601D01*
X114740215Y-105099450D01*
X114989038Y-105138860D01*
X114989043Y-105138860D01*
X115240957Y-105138860D01*
X115240962Y-105138860D01*
X115489785Y-105099450D01*
X115729379Y-105021601D01*
X115953845Y-104907230D01*
X116157656Y-104759153D01*
X116335793Y-104581016D01*
X116394451Y-104500280D01*
X116454391Y-104451742D01*
X116514995Y-104438860D01*
X117103642Y-104438860D01*
X117178142Y-104458822D01*
X117209001Y-104482501D01*
X117799630Y-105073130D01*
X117805371Y-105079203D01*
X117823464Y-105099449D01*
X118000334Y-105297365D01*
X118010744Y-105310419D01*
X118079152Y-105406831D01*
X118177621Y-105545609D01*
X118186511Y-105559756D01*
X118326010Y-105812158D01*
X118333260Y-105827213D01*
X118443617Y-106093636D01*
X118449136Y-106109408D01*
X118528971Y-106386522D01*
X118532689Y-106402811D01*
X118580995Y-106687114D01*
X118582866Y-106703718D01*
X118599266Y-106995743D01*
X118599500Y-107004098D01*
X118599500Y-108213402D01*
X118599490Y-108213439D01*
X118599490Y-108520680D01*
X118599491Y-108520693D01*
X118634527Y-109010539D01*
X118704419Y-109496635D01*
X118704420Y-109496642D01*
X118704422Y-109496652D01*
X118808816Y-109976538D01*
X118808818Y-109976545D01*
X118808819Y-109976549D01*
X118808819Y-109976552D01*
X118947179Y-110447755D01*
X119118796Y-110907875D01*
X119118808Y-110907904D01*
X119322815Y-111354615D01*
X119322828Y-111354642D01*
X119506343Y-111690722D01*
X119558184Y-111785661D01*
X119823698Y-112198808D01*
X119897599Y-112297528D01*
X120118007Y-112591959D01*
X120439612Y-112963111D01*
X120439617Y-112963116D01*
X120550532Y-113074031D01*
X120550536Y-113074036D01*
X123808011Y-116331511D01*
X123836854Y-116360355D01*
X123836854Y-116360354D01*
X123899577Y-116423077D01*
X123899741Y-116423187D01*
X123907263Y-116430704D01*
X123907268Y-116430712D01*
X123907293Y-116430734D01*
X123938951Y-116462393D01*
X123980061Y-116503504D01*
X124287981Y-116766499D01*
X124287989Y-116766506D01*
X124287992Y-116766508D01*
X124615611Y-117004544D01*
X124960896Y-117216141D01*
X125024805Y-117248705D01*
X125321718Y-117399994D01*
X125321728Y-117399999D01*
X125695850Y-117554970D01*
X125695853Y-117554970D01*
X125695854Y-117554971D01*
X126080995Y-117680116D01*
X126194610Y-117707394D01*
X126251980Y-117721168D01*
X126319761Y-117757971D01*
X126337738Y-117778471D01*
X126412703Y-117881651D01*
X126412706Y-117881654D01*
X126412709Y-117881658D01*
X126568586Y-118037535D01*
X126711576Y-118141422D01*
X126746926Y-118167106D01*
X126746927Y-118167107D01*
X126746929Y-118167108D01*
X126943345Y-118267188D01*
X127023092Y-118293099D01*
X127129231Y-118327586D01*
X127193916Y-118369592D01*
X127228932Y-118438314D01*
X127224895Y-118515336D01*
X127182889Y-118580021D01*
X127129231Y-118611000D01*
X126943344Y-118671398D01*
X126746927Y-118771478D01*
X126746926Y-118771479D01*
X126568587Y-118901050D01*
X126568584Y-118901052D01*
X126412710Y-119056926D01*
X126412708Y-119056929D01*
X126283137Y-119235268D01*
X126283136Y-119235269D01*
X126183056Y-119431686D01*
X126114936Y-119641336D01*
X126093682Y-119775532D01*
X126080451Y-119859071D01*
X126080451Y-120079515D01*
X126089596Y-120137251D01*
X126114936Y-120297249D01*
X126183056Y-120506899D01*
X126283136Y-120703316D01*
X126283137Y-120703317D01*
X126305447Y-120734024D01*
X126412709Y-120881658D01*
X126568586Y-121037535D01*
X126711576Y-121141422D01*
X126746926Y-121167106D01*
X126746927Y-121167107D01*
X126746929Y-121167108D01*
X126943345Y-121267188D01*
X127023092Y-121293099D01*
X127129231Y-121327586D01*
X127193916Y-121369592D01*
X127228932Y-121438314D01*
X127224895Y-121515336D01*
X127182889Y-121580021D01*
X127129231Y-121611000D01*
X126943344Y-121671398D01*
X126746927Y-121771478D01*
X126746926Y-121771479D01*
X126568587Y-121901050D01*
X126568584Y-121901052D01*
X126412710Y-122056926D01*
X126412708Y-122056929D01*
X126283137Y-122235268D01*
X126283136Y-122235269D01*
X126183056Y-122431686D01*
X126114936Y-122641336D01*
X126110073Y-122672043D01*
X126080451Y-122859071D01*
X126080451Y-123079515D01*
X126085314Y-123110218D01*
X126114936Y-123297249D01*
X126183056Y-123506899D01*
X126283136Y-123703316D01*
X126283137Y-123703317D01*
X126305447Y-123734024D01*
X126412709Y-123881658D01*
X126568586Y-124037535D01*
X126711576Y-124141422D01*
X126746926Y-124167106D01*
X126746927Y-124167107D01*
X126746929Y-124167108D01*
X126943345Y-124267188D01*
X127030463Y-124295494D01*
X127152994Y-124335307D01*
X127152999Y-124335307D01*
X127153000Y-124335308D01*
X127370729Y-124369793D01*
X127370733Y-124369793D01*
X127591169Y-124369793D01*
X127591173Y-124369793D01*
X127808902Y-124335308D01*
X127808903Y-124335307D01*
X127808907Y-124335307D01*
X127889507Y-124309118D01*
X128018557Y-124267188D01*
X128214973Y-124167108D01*
X128393316Y-124037535D01*
X128549193Y-123881658D01*
X128678766Y-123703315D01*
X128778846Y-123506899D01*
X128820776Y-123377849D01*
X128846965Y-123297249D01*
X128876588Y-123110218D01*
X128881451Y-123079515D01*
X128881451Y-122859071D01*
X128846966Y-122641342D01*
X128846965Y-122641341D01*
X128846965Y-122641336D01*
X128788823Y-122462394D01*
X128778846Y-122431687D01*
X128678766Y-122235271D01*
X128549193Y-122056928D01*
X128393316Y-121901051D01*
X128304144Y-121836264D01*
X128214975Y-121771479D01*
X128214974Y-121771478D01*
X128018563Y-121671400D01*
X128018557Y-121671398D01*
X127832668Y-121611000D01*
X127767985Y-121568994D01*
X127732969Y-121500272D01*
X127737005Y-121423250D01*
X127779012Y-121358565D01*
X127832668Y-121327585D01*
X128018557Y-121267188D01*
X128214973Y-121167108D01*
X128393316Y-121037535D01*
X128549193Y-120881658D01*
X128576826Y-120843622D01*
X128636764Y-120795083D01*
X128677919Y-120783475D01*
X128827711Y-120763757D01*
X129358337Y-120658212D01*
X129880924Y-120518190D01*
X130393234Y-120344288D01*
X130393256Y-120344278D01*
X130393264Y-120344276D01*
X130542609Y-120282415D01*
X130893074Y-120137252D01*
X131378302Y-119897968D01*
X131846842Y-119627461D01*
X132296687Y-119326889D01*
X132725910Y-118997540D01*
X133132674Y-118640823D01*
X133261241Y-118512257D01*
X133261246Y-118512254D01*
X133323955Y-118449545D01*
X133386670Y-118386831D01*
X133386672Y-118386827D01*
X136343107Y-115430393D01*
X136343116Y-115430387D01*
X136386751Y-115386751D01*
X136386752Y-115386752D01*
X136465141Y-115308363D01*
X136531936Y-115269799D01*
X136609064Y-115269799D01*
X136675859Y-115308363D01*
X136714423Y-115375158D01*
X136719500Y-115413722D01*
X136719500Y-117792417D01*
X136719321Y-117799728D01*
X136705782Y-118075329D01*
X136704348Y-118089880D01*
X136664405Y-118359167D01*
X136661553Y-118373508D01*
X136595399Y-118637614D01*
X136591154Y-118651605D01*
X136585053Y-118668659D01*
X136499439Y-118907933D01*
X136493843Y-118921442D01*
X136444886Y-119024953D01*
X136394988Y-119083765D01*
X136333501Y-119108412D01*
X136172052Y-119133983D01*
X136172044Y-119133985D01*
X135962393Y-119202105D01*
X135765976Y-119302185D01*
X135765975Y-119302186D01*
X135587636Y-119431757D01*
X135587633Y-119431759D01*
X135431759Y-119587633D01*
X135431757Y-119587636D01*
X135302186Y-119765975D01*
X135302185Y-119765976D01*
X135202105Y-119962393D01*
X135133985Y-120172043D01*
X135114156Y-120297244D01*
X135099500Y-120389778D01*
X135099500Y-120610222D01*
X135113710Y-120699937D01*
X135133985Y-120827956D01*
X135202105Y-121037606D01*
X135302185Y-121234023D01*
X135302186Y-121234024D01*
X135326281Y-121267188D01*
X135431758Y-121412365D01*
X135587635Y-121568242D01*
X135678123Y-121633985D01*
X135765975Y-121697813D01*
X135765976Y-121697814D01*
X135765978Y-121697815D01*
X135962394Y-121797895D01*
X136049512Y-121826201D01*
X136172043Y-121866014D01*
X136172048Y-121866014D01*
X136172049Y-121866015D01*
X136389778Y-121900500D01*
X136389782Y-121900500D01*
X136610218Y-121900500D01*
X136610222Y-121900500D01*
X136827951Y-121866015D01*
X136827952Y-121866014D01*
X136827956Y-121866014D01*
X136908556Y-121839825D01*
X137037606Y-121797895D01*
X137234022Y-121697815D01*
X137412365Y-121568242D01*
X137568242Y-121412365D01*
X137697815Y-121234022D01*
X137797895Y-121037606D01*
X137839825Y-120908556D01*
X137866014Y-120827956D01*
X137877402Y-120756054D01*
X137900500Y-120610222D01*
X137900500Y-120389778D01*
X137890707Y-120327951D01*
X137877696Y-120245801D01*
X137885757Y-120169096D01*
X137897815Y-120144645D01*
X137921304Y-120106316D01*
X137930233Y-120088793D01*
X137984606Y-119982078D01*
X138089846Y-119775532D01*
X138231915Y-119432545D01*
X138346636Y-119079468D01*
X138433300Y-118718479D01*
X138491375Y-118351802D01*
X138520501Y-117981700D01*
X138520500Y-117796077D01*
X138520500Y-117767311D01*
X138520500Y-113859071D01*
X141320451Y-113859071D01*
X141320451Y-114079515D01*
X141321060Y-114083357D01*
X141354936Y-114297249D01*
X141423056Y-114506899D01*
X141523136Y-114703316D01*
X141523137Y-114703317D01*
X141545446Y-114734022D01*
X141652709Y-114881658D01*
X141808586Y-115037535D01*
X141876492Y-115086871D01*
X141986926Y-115167106D01*
X141986927Y-115167107D01*
X141986929Y-115167108D01*
X142183345Y-115267188D01*
X142263092Y-115293099D01*
X142369231Y-115327586D01*
X142433916Y-115369592D01*
X142468932Y-115438314D01*
X142464895Y-115515336D01*
X142422889Y-115580021D01*
X142369231Y-115611000D01*
X142183344Y-115671398D01*
X141986927Y-115771478D01*
X141986926Y-115771479D01*
X141808587Y-115901050D01*
X141808584Y-115901052D01*
X141652710Y-116056926D01*
X141652708Y-116056929D01*
X141523137Y-116235268D01*
X141523136Y-116235269D01*
X141423056Y-116431686D01*
X141354936Y-116641336D01*
X141331946Y-116786494D01*
X141320451Y-116859071D01*
X141320451Y-117079515D01*
X141331536Y-117149500D01*
X141354936Y-117297249D01*
X141423056Y-117506899D01*
X141523136Y-117703316D01*
X141523137Y-117703317D01*
X141576298Y-117776487D01*
X141652709Y-117881658D01*
X141808586Y-118037535D01*
X141951576Y-118141422D01*
X141986926Y-118167106D01*
X141986927Y-118167107D01*
X141986929Y-118167108D01*
X142183345Y-118267188D01*
X142263092Y-118293099D01*
X142369231Y-118327586D01*
X142433916Y-118369592D01*
X142468932Y-118438314D01*
X142464895Y-118515336D01*
X142422889Y-118580021D01*
X142369231Y-118611000D01*
X142183344Y-118671398D01*
X141986927Y-118771478D01*
X141986926Y-118771479D01*
X141808587Y-118901050D01*
X141808584Y-118901052D01*
X141652710Y-119056926D01*
X141652708Y-119056929D01*
X141523137Y-119235268D01*
X141523136Y-119235269D01*
X141423056Y-119431686D01*
X141354936Y-119641336D01*
X141333682Y-119775532D01*
X141320451Y-119859071D01*
X141320451Y-120079515D01*
X141329596Y-120137251D01*
X141354936Y-120297249D01*
X141423056Y-120506899D01*
X141523136Y-120703316D01*
X141523137Y-120703317D01*
X141545447Y-120734024D01*
X141652709Y-120881658D01*
X141808586Y-121037535D01*
X141951576Y-121141422D01*
X141986926Y-121167106D01*
X141986927Y-121167107D01*
X141986929Y-121167108D01*
X142183345Y-121267188D01*
X142263092Y-121293099D01*
X142369231Y-121327586D01*
X142433916Y-121369592D01*
X142468932Y-121438314D01*
X142464895Y-121515336D01*
X142422889Y-121580021D01*
X142369231Y-121611000D01*
X142183344Y-121671398D01*
X141986927Y-121771478D01*
X141986926Y-121771479D01*
X141808587Y-121901050D01*
X141808584Y-121901052D01*
X141652710Y-122056926D01*
X141652708Y-122056929D01*
X141523137Y-122235268D01*
X141523136Y-122235269D01*
X141423056Y-122431686D01*
X141354936Y-122641336D01*
X141350073Y-122672043D01*
X141320451Y-122859071D01*
X141320451Y-123079515D01*
X141325314Y-123110218D01*
X141354936Y-123297249D01*
X141423056Y-123506899D01*
X141523136Y-123703316D01*
X141523137Y-123703317D01*
X141545447Y-123734024D01*
X141652709Y-123881658D01*
X141808586Y-124037535D01*
X141951576Y-124141422D01*
X141986926Y-124167106D01*
X141986927Y-124167107D01*
X141986929Y-124167108D01*
X142183345Y-124267188D01*
X142270463Y-124295494D01*
X142392994Y-124335307D01*
X142392999Y-124335307D01*
X142393000Y-124335308D01*
X142610729Y-124369793D01*
X142610733Y-124369793D01*
X142831169Y-124369793D01*
X142831173Y-124369793D01*
X143048902Y-124335308D01*
X143048903Y-124335307D01*
X143048907Y-124335307D01*
X143129507Y-124309118D01*
X143258557Y-124267188D01*
X143454973Y-124167108D01*
X143633316Y-124037535D01*
X143789193Y-123881658D01*
X143918766Y-123703315D01*
X144018846Y-123506899D01*
X144060776Y-123377849D01*
X144086965Y-123297249D01*
X144116588Y-123110218D01*
X144121451Y-123079515D01*
X144121451Y-122859071D01*
X144086966Y-122641342D01*
X144086965Y-122641341D01*
X144086965Y-122641336D01*
X144028823Y-122462394D01*
X144018846Y-122431687D01*
X143918766Y-122235271D01*
X143789193Y-122056928D01*
X143633316Y-121901051D01*
X143544144Y-121836264D01*
X143454975Y-121771479D01*
X143454974Y-121771478D01*
X143258563Y-121671400D01*
X143258557Y-121671398D01*
X143072668Y-121611000D01*
X143007985Y-121568994D01*
X142972969Y-121500272D01*
X142977005Y-121423250D01*
X143019012Y-121358565D01*
X143072668Y-121327585D01*
X143258557Y-121267188D01*
X143454973Y-121167108D01*
X143633316Y-121037535D01*
X143789193Y-120881658D01*
X143918766Y-120703315D01*
X144018846Y-120506899D01*
X144071685Y-120344276D01*
X144086965Y-120297249D01*
X144086966Y-120297244D01*
X144121451Y-120079515D01*
X144121451Y-119859071D01*
X144086966Y-119641342D01*
X144086965Y-119641341D01*
X144086965Y-119641336D01*
X144028823Y-119462394D01*
X144018846Y-119431687D01*
X143918766Y-119235271D01*
X143789193Y-119056928D01*
X143633316Y-118901051D01*
X143544144Y-118836264D01*
X143454975Y-118771479D01*
X143454974Y-118771478D01*
X143258563Y-118671400D01*
X143242433Y-118666159D01*
X143072668Y-118611000D01*
X143007985Y-118568994D01*
X142972969Y-118500272D01*
X142977005Y-118423250D01*
X143019012Y-118358565D01*
X143072668Y-118327585D01*
X143258557Y-118267188D01*
X143454973Y-118167108D01*
X143633316Y-118037535D01*
X143789193Y-117881658D01*
X143918766Y-117703315D01*
X144018846Y-117506899D01*
X144074121Y-117336778D01*
X144086965Y-117297249D01*
X144088522Y-117287418D01*
X144121451Y-117079515D01*
X144121451Y-116859071D01*
X144086966Y-116641342D01*
X144086965Y-116641341D01*
X144086965Y-116641336D01*
X144028823Y-116462394D01*
X144018846Y-116431687D01*
X143918766Y-116235271D01*
X143789193Y-116056928D01*
X143633316Y-115901051D01*
X143516324Y-115816052D01*
X143454975Y-115771479D01*
X143454974Y-115771478D01*
X143258563Y-115671400D01*
X143218340Y-115658331D01*
X143072668Y-115611000D01*
X143007985Y-115568994D01*
X142972969Y-115500272D01*
X142977005Y-115423250D01*
X143019012Y-115358565D01*
X143072668Y-115327585D01*
X143258557Y-115267188D01*
X143454973Y-115167108D01*
X143633316Y-115037535D01*
X143789193Y-114881658D01*
X143918766Y-114703315D01*
X144018846Y-114506899D01*
X144060776Y-114377849D01*
X144086965Y-114297249D01*
X144107262Y-114169099D01*
X144121451Y-114079515D01*
X144121451Y-113889778D01*
X155599500Y-113889778D01*
X155599500Y-114110222D01*
X155614826Y-114206990D01*
X155633985Y-114327956D01*
X155688363Y-114495313D01*
X155702105Y-114537606D01*
X155802185Y-114734022D01*
X155931758Y-114912365D01*
X156087635Y-115068242D01*
X156184723Y-115138780D01*
X156265975Y-115197813D01*
X156265976Y-115197814D01*
X156265978Y-115197815D01*
X156462394Y-115297895D01*
X156542141Y-115323806D01*
X156648280Y-115358293D01*
X156712965Y-115400299D01*
X156747981Y-115469021D01*
X156743944Y-115546043D01*
X156701938Y-115610728D01*
X156648280Y-115641707D01*
X156462393Y-115702105D01*
X156265976Y-115802185D01*
X156265975Y-115802186D01*
X156087636Y-115931757D01*
X156087633Y-115931759D01*
X155931759Y-116087633D01*
X155931757Y-116087636D01*
X155802186Y-116265975D01*
X155802185Y-116265976D01*
X155702105Y-116462393D01*
X155633985Y-116672043D01*
X155619024Y-116766506D01*
X155599500Y-116889778D01*
X155599500Y-117110222D01*
X155610736Y-117181160D01*
X155633985Y-117327956D01*
X155702105Y-117537606D01*
X155802185Y-117734023D01*
X155802186Y-117734024D01*
X155864308Y-117819527D01*
X155931758Y-117912365D01*
X156087635Y-118068242D01*
X156223710Y-118167106D01*
X156265975Y-118197813D01*
X156265976Y-118197814D01*
X156265978Y-118197815D01*
X156462394Y-118297895D01*
X156542141Y-118323806D01*
X156648280Y-118358293D01*
X156712965Y-118400299D01*
X156747981Y-118469021D01*
X156743944Y-118546043D01*
X156701938Y-118610728D01*
X156648280Y-118641707D01*
X156462393Y-118702105D01*
X156265976Y-118802185D01*
X156265975Y-118802186D01*
X156087636Y-118931757D01*
X156087633Y-118931759D01*
X155931759Y-119087633D01*
X155931757Y-119087636D01*
X155802186Y-119265975D01*
X155802185Y-119265976D01*
X155702105Y-119462393D01*
X155633985Y-119672043D01*
X155619108Y-119765976D01*
X155599500Y-119889778D01*
X155599500Y-120110222D01*
X155612375Y-120191509D01*
X155633985Y-120327956D01*
X155702105Y-120537606D01*
X155802185Y-120734023D01*
X155802186Y-120734024D01*
X155838114Y-120783474D01*
X155931758Y-120912365D01*
X156087635Y-121068242D01*
X156223710Y-121167106D01*
X156265975Y-121197813D01*
X156265976Y-121197814D01*
X156265978Y-121197815D01*
X156462394Y-121297895D01*
X156542141Y-121323806D01*
X156648280Y-121358293D01*
X156712965Y-121400299D01*
X156747981Y-121469021D01*
X156743944Y-121546043D01*
X156701938Y-121610728D01*
X156648280Y-121641707D01*
X156462393Y-121702105D01*
X156265976Y-121802185D01*
X156265975Y-121802186D01*
X156087636Y-121931757D01*
X156087633Y-121931759D01*
X155931759Y-122087633D01*
X155931757Y-122087636D01*
X155802186Y-122265975D01*
X155802185Y-122265976D01*
X155702105Y-122462393D01*
X155633985Y-122672043D01*
X155616450Y-122782759D01*
X155599500Y-122889778D01*
X155599500Y-123110222D01*
X155614826Y-123206990D01*
X155633985Y-123327956D01*
X155702105Y-123537606D01*
X155802185Y-123734023D01*
X155802186Y-123734024D01*
X155931758Y-123912365D01*
X156087635Y-124068242D01*
X156223710Y-124167106D01*
X156265975Y-124197813D01*
X156265976Y-124197814D01*
X156265978Y-124197815D01*
X156462394Y-124297895D01*
X156549512Y-124326201D01*
X156672043Y-124366014D01*
X156672048Y-124366014D01*
X156672049Y-124366015D01*
X156889778Y-124400500D01*
X156889782Y-124400500D01*
X157110218Y-124400500D01*
X157110222Y-124400500D01*
X157327951Y-124366015D01*
X157327952Y-124366014D01*
X157327956Y-124366014D01*
X157422462Y-124335307D01*
X157537606Y-124297895D01*
X157734022Y-124197815D01*
X157912365Y-124068242D01*
X158068242Y-123912365D01*
X158197815Y-123734022D01*
X158297895Y-123537606D01*
X158339825Y-123408556D01*
X158366014Y-123327956D01*
X158366015Y-123327951D01*
X158400500Y-123110222D01*
X158400500Y-122889778D01*
X158366015Y-122672049D01*
X158366014Y-122672048D01*
X158366014Y-122672043D01*
X158326201Y-122549512D01*
X158297895Y-122462394D01*
X158197815Y-122265978D01*
X158068242Y-122087635D01*
X157912365Y-121931758D01*
X157821876Y-121866014D01*
X157734024Y-121802186D01*
X157734023Y-121802185D01*
X157537612Y-121702107D01*
X157537606Y-121702105D01*
X157351717Y-121641707D01*
X157287034Y-121599701D01*
X157252018Y-121530979D01*
X157256054Y-121453957D01*
X157298061Y-121389272D01*
X157351717Y-121358292D01*
X157537606Y-121297895D01*
X157734022Y-121197815D01*
X157912365Y-121068242D01*
X158068242Y-120912365D01*
X158197815Y-120734022D01*
X158297895Y-120537606D01*
X158345926Y-120389781D01*
X158366014Y-120327956D01*
X158366015Y-120327951D01*
X158400500Y-120110222D01*
X158400500Y-119889778D01*
X158366015Y-119672049D01*
X158366014Y-119672048D01*
X158366014Y-119672043D01*
X158326201Y-119549512D01*
X158297895Y-119462394D01*
X158197815Y-119265978D01*
X158068242Y-119087635D01*
X157912365Y-118931758D01*
X157742450Y-118808308D01*
X157734024Y-118802186D01*
X157734023Y-118802185D01*
X157537612Y-118702107D01*
X157443104Y-118671400D01*
X157351717Y-118641707D01*
X157287034Y-118599701D01*
X157252018Y-118530979D01*
X157256054Y-118453957D01*
X157298061Y-118389272D01*
X157351717Y-118358292D01*
X157537606Y-118297895D01*
X157734022Y-118197815D01*
X157912365Y-118068242D01*
X158068242Y-117912365D01*
X158197815Y-117734022D01*
X158297895Y-117537606D01*
X158342607Y-117399994D01*
X158366014Y-117327956D01*
X158368948Y-117309433D01*
X158400500Y-117110222D01*
X158400500Y-116889778D01*
X158366015Y-116672049D01*
X158366014Y-116672048D01*
X158366014Y-116672043D01*
X158311252Y-116503504D01*
X158297895Y-116462394D01*
X158197815Y-116265978D01*
X158068242Y-116087635D01*
X157912365Y-115931758D01*
X157765105Y-115824768D01*
X157734024Y-115802186D01*
X157734023Y-115802185D01*
X157537612Y-115702107D01*
X157457394Y-115676043D01*
X157351717Y-115641707D01*
X157287034Y-115599701D01*
X157252018Y-115530979D01*
X157256054Y-115453957D01*
X157298061Y-115389272D01*
X157351717Y-115358292D01*
X157537606Y-115297895D01*
X157734022Y-115197815D01*
X157912365Y-115068242D01*
X158068242Y-114912365D01*
X158197815Y-114734022D01*
X158297895Y-114537606D01*
X158359057Y-114349367D01*
X158366014Y-114327956D01*
X158366711Y-114323557D01*
X158400500Y-114110222D01*
X158400500Y-113889778D01*
X170839500Y-113889778D01*
X170839500Y-114110222D01*
X170854826Y-114206990D01*
X170873985Y-114327956D01*
X170928363Y-114495313D01*
X170942105Y-114537606D01*
X171042185Y-114734022D01*
X171171758Y-114912365D01*
X171327635Y-115068242D01*
X171424723Y-115138780D01*
X171505975Y-115197813D01*
X171505976Y-115197814D01*
X171505978Y-115197815D01*
X171702394Y-115297895D01*
X171782141Y-115323806D01*
X171888280Y-115358293D01*
X171952965Y-115400299D01*
X171987981Y-115469021D01*
X171983944Y-115546043D01*
X171941938Y-115610728D01*
X171888280Y-115641707D01*
X171702393Y-115702105D01*
X171505976Y-115802185D01*
X171505975Y-115802186D01*
X171327636Y-115931757D01*
X171327633Y-115931759D01*
X171171759Y-116087633D01*
X171171757Y-116087636D01*
X171042186Y-116265975D01*
X171042185Y-116265976D01*
X170942105Y-116462393D01*
X170873985Y-116672043D01*
X170859024Y-116766506D01*
X170839500Y-116889778D01*
X170839500Y-117110222D01*
X170850736Y-117181160D01*
X170873985Y-117327956D01*
X170942105Y-117537606D01*
X171042185Y-117734023D01*
X171042186Y-117734024D01*
X171104308Y-117819527D01*
X171171758Y-117912365D01*
X171327635Y-118068242D01*
X171463710Y-118167106D01*
X171505975Y-118197813D01*
X171505976Y-118197814D01*
X171505978Y-118197815D01*
X171702394Y-118297895D01*
X171782141Y-118323806D01*
X171888280Y-118358293D01*
X171952965Y-118400299D01*
X171987981Y-118469021D01*
X171983944Y-118546043D01*
X171941938Y-118610728D01*
X171888280Y-118641707D01*
X171702393Y-118702105D01*
X171505976Y-118802185D01*
X171505975Y-118802186D01*
X171327636Y-118931757D01*
X171327633Y-118931759D01*
X171171759Y-119087633D01*
X171171757Y-119087636D01*
X171042186Y-119265975D01*
X171042185Y-119265976D01*
X170942105Y-119462393D01*
X170873985Y-119672043D01*
X170859108Y-119765976D01*
X170839500Y-119889778D01*
X170839500Y-120110222D01*
X170852375Y-120191509D01*
X170873985Y-120327956D01*
X170942105Y-120537606D01*
X171042185Y-120734023D01*
X171042186Y-120734024D01*
X171078114Y-120783474D01*
X171171758Y-120912365D01*
X171327635Y-121068242D01*
X171463710Y-121167106D01*
X171505975Y-121197813D01*
X171505976Y-121197814D01*
X171505978Y-121197815D01*
X171702394Y-121297895D01*
X171782141Y-121323806D01*
X171888280Y-121358293D01*
X171952965Y-121400299D01*
X171987981Y-121469021D01*
X171983944Y-121546043D01*
X171941938Y-121610728D01*
X171888280Y-121641707D01*
X171702393Y-121702105D01*
X171505976Y-121802185D01*
X171505975Y-121802186D01*
X171327636Y-121931757D01*
X171327633Y-121931759D01*
X171171759Y-122087633D01*
X171171757Y-122087636D01*
X171042186Y-122265975D01*
X171042185Y-122265976D01*
X170942105Y-122462393D01*
X170873985Y-122672043D01*
X170856450Y-122782759D01*
X170839500Y-122889778D01*
X170839500Y-123110222D01*
X170854826Y-123206990D01*
X170873985Y-123327956D01*
X170942105Y-123537606D01*
X171042185Y-123734023D01*
X171042186Y-123734024D01*
X171171758Y-123912365D01*
X171327635Y-124068242D01*
X171463710Y-124167106D01*
X171505975Y-124197813D01*
X171505976Y-124197814D01*
X171505978Y-124197815D01*
X171702394Y-124297895D01*
X171789512Y-124326201D01*
X171912043Y-124366014D01*
X171912048Y-124366014D01*
X171912049Y-124366015D01*
X172129778Y-124400500D01*
X172129782Y-124400500D01*
X172350218Y-124400500D01*
X172350222Y-124400500D01*
X172567951Y-124366015D01*
X172567952Y-124366014D01*
X172567956Y-124366014D01*
X172662462Y-124335307D01*
X172777606Y-124297895D01*
X172974022Y-124197815D01*
X173152365Y-124068242D01*
X173308242Y-123912365D01*
X173437815Y-123734022D01*
X173537895Y-123537606D01*
X173579825Y-123408556D01*
X173606014Y-123327956D01*
X173606015Y-123327951D01*
X173640500Y-123110222D01*
X173640500Y-122889778D01*
X173606015Y-122672049D01*
X173606014Y-122672048D01*
X173606014Y-122672043D01*
X173566201Y-122549512D01*
X173537895Y-122462394D01*
X173437815Y-122265978D01*
X173308242Y-122087635D01*
X173152365Y-121931758D01*
X173061876Y-121866014D01*
X172974024Y-121802186D01*
X172974023Y-121802185D01*
X172777612Y-121702107D01*
X172777606Y-121702105D01*
X172591717Y-121641707D01*
X172527034Y-121599701D01*
X172492018Y-121530979D01*
X172496054Y-121453957D01*
X172538061Y-121389272D01*
X172591717Y-121358292D01*
X172777606Y-121297895D01*
X172974022Y-121197815D01*
X173152365Y-121068242D01*
X173308242Y-120912365D01*
X173427314Y-120748474D01*
X173487252Y-120699937D01*
X173496878Y-120696048D01*
X173750133Y-120603872D01*
X174062137Y-120458382D01*
X174360274Y-120286252D01*
X174642274Y-120088793D01*
X174905991Y-119867507D01*
X174954285Y-119819211D01*
X174954294Y-119819204D01*
X174964988Y-119808509D01*
X174964990Y-119808509D01*
X175894793Y-118878706D01*
X178149500Y-118878706D01*
X178149500Y-119121293D01*
X178181160Y-119361781D01*
X178243947Y-119596103D01*
X178275405Y-119672049D01*
X178336776Y-119820212D01*
X178458064Y-120030289D01*
X178605735Y-120222738D01*
X178777262Y-120394265D01*
X178969711Y-120541936D01*
X179179788Y-120663224D01*
X179403900Y-120756054D01*
X179638211Y-120818838D01*
X179638217Y-120818838D01*
X179638218Y-120818839D01*
X179703600Y-120827446D01*
X179878712Y-120850500D01*
X180121288Y-120850500D01*
X180361789Y-120818838D01*
X180596100Y-120756054D01*
X180820212Y-120663224D01*
X181030289Y-120541936D01*
X181222738Y-120394265D01*
X181394265Y-120222738D01*
X181541936Y-120030289D01*
X181663224Y-119820212D01*
X181756054Y-119596100D01*
X181818838Y-119361789D01*
X181850500Y-119121288D01*
X181850500Y-118878712D01*
X181823207Y-118671398D01*
X181818839Y-118638218D01*
X181818838Y-118638217D01*
X181818838Y-118638211D01*
X181756054Y-118403900D01*
X181663224Y-118179788D01*
X181541936Y-117969711D01*
X181394265Y-117777262D01*
X181222738Y-117605735D01*
X181030289Y-117458064D01*
X180960263Y-117417634D01*
X180820216Y-117336778D01*
X180820214Y-117336777D01*
X180820212Y-117336776D01*
X180688932Y-117282398D01*
X180596103Y-117243947D01*
X180596101Y-117243946D01*
X180596100Y-117243946D01*
X180361789Y-117181162D01*
X180361787Y-117181161D01*
X180361781Y-117181160D01*
X180121293Y-117149500D01*
X180121288Y-117149500D01*
X179878712Y-117149500D01*
X179878706Y-117149500D01*
X179638218Y-117181160D01*
X179403896Y-117243947D01*
X179179783Y-117336778D01*
X178969712Y-117458063D01*
X178906068Y-117506899D01*
X178777262Y-117605735D01*
X178777260Y-117605736D01*
X178777256Y-117605740D01*
X178605740Y-117777256D01*
X178605736Y-117777260D01*
X178605735Y-117777262D01*
X178573304Y-117819527D01*
X178458063Y-117969712D01*
X178336778Y-118179783D01*
X178243947Y-118403896D01*
X178181160Y-118638218D01*
X178149500Y-118878706D01*
X175894793Y-118878706D01*
X176990638Y-117782861D01*
X177867993Y-116905507D01*
X198718838Y-116905507D01*
X198718838Y-117141605D01*
X198722644Y-117165640D01*
X199680108Y-116909087D01*
X199668838Y-116951148D01*
X199668838Y-117095966D01*
X199706320Y-117235849D01*
X199778728Y-117361265D01*
X199809514Y-117392051D01*
X198853612Y-117648185D01*
X198935924Y-117809729D01*
X198935929Y-117809738D01*
X199074696Y-118000734D01*
X199241660Y-118167698D01*
X199432656Y-118306465D01*
X199432670Y-118306473D01*
X199643027Y-118413655D01*
X199643044Y-118413662D01*
X199867587Y-118486622D01*
X200100789Y-118523557D01*
X200336889Y-118523557D01*
X200360921Y-118519749D01*
X200104369Y-117562287D01*
X200146429Y-117573557D01*
X200291247Y-117573557D01*
X200431130Y-117536075D01*
X200556546Y-117463667D01*
X200587333Y-117432879D01*
X200843466Y-118388780D01*
X201005017Y-118306466D01*
X201196015Y-118167698D01*
X201362979Y-118000734D01*
X201501746Y-117809738D01*
X201501754Y-117809724D01*
X201608936Y-117599367D01*
X201608943Y-117599350D01*
X201681903Y-117374807D01*
X201718838Y-117141606D01*
X201718838Y-116905509D01*
X201718837Y-116905501D01*
X201715030Y-116881472D01*
X200757568Y-117138023D01*
X200768838Y-117095966D01*
X200768838Y-116951148D01*
X200731356Y-116811265D01*
X200658948Y-116685849D01*
X200628159Y-116655060D01*
X201584062Y-116398927D01*
X201501751Y-116237384D01*
X201501746Y-116237375D01*
X201362979Y-116046379D01*
X201196015Y-115879415D01*
X201005019Y-115740648D01*
X201005005Y-115740640D01*
X200794648Y-115633458D01*
X200794631Y-115633451D01*
X200570088Y-115560491D01*
X200336887Y-115523557D01*
X200100783Y-115523557D01*
X200076752Y-115527362D01*
X200333304Y-116484826D01*
X200291247Y-116473557D01*
X200146429Y-116473557D01*
X200006546Y-116511039D01*
X199881130Y-116583447D01*
X199850341Y-116614235D01*
X199594208Y-115658331D01*
X199432669Y-115740640D01*
X199241657Y-115879418D01*
X199074696Y-116046379D01*
X198935929Y-116237375D01*
X198935921Y-116237389D01*
X198828739Y-116447746D01*
X198828732Y-116447763D01*
X198755772Y-116672306D01*
X198718838Y-116905507D01*
X177867993Y-116905507D01*
X177979209Y-116794291D01*
X179949464Y-114824036D01*
X180208740Y-114564760D01*
X180690167Y-114083332D01*
X180694334Y-114079326D01*
X181018797Y-113779396D01*
X181027653Y-113771831D01*
X181175210Y-113655507D01*
X193089673Y-113655507D01*
X193089673Y-113891605D01*
X193093479Y-113915640D01*
X194050943Y-113659087D01*
X194039673Y-113701148D01*
X194039673Y-113845966D01*
X194077155Y-113985849D01*
X194149563Y-114111265D01*
X194180349Y-114142051D01*
X193224447Y-114398185D01*
X193306759Y-114559729D01*
X193306764Y-114559738D01*
X193445531Y-114750734D01*
X193612495Y-114917698D01*
X193803491Y-115056465D01*
X193803505Y-115056473D01*
X194013862Y-115163655D01*
X194013879Y-115163662D01*
X194238422Y-115236622D01*
X194471624Y-115273557D01*
X194707724Y-115273557D01*
X194731756Y-115269749D01*
X194475204Y-114312287D01*
X194517264Y-114323557D01*
X194662082Y-114323557D01*
X194801965Y-114286075D01*
X194927381Y-114213667D01*
X194958168Y-114182879D01*
X195214301Y-115138780D01*
X195375852Y-115056466D01*
X195566850Y-114917698D01*
X195733814Y-114750734D01*
X195872581Y-114559738D01*
X195872589Y-114559724D01*
X195979771Y-114349367D01*
X195979778Y-114349350D01*
X196052738Y-114124807D01*
X196089673Y-113891606D01*
X196089673Y-113655509D01*
X196089672Y-113655501D01*
X196085865Y-113631472D01*
X195128403Y-113888023D01*
X195139673Y-113845966D01*
X195139673Y-113701148D01*
X195102191Y-113561265D01*
X195029783Y-113435849D01*
X194998994Y-113405060D01*
X195954897Y-113148927D01*
X195910744Y-113062272D01*
X195879259Y-113000481D01*
X200868338Y-113000481D01*
X200868338Y-113252405D01*
X200907748Y-113501228D01*
X200985597Y-113740822D01*
X201074671Y-113915640D01*
X201099969Y-113965289D01*
X201099969Y-113965290D01*
X201137544Y-114017007D01*
X201248045Y-114169099D01*
X201426182Y-114347236D01*
X201629993Y-114495313D01*
X201854459Y-114609684D01*
X202094053Y-114687533D01*
X202342876Y-114726943D01*
X202342881Y-114726943D01*
X202594795Y-114726943D01*
X202594800Y-114726943D01*
X202843623Y-114687533D01*
X203083217Y-114609684D01*
X203307683Y-114495313D01*
X203511494Y-114347236D01*
X203689631Y-114169099D01*
X203837708Y-113965288D01*
X203952079Y-113740822D01*
X204029928Y-113501228D01*
X204069338Y-113252405D01*
X204069338Y-113000481D01*
X204029928Y-112751658D01*
X203952079Y-112512064D01*
X203837708Y-112287598D01*
X203689631Y-112083787D01*
X203511494Y-111905650D01*
X203307683Y-111757573D01*
X203083217Y-111643202D01*
X202843623Y-111565353D01*
X202594800Y-111525943D01*
X202342876Y-111525943D01*
X202135523Y-111558784D01*
X202094052Y-111565353D01*
X201854465Y-111643200D01*
X201854459Y-111643202D01*
X201854453Y-111643204D01*
X201854453Y-111643205D01*
X201629991Y-111757574D01*
X201629990Y-111757574D01*
X201426183Y-111905649D01*
X201426180Y-111905651D01*
X201248046Y-112083785D01*
X201248044Y-112083788D01*
X201099969Y-112287595D01*
X201099969Y-112287596D01*
X200985600Y-112512058D01*
X200985595Y-112512070D01*
X200907748Y-112751657D01*
X200900665Y-112796379D01*
X200868338Y-113000481D01*
X195879259Y-113000481D01*
X195872586Y-112987384D01*
X195872581Y-112987375D01*
X195733814Y-112796379D01*
X195566850Y-112629415D01*
X195375854Y-112490648D01*
X195375840Y-112490640D01*
X195165483Y-112383458D01*
X195165466Y-112383451D01*
X194940923Y-112310491D01*
X194707722Y-112273557D01*
X194471618Y-112273557D01*
X194447587Y-112277362D01*
X194704139Y-113234826D01*
X194662082Y-113223557D01*
X194517264Y-113223557D01*
X194377381Y-113261039D01*
X194251965Y-113333447D01*
X194221176Y-113364235D01*
X193965043Y-112408331D01*
X193803504Y-112490640D01*
X193612492Y-112629418D01*
X193445531Y-112796379D01*
X193306764Y-112987375D01*
X193306756Y-112987389D01*
X193199574Y-113197746D01*
X193199567Y-113197763D01*
X193126607Y-113422306D01*
X193089673Y-113655507D01*
X181175210Y-113655507D01*
X181372348Y-113500097D01*
X181381808Y-113493224D01*
X181746754Y-113249375D01*
X181756681Y-113243291D01*
X182139649Y-113028820D01*
X182150036Y-113023528D01*
X182548631Y-112839773D01*
X182559403Y-112835310D01*
X182971212Y-112683386D01*
X182982288Y-112679787D01*
X183404749Y-112560641D01*
X183416074Y-112557923D01*
X183846565Y-112472293D01*
X183858083Y-112470468D01*
X184293947Y-112418881D01*
X184305598Y-112417964D01*
X184747048Y-112400620D01*
X184752898Y-112400505D01*
X184947418Y-112400505D01*
X184947427Y-112400505D01*
X185340780Y-112366091D01*
X185678889Y-112306473D01*
X185729619Y-112297528D01*
X185729629Y-112297526D01*
X185729628Y-112297526D01*
X185729635Y-112297525D01*
X186111036Y-112195328D01*
X186482077Y-112060279D01*
X186839937Y-111893406D01*
X187181891Y-111695977D01*
X187505336Y-111469497D01*
X187807811Y-111215688D01*
X187884692Y-111138806D01*
X187884697Y-111138803D01*
X188014482Y-111009017D01*
X188034730Y-110997328D01*
X188081273Y-110970456D01*
X188158403Y-110970456D01*
X188196204Y-110992281D01*
X188225197Y-111009020D01*
X188225198Y-111009021D01*
X188231720Y-111020318D01*
X188263761Y-111075814D01*
X188268838Y-111114379D01*
X188268838Y-111141605D01*
X188272644Y-111165640D01*
X189230107Y-110909089D01*
X189218838Y-110951148D01*
X189218838Y-111095966D01*
X189256320Y-111235849D01*
X189328728Y-111361265D01*
X189359514Y-111392051D01*
X188403612Y-111648185D01*
X188485924Y-111809729D01*
X188485929Y-111809738D01*
X188624696Y-112000734D01*
X188791660Y-112167698D01*
X188982656Y-112306465D01*
X188982670Y-112306473D01*
X189193027Y-112413655D01*
X189193044Y-112413662D01*
X189417587Y-112486622D01*
X189650789Y-112523557D01*
X189886889Y-112523557D01*
X189910921Y-112519749D01*
X189654369Y-111562287D01*
X189696429Y-111573557D01*
X189841247Y-111573557D01*
X189981130Y-111536075D01*
X190106546Y-111463667D01*
X190137333Y-111432879D01*
X190393466Y-112388780D01*
X190555017Y-112306466D01*
X190746015Y-112167698D01*
X190912979Y-112000734D01*
X191051746Y-111809738D01*
X191051754Y-111809724D01*
X191158936Y-111599367D01*
X191158943Y-111599350D01*
X191231903Y-111374807D01*
X191268838Y-111141606D01*
X191268838Y-110905509D01*
X191268837Y-110905501D01*
X191265030Y-110881472D01*
X190307568Y-111138023D01*
X190318838Y-111095966D01*
X190318838Y-110951148D01*
X190281356Y-110811265D01*
X190208948Y-110685849D01*
X190178159Y-110655060D01*
X191134062Y-110398927D01*
X191051751Y-110237384D01*
X191051746Y-110237375D01*
X190912979Y-110046379D01*
X190746016Y-109879416D01*
X190726409Y-109865171D01*
X190726408Y-109865170D01*
X190568553Y-109750481D01*
X195239173Y-109750481D01*
X195239173Y-110002405D01*
X195278583Y-110251228D01*
X195356432Y-110490822D01*
X195468874Y-110711503D01*
X195470804Y-110715289D01*
X195470804Y-110715290D01*
X195526920Y-110792527D01*
X195618880Y-110919099D01*
X195797017Y-111097236D01*
X196000828Y-111245313D01*
X196225294Y-111359684D01*
X196464888Y-111437533D01*
X196713711Y-111476943D01*
X196713716Y-111476943D01*
X196965630Y-111476943D01*
X196965635Y-111476943D01*
X197214458Y-111437533D01*
X197454052Y-111359684D01*
X197678518Y-111245313D01*
X197882329Y-111097236D01*
X198060466Y-110919099D01*
X198208543Y-110715288D01*
X198322914Y-110490822D01*
X198400763Y-110251228D01*
X198440173Y-110002405D01*
X198440173Y-109750481D01*
X198400763Y-109501658D01*
X198322914Y-109262064D01*
X198208543Y-109037598D01*
X198060466Y-108833787D01*
X197882329Y-108655650D01*
X197678518Y-108507573D01*
X197454052Y-108393202D01*
X197214458Y-108315353D01*
X196965635Y-108275943D01*
X196713711Y-108275943D01*
X196506358Y-108308784D01*
X196464887Y-108315353D01*
X196278027Y-108376068D01*
X196225294Y-108393202D01*
X196225288Y-108393204D01*
X196225288Y-108393205D01*
X196000826Y-108507574D01*
X196000825Y-108507574D01*
X195797018Y-108655649D01*
X195797015Y-108655651D01*
X195618884Y-108833783D01*
X195618879Y-108833788D01*
X195470804Y-109037595D01*
X195470804Y-109037596D01*
X195356435Y-109262058D01*
X195356430Y-109262070D01*
X195278583Y-109501657D01*
X195273449Y-109534075D01*
X195239173Y-109750481D01*
X190568553Y-109750481D01*
X190555019Y-109740648D01*
X190555005Y-109740640D01*
X190344648Y-109633458D01*
X190344631Y-109633451D01*
X190120088Y-109560491D01*
X189886887Y-109523557D01*
X189859660Y-109523557D01*
X189785160Y-109503595D01*
X189730622Y-109449057D01*
X189710660Y-109374557D01*
X189730622Y-109300057D01*
X189754297Y-109269202D01*
X190270753Y-108752746D01*
X190276789Y-108747039D01*
X190473837Y-108570946D01*
X190486870Y-108560553D01*
X190698971Y-108410059D01*
X190713080Y-108401194D01*
X190821729Y-108341145D01*
X190896586Y-108322582D01*
X190970699Y-108343934D01*
X190981379Y-108351012D01*
X191179993Y-108495313D01*
X191404459Y-108609684D01*
X191644053Y-108687533D01*
X191892876Y-108726943D01*
X191892881Y-108726943D01*
X192144795Y-108726943D01*
X192144800Y-108726943D01*
X192393623Y-108687533D01*
X192633217Y-108609684D01*
X192857683Y-108495313D01*
X193061494Y-108347236D01*
X193239631Y-108169099D01*
X193387708Y-107965288D01*
X193443644Y-107855508D01*
X203618839Y-107855508D01*
X203618839Y-108091606D01*
X203622645Y-108115641D01*
X204580109Y-107859088D01*
X204568839Y-107901149D01*
X204568839Y-108045967D01*
X204606321Y-108185850D01*
X204678729Y-108311266D01*
X204709515Y-108342052D01*
X203753613Y-108598186D01*
X203835925Y-108759730D01*
X203835930Y-108759739D01*
X203974697Y-108950735D01*
X204141661Y-109117699D01*
X204332657Y-109256466D01*
X204332671Y-109256474D01*
X204543028Y-109363656D01*
X204543045Y-109363663D01*
X204767588Y-109436623D01*
X205000790Y-109473558D01*
X205236890Y-109473558D01*
X205260922Y-109469750D01*
X205004370Y-108512288D01*
X205046430Y-108523558D01*
X205191248Y-108523558D01*
X205331131Y-108486076D01*
X205456547Y-108413668D01*
X205487334Y-108382880D01*
X205743467Y-109338781D01*
X205905018Y-109256467D01*
X206096016Y-109117699D01*
X206262980Y-108950735D01*
X206401747Y-108759739D01*
X206401755Y-108759725D01*
X206508937Y-108549368D01*
X206508944Y-108549351D01*
X206581904Y-108324808D01*
X206618839Y-108091607D01*
X206618839Y-107855510D01*
X206618838Y-107855502D01*
X206615031Y-107831473D01*
X205657569Y-108088024D01*
X205668839Y-108045967D01*
X205668839Y-107901149D01*
X205631357Y-107761266D01*
X205558949Y-107635850D01*
X205528160Y-107605061D01*
X206484063Y-107348928D01*
X206401752Y-107187385D01*
X206401747Y-107187376D01*
X206262980Y-106996380D01*
X206096016Y-106829416D01*
X205905020Y-106690649D01*
X205905006Y-106690641D01*
X205694649Y-106583459D01*
X205694632Y-106583452D01*
X205470089Y-106510492D01*
X205236888Y-106473558D01*
X205000784Y-106473558D01*
X204976753Y-106477363D01*
X205233305Y-107434827D01*
X205191248Y-107423558D01*
X205046430Y-107423558D01*
X204906547Y-107461040D01*
X204781131Y-107533448D01*
X204750342Y-107564236D01*
X204494209Y-106608332D01*
X204332670Y-106690641D01*
X204141658Y-106829419D01*
X203974697Y-106996380D01*
X203835930Y-107187376D01*
X203835922Y-107187390D01*
X203728740Y-107397747D01*
X203728733Y-107397764D01*
X203655773Y-107622307D01*
X203618839Y-107855508D01*
X193443644Y-107855508D01*
X193502079Y-107740822D01*
X193579928Y-107501228D01*
X193619338Y-107252405D01*
X193619338Y-107000481D01*
X193579928Y-106751658D01*
X193502079Y-106512064D01*
X193387708Y-106287598D01*
X193239631Y-106083787D01*
X193061494Y-105905650D01*
X192857683Y-105757573D01*
X192633217Y-105643202D01*
X192393623Y-105565353D01*
X192144800Y-105525943D01*
X191892876Y-105525943D01*
X191693199Y-105557569D01*
X191644052Y-105565353D01*
X191421909Y-105637532D01*
X191404459Y-105643202D01*
X191404453Y-105643204D01*
X191404453Y-105643205D01*
X191179991Y-105757574D01*
X191179990Y-105757574D01*
X190976183Y-105905649D01*
X190976180Y-105905651D01*
X190798046Y-106083785D01*
X190798044Y-106083788D01*
X190649969Y-106287595D01*
X190649966Y-106287601D01*
X190574900Y-106434924D01*
X190523291Y-106492241D01*
X190493102Y-106507292D01*
X190383616Y-106547141D01*
X190383600Y-106547148D01*
X190045754Y-106704687D01*
X190045746Y-106704691D01*
X189722909Y-106891081D01*
X189417560Y-107104889D01*
X189417549Y-107104897D01*
X189132003Y-107344499D01*
X189131978Y-107344522D01*
X189062910Y-107413588D01*
X189062911Y-107413589D01*
X189062908Y-107413592D01*
X186676858Y-109799640D01*
X186670785Y-109805381D01*
X186452639Y-110000330D01*
X186439576Y-110010748D01*
X186204389Y-110177624D01*
X186190240Y-110186514D01*
X185937844Y-110326009D01*
X185922790Y-110333259D01*
X185656364Y-110443617D01*
X185640592Y-110449136D01*
X185363477Y-110528971D01*
X185347188Y-110532689D01*
X185062885Y-110580995D01*
X185046281Y-110582866D01*
X184754256Y-110599266D01*
X184745901Y-110599500D01*
X184653990Y-110599500D01*
X184653910Y-110599504D01*
X184503180Y-110599504D01*
X184010593Y-110631789D01*
X183521175Y-110696223D01*
X183037024Y-110792526D01*
X183037014Y-110792529D01*
X182560210Y-110920287D01*
X182560207Y-110920288D01*
X182092759Y-111078965D01*
X182092757Y-111078966D01*
X181636685Y-111267877D01*
X181193971Y-111486198D01*
X181193968Y-111486200D01*
X180784762Y-111722454D01*
X180710261Y-111742416D01*
X180635762Y-111722454D01*
X180581224Y-111667916D01*
X180561262Y-111593415D01*
X180574726Y-111531522D01*
X180631186Y-111407893D01*
X180802812Y-110947750D01*
X180911610Y-110577220D01*
X180941168Y-110476556D01*
X180941168Y-110476554D01*
X180941174Y-110476535D01*
X181045568Y-109996650D01*
X181050225Y-109964260D01*
X181115463Y-109510536D01*
X181139465Y-109174958D01*
X181150499Y-109020684D01*
X181150500Y-108775130D01*
X181150500Y-108686438D01*
X181150500Y-107655507D01*
X182639673Y-107655507D01*
X182639673Y-107891605D01*
X182643479Y-107915640D01*
X183600943Y-107659087D01*
X183589673Y-107701148D01*
X183589673Y-107845966D01*
X183627155Y-107985849D01*
X183699563Y-108111265D01*
X183730349Y-108142051D01*
X182774447Y-108398185D01*
X182856759Y-108559729D01*
X182856764Y-108559738D01*
X182995531Y-108750734D01*
X183162495Y-108917698D01*
X183353491Y-109056465D01*
X183353505Y-109056473D01*
X183563862Y-109163655D01*
X183563879Y-109163662D01*
X183788422Y-109236622D01*
X184021624Y-109273557D01*
X184257724Y-109273557D01*
X184281756Y-109269749D01*
X184025204Y-108312287D01*
X184067264Y-108323557D01*
X184212082Y-108323557D01*
X184351965Y-108286075D01*
X184477381Y-108213667D01*
X184508168Y-108182879D01*
X184764301Y-109138780D01*
X184925852Y-109056466D01*
X185116850Y-108917698D01*
X185283814Y-108750734D01*
X185422581Y-108559738D01*
X185422589Y-108559724D01*
X185529771Y-108349367D01*
X185529778Y-108349350D01*
X185602738Y-108124807D01*
X185639673Y-107891606D01*
X185639673Y-107655509D01*
X185639672Y-107655501D01*
X185635865Y-107631472D01*
X184678403Y-107888023D01*
X184689673Y-107845966D01*
X184689673Y-107701148D01*
X184652191Y-107561265D01*
X184579783Y-107435849D01*
X184548994Y-107405060D01*
X185504897Y-107148927D01*
X185422586Y-106987384D01*
X185422581Y-106987375D01*
X185283814Y-106796379D01*
X185116850Y-106629415D01*
X184925854Y-106490648D01*
X184925840Y-106490640D01*
X184715483Y-106383458D01*
X184715466Y-106383451D01*
X184490923Y-106310491D01*
X184257722Y-106273557D01*
X184021618Y-106273557D01*
X183997587Y-106277362D01*
X184254139Y-107234826D01*
X184212082Y-107223557D01*
X184067264Y-107223557D01*
X183927381Y-107261039D01*
X183801965Y-107333447D01*
X183771176Y-107364235D01*
X183515043Y-106408331D01*
X183353504Y-106490640D01*
X183162492Y-106629418D01*
X182995531Y-106796379D01*
X182856764Y-106987375D01*
X182856756Y-106987389D01*
X182749574Y-107197746D01*
X182749567Y-107197763D01*
X182676607Y-107422306D01*
X182639673Y-107655507D01*
X181150500Y-107655507D01*
X181150500Y-104316961D01*
X181150502Y-104316204D01*
X181150548Y-104306960D01*
X181150975Y-104304819D01*
X181150975Y-104223154D01*
X181150977Y-104222761D01*
X181150980Y-104222749D01*
X181150989Y-104221441D01*
X181151086Y-104214483D01*
X181151187Y-104210711D01*
X181153086Y-104162365D01*
X181168185Y-103778047D01*
X181169101Y-103766404D01*
X181170986Y-103750481D01*
X184789173Y-103750481D01*
X184789173Y-104002405D01*
X184828583Y-104251228D01*
X184906432Y-104490822D01*
X185008333Y-104690815D01*
X185020804Y-104715289D01*
X185020804Y-104715290D01*
X185094841Y-104817193D01*
X185168880Y-104919099D01*
X185347017Y-105097236D01*
X185550828Y-105245313D01*
X185775294Y-105359684D01*
X186014888Y-105437533D01*
X186263711Y-105476943D01*
X186263716Y-105476943D01*
X186515630Y-105476943D01*
X186515635Y-105476943D01*
X186764458Y-105437533D01*
X187004052Y-105359684D01*
X187228518Y-105245313D01*
X187432329Y-105097236D01*
X187610466Y-104919099D01*
X187758543Y-104715288D01*
X187814479Y-104605508D01*
X197989672Y-104605508D01*
X197989672Y-104841606D01*
X197993478Y-104865641D01*
X198950942Y-104609088D01*
X198939672Y-104651149D01*
X198939672Y-104795967D01*
X198977154Y-104935850D01*
X199049562Y-105061266D01*
X199080348Y-105092052D01*
X198124446Y-105348186D01*
X198206758Y-105509730D01*
X198206763Y-105509739D01*
X198345530Y-105700735D01*
X198512494Y-105867699D01*
X198703490Y-106006466D01*
X198703504Y-106006474D01*
X198913861Y-106113656D01*
X198913878Y-106113663D01*
X199138421Y-106186623D01*
X199371623Y-106223558D01*
X199607723Y-106223558D01*
X199631755Y-106219750D01*
X199375203Y-105262288D01*
X199417263Y-105273558D01*
X199562081Y-105273558D01*
X199701964Y-105236076D01*
X199827380Y-105163668D01*
X199858167Y-105132880D01*
X200114300Y-106088781D01*
X200275851Y-106006467D01*
X200466849Y-105867699D01*
X200633813Y-105700735D01*
X200772580Y-105509739D01*
X200772588Y-105509725D01*
X200879770Y-105299368D01*
X200879777Y-105299351D01*
X200952737Y-105074808D01*
X200989672Y-104841607D01*
X200989672Y-104605510D01*
X200989671Y-104605502D01*
X200985864Y-104581473D01*
X200028402Y-104838024D01*
X200039672Y-104795967D01*
X200039672Y-104651149D01*
X200002190Y-104511266D01*
X199929782Y-104385850D01*
X199898993Y-104355061D01*
X200854896Y-104098928D01*
X200810742Y-104012272D01*
X200810741Y-104012270D01*
X200779259Y-103950481D01*
X205768338Y-103950481D01*
X205768338Y-104202405D01*
X205807748Y-104451228D01*
X205885597Y-104690822D01*
X205997306Y-104910064D01*
X205999969Y-104915289D01*
X205999969Y-104915290D01*
X206038723Y-104968630D01*
X206148045Y-105119099D01*
X206326182Y-105297236D01*
X206529993Y-105445313D01*
X206754459Y-105559684D01*
X206994053Y-105637533D01*
X207242876Y-105676943D01*
X207242881Y-105676943D01*
X207494795Y-105676943D01*
X207494800Y-105676943D01*
X207743623Y-105637533D01*
X207983217Y-105559684D01*
X208207683Y-105445313D01*
X208411494Y-105297236D01*
X208589631Y-105119099D01*
X208737708Y-104915288D01*
X208852079Y-104690822D01*
X208929928Y-104451228D01*
X208969338Y-104202405D01*
X208969338Y-103950481D01*
X208929928Y-103701658D01*
X208852079Y-103462064D01*
X208737708Y-103237598D01*
X208589631Y-103033787D01*
X208411494Y-102855650D01*
X208207683Y-102707573D01*
X207983217Y-102593202D01*
X207743623Y-102515353D01*
X207494800Y-102475943D01*
X207242876Y-102475943D01*
X207043174Y-102507573D01*
X206994052Y-102515353D01*
X206845358Y-102563667D01*
X206754459Y-102593202D01*
X206754453Y-102593204D01*
X206754453Y-102593205D01*
X206529991Y-102707574D01*
X206529990Y-102707574D01*
X206326183Y-102855649D01*
X206326180Y-102855651D01*
X206148046Y-103033785D01*
X206148044Y-103033788D01*
X205999969Y-103237595D01*
X205999969Y-103237596D01*
X205885600Y-103462058D01*
X205885595Y-103462070D01*
X205807748Y-103701657D01*
X205799866Y-103751422D01*
X205768338Y-103950481D01*
X200779259Y-103950481D01*
X200772588Y-103937389D01*
X200772580Y-103937376D01*
X200633813Y-103746380D01*
X200466849Y-103579416D01*
X200275853Y-103440649D01*
X200275839Y-103440641D01*
X200065482Y-103333459D01*
X200065465Y-103333452D01*
X199840922Y-103260492D01*
X199607721Y-103223558D01*
X199371617Y-103223558D01*
X199347586Y-103227363D01*
X199604138Y-104184827D01*
X199562081Y-104173558D01*
X199417263Y-104173558D01*
X199277380Y-104211040D01*
X199151964Y-104283448D01*
X199121175Y-104314236D01*
X198865042Y-103358332D01*
X198703503Y-103440641D01*
X198512491Y-103579419D01*
X198345530Y-103746380D01*
X198206763Y-103937376D01*
X198206755Y-103937390D01*
X198099573Y-104147747D01*
X198099566Y-104147764D01*
X198026606Y-104372307D01*
X197989672Y-104605508D01*
X187814479Y-104605508D01*
X187843834Y-104547895D01*
X187851930Y-104532006D01*
X187851930Y-104532005D01*
X187862497Y-104511266D01*
X187872914Y-104490822D01*
X187950763Y-104251228D01*
X187990173Y-104002405D01*
X187990173Y-103750481D01*
X187950763Y-103501658D01*
X187872914Y-103262064D01*
X187758543Y-103037598D01*
X187615042Y-102840086D01*
X187615042Y-102840084D01*
X187610471Y-102833793D01*
X187610464Y-102833785D01*
X187432330Y-102655651D01*
X187432329Y-102655650D01*
X187228518Y-102507573D01*
X187004052Y-102393202D01*
X186764458Y-102315353D01*
X186515635Y-102275943D01*
X186263711Y-102275943D01*
X186056358Y-102308784D01*
X186014887Y-102315353D01*
X185799244Y-102385420D01*
X185775294Y-102393202D01*
X185775288Y-102393204D01*
X185775288Y-102393205D01*
X185550826Y-102507574D01*
X185550825Y-102507574D01*
X185347018Y-102655649D01*
X185347015Y-102655651D01*
X185168881Y-102833785D01*
X185168879Y-102833788D01*
X185020804Y-103037595D01*
X185020804Y-103037596D01*
X184906435Y-103262058D01*
X184906430Y-103262070D01*
X184834114Y-103484636D01*
X184828583Y-103501658D01*
X184789173Y-103750481D01*
X181170986Y-103750481D01*
X181219943Y-103336825D01*
X181221768Y-103325304D01*
X181306162Y-102901021D01*
X181308882Y-102889688D01*
X181426305Y-102473334D01*
X181429905Y-102462251D01*
X181579642Y-102056370D01*
X181584093Y-102045625D01*
X181602588Y-102005507D01*
X193118838Y-102005507D01*
X193118838Y-102241605D01*
X193122644Y-102265640D01*
X194080108Y-102009087D01*
X194068838Y-102051148D01*
X194068838Y-102195966D01*
X194106320Y-102335849D01*
X194178728Y-102461265D01*
X194209514Y-102492051D01*
X193253612Y-102748185D01*
X193335924Y-102909729D01*
X193335929Y-102909738D01*
X193474696Y-103100734D01*
X193641660Y-103267698D01*
X193832656Y-103406465D01*
X193832670Y-103406473D01*
X194043027Y-103513655D01*
X194043044Y-103513662D01*
X194267587Y-103586622D01*
X194500789Y-103623557D01*
X194736889Y-103623557D01*
X194760921Y-103619749D01*
X194504369Y-102662287D01*
X194546429Y-102673557D01*
X194691247Y-102673557D01*
X194831130Y-102636075D01*
X194956546Y-102563667D01*
X194987333Y-102532879D01*
X195243466Y-103488780D01*
X195405017Y-103406466D01*
X195596015Y-103267698D01*
X195762979Y-103100734D01*
X195901746Y-102909738D01*
X195901754Y-102909724D01*
X196008936Y-102699367D01*
X196008943Y-102699350D01*
X196081903Y-102474807D01*
X196118838Y-102241606D01*
X196118838Y-102005509D01*
X196118837Y-102005501D01*
X196115030Y-101981472D01*
X195157568Y-102238023D01*
X195168838Y-102195966D01*
X195168838Y-102051148D01*
X195131356Y-101911265D01*
X195058948Y-101785849D01*
X195028159Y-101755060D01*
X195984062Y-101498927D01*
X195901751Y-101337384D01*
X195901746Y-101337375D01*
X195762979Y-101146379D01*
X195596015Y-100979415D01*
X195405019Y-100840648D01*
X195405010Y-100840643D01*
X195378994Y-100827387D01*
X195378992Y-100827385D01*
X195194648Y-100733458D01*
X195194631Y-100733451D01*
X195093162Y-100700481D01*
X200139173Y-100700481D01*
X200139173Y-100952405D01*
X200178583Y-101201228D01*
X200256432Y-101440822D01*
X200364430Y-101652781D01*
X200370804Y-101665289D01*
X200370804Y-101665290D01*
X200444841Y-101767193D01*
X200518880Y-101869099D01*
X200697017Y-102047236D01*
X200900828Y-102195313D01*
X201125294Y-102309684D01*
X201364888Y-102387533D01*
X201613711Y-102426943D01*
X201613716Y-102426943D01*
X201865630Y-102426943D01*
X201865635Y-102426943D01*
X202114458Y-102387533D01*
X202354052Y-102309684D01*
X202578518Y-102195313D01*
X202782329Y-102047236D01*
X202960466Y-101869099D01*
X203108543Y-101665288D01*
X203222914Y-101440822D01*
X203300763Y-101201228D01*
X203340173Y-100952405D01*
X203340173Y-100700481D01*
X203300763Y-100451658D01*
X203222914Y-100212064D01*
X203108543Y-99987598D01*
X202960466Y-99783787D01*
X202782329Y-99605650D01*
X202578518Y-99457573D01*
X202354052Y-99343202D01*
X202114458Y-99265353D01*
X201865635Y-99225943D01*
X201613711Y-99225943D01*
X201406358Y-99258784D01*
X201364887Y-99265353D01*
X201264737Y-99297894D01*
X201125294Y-99343202D01*
X201125288Y-99343204D01*
X201125288Y-99343205D01*
X200900826Y-99457574D01*
X200900825Y-99457574D01*
X200697018Y-99605649D01*
X200697015Y-99605651D01*
X200518881Y-99783785D01*
X200518879Y-99783788D01*
X200370804Y-99987595D01*
X200370804Y-99987596D01*
X200256435Y-100212058D01*
X200256430Y-100212070D01*
X200178583Y-100451657D01*
X200173611Y-100483051D01*
X200139173Y-100700481D01*
X195093162Y-100700481D01*
X194970088Y-100660491D01*
X194736887Y-100623557D01*
X194500783Y-100623557D01*
X194476752Y-100627362D01*
X194733304Y-101584826D01*
X194691247Y-101573557D01*
X194546429Y-101573557D01*
X194406546Y-101611039D01*
X194281130Y-101683447D01*
X194250341Y-101714235D01*
X193994208Y-100758331D01*
X193832669Y-100840640D01*
X193641657Y-100979418D01*
X193474696Y-101146379D01*
X193335929Y-101337375D01*
X193335921Y-101337389D01*
X193228739Y-101547746D01*
X193228732Y-101547763D01*
X193155772Y-101772306D01*
X193118838Y-102005507D01*
X181602588Y-102005507D01*
X181765205Y-101652762D01*
X181770497Y-101642375D01*
X181981875Y-101264930D01*
X181987958Y-101255003D01*
X182180584Y-100966719D01*
X182238572Y-100915866D01*
X182304473Y-100900500D01*
X182360218Y-100900500D01*
X182360222Y-100900500D01*
X182577951Y-100866015D01*
X182577952Y-100866014D01*
X182577956Y-100866014D01*
X182658556Y-100839825D01*
X182787606Y-100797895D01*
X182984022Y-100697815D01*
X183162365Y-100568242D01*
X183318242Y-100412365D01*
X183447815Y-100234022D01*
X183547895Y-100037606D01*
X183600741Y-99874960D01*
X183616014Y-99827956D01*
X183616015Y-99827951D01*
X183650500Y-99610222D01*
X183650500Y-99434717D01*
X183670462Y-99360217D01*
X183694141Y-99329358D01*
X184267992Y-98755507D01*
X187489673Y-98755507D01*
X187489673Y-98991605D01*
X187493479Y-99015640D01*
X188450943Y-98759087D01*
X188439673Y-98801148D01*
X188439673Y-98945966D01*
X188477155Y-99085849D01*
X188549563Y-99211265D01*
X188580349Y-99242051D01*
X187624447Y-99498185D01*
X187706759Y-99659729D01*
X187706764Y-99659738D01*
X187845531Y-99850734D01*
X188012495Y-100017698D01*
X188203491Y-100156465D01*
X188203505Y-100156473D01*
X188413862Y-100263655D01*
X188413879Y-100263662D01*
X188638422Y-100336622D01*
X188871624Y-100373557D01*
X189107724Y-100373557D01*
X189131756Y-100369749D01*
X188875204Y-99412287D01*
X188917264Y-99423557D01*
X189062082Y-99423557D01*
X189201965Y-99386075D01*
X189327381Y-99313667D01*
X189358168Y-99282879D01*
X189614301Y-100238780D01*
X189775852Y-100156466D01*
X189966850Y-100017698D01*
X190133814Y-99850734D01*
X190272581Y-99659738D01*
X190272589Y-99659724D01*
X190379771Y-99449367D01*
X190379778Y-99449350D01*
X190452738Y-99224807D01*
X190489673Y-98991606D01*
X190489673Y-98755509D01*
X190489672Y-98755501D01*
X190485865Y-98731472D01*
X189528403Y-98988023D01*
X189539673Y-98945966D01*
X189539673Y-98801148D01*
X189502191Y-98661265D01*
X189429783Y-98535849D01*
X189398994Y-98505060D01*
X190354897Y-98248927D01*
X190310744Y-98162272D01*
X190279259Y-98100481D01*
X195268338Y-98100481D01*
X195268338Y-98352405D01*
X195307748Y-98601228D01*
X195385597Y-98840822D01*
X195483088Y-99032160D01*
X195499969Y-99065289D01*
X195499969Y-99065290D01*
X195519673Y-99092410D01*
X195648045Y-99269099D01*
X195826182Y-99447236D01*
X196029993Y-99595313D01*
X196254459Y-99709684D01*
X196494053Y-99787533D01*
X196742876Y-99826943D01*
X196742881Y-99826943D01*
X196994795Y-99826943D01*
X196994800Y-99826943D01*
X197243623Y-99787533D01*
X197483217Y-99709684D01*
X197707683Y-99595313D01*
X197911494Y-99447236D01*
X198089631Y-99269099D01*
X198237708Y-99065288D01*
X198352079Y-98840822D01*
X198429928Y-98601228D01*
X198469338Y-98352405D01*
X198469338Y-98100481D01*
X198429928Y-97851658D01*
X198352079Y-97612064D01*
X198237708Y-97387598D01*
X198089631Y-97183787D01*
X197911494Y-97005650D01*
X197707683Y-96857573D01*
X197483217Y-96743202D01*
X197243623Y-96665353D01*
X196994800Y-96625943D01*
X196742876Y-96625943D01*
X196535523Y-96658784D01*
X196494052Y-96665353D01*
X196254465Y-96743200D01*
X196254459Y-96743202D01*
X196254453Y-96743204D01*
X196254453Y-96743205D01*
X196029991Y-96857574D01*
X196029990Y-96857574D01*
X195826183Y-97005649D01*
X195826180Y-97005651D01*
X195648046Y-97183785D01*
X195648044Y-97183788D01*
X195499969Y-97387595D01*
X195499969Y-97387596D01*
X195385600Y-97612058D01*
X195385595Y-97612070D01*
X195308609Y-97849009D01*
X195307748Y-97851658D01*
X195268338Y-98100481D01*
X190279259Y-98100481D01*
X190272586Y-98087384D01*
X190272581Y-98087375D01*
X190133814Y-97896379D01*
X189966850Y-97729415D01*
X189775854Y-97590648D01*
X189775840Y-97590640D01*
X189565483Y-97483458D01*
X189565466Y-97483451D01*
X189340923Y-97410491D01*
X189107722Y-97373557D01*
X188871618Y-97373557D01*
X188847587Y-97377362D01*
X189104139Y-98334826D01*
X189062082Y-98323557D01*
X188917264Y-98323557D01*
X188777381Y-98361039D01*
X188651965Y-98433447D01*
X188621176Y-98464235D01*
X188365043Y-97508331D01*
X188203504Y-97590640D01*
X188012492Y-97729418D01*
X187845531Y-97896379D01*
X187706764Y-98087375D01*
X187706756Y-98087389D01*
X187599574Y-98297746D01*
X187599567Y-98297763D01*
X187526607Y-98522306D01*
X187489673Y-98755507D01*
X184267992Y-98755507D01*
X184639514Y-98383985D01*
X185634712Y-97388787D01*
X185638879Y-97384781D01*
X185929680Y-97115967D01*
X185938551Y-97108390D01*
X186247232Y-96865047D01*
X186256692Y-96858174D01*
X186257361Y-96857727D01*
X186583525Y-96639792D01*
X186593452Y-96633708D01*
X186936417Y-96441641D01*
X186946799Y-96436350D01*
X187303796Y-96271774D01*
X187314552Y-96267318D01*
X187683353Y-96131262D01*
X187694435Y-96127662D01*
X188072763Y-96020964D01*
X188084096Y-96018244D01*
X188469629Y-95941559D01*
X188481151Y-95939734D01*
X188871490Y-95893537D01*
X188883139Y-95892620D01*
X189014371Y-95887465D01*
X189279308Y-95877058D01*
X189285154Y-95876943D01*
X189370430Y-95876944D01*
X189370435Y-95876943D01*
X189839678Y-95876943D01*
X189914178Y-95896905D01*
X189960222Y-95938363D01*
X190018880Y-96019099D01*
X190197017Y-96197236D01*
X190400828Y-96345313D01*
X190625294Y-96459684D01*
X190864888Y-96537533D01*
X191113711Y-96576943D01*
X191113716Y-96576943D01*
X191365630Y-96576943D01*
X191365635Y-96576943D01*
X191614458Y-96537533D01*
X191854052Y-96459684D01*
X192078518Y-96345313D01*
X192282329Y-96197236D01*
X192460466Y-96019099D01*
X192608543Y-95815288D01*
X192722914Y-95590822D01*
X192800763Y-95351228D01*
X192840173Y-95102405D01*
X192840173Y-94850481D01*
X192800763Y-94601658D01*
X192722914Y-94362064D01*
X192608543Y-94137598D01*
X192460466Y-93933787D01*
X192282329Y-93755650D01*
X192078518Y-93607573D01*
X191854052Y-93493202D01*
X191614458Y-93415353D01*
X191365635Y-93375943D01*
X191113711Y-93375943D01*
X190906358Y-93408784D01*
X190864887Y-93415353D01*
X190625300Y-93493200D01*
X190625294Y-93493202D01*
X190625288Y-93493204D01*
X190625288Y-93493205D01*
X190400826Y-93607574D01*
X190400825Y-93607574D01*
X190197018Y-93755649D01*
X190197015Y-93755651D01*
X190018881Y-93933785D01*
X190018879Y-93933788D01*
X189960222Y-94014523D01*
X189900282Y-94063061D01*
X189839678Y-94075943D01*
X189186038Y-94075943D01*
X189185665Y-94075960D01*
X189033312Y-94075960D01*
X188537754Y-94111399D01*
X188045936Y-94182109D01*
X187560453Y-94287716D01*
X187560443Y-94287718D01*
X187560438Y-94287720D01*
X187083709Y-94427698D01*
X186782612Y-94540000D01*
X186618178Y-94601330D01*
X186618163Y-94601336D01*
X186166246Y-94807718D01*
X186166230Y-94807725D01*
X186166226Y-94807728D01*
X186166217Y-94807732D01*
X186166209Y-94807737D01*
X185730153Y-95045839D01*
X185730140Y-95045847D01*
X185312168Y-95314460D01*
X185312161Y-95314465D01*
X184914414Y-95612214D01*
X184538908Y-95937591D01*
X184538901Y-95937598D01*
X184425964Y-96050534D01*
X184425965Y-96050535D01*
X184425964Y-96050536D01*
X182420640Y-98055859D01*
X182353845Y-98094423D01*
X182315281Y-98099500D01*
X182139778Y-98099500D01*
X182052686Y-98113294D01*
X181922043Y-98133985D01*
X181712393Y-98202105D01*
X181515976Y-98302185D01*
X181515975Y-98302186D01*
X181337636Y-98431757D01*
X181337633Y-98431759D01*
X181181759Y-98587633D01*
X181181757Y-98587636D01*
X181052186Y-98765975D01*
X181052185Y-98765976D01*
X180952105Y-98962393D01*
X180883985Y-99172043D01*
X180865624Y-99287973D01*
X180850087Y-99386075D01*
X180849500Y-99389781D01*
X180849500Y-99610219D01*
X180855200Y-99646212D01*
X180847137Y-99722917D01*
X180826244Y-99760223D01*
X180742693Y-99869108D01*
X180471374Y-100275166D01*
X180227183Y-100698118D01*
X180227181Y-100698121D01*
X180011194Y-101136101D01*
X179824303Y-101587298D01*
X179824302Y-101587301D01*
X179667319Y-102049761D01*
X179540931Y-102521455D01*
X179540927Y-102521473D01*
X179445655Y-103000442D01*
X179445653Y-103000451D01*
X179381911Y-103484632D01*
X179349974Y-103971953D01*
X179349974Y-104149179D01*
X179349972Y-104149934D01*
X179349925Y-104159167D01*
X179349500Y-104161309D01*
X179349500Y-104243026D01*
X179349498Y-104243421D01*
X179349494Y-104243433D01*
X179349485Y-104244756D01*
X179348344Y-104326052D01*
X179348960Y-104333345D01*
X179348352Y-104333396D01*
X179349500Y-104345938D01*
X179349500Y-108772198D01*
X179349385Y-108778049D01*
X179334085Y-109167403D01*
X179333167Y-109179066D01*
X179287711Y-109563112D01*
X179285881Y-109574667D01*
X179210432Y-109953966D01*
X179207701Y-109965342D01*
X179102724Y-110337560D01*
X179099108Y-110348687D01*
X178965257Y-110711503D01*
X178960780Y-110722312D01*
X178798871Y-111073517D01*
X178793560Y-111083941D01*
X178604592Y-111421367D01*
X178598479Y-111431342D01*
X178383623Y-111752895D01*
X178376746Y-111762360D01*
X178137326Y-112066064D01*
X178129728Y-112074960D01*
X177865054Y-112361282D01*
X177860999Y-112365500D01*
X175492479Y-114734022D01*
X175492477Y-114734024D01*
X175463601Y-114762899D01*
X175458907Y-114767392D01*
X175173100Y-115029288D01*
X175163143Y-115037644D01*
X174858151Y-115271673D01*
X174847503Y-115279128D01*
X174523295Y-115485673D01*
X174512038Y-115492172D01*
X174171064Y-115669673D01*
X174159283Y-115675167D01*
X173804126Y-115822277D01*
X173791911Y-115826723D01*
X173425282Y-115942321D01*
X173412727Y-115945685D01*
X173290819Y-115972712D01*
X173213765Y-115969348D01*
X173157247Y-115935052D01*
X173156815Y-115935559D01*
X173153707Y-115932904D01*
X173153210Y-115932603D01*
X173152366Y-115931759D01*
X173152365Y-115931758D01*
X173005105Y-115824768D01*
X172974024Y-115802186D01*
X172974023Y-115802185D01*
X172777612Y-115702107D01*
X172697394Y-115676043D01*
X172591717Y-115641707D01*
X172527034Y-115599701D01*
X172492018Y-115530979D01*
X172496054Y-115453957D01*
X172538061Y-115389272D01*
X172591717Y-115358292D01*
X172777606Y-115297895D01*
X172974022Y-115197815D01*
X173152365Y-115068242D01*
X173308242Y-114912365D01*
X173437815Y-114734022D01*
X173537895Y-114537606D01*
X173599057Y-114349367D01*
X173606014Y-114327956D01*
X173606711Y-114323557D01*
X173640500Y-114110222D01*
X173640500Y-113889778D01*
X173606015Y-113672049D01*
X173606014Y-113672048D01*
X173606014Y-113672043D01*
X173559813Y-113529852D01*
X173537895Y-113462394D01*
X173437815Y-113265978D01*
X173308242Y-113087635D01*
X173152365Y-112931758D01*
X173022391Y-112837327D01*
X172974024Y-112802186D01*
X172974023Y-112802185D01*
X172777606Y-112702105D01*
X172567956Y-112633985D01*
X172446990Y-112614826D01*
X172350222Y-112599500D01*
X172129778Y-112599500D01*
X172042686Y-112613294D01*
X171912043Y-112633985D01*
X171702393Y-112702105D01*
X171505976Y-112802185D01*
X171505975Y-112802186D01*
X171327636Y-112931757D01*
X171327633Y-112931759D01*
X171171759Y-113087633D01*
X171171757Y-113087636D01*
X171042186Y-113265975D01*
X171042185Y-113265976D01*
X170942105Y-113462393D01*
X170873985Y-113672043D01*
X170853933Y-113798651D01*
X170839500Y-113889778D01*
X158400500Y-113889778D01*
X158366015Y-113672049D01*
X158366014Y-113672048D01*
X158366014Y-113672043D01*
X158319813Y-113529852D01*
X158297895Y-113462394D01*
X158197815Y-113265978D01*
X158068242Y-113087635D01*
X157912365Y-112931758D01*
X157782391Y-112837327D01*
X157734024Y-112802186D01*
X157734023Y-112802185D01*
X157537606Y-112702105D01*
X157327956Y-112633985D01*
X157206990Y-112614826D01*
X157110222Y-112599500D01*
X156889778Y-112599500D01*
X156802686Y-112613294D01*
X156672043Y-112633985D01*
X156462393Y-112702105D01*
X156265976Y-112802185D01*
X156265975Y-112802186D01*
X156087636Y-112931757D01*
X156087633Y-112931759D01*
X155931759Y-113087633D01*
X155931757Y-113087636D01*
X155802186Y-113265975D01*
X155802185Y-113265976D01*
X155702105Y-113462393D01*
X155633985Y-113672043D01*
X155613933Y-113798651D01*
X155599500Y-113889778D01*
X144121451Y-113889778D01*
X144121451Y-113859071D01*
X144086966Y-113641342D01*
X144086965Y-113641341D01*
X144086965Y-113641336D01*
X144041075Y-113500101D01*
X144018846Y-113431687D01*
X143918766Y-113235271D01*
X143789193Y-113056928D01*
X143633316Y-112901051D01*
X143542821Y-112835303D01*
X143454975Y-112771479D01*
X143454974Y-112771478D01*
X143258557Y-112671398D01*
X143048907Y-112603278D01*
X142927941Y-112584119D01*
X142831173Y-112568793D01*
X142610729Y-112568793D01*
X142523637Y-112582587D01*
X142392994Y-112603278D01*
X142183344Y-112671398D01*
X141986927Y-112771478D01*
X141986926Y-112771479D01*
X141808587Y-112901050D01*
X141808584Y-112901052D01*
X141652710Y-113056926D01*
X141652708Y-113056929D01*
X141523137Y-113235268D01*
X141523136Y-113235269D01*
X141423056Y-113431686D01*
X141354936Y-113641336D01*
X141331946Y-113786494D01*
X141320451Y-113859071D01*
X138520500Y-113859071D01*
X138520500Y-96252533D01*
X138540462Y-96178033D01*
X138564141Y-96147174D01*
X138564933Y-96146381D01*
X138564937Y-96146379D01*
X138726379Y-95984937D01*
X138769459Y-95925642D01*
X138829396Y-95877107D01*
X138905575Y-95865041D01*
X138977580Y-95892681D01*
X139010538Y-95925639D01*
X139053621Y-95984937D01*
X139215063Y-96146379D01*
X139399772Y-96280579D01*
X139603201Y-96384231D01*
X139820340Y-96454784D01*
X140045843Y-96490500D01*
X140045847Y-96490500D01*
X140274153Y-96490500D01*
X140274157Y-96490500D01*
X140499660Y-96454784D01*
X140716799Y-96384231D01*
X140920228Y-96280579D01*
X141104937Y-96146379D01*
X141266379Y-95984937D01*
X141309459Y-95925642D01*
X141369396Y-95877107D01*
X141445575Y-95865041D01*
X141517580Y-95892681D01*
X141550538Y-95925639D01*
X141593621Y-95984937D01*
X141755063Y-96146379D01*
X141939772Y-96280579D01*
X142143201Y-96384231D01*
X142360340Y-96454784D01*
X142585843Y-96490500D01*
X142585847Y-96490500D01*
X142814153Y-96490500D01*
X142814157Y-96490500D01*
X143039660Y-96454784D01*
X143256799Y-96384231D01*
X143460228Y-96280579D01*
X143644937Y-96146379D01*
X143806379Y-95984937D01*
X143849459Y-95925642D01*
X143909396Y-95877107D01*
X143985575Y-95865041D01*
X144057580Y-95892681D01*
X144090538Y-95925639D01*
X144133621Y-95984937D01*
X144295063Y-96146379D01*
X144479772Y-96280579D01*
X144683201Y-96384231D01*
X144900340Y-96454784D01*
X145125843Y-96490500D01*
X145125847Y-96490500D01*
X145354153Y-96490500D01*
X145354157Y-96490500D01*
X145579660Y-96454784D01*
X145796799Y-96384231D01*
X146000228Y-96280579D01*
X146184937Y-96146379D01*
X146346379Y-95984937D01*
X146389459Y-95925642D01*
X146449396Y-95877107D01*
X146525575Y-95865041D01*
X146597580Y-95892681D01*
X146630538Y-95925639D01*
X146673621Y-95984937D01*
X146835063Y-96146379D01*
X147019772Y-96280579D01*
X147223201Y-96384231D01*
X147440340Y-96454784D01*
X147665843Y-96490500D01*
X147665847Y-96490500D01*
X147894153Y-96490500D01*
X147894157Y-96490500D01*
X148119660Y-96454784D01*
X148336799Y-96384231D01*
X148540228Y-96280579D01*
X148724937Y-96146379D01*
X148886379Y-95984937D01*
X148929459Y-95925642D01*
X148989396Y-95877107D01*
X149065575Y-95865041D01*
X149137580Y-95892681D01*
X149170538Y-95925639D01*
X149213621Y-95984937D01*
X149375063Y-96146379D01*
X149559772Y-96280579D01*
X149763201Y-96384231D01*
X149980340Y-96454784D01*
X150205843Y-96490500D01*
X150205847Y-96490500D01*
X150434153Y-96490500D01*
X150434157Y-96490500D01*
X150659660Y-96454784D01*
X150876799Y-96384231D01*
X151080228Y-96280579D01*
X151264937Y-96146379D01*
X151426379Y-95984937D01*
X151469459Y-95925642D01*
X151529396Y-95877107D01*
X151605575Y-95865041D01*
X151677580Y-95892681D01*
X151710538Y-95925639D01*
X151753621Y-95984937D01*
X151915063Y-96146379D01*
X152099772Y-96280579D01*
X152303201Y-96384231D01*
X152520340Y-96454784D01*
X152745843Y-96490500D01*
X152745847Y-96490500D01*
X152974153Y-96490500D01*
X152974157Y-96490500D01*
X153199660Y-96454784D01*
X153416799Y-96384231D01*
X153620228Y-96280579D01*
X153804937Y-96146379D01*
X153966379Y-95984937D01*
X154009459Y-95925642D01*
X154069396Y-95877107D01*
X154145575Y-95865041D01*
X154217580Y-95892681D01*
X154250538Y-95925639D01*
X154293621Y-95984937D01*
X154455063Y-96146379D01*
X154639772Y-96280579D01*
X154843201Y-96384231D01*
X155060340Y-96454784D01*
X155285843Y-96490500D01*
X155285847Y-96490500D01*
X155514153Y-96490500D01*
X155514157Y-96490500D01*
X155739660Y-96454784D01*
X155956799Y-96384231D01*
X156160228Y-96280579D01*
X156344937Y-96146379D01*
X156506379Y-95984937D01*
X156549459Y-95925642D01*
X156609396Y-95877107D01*
X156685575Y-95865041D01*
X156757580Y-95892681D01*
X156790538Y-95925639D01*
X156833621Y-95984937D01*
X156995063Y-96146379D01*
X156995066Y-96146381D01*
X156995859Y-96147174D01*
X157034423Y-96213969D01*
X157039500Y-96252533D01*
X157039500Y-97596092D01*
X157030004Y-97631528D01*
X157021442Y-97667192D01*
X157020058Y-97668649D01*
X157019538Y-97670592D01*
X156968349Y-97723137D01*
X156920473Y-97752474D01*
X156899642Y-97763088D01*
X156801057Y-97803922D01*
X156778819Y-97811147D01*
X156675052Y-97836057D01*
X156651960Y-97839714D01*
X156539768Y-97848542D01*
X156530149Y-97848987D01*
X156528565Y-97849009D01*
X156526496Y-97849023D01*
X156442842Y-97849023D01*
X156432963Y-97849507D01*
X156298624Y-97849507D01*
X155897113Y-97881107D01*
X155499319Y-97944111D01*
X155499318Y-97944111D01*
X155107686Y-98038133D01*
X154724665Y-98162584D01*
X154724634Y-98162596D01*
X154352592Y-98316698D01*
X154352556Y-98316715D01*
X153993717Y-98499551D01*
X153993708Y-98499556D01*
X153993705Y-98499558D01*
X153883045Y-98567370D01*
X153650297Y-98709997D01*
X153324473Y-98946719D01*
X153324471Y-98946721D01*
X153018229Y-99208274D01*
X153018210Y-99208292D01*
X152938528Y-99287973D01*
X152800536Y-99425964D01*
X151743448Y-100483051D01*
X151743229Y-100483293D01*
X151656328Y-100570193D01*
X151372037Y-100903051D01*
X151372036Y-100903052D01*
X151114743Y-101257180D01*
X150886028Y-101630405D01*
X150886024Y-101630412D01*
X150806824Y-101785849D01*
X150687295Y-102020434D01*
X150519781Y-102424844D01*
X150519776Y-102424857D01*
X150384512Y-102841152D01*
X150384508Y-102841168D01*
X150282323Y-103266793D01*
X150263581Y-103385125D01*
X150225817Y-103623557D01*
X150213845Y-103699142D01*
X150213844Y-103699145D01*
X150200767Y-103865304D01*
X150179500Y-104135525D01*
X150179500Y-104135532D01*
X150179500Y-108787466D01*
X150159538Y-108861966D01*
X150135859Y-108892825D01*
X149973618Y-109055066D01*
X149949581Y-109088151D01*
X149939391Y-109102177D01*
X149930543Y-109114355D01*
X149870603Y-109162893D01*
X149794424Y-109174958D01*
X149722419Y-109147317D01*
X149689457Y-109114355D01*
X149680609Y-109102177D01*
X149646379Y-109055063D01*
X149484937Y-108893621D01*
X149483841Y-108892825D01*
X149440499Y-108861335D01*
X149300228Y-108759421D01*
X149096799Y-108655769D01*
X148879660Y-108585216D01*
X148654157Y-108549500D01*
X148425843Y-108549500D01*
X148200340Y-108585216D01*
X148125036Y-108609684D01*
X147983201Y-108655769D01*
X147983195Y-108655771D01*
X147983195Y-108655772D01*
X147779773Y-108759420D01*
X147595066Y-108893618D01*
X147535373Y-108953311D01*
X147468578Y-108991874D01*
X147391450Y-108991874D01*
X147324655Y-108953309D01*
X147300704Y-108916033D01*
X147298457Y-108917260D01*
X147293349Y-108907905D01*
X147207190Y-108792812D01*
X147207187Y-108792809D01*
X147092094Y-108706650D01*
X147092084Y-108706645D01*
X146957376Y-108656401D01*
X146957378Y-108656401D01*
X146897842Y-108650001D01*
X146897823Y-108650000D01*
X146250000Y-108650000D01*
X146250000Y-109566988D01*
X146192993Y-109534075D01*
X146065826Y-109500000D01*
X145934174Y-109500000D01*
X145807007Y-109534075D01*
X145750000Y-109566988D01*
X145750000Y-108650000D01*
X145102177Y-108650000D01*
X145102157Y-108650001D01*
X145042622Y-108656401D01*
X144907915Y-108706645D01*
X144907905Y-108706650D01*
X144792812Y-108792809D01*
X144792809Y-108792812D01*
X144706650Y-108907905D01*
X144706645Y-108907915D01*
X144656401Y-109042622D01*
X144650001Y-109102157D01*
X144650000Y-109102177D01*
X144650000Y-109750000D01*
X145566988Y-109750000D01*
X145534075Y-109807007D01*
X145500000Y-109934174D01*
X145500000Y-110065826D01*
X145534075Y-110192993D01*
X145566988Y-110250000D01*
X144650000Y-110250000D01*
X144650000Y-110897822D01*
X144650001Y-110897842D01*
X144656401Y-110957377D01*
X144706645Y-111092084D01*
X144706650Y-111092094D01*
X144792809Y-111207187D01*
X144792812Y-111207190D01*
X144907905Y-111293349D01*
X144907915Y-111293354D01*
X145042623Y-111343598D01*
X145042621Y-111343598D01*
X145102157Y-111349998D01*
X145102177Y-111350000D01*
X145750000Y-111350000D01*
X145750000Y-110433012D01*
X145807007Y-110465925D01*
X145934174Y-110500000D01*
X146065826Y-110500000D01*
X146192993Y-110465925D01*
X146250000Y-110433012D01*
X146250000Y-111350000D01*
X146897823Y-111350000D01*
X146897842Y-111349998D01*
X146957377Y-111343598D01*
X147092084Y-111293354D01*
X147092094Y-111293349D01*
X147207187Y-111207190D01*
X147207190Y-111207187D01*
X147293349Y-111092094D01*
X147298457Y-111082740D01*
X147301506Y-111084405D01*
X147335111Y-111037182D01*
X147405259Y-111005119D01*
X147482040Y-111012426D01*
X147535371Y-111046687D01*
X147595063Y-111106379D01*
X147779772Y-111240579D01*
X147983201Y-111344231D01*
X148200340Y-111414784D01*
X148425843Y-111450500D01*
X148425847Y-111450500D01*
X148654153Y-111450500D01*
X148654157Y-111450500D01*
X148879660Y-111414784D01*
X149096799Y-111344231D01*
X149300228Y-111240579D01*
X149484937Y-111106379D01*
X149646379Y-110944937D01*
X149689459Y-110885642D01*
X149749396Y-110837107D01*
X149825575Y-110825041D01*
X149897580Y-110852681D01*
X149930538Y-110885639D01*
X149973621Y-110944937D01*
X150135063Y-111106379D01*
X150319772Y-111240579D01*
X150523201Y-111344231D01*
X150740340Y-111414784D01*
X150965843Y-111450500D01*
X150965847Y-111450500D01*
X151194153Y-111450500D01*
X151194157Y-111450500D01*
X151419660Y-111414784D01*
X151636799Y-111344231D01*
X151840228Y-111240579D01*
X152024937Y-111106379D01*
X152186379Y-110944937D01*
X152229459Y-110885642D01*
X152289396Y-110837107D01*
X152365575Y-110825041D01*
X152437580Y-110852681D01*
X152470538Y-110885639D01*
X152513621Y-110944937D01*
X152675063Y-111106379D01*
X152859772Y-111240579D01*
X153063201Y-111344231D01*
X153280340Y-111414784D01*
X153505843Y-111450500D01*
X153505847Y-111450500D01*
X153734153Y-111450500D01*
X153734157Y-111450500D01*
X153959660Y-111414784D01*
X154176799Y-111344231D01*
X154380228Y-111240579D01*
X154564937Y-111106379D01*
X154726379Y-110944937D01*
X154860579Y-110760228D01*
X154964231Y-110556799D01*
X155034784Y-110339660D01*
X155070500Y-110114157D01*
X155070500Y-109885843D01*
X155034784Y-109660340D01*
X154964231Y-109443201D01*
X154860579Y-109239772D01*
X154726379Y-109055063D01*
X154682658Y-109011342D01*
X154665730Y-108982021D01*
X154646926Y-108953879D01*
X154646598Y-108948884D01*
X154644096Y-108944550D01*
X154641882Y-108876920D01*
X154669248Y-108739344D01*
X154671971Y-108728005D01*
X154784426Y-108329269D01*
X154788027Y-108318190D01*
X154931414Y-107929523D01*
X154935876Y-107918749D01*
X155109320Y-107542525D01*
X155114612Y-107532138D01*
X155187220Y-107402488D01*
X166799500Y-107402488D01*
X166799500Y-107697511D01*
X166838004Y-107989977D01*
X166838007Y-107989994D01*
X166914359Y-108274948D01*
X166914359Y-108274949D01*
X166968324Y-108405230D01*
X167016150Y-108520693D01*
X167027259Y-108547511D01*
X167082693Y-108643526D01*
X167168883Y-108792812D01*
X167174764Y-108802997D01*
X167174764Y-108802998D01*
X167319695Y-108991874D01*
X167354354Y-109037042D01*
X167562958Y-109245646D01*
X167797006Y-109425238D01*
X168052493Y-109572743D01*
X168263971Y-109660340D01*
X168325050Y-109685640D01*
X168467527Y-109723816D01*
X168610007Y-109761993D01*
X168902489Y-109800499D01*
X168902492Y-109800500D01*
X168902494Y-109800500D01*
X169197508Y-109800500D01*
X169197509Y-109800499D01*
X169489993Y-109761993D01*
X169774948Y-109685640D01*
X169774949Y-109685640D01*
X169774950Y-109685639D01*
X169774952Y-109685639D01*
X170047507Y-109572743D01*
X170302994Y-109425238D01*
X170537042Y-109245646D01*
X170745646Y-109037042D01*
X170925238Y-108802994D01*
X171072743Y-108547507D01*
X171185639Y-108274952D01*
X171261993Y-107989993D01*
X171300500Y-107697506D01*
X171300500Y-107402494D01*
X171261993Y-107110007D01*
X171186810Y-106829419D01*
X171185640Y-106825051D01*
X171185640Y-106825050D01*
X171168038Y-106782556D01*
X171072743Y-106552493D01*
X170925238Y-106297006D01*
X170925235Y-106297002D01*
X170925235Y-106297001D01*
X170745645Y-106062957D01*
X170537042Y-105854354D01*
X170302997Y-105674764D01*
X170240991Y-105638965D01*
X170184422Y-105606305D01*
X170047511Y-105527259D01*
X170047509Y-105527258D01*
X170047507Y-105527257D01*
X169962524Y-105492055D01*
X169774949Y-105414359D01*
X169489994Y-105338007D01*
X169489977Y-105338004D01*
X169197511Y-105299500D01*
X169197506Y-105299500D01*
X168902494Y-105299500D01*
X168902488Y-105299500D01*
X168610022Y-105338004D01*
X168610005Y-105338007D01*
X168325051Y-105414359D01*
X168325050Y-105414359D01*
X168052488Y-105527259D01*
X167797002Y-105674764D01*
X167797001Y-105674764D01*
X167562957Y-105854354D01*
X167354354Y-106062957D01*
X167174764Y-106297001D01*
X167174764Y-106297002D01*
X167027259Y-106552488D01*
X166914359Y-106825050D01*
X166914359Y-106825051D01*
X166838007Y-107110005D01*
X166838004Y-107110022D01*
X166799500Y-107402488D01*
X155187220Y-107402488D01*
X155317033Y-107170692D01*
X155323146Y-107160718D01*
X155357030Y-107110007D01*
X155553301Y-106816268D01*
X155560145Y-106806848D01*
X155816626Y-106481506D01*
X155824191Y-106472648D01*
X156107628Y-106166029D01*
X156111605Y-106161894D01*
X156139394Y-106134106D01*
X157343099Y-104930401D01*
X157343146Y-104930373D01*
X157386759Y-104886759D01*
X157386760Y-104886760D01*
X157588375Y-104685144D01*
X157595703Y-104676873D01*
X157966509Y-104258319D01*
X157966509Y-104258318D01*
X157966524Y-104258302D01*
X158318210Y-103809407D01*
X158642151Y-103340097D01*
X158937165Y-102852083D01*
X159202175Y-102347147D01*
X159436214Y-101827132D01*
X159638428Y-101293934D01*
X159808079Y-100749500D01*
X159815791Y-100718213D01*
X159910440Y-100334198D01*
X159944548Y-100195815D01*
X159945511Y-100190564D01*
X160004417Y-99869115D01*
X160047338Y-99634901D01*
X160116072Y-99068804D01*
X160150501Y-98499590D01*
X160150500Y-98214462D01*
X160150500Y-98125771D01*
X160143069Y-98088415D01*
X160142477Y-98078028D01*
X160142879Y-98076089D01*
X160142235Y-98069544D01*
X160142235Y-97669573D01*
X160136438Y-97640430D01*
X160132363Y-97619943D01*
X160129500Y-97590875D01*
X160129500Y-96661310D01*
X160129500Y-96661309D01*
X160107539Y-96550904D01*
X160112583Y-96473944D01*
X160155433Y-96409814D01*
X160224607Y-96375701D01*
X160276986Y-96374673D01*
X160373753Y-96390000D01*
X160586242Y-96390000D01*
X160796128Y-96356757D01*
X160998220Y-96291093D01*
X161187555Y-96194622D01*
X161187557Y-96194620D01*
X161241716Y-96155270D01*
X161241716Y-96155269D01*
X160609409Y-95522962D01*
X160672993Y-95505925D01*
X160787007Y-95440099D01*
X160880099Y-95347007D01*
X160945925Y-95232993D01*
X160962962Y-95169409D01*
X161595269Y-95801716D01*
X161616910Y-95800013D01*
X161627281Y-95791616D01*
X161703459Y-95779550D01*
X161775465Y-95807189D01*
X161808426Y-95840150D01*
X161913621Y-95984937D01*
X162075063Y-96146379D01*
X162259772Y-96280579D01*
X162463201Y-96384231D01*
X162680340Y-96454784D01*
X162905843Y-96490500D01*
X162905847Y-96490500D01*
X163134153Y-96490500D01*
X163134157Y-96490500D01*
X163359660Y-96454784D01*
X163576799Y-96384231D01*
X163780228Y-96280579D01*
X163964937Y-96146379D01*
X164126379Y-95984937D01*
X164169459Y-95925642D01*
X164229396Y-95877107D01*
X164305575Y-95865041D01*
X164377580Y-95892681D01*
X164410538Y-95925639D01*
X164453621Y-95984937D01*
X164615063Y-96146379D01*
X164799772Y-96280579D01*
X165003201Y-96384231D01*
X165220340Y-96454784D01*
X165445843Y-96490500D01*
X165445847Y-96490500D01*
X165674153Y-96490500D01*
X165674157Y-96490500D01*
X165899660Y-96454784D01*
X166116799Y-96384231D01*
X166320228Y-96280579D01*
X166504937Y-96146379D01*
X166666379Y-95984937D01*
X166772344Y-95839089D01*
X166773081Y-95838111D01*
X166802521Y-95815091D01*
X166831510Y-95791617D01*
X166832805Y-95791411D01*
X166833840Y-95790603D01*
X166870794Y-95785394D01*
X166907688Y-95779551D01*
X166908914Y-95780021D01*
X166910213Y-95779839D01*
X166944829Y-95793808D01*
X166960451Y-95799805D01*
X166984729Y-95801716D01*
X167617037Y-95169408D01*
X167634075Y-95232993D01*
X167699901Y-95347007D01*
X167792993Y-95440099D01*
X167907007Y-95505925D01*
X167970590Y-95522962D01*
X167338282Y-96155270D01*
X167392444Y-96194621D01*
X167392444Y-96194622D01*
X167581779Y-96291093D01*
X167783871Y-96356757D01*
X167993758Y-96390000D01*
X168206242Y-96390000D01*
X168416128Y-96356757D01*
X168618220Y-96291093D01*
X168807555Y-96194622D01*
X168807557Y-96194620D01*
X168861716Y-96155270D01*
X168861716Y-96155269D01*
X168229409Y-95522962D01*
X168292993Y-95505925D01*
X168407007Y-95440099D01*
X168500099Y-95347007D01*
X168565925Y-95232993D01*
X168582962Y-95169409D01*
X169215269Y-95801716D01*
X169215270Y-95801716D01*
X169254620Y-95747557D01*
X169254622Y-95747555D01*
X169351093Y-95558220D01*
X169416757Y-95356128D01*
X169450000Y-95146242D01*
X169450000Y-94933757D01*
X169416757Y-94723871D01*
X169351093Y-94521779D01*
X169254621Y-94332444D01*
X169215270Y-94278282D01*
X168582962Y-94910589D01*
X168565925Y-94847007D01*
X168500099Y-94732993D01*
X168407007Y-94639901D01*
X168292993Y-94574075D01*
X168229407Y-94557037D01*
X168861716Y-93924729D01*
X168860012Y-93903085D01*
X168851616Y-93892716D01*
X168839551Y-93816537D01*
X168867192Y-93744532D01*
X168900155Y-93711570D01*
X169044937Y-93606379D01*
X169206379Y-93444937D01*
X169340579Y-93260228D01*
X169444231Y-93056799D01*
X169502097Y-92878706D01*
X178149500Y-92878706D01*
X178149500Y-93121293D01*
X178181160Y-93361781D01*
X178181161Y-93361787D01*
X178181162Y-93361789D01*
X178229737Y-93543073D01*
X178243947Y-93596103D01*
X178256006Y-93625216D01*
X178328696Y-93800706D01*
X178336778Y-93820216D01*
X178402349Y-93933788D01*
X178458064Y-94030289D01*
X178605735Y-94222738D01*
X178777262Y-94394265D01*
X178969711Y-94541936D01*
X179179788Y-94663224D01*
X179403900Y-94756054D01*
X179638211Y-94818838D01*
X179638217Y-94818838D01*
X179638218Y-94818839D01*
X179703600Y-94827446D01*
X179878712Y-94850500D01*
X180121288Y-94850500D01*
X180361789Y-94818838D01*
X180596100Y-94756054D01*
X180820212Y-94663224D01*
X181030289Y-94541936D01*
X181222738Y-94394265D01*
X181394265Y-94222738D01*
X181541936Y-94030289D01*
X181663224Y-93820212D01*
X181756054Y-93596100D01*
X181818838Y-93361789D01*
X181850500Y-93121288D01*
X181850500Y-92878712D01*
X181850499Y-92878706D01*
X204149500Y-92878706D01*
X204149500Y-93121293D01*
X204181160Y-93361781D01*
X204181161Y-93361787D01*
X204181162Y-93361789D01*
X204229737Y-93543073D01*
X204243947Y-93596103D01*
X204256006Y-93625216D01*
X204328696Y-93800706D01*
X204336778Y-93820216D01*
X204402349Y-93933788D01*
X204458064Y-94030289D01*
X204605735Y-94222738D01*
X204777262Y-94394265D01*
X204969711Y-94541936D01*
X205179788Y-94663224D01*
X205403900Y-94756054D01*
X205638211Y-94818838D01*
X205638217Y-94818838D01*
X205638218Y-94818839D01*
X205703600Y-94827446D01*
X205878712Y-94850500D01*
X206121288Y-94850500D01*
X206361789Y-94818838D01*
X206596100Y-94756054D01*
X206820212Y-94663224D01*
X207030289Y-94541936D01*
X207222738Y-94394265D01*
X207394265Y-94222738D01*
X207541936Y-94030289D01*
X207663224Y-93820212D01*
X207756054Y-93596100D01*
X207818838Y-93361789D01*
X207850500Y-93121288D01*
X207850500Y-92878712D01*
X207818838Y-92638211D01*
X207756054Y-92403900D01*
X207663224Y-92179788D01*
X207541936Y-91969711D01*
X207394265Y-91777262D01*
X207222738Y-91605735D01*
X207030289Y-91458064D01*
X206920328Y-91394578D01*
X206820216Y-91336778D01*
X206820214Y-91336777D01*
X206820212Y-91336776D01*
X206688932Y-91282398D01*
X206596103Y-91243947D01*
X206596101Y-91243946D01*
X206596100Y-91243946D01*
X206361789Y-91181162D01*
X206361787Y-91181161D01*
X206361781Y-91181160D01*
X206121293Y-91149500D01*
X206121288Y-91149500D01*
X205878712Y-91149500D01*
X205878706Y-91149500D01*
X205638218Y-91181160D01*
X205403896Y-91243947D01*
X205179783Y-91336778D01*
X204969712Y-91458063D01*
X204969711Y-91458064D01*
X204777262Y-91605735D01*
X204777260Y-91605736D01*
X204777256Y-91605740D01*
X204605740Y-91777256D01*
X204605736Y-91777260D01*
X204605735Y-91777262D01*
X204512714Y-91898488D01*
X204458063Y-91969712D01*
X204336778Y-92179783D01*
X204243947Y-92403896D01*
X204181160Y-92638218D01*
X204149500Y-92878706D01*
X181850499Y-92878706D01*
X181818838Y-92638211D01*
X181756054Y-92403900D01*
X181663224Y-92179788D01*
X181541936Y-91969711D01*
X181394265Y-91777262D01*
X181222738Y-91605735D01*
X181030289Y-91458064D01*
X180920328Y-91394578D01*
X180820216Y-91336778D01*
X180820214Y-91336777D01*
X180820212Y-91336776D01*
X180688932Y-91282398D01*
X180596103Y-91243947D01*
X180596101Y-91243946D01*
X180596100Y-91243946D01*
X180361789Y-91181162D01*
X180361787Y-91181161D01*
X180361781Y-91181160D01*
X180121293Y-91149500D01*
X180121288Y-91149500D01*
X179878712Y-91149500D01*
X179878706Y-91149500D01*
X179638218Y-91181160D01*
X179403896Y-91243947D01*
X179179783Y-91336778D01*
X178969712Y-91458063D01*
X178969711Y-91458064D01*
X178777262Y-91605735D01*
X178777260Y-91605736D01*
X178777256Y-91605740D01*
X178605740Y-91777256D01*
X178605736Y-91777260D01*
X178605735Y-91777262D01*
X178512714Y-91898488D01*
X178458063Y-91969712D01*
X178336778Y-92179783D01*
X178243947Y-92403896D01*
X178181160Y-92638218D01*
X178149500Y-92878706D01*
X169502097Y-92878706D01*
X169514784Y-92839660D01*
X169550500Y-92614157D01*
X169550500Y-92385843D01*
X169514784Y-92160340D01*
X169444231Y-91943201D01*
X169340579Y-91739772D01*
X169206379Y-91555063D01*
X169044937Y-91393621D01*
X168860228Y-91259421D01*
X168656799Y-91155769D01*
X168439660Y-91085216D01*
X168214157Y-91049500D01*
X167985843Y-91049500D01*
X167760340Y-91085216D01*
X167543201Y-91155769D01*
X167543195Y-91155771D01*
X167543195Y-91155772D01*
X167339773Y-91259420D01*
X167155066Y-91393618D01*
X166993618Y-91555066D01*
X166972609Y-91583983D01*
X166956806Y-91605735D01*
X166950543Y-91614355D01*
X166890603Y-91662893D01*
X166814424Y-91674958D01*
X166742419Y-91647317D01*
X166709457Y-91614355D01*
X166703194Y-91605735D01*
X166666379Y-91555063D01*
X166504937Y-91393621D01*
X166320228Y-91259421D01*
X166116799Y-91155769D01*
X165899660Y-91085216D01*
X165674157Y-91049500D01*
X165445843Y-91049500D01*
X165220340Y-91085216D01*
X165003201Y-91155769D01*
X165003195Y-91155771D01*
X165003195Y-91155772D01*
X164799773Y-91259420D01*
X164615066Y-91393618D01*
X164453618Y-91555066D01*
X164432609Y-91583983D01*
X164416806Y-91605735D01*
X164410543Y-91614355D01*
X164350603Y-91662893D01*
X164274424Y-91674958D01*
X164202419Y-91647317D01*
X164169457Y-91614355D01*
X164163194Y-91605735D01*
X164126379Y-91555063D01*
X163964937Y-91393621D01*
X163780228Y-91259421D01*
X163576799Y-91155769D01*
X163359660Y-91085216D01*
X163134157Y-91049500D01*
X162905843Y-91049500D01*
X162680340Y-91085216D01*
X162463201Y-91155769D01*
X162463195Y-91155771D01*
X162463195Y-91155772D01*
X162259773Y-91259420D01*
X162075066Y-91393618D01*
X161913618Y-91555066D01*
X161892609Y-91583983D01*
X161876806Y-91605735D01*
X161870543Y-91614355D01*
X161810603Y-91662893D01*
X161734424Y-91674958D01*
X161662419Y-91647317D01*
X161629457Y-91614355D01*
X161623194Y-91605735D01*
X161586379Y-91555063D01*
X161424937Y-91393621D01*
X161240228Y-91259421D01*
X161036799Y-91155769D01*
X160819660Y-91085216D01*
X160594157Y-91049500D01*
X160365843Y-91049500D01*
X160140340Y-91085216D01*
X159923201Y-91155769D01*
X159923195Y-91155771D01*
X159923195Y-91155772D01*
X159719773Y-91259420D01*
X159535066Y-91393618D01*
X159373618Y-91555066D01*
X159352609Y-91583983D01*
X159336806Y-91605735D01*
X159330543Y-91614355D01*
X159270603Y-91662893D01*
X159194424Y-91674958D01*
X159122419Y-91647317D01*
X159089457Y-91614355D01*
X159083194Y-91605735D01*
X159046379Y-91555063D01*
X158884937Y-91393621D01*
X158700228Y-91259421D01*
X158496799Y-91155769D01*
X158279660Y-91085216D01*
X158054157Y-91049500D01*
X157825843Y-91049500D01*
X157600340Y-91085216D01*
X157383201Y-91155769D01*
X157383195Y-91155771D01*
X157383195Y-91155772D01*
X157179773Y-91259420D01*
X156995066Y-91393618D01*
X156833618Y-91555066D01*
X156812609Y-91583983D01*
X156796806Y-91605735D01*
X156790543Y-91614355D01*
X156730603Y-91662893D01*
X156654424Y-91674958D01*
X156582419Y-91647317D01*
X156549457Y-91614355D01*
X156543194Y-91605735D01*
X156506379Y-91555063D01*
X156344937Y-91393621D01*
X156160228Y-91259421D01*
X155956799Y-91155769D01*
X155739660Y-91085216D01*
X155514157Y-91049500D01*
X155285843Y-91049500D01*
X155060340Y-91085216D01*
X154843201Y-91155769D01*
X154843195Y-91155771D01*
X154843195Y-91155772D01*
X154639773Y-91259420D01*
X154455066Y-91393618D01*
X154293618Y-91555066D01*
X154272609Y-91583983D01*
X154256806Y-91605735D01*
X154250543Y-91614355D01*
X154190603Y-91662893D01*
X154114424Y-91674958D01*
X154042419Y-91647317D01*
X154009457Y-91614355D01*
X154003194Y-91605735D01*
X153966379Y-91555063D01*
X153804937Y-91393621D01*
X153620228Y-91259421D01*
X153416799Y-91155769D01*
X153199660Y-91085216D01*
X152974157Y-91049500D01*
X152745843Y-91049500D01*
X152520340Y-91085216D01*
X152303201Y-91155769D01*
X152303195Y-91155771D01*
X152303195Y-91155772D01*
X152099773Y-91259420D01*
X151915066Y-91393618D01*
X151753618Y-91555066D01*
X151732609Y-91583983D01*
X151716806Y-91605735D01*
X151710543Y-91614355D01*
X151650603Y-91662893D01*
X151574424Y-91674958D01*
X151502419Y-91647317D01*
X151469457Y-91614355D01*
X151463194Y-91605735D01*
X151426379Y-91555063D01*
X151264937Y-91393621D01*
X151080228Y-91259421D01*
X150876799Y-91155769D01*
X150659660Y-91085216D01*
X150434157Y-91049500D01*
X150205843Y-91049500D01*
X149980340Y-91085216D01*
X149763201Y-91155769D01*
X149763195Y-91155771D01*
X149763195Y-91155772D01*
X149559773Y-91259420D01*
X149375066Y-91393618D01*
X149213618Y-91555066D01*
X149192609Y-91583983D01*
X149176806Y-91605735D01*
X149170543Y-91614355D01*
X149110603Y-91662893D01*
X149034424Y-91674958D01*
X148962419Y-91647317D01*
X148929457Y-91614355D01*
X148923194Y-91605735D01*
X148886379Y-91555063D01*
X148724937Y-91393621D01*
X148540228Y-91259421D01*
X148336799Y-91155769D01*
X148119660Y-91085216D01*
X147894157Y-91049500D01*
X147665843Y-91049500D01*
X147440340Y-91085216D01*
X147223201Y-91155769D01*
X147223195Y-91155771D01*
X147223195Y-91155772D01*
X147019773Y-91259420D01*
X146835066Y-91393618D01*
X146673618Y-91555066D01*
X146652609Y-91583983D01*
X146636806Y-91605735D01*
X146630543Y-91614355D01*
X146570603Y-91662893D01*
X146494424Y-91674958D01*
X146422419Y-91647317D01*
X146389457Y-91614355D01*
X146383194Y-91605735D01*
X146346379Y-91555063D01*
X146184937Y-91393621D01*
X146000228Y-91259421D01*
X145796799Y-91155769D01*
X145579660Y-91085216D01*
X145354157Y-91049500D01*
X145125843Y-91049500D01*
X144900340Y-91085216D01*
X144683201Y-91155769D01*
X144683195Y-91155771D01*
X144683195Y-91155772D01*
X144479773Y-91259420D01*
X144295066Y-91393618D01*
X144133618Y-91555066D01*
X144112609Y-91583983D01*
X144096806Y-91605735D01*
X144090543Y-91614355D01*
X144030603Y-91662893D01*
X143954424Y-91674958D01*
X143882419Y-91647317D01*
X143849457Y-91614355D01*
X143843194Y-91605735D01*
X143806379Y-91555063D01*
X143644937Y-91393621D01*
X143460228Y-91259421D01*
X143256799Y-91155769D01*
X143039660Y-91085216D01*
X142814157Y-91049500D01*
X142585843Y-91049500D01*
X142360340Y-91085216D01*
X142143201Y-91155769D01*
X142143195Y-91155771D01*
X142143195Y-91155772D01*
X141939773Y-91259420D01*
X141755066Y-91393618D01*
X141593618Y-91555066D01*
X141572609Y-91583983D01*
X141556806Y-91605735D01*
X141550543Y-91614355D01*
X141490603Y-91662893D01*
X141414424Y-91674958D01*
X141342419Y-91647317D01*
X141309457Y-91614355D01*
X141303194Y-91605735D01*
X141266379Y-91555063D01*
X141104937Y-91393621D01*
X140920228Y-91259421D01*
X140716799Y-91155769D01*
X140499660Y-91085216D01*
X140274157Y-91049500D01*
X140045843Y-91049500D01*
X139820340Y-91085216D01*
X139603201Y-91155769D01*
X139603195Y-91155771D01*
X139603195Y-91155772D01*
X139399773Y-91259420D01*
X139215066Y-91393618D01*
X139053618Y-91555066D01*
X139032609Y-91583983D01*
X139016806Y-91605735D01*
X139010543Y-91614355D01*
X138950603Y-91662893D01*
X138874424Y-91674958D01*
X138802419Y-91647317D01*
X138769457Y-91614355D01*
X138763194Y-91605735D01*
X138726379Y-91555063D01*
X138564937Y-91393621D01*
X138564936Y-91393620D01*
X138564014Y-91392698D01*
X138525450Y-91325903D01*
X138520912Y-91296943D01*
X138520845Y-91296950D01*
X138520728Y-91295768D01*
X138520552Y-91294641D01*
X138520486Y-91293333D01*
X138520487Y-91293309D01*
X138492906Y-91013260D01*
X138438008Y-90737263D01*
X138356323Y-90467976D01*
X138248637Y-90207993D01*
X138248636Y-90207990D01*
X138115993Y-89959826D01*
X138115992Y-89959825D01*
X138115991Y-89959823D01*
X138115987Y-89959816D01*
X137959650Y-89725836D01*
X137781132Y-89508306D01*
X137707573Y-89434744D01*
X137707188Y-89434357D01*
X137700679Y-89427784D01*
X137699463Y-89425964D01*
X137639300Y-89365801D01*
X137638996Y-89365494D01*
X137638994Y-89365491D01*
X137638733Y-89365228D01*
X137579197Y-89304803D01*
X137579026Y-89304661D01*
X137569060Y-89295560D01*
X137490740Y-89217240D01*
X137281143Y-89007643D01*
X137281140Y-89007641D01*
X137275964Y-89002465D01*
X137275911Y-89002417D01*
X137261354Y-88987860D01*
X137228711Y-88955216D01*
X137228704Y-88955210D01*
X137228695Y-88955202D01*
X136976957Y-88748603D01*
X136706157Y-88567661D01*
X136418945Y-88414142D01*
X136418929Y-88414134D01*
X136118048Y-88289504D01*
X136118044Y-88289503D01*
X135806389Y-88194961D01*
X135486963Y-88131423D01*
X135486961Y-88131422D01*
X135486957Y-88131422D01*
X135162842Y-88099500D01*
X135088691Y-88099500D01*
X130325523Y-88099500D01*
X130318992Y-88099500D01*
X130318880Y-88099505D01*
X130225830Y-88099505D01*
X129850513Y-88132339D01*
X129850479Y-88132343D01*
X129479468Y-88197761D01*
X129479440Y-88197767D01*
X129115523Y-88295277D01*
X128761482Y-88424137D01*
X128761466Y-88424144D01*
X128420004Y-88583370D01*
X128419995Y-88583374D01*
X128093703Y-88771759D01*
X127785072Y-88987865D01*
X127496459Y-89230040D01*
X127406895Y-89319605D01*
X127406876Y-89319615D01*
X127230036Y-89496455D01*
X126987860Y-89785069D01*
X126771754Y-90093700D01*
X126583369Y-90419992D01*
X126583365Y-90420001D01*
X126424139Y-90761464D01*
X126424132Y-90761480D01*
X126295271Y-91115521D01*
X126197761Y-91479439D01*
X126197755Y-91479467D01*
X126132337Y-91850479D01*
X126132333Y-91850513D01*
X126099499Y-92225830D01*
X126099499Y-92225840D01*
X126099500Y-92325523D01*
X126099500Y-96858175D01*
X126079538Y-96932675D01*
X126055859Y-96963534D01*
X125931759Y-97087633D01*
X125931757Y-97087636D01*
X125802186Y-97265975D01*
X125802185Y-97265976D01*
X125702105Y-97462393D01*
X125633985Y-97672043D01*
X125613098Y-97803922D01*
X125599500Y-97889778D01*
X125599500Y-98110222D01*
X125614053Y-98202105D01*
X125633985Y-98327956D01*
X125702105Y-98537606D01*
X125802185Y-98734023D01*
X125802186Y-98734024D01*
X125856734Y-98809103D01*
X125931758Y-98912365D01*
X126087635Y-99068242D01*
X126225260Y-99168232D01*
X126265975Y-99197813D01*
X126265976Y-99197814D01*
X126265978Y-99197815D01*
X126462394Y-99297895D01*
X126547109Y-99325420D01*
X126672043Y-99366014D01*
X126672048Y-99366014D01*
X126672049Y-99366015D01*
X126889778Y-99400500D01*
X126889782Y-99400500D01*
X127110218Y-99400500D01*
X127110222Y-99400500D01*
X127327951Y-99366015D01*
X127327952Y-99366014D01*
X127327956Y-99366014D01*
X127408556Y-99339825D01*
X127537606Y-99297895D01*
X127734022Y-99197815D01*
X127912365Y-99068242D01*
X128068242Y-98912365D01*
X128197815Y-98734022D01*
X128297895Y-98537606D01*
X128347809Y-98383985D01*
X128366014Y-98327956D01*
X128366711Y-98323557D01*
X128400500Y-98110222D01*
X128400500Y-97889778D01*
X128366015Y-97672049D01*
X128366014Y-97672048D01*
X128366014Y-97672043D01*
X128326201Y-97549512D01*
X128297895Y-97462394D01*
X128197815Y-97265978D01*
X128068242Y-97087635D01*
X127944141Y-96963534D01*
X127905577Y-96896739D01*
X127900500Y-96858175D01*
X127900500Y-92418397D01*
X127900734Y-92410043D01*
X127902093Y-92385843D01*
X127915836Y-92141098D01*
X127917703Y-92124529D01*
X127962121Y-91863096D01*
X127965835Y-91846824D01*
X128039247Y-91592004D01*
X128044752Y-91576273D01*
X128146235Y-91331269D01*
X128153474Y-91316237D01*
X128281745Y-91084148D01*
X128290627Y-91070013D01*
X128444067Y-90853760D01*
X128454484Y-90840697D01*
X128631131Y-90643028D01*
X128642947Y-90631212D01*
X128840701Y-90454489D01*
X128853764Y-90444072D01*
X129070017Y-90290632D01*
X129084152Y-90281749D01*
X129316232Y-90153483D01*
X129331274Y-90146239D01*
X129576269Y-90044760D01*
X129592007Y-90039252D01*
X129846825Y-89965841D01*
X129863098Y-89962127D01*
X130124530Y-89917709D01*
X130141098Y-89915842D01*
X130410150Y-89900733D01*
X130418503Y-89900500D01*
X130502902Y-89900500D01*
X134911309Y-89900500D01*
X134995122Y-89900500D01*
X135004867Y-89900819D01*
X135187834Y-89912811D01*
X135207155Y-89915354D01*
X135382201Y-89950174D01*
X135401013Y-89955214D01*
X135570030Y-90012588D01*
X135588031Y-90020045D01*
X135748096Y-90098980D01*
X135764964Y-90108718D01*
X135913376Y-90207885D01*
X135928823Y-90219738D01*
X136066731Y-90340681D01*
X136073838Y-90347338D01*
X136337172Y-90610671D01*
X136343648Y-90617816D01*
X136403987Y-90678156D01*
X136411929Y-90686748D01*
X136508847Y-90800228D01*
X136522589Y-90819143D01*
X136597492Y-90941377D01*
X136608107Y-90962210D01*
X136662970Y-91094665D01*
X136670194Y-91116900D01*
X136703660Y-91256297D01*
X136707317Y-91279380D01*
X136707909Y-91286896D01*
X136693858Y-91362734D01*
X136664729Y-91403954D01*
X136513624Y-91555060D01*
X136513618Y-91555066D01*
X136492609Y-91583983D01*
X136476806Y-91605735D01*
X136470543Y-91614355D01*
X136410603Y-91662893D01*
X136334424Y-91674958D01*
X136262419Y-91647317D01*
X136229457Y-91614355D01*
X136223194Y-91605735D01*
X136186379Y-91555063D01*
X136024937Y-91393621D01*
X135840228Y-91259421D01*
X135636799Y-91155769D01*
X135419660Y-91085216D01*
X135194157Y-91049500D01*
X134965843Y-91049500D01*
X134740340Y-91085216D01*
X134523201Y-91155769D01*
X134523195Y-91155771D01*
X134523195Y-91155772D01*
X134319773Y-91259420D01*
X134135066Y-91393618D01*
X134075373Y-91453311D01*
X134008578Y-91491874D01*
X133931450Y-91491874D01*
X133864655Y-91453309D01*
X133840704Y-91416033D01*
X133838457Y-91417260D01*
X133833349Y-91407905D01*
X133747190Y-91292812D01*
X133747187Y-91292809D01*
X133632094Y-91206650D01*
X133632084Y-91206645D01*
X133497376Y-91156401D01*
X133497378Y-91156401D01*
X133437842Y-91150001D01*
X133437823Y-91150000D01*
X132790000Y-91150000D01*
X132790000Y-92066988D01*
X132732993Y-92034075D01*
X132605826Y-92000000D01*
X132474174Y-92000000D01*
X132347007Y-92034075D01*
X132290000Y-92066988D01*
X132290000Y-91150000D01*
X131642177Y-91150000D01*
X131642157Y-91150001D01*
X131582622Y-91156401D01*
X131447915Y-91206645D01*
X131447905Y-91206650D01*
X131332812Y-91292809D01*
X131332809Y-91292812D01*
X131246650Y-91407905D01*
X131246645Y-91407915D01*
X131196401Y-91542622D01*
X131190001Y-91602157D01*
X131190000Y-91602177D01*
X131190000Y-92250000D01*
X132106988Y-92250000D01*
X132074075Y-92307007D01*
X132040000Y-92434174D01*
X132040000Y-92565826D01*
X132074075Y-92692993D01*
X132106988Y-92750000D01*
X131190000Y-92750000D01*
X131190000Y-93397822D01*
X131190001Y-93397842D01*
X131196401Y-93457377D01*
X131246645Y-93592084D01*
X131246650Y-93592094D01*
X131332809Y-93707187D01*
X131332812Y-93707190D01*
X131447905Y-93793349D01*
X131457260Y-93798457D01*
X131455596Y-93801504D01*
X131502832Y-93835129D01*
X131534884Y-93905282D01*
X131527565Y-93982062D01*
X131493311Y-94035373D01*
X131433618Y-94095066D01*
X131299420Y-94279773D01*
X131272895Y-94331832D01*
X131195769Y-94483201D01*
X131125216Y-94700340D01*
X131089500Y-94925843D01*
X131089500Y-95154157D01*
X131125216Y-95379660D01*
X131195769Y-95596799D01*
X131299421Y-95800228D01*
X131433621Y-95984937D01*
X131595063Y-96146379D01*
X131779772Y-96280579D01*
X131983201Y-96384231D01*
X132200340Y-96454784D01*
X132425843Y-96490500D01*
X132425847Y-96490500D01*
X132654153Y-96490500D01*
X132654157Y-96490500D01*
X132879660Y-96454784D01*
X133096799Y-96384231D01*
X133300228Y-96280579D01*
X133484937Y-96146379D01*
X133646379Y-95984937D01*
X133689459Y-95925642D01*
X133749396Y-95877107D01*
X133825575Y-95865041D01*
X133897580Y-95892681D01*
X133930538Y-95925639D01*
X133973621Y-95984937D01*
X134135063Y-96146379D01*
X134135066Y-96146381D01*
X134135859Y-96147174D01*
X134174423Y-96213969D01*
X134179500Y-96252533D01*
X134179500Y-98734603D01*
X134159538Y-98809103D01*
X134135859Y-98839962D01*
X133805800Y-99170020D01*
X133799011Y-99176397D01*
X133540155Y-99404751D01*
X133530309Y-99412719D01*
X133252004Y-99618999D01*
X133241518Y-99626101D01*
X132946727Y-99807984D01*
X132935675Y-99814171D01*
X132626480Y-99970372D01*
X132614943Y-99975597D01*
X132293615Y-100104969D01*
X132281676Y-100109196D01*
X131950505Y-100210817D01*
X131938249Y-100214014D01*
X131599661Y-100287139D01*
X131587179Y-100289284D01*
X131243607Y-100333389D01*
X131230988Y-100334467D01*
X130881889Y-100349365D01*
X130875536Y-100349500D01*
X129811725Y-100349500D01*
X129811699Y-100349493D01*
X129750000Y-100349493D01*
X129524909Y-100349493D01*
X129076116Y-100384814D01*
X128853797Y-100420026D01*
X128631475Y-100455238D01*
X128193726Y-100560333D01*
X127765597Y-100699442D01*
X127765575Y-100699450D01*
X127349677Y-100871723D01*
X127349672Y-100871725D01*
X127163236Y-100966720D01*
X126948561Y-101076103D01*
X126948556Y-101076105D01*
X126948554Y-101076107D01*
X126564717Y-101311324D01*
X126200530Y-101575923D01*
X126200503Y-101575944D01*
X125922012Y-101813800D01*
X125852397Y-101847005D01*
X125825244Y-101849500D01*
X125639778Y-101849500D01*
X125552686Y-101863294D01*
X125422043Y-101883985D01*
X125212393Y-101952105D01*
X125015976Y-102052185D01*
X125015975Y-102052186D01*
X124837636Y-102181757D01*
X124837633Y-102181759D01*
X124681759Y-102337633D01*
X124681757Y-102337636D01*
X124552186Y-102515975D01*
X124552185Y-102515976D01*
X124452105Y-102712393D01*
X124383985Y-102922043D01*
X124366287Y-103033787D01*
X124349500Y-103139778D01*
X124349500Y-103360222D01*
X124363438Y-103448223D01*
X124383985Y-103577956D01*
X124452105Y-103787606D01*
X124552185Y-103984023D01*
X124552186Y-103984024D01*
X124577895Y-104019409D01*
X124681758Y-104162365D01*
X124837635Y-104318242D01*
X124957867Y-104405595D01*
X125015975Y-104447813D01*
X125015976Y-104447814D01*
X125015978Y-104447815D01*
X125212394Y-104547895D01*
X125274620Y-104568113D01*
X125422043Y-104616014D01*
X125422048Y-104616014D01*
X125422049Y-104616015D01*
X125639778Y-104650500D01*
X125639782Y-104650500D01*
X125860218Y-104650500D01*
X125860222Y-104650500D01*
X126077951Y-104616015D01*
X126077952Y-104616014D01*
X126077956Y-104616014D01*
X126158556Y-104589825D01*
X126287606Y-104547895D01*
X126484022Y-104447815D01*
X126662365Y-104318242D01*
X126818242Y-104162365D01*
X126947815Y-103984022D01*
X127047895Y-103787606D01*
X127101197Y-103623557D01*
X127116014Y-103577956D01*
X127117073Y-103571268D01*
X127150500Y-103360222D01*
X127150500Y-103203449D01*
X127156400Y-103181426D01*
X127157395Y-103158646D01*
X127166214Y-103144802D01*
X127170462Y-103128949D01*
X127198830Y-103093601D01*
X127220411Y-103073826D01*
X127230303Y-103065525D01*
X127491897Y-102864795D01*
X127502509Y-102857366D01*
X127780574Y-102680217D01*
X127791786Y-102673744D01*
X128084235Y-102521504D01*
X128095969Y-102516032D01*
X128400583Y-102389856D01*
X128412748Y-102385429D01*
X128727191Y-102286285D01*
X128739713Y-102282930D01*
X129061582Y-102211572D01*
X129074369Y-102209318D01*
X129401216Y-102166288D01*
X129414148Y-102165156D01*
X129746588Y-102150642D01*
X129753087Y-102150500D01*
X129838691Y-102150500D01*
X130782668Y-102150500D01*
X130790056Y-102150501D01*
X130790108Y-102150512D01*
X130817122Y-102150508D01*
X130817135Y-102150511D01*
X130878799Y-102150506D01*
X130878799Y-102150507D01*
X130963778Y-102150500D01*
X130967371Y-102150500D01*
X130996991Y-102150500D01*
X130997003Y-102150496D01*
X131109423Y-102150488D01*
X131109460Y-102150488D01*
X131340177Y-102132766D01*
X131569419Y-102115159D01*
X132025333Y-102044769D01*
X132415989Y-101953419D01*
X132474510Y-101939735D01*
X132474511Y-101939734D01*
X132474531Y-101939730D01*
X132914385Y-101800656D01*
X133342318Y-101628363D01*
X133755828Y-101423858D01*
X133800115Y-101397563D01*
X134152478Y-101188347D01*
X134152478Y-101188346D01*
X134152493Y-101188338D01*
X134529991Y-100923182D01*
X134569226Y-100890875D01*
X134841233Y-100666898D01*
X134858101Y-100659221D01*
X134872238Y-100647227D01*
X134892600Y-100643521D01*
X134911434Y-100634951D01*
X134929883Y-100636737D01*
X134948120Y-100633419D01*
X134967604Y-100640390D01*
X134988203Y-100642385D01*
X135003288Y-100653157D01*
X135020740Y-100659402D01*
X135034129Y-100675182D01*
X135050969Y-100687208D01*
X135070637Y-100718208D01*
X135110873Y-100803278D01*
X135116464Y-100816777D01*
X135213831Y-101088888D01*
X135218076Y-101102881D01*
X135288301Y-101383223D01*
X135291154Y-101397563D01*
X135333565Y-101683446D01*
X135334998Y-101697998D01*
X135349320Y-101989444D01*
X135349500Y-101996757D01*
X135349500Y-113537039D01*
X135349041Y-113548730D01*
X135340489Y-113657390D01*
X135336831Y-113680482D01*
X135312760Y-113780746D01*
X135305535Y-113802982D01*
X135266072Y-113898256D01*
X135255458Y-113919087D01*
X135227147Y-113965288D01*
X135201581Y-114007007D01*
X135187838Y-114025923D01*
X135117079Y-114108770D01*
X135109138Y-114117360D01*
X132052336Y-117174163D01*
X132048507Y-117177857D01*
X131716731Y-117486747D01*
X131708693Y-117493712D01*
X131357785Y-117776487D01*
X131349270Y-117782861D01*
X130979091Y-118039877D01*
X130970143Y-118045628D01*
X130582559Y-118275589D01*
X130573224Y-118280686D01*
X130170227Y-118482408D01*
X130160568Y-118486819D01*
X129744191Y-118659285D01*
X129734231Y-118662999D01*
X129306639Y-118805311D01*
X129296434Y-118808308D01*
X128859762Y-118919759D01*
X128849369Y-118922020D01*
X128557485Y-118974680D01*
X128480624Y-118968262D01*
X128425671Y-118933406D01*
X128393317Y-118901052D01*
X128393316Y-118901051D01*
X128304144Y-118836264D01*
X128214975Y-118771479D01*
X128214974Y-118771478D01*
X128018563Y-118671400D01*
X128002433Y-118666159D01*
X127832668Y-118611000D01*
X127767985Y-118568994D01*
X127732969Y-118500272D01*
X127737005Y-118423250D01*
X127779012Y-118358565D01*
X127832668Y-118327585D01*
X128018557Y-118267188D01*
X128214973Y-118167108D01*
X128393316Y-118037535D01*
X128549193Y-117881658D01*
X128678766Y-117703315D01*
X128778846Y-117506899D01*
X128834121Y-117336778D01*
X128846965Y-117297249D01*
X128848522Y-117287418D01*
X128881451Y-117079515D01*
X128881451Y-116859071D01*
X128846966Y-116641342D01*
X128846965Y-116641341D01*
X128846965Y-116641336D01*
X128788823Y-116462394D01*
X128778846Y-116431687D01*
X128678766Y-116235271D01*
X128549193Y-116056928D01*
X128393316Y-115901051D01*
X128276324Y-115816052D01*
X128214975Y-115771479D01*
X128214974Y-115771478D01*
X128018563Y-115671400D01*
X127978340Y-115658331D01*
X127832668Y-115611000D01*
X127767985Y-115568994D01*
X127732969Y-115500272D01*
X127737005Y-115423250D01*
X127779012Y-115358565D01*
X127832668Y-115327585D01*
X128018557Y-115267188D01*
X128214973Y-115167108D01*
X128393316Y-115037535D01*
X128549193Y-114881658D01*
X128678766Y-114703315D01*
X128778846Y-114506899D01*
X128820776Y-114377849D01*
X128846965Y-114297249D01*
X128867262Y-114169099D01*
X128881451Y-114079515D01*
X128881451Y-113859071D01*
X128846966Y-113641342D01*
X128846965Y-113641341D01*
X128846965Y-113641336D01*
X128801075Y-113500101D01*
X128778846Y-113431687D01*
X128678766Y-113235271D01*
X128549193Y-113056928D01*
X128393316Y-112901051D01*
X128302821Y-112835303D01*
X128214975Y-112771479D01*
X128214974Y-112771478D01*
X128018557Y-112671398D01*
X127808907Y-112603278D01*
X127687941Y-112584119D01*
X127591173Y-112568793D01*
X127415669Y-112568793D01*
X127396721Y-112563716D01*
X127377105Y-112563716D01*
X127360117Y-112553908D01*
X127341169Y-112548831D01*
X127310310Y-112525152D01*
X127109742Y-112324584D01*
X127107501Y-112322294D01*
X126574336Y-111765343D01*
X126569972Y-111760580D01*
X126567335Y-111757573D01*
X126062710Y-111182159D01*
X126058569Y-111177225D01*
X125577014Y-110577220D01*
X125573057Y-110572062D01*
X125446109Y-110398927D01*
X125118170Y-109951676D01*
X125114446Y-109946357D01*
X125091026Y-109911306D01*
X124687032Y-109306686D01*
X124683548Y-109301217D01*
X124284441Y-108643509D01*
X124281201Y-108637896D01*
X124268184Y-108614170D01*
X123911176Y-107963430D01*
X123908182Y-107957679D01*
X123880406Y-107901355D01*
X123659484Y-107453369D01*
X123634392Y-107402488D01*
X128699500Y-107402488D01*
X128699500Y-107697511D01*
X128738004Y-107989977D01*
X128738007Y-107989994D01*
X128814359Y-108274948D01*
X128814359Y-108274949D01*
X128868324Y-108405230D01*
X128916150Y-108520693D01*
X128927259Y-108547511D01*
X128982693Y-108643526D01*
X129068883Y-108792812D01*
X129074764Y-108802997D01*
X129074764Y-108802998D01*
X129219695Y-108991874D01*
X129254354Y-109037042D01*
X129462958Y-109245646D01*
X129697006Y-109425238D01*
X129952493Y-109572743D01*
X130163971Y-109660340D01*
X130225050Y-109685640D01*
X130367527Y-109723816D01*
X130510007Y-109761993D01*
X130802489Y-109800499D01*
X130802492Y-109800500D01*
X130802494Y-109800500D01*
X131097508Y-109800500D01*
X131097509Y-109800499D01*
X131389993Y-109761993D01*
X131674948Y-109685640D01*
X131674949Y-109685640D01*
X131674950Y-109685639D01*
X131674952Y-109685639D01*
X131947507Y-109572743D01*
X132202994Y-109425238D01*
X132437042Y-109245646D01*
X132645646Y-109037042D01*
X132825238Y-108802994D01*
X132972743Y-108547507D01*
X133085639Y-108274952D01*
X133161993Y-107989993D01*
X133200500Y-107697506D01*
X133200500Y-107402494D01*
X133161993Y-107110007D01*
X133086810Y-106829419D01*
X133085640Y-106825051D01*
X133085640Y-106825050D01*
X133068038Y-106782556D01*
X132972743Y-106552493D01*
X132825238Y-106297006D01*
X132825235Y-106297002D01*
X132825235Y-106297001D01*
X132645645Y-106062957D01*
X132437042Y-105854354D01*
X132202997Y-105674764D01*
X132140991Y-105638965D01*
X132084422Y-105606305D01*
X131947511Y-105527259D01*
X131947509Y-105527258D01*
X131947507Y-105527257D01*
X131862524Y-105492055D01*
X131674949Y-105414359D01*
X131389994Y-105338007D01*
X131389977Y-105338004D01*
X131097511Y-105299500D01*
X131097506Y-105299500D01*
X130802494Y-105299500D01*
X130802488Y-105299500D01*
X130510022Y-105338004D01*
X130510005Y-105338007D01*
X130225051Y-105414359D01*
X130225050Y-105414359D01*
X129952488Y-105527259D01*
X129697002Y-105674764D01*
X129697001Y-105674764D01*
X129462957Y-105854354D01*
X129254354Y-106062957D01*
X129074764Y-106297001D01*
X129074764Y-106297002D01*
X128927259Y-106552488D01*
X128814359Y-106825050D01*
X128814359Y-106825051D01*
X128738007Y-107110005D01*
X128738004Y-107110022D01*
X128699500Y-107402488D01*
X123634392Y-107402488D01*
X123567921Y-107267697D01*
X123565174Y-107261805D01*
X123561036Y-107252400D01*
X123255343Y-106557660D01*
X123252859Y-106551663D01*
X123251100Y-106547141D01*
X122974034Y-105834667D01*
X122971813Y-105828566D01*
X122958353Y-105788915D01*
X122793611Y-105303599D01*
X122724522Y-105100069D01*
X122722568Y-105093870D01*
X122612222Y-104715290D01*
X122507295Y-104355302D01*
X122505617Y-104349041D01*
X122501776Y-104333345D01*
X122322761Y-103601772D01*
X122321357Y-103595437D01*
X122316549Y-103571268D01*
X122171271Y-102840909D01*
X122170144Y-102834513D01*
X122170033Y-102833793D01*
X122053108Y-102074117D01*
X122052269Y-102067741D01*
X121968512Y-101302958D01*
X121967952Y-101296569D01*
X121939525Y-100862860D01*
X121954572Y-100787216D01*
X121982844Y-100747761D01*
X122068242Y-100662365D01*
X122197815Y-100484022D01*
X122297895Y-100287606D01*
X122356467Y-100107338D01*
X122366014Y-100077956D01*
X122366015Y-100077951D01*
X122400500Y-99860222D01*
X122400500Y-99639778D01*
X122366015Y-99422049D01*
X122366014Y-99422048D01*
X122366014Y-99422043D01*
X122317341Y-99272245D01*
X122297895Y-99212394D01*
X122197815Y-99015978D01*
X122197569Y-99015640D01*
X122147496Y-98946719D01*
X122068242Y-98837635D01*
X121912365Y-98681758D01*
X121801524Y-98601228D01*
X121734024Y-98552186D01*
X121734023Y-98552185D01*
X121537606Y-98452105D01*
X121327956Y-98383985D01*
X121206990Y-98364826D01*
X121110222Y-98349500D01*
X120889778Y-98349500D01*
X120802686Y-98363294D01*
X120672043Y-98383985D01*
X120462393Y-98452105D01*
X120265976Y-98552185D01*
X120265975Y-98552186D01*
X120087636Y-98681757D01*
X120087633Y-98681759D01*
X119931759Y-98837633D01*
X119931757Y-98837636D01*
X119802186Y-99015975D01*
X119802185Y-99015976D01*
X119702105Y-99212393D01*
X119633985Y-99422043D01*
X119616774Y-99530715D01*
X119599500Y-99639778D01*
X119599500Y-99860222D01*
X119612605Y-99942962D01*
X119633985Y-100077956D01*
X119702105Y-100287606D01*
X119802185Y-100484023D01*
X119802186Y-100484024D01*
X119931758Y-100662365D01*
X119931759Y-100662366D01*
X120088330Y-100818937D01*
X120126894Y-100885732D01*
X120131829Y-100917796D01*
X120134520Y-100979415D01*
X120136775Y-101031062D01*
X120150155Y-101183993D01*
X120211257Y-101882401D01*
X120322801Y-102729665D01*
X120471197Y-103571261D01*
X120594945Y-104129453D01*
X120656165Y-104405595D01*
X120877348Y-105231059D01*
X121090046Y-105905651D01*
X121134328Y-106046096D01*
X121426609Y-106849131D01*
X121753645Y-107638668D01*
X122114804Y-108413175D01*
X122114809Y-108413185D01*
X122509412Y-109171210D01*
X122838174Y-109740640D01*
X122936708Y-109911306D01*
X123118008Y-110195890D01*
X123395872Y-110632049D01*
X123886042Y-111332083D01*
X124406280Y-112010070D01*
X124669216Y-112323425D01*
X124955599Y-112664723D01*
X125532938Y-113294778D01*
X125768012Y-113529852D01*
X125768018Y-113529859D01*
X125772367Y-113534208D01*
X125772370Y-113534212D01*
X126036811Y-113798653D01*
X126075374Y-113865446D01*
X126080451Y-113904010D01*
X126080451Y-114079515D01*
X126081060Y-114083357D01*
X126114936Y-114297249D01*
X126183056Y-114506899D01*
X126283136Y-114703316D01*
X126283137Y-114703317D01*
X126305446Y-114734022D01*
X126412709Y-114881658D01*
X126568586Y-115037535D01*
X126636492Y-115086871D01*
X126746926Y-115167106D01*
X126746927Y-115167107D01*
X126746929Y-115167108D01*
X126943345Y-115267188D01*
X127023092Y-115293099D01*
X127129231Y-115327586D01*
X127193916Y-115369592D01*
X127228932Y-115438314D01*
X127224895Y-115515336D01*
X127182889Y-115580021D01*
X127129231Y-115611000D01*
X126943344Y-115671398D01*
X126746927Y-115771478D01*
X126746926Y-115771479D01*
X126590641Y-115885027D01*
X126559693Y-115896906D01*
X126529733Y-115911076D01*
X126524003Y-115910606D01*
X126518635Y-115912667D01*
X126452863Y-115904772D01*
X126204917Y-115816052D01*
X126191408Y-115810457D01*
X125907221Y-115676043D01*
X125894343Y-115669159D01*
X125624679Y-115507524D01*
X125612559Y-115499425D01*
X125360038Y-115312139D01*
X125348745Y-115302870D01*
X125327046Y-115283203D01*
X125112470Y-115088718D01*
X125107179Y-115083680D01*
X125079964Y-115056465D01*
X125047656Y-115024156D01*
X125047650Y-115024152D01*
X121888812Y-111865312D01*
X121884757Y-111861094D01*
X121620264Y-111574966D01*
X121612666Y-111566070D01*
X121512336Y-111438802D01*
X121373237Y-111262356D01*
X121366374Y-111252911D01*
X121151511Y-110931347D01*
X121145399Y-110921373D01*
X120956426Y-110583938D01*
X120951119Y-110573522D01*
X120943406Y-110556792D01*
X120789206Y-110222308D01*
X120784733Y-110211507D01*
X120778972Y-110195891D01*
X120650875Y-109848674D01*
X120647270Y-109837580D01*
X120542285Y-109465335D01*
X120539557Y-109453969D01*
X120538580Y-109449057D01*
X120464105Y-109074654D01*
X120462278Y-109063113D01*
X120461492Y-109056473D01*
X120416822Y-108679065D01*
X120415904Y-108667402D01*
X120412114Y-108570959D01*
X120400615Y-108278302D01*
X120400500Y-108272452D01*
X120400500Y-107061723D01*
X120400505Y-107061704D01*
X120400505Y-106802582D01*
X120400505Y-106802573D01*
X120366091Y-106409221D01*
X120297525Y-106020365D01*
X120195329Y-105638965D01*
X120060280Y-105267923D01*
X119893406Y-104910064D01*
X119723636Y-104616015D01*
X119695980Y-104568113D01*
X119681822Y-104547894D01*
X119568357Y-104385850D01*
X119469501Y-104244669D01*
X119469498Y-104244665D01*
X119215689Y-103942190D01*
X119144011Y-103870513D01*
X119144007Y-103870508D01*
X119138805Y-103865306D01*
X119138804Y-103865304D01*
X118112396Y-102838896D01*
X118037510Y-102788859D01*
X117964907Y-102740347D01*
X117866329Y-102699515D01*
X117860149Y-102696955D01*
X117860147Y-102696954D01*
X117801026Y-102672465D01*
X117801024Y-102672464D01*
X117627052Y-102637860D01*
X117627051Y-102637860D01*
X116514995Y-102637860D01*
X116440495Y-102617898D01*
X116394451Y-102576440D01*
X116380403Y-102557105D01*
X116335793Y-102495704D01*
X116157656Y-102317567D01*
X115953845Y-102169490D01*
X115729379Y-102055119D01*
X115489785Y-101977270D01*
X115240962Y-101937860D01*
X114989038Y-101937860D01*
X114781685Y-101970701D01*
X114740214Y-101977270D01*
X114512842Y-102051148D01*
X114500621Y-102055119D01*
X114500615Y-102055121D01*
X114500615Y-102055122D01*
X114276153Y-102169491D01*
X114276152Y-102169491D01*
X114072345Y-102317566D01*
X114072342Y-102317568D01*
X113894208Y-102495702D01*
X113894206Y-102495705D01*
X113746131Y-102699512D01*
X113746131Y-102699513D01*
X113631762Y-102923975D01*
X113631757Y-102923987D01*
X113553910Y-103163574D01*
X113546028Y-103213339D01*
X113514500Y-103412398D01*
X110215500Y-103412398D01*
X110176090Y-103163575D01*
X110098241Y-102923981D01*
X109983870Y-102699515D01*
X109983762Y-102699367D01*
X109894451Y-102576440D01*
X109835793Y-102495704D01*
X109657656Y-102317567D01*
X109453845Y-102169490D01*
X109229379Y-102055119D01*
X108989785Y-101977270D01*
X108740962Y-101937860D01*
X108489038Y-101937860D01*
X108281685Y-101970701D01*
X108240214Y-101977270D01*
X108012842Y-102051148D01*
X108000621Y-102055119D01*
X108000615Y-102055121D01*
X108000615Y-102055122D01*
X107776153Y-102169491D01*
X107776152Y-102169491D01*
X107572345Y-102317566D01*
X107572342Y-102317568D01*
X107394208Y-102495702D01*
X107394206Y-102495705D01*
X107246131Y-102699512D01*
X107246131Y-102699513D01*
X107131762Y-102923975D01*
X107131757Y-102923987D01*
X107053910Y-103163574D01*
X107046028Y-103213339D01*
X107014500Y-103412398D01*
X100702575Y-103412398D01*
X100672890Y-103224975D01*
X100595041Y-102985381D01*
X100480670Y-102760915D01*
X100332593Y-102557104D01*
X100154456Y-102378967D01*
X99950645Y-102230890D01*
X99726179Y-102116519D01*
X99486585Y-102038670D01*
X99237762Y-101999260D01*
X98985838Y-101999260D01*
X98779184Y-102031991D01*
X98737014Y-102038670D01*
X98497427Y-102116517D01*
X98497421Y-102116519D01*
X98497415Y-102116521D01*
X98497415Y-102116522D01*
X98272953Y-102230891D01*
X98272952Y-102230891D01*
X98069145Y-102378966D01*
X98069142Y-102378968D01*
X97891008Y-102557102D01*
X97891006Y-102557105D01*
X97742931Y-102760912D01*
X97742931Y-102760913D01*
X97628562Y-102985375D01*
X97628557Y-102985387D01*
X97572262Y-103158646D01*
X97550710Y-103224975D01*
X97511300Y-103473798D01*
X94212300Y-103473798D01*
X94172890Y-103224975D01*
X94095041Y-102985381D01*
X93980670Y-102760915D01*
X93832593Y-102557104D01*
X93654456Y-102378967D01*
X93450645Y-102230890D01*
X93226179Y-102116519D01*
X92986585Y-102038670D01*
X92737762Y-101999260D01*
X92485838Y-101999260D01*
X92279184Y-102031991D01*
X92237014Y-102038670D01*
X91997427Y-102116517D01*
X91997421Y-102116519D01*
X91997415Y-102116521D01*
X91997415Y-102116522D01*
X91772953Y-102230891D01*
X91772952Y-102230891D01*
X91569145Y-102378966D01*
X91569142Y-102378968D01*
X91391008Y-102557102D01*
X91391006Y-102557105D01*
X91242931Y-102760912D01*
X91242931Y-102760913D01*
X91128562Y-102985375D01*
X91128557Y-102985387D01*
X91072262Y-103158646D01*
X91050710Y-103224975D01*
X91011300Y-103473798D01*
X84165251Y-103473798D01*
X84239420Y-102918347D01*
X84240435Y-102911848D01*
X84395075Y-102047270D01*
X84396364Y-102040885D01*
X84589098Y-101183985D01*
X84590685Y-101177595D01*
X84600713Y-101140714D01*
X84821129Y-100330079D01*
X84822996Y-100323768D01*
X84834291Y-100288477D01*
X84863560Y-100197020D01*
X99123010Y-100197020D01*
X99123010Y-100433119D01*
X99159944Y-100666320D01*
X99232904Y-100890863D01*
X99232908Y-100890875D01*
X99340096Y-101101241D01*
X99340100Y-101101248D01*
X99400350Y-101184175D01*
X100099222Y-100485303D01*
X100110492Y-100527362D01*
X100182900Y-100652778D01*
X100285302Y-100755180D01*
X100410718Y-100827588D01*
X100452775Y-100838857D01*
X99753903Y-101537728D01*
X99836838Y-101597983D01*
X100047204Y-101705171D01*
X100047216Y-101705175D01*
X100271759Y-101778135D01*
X100504961Y-101815070D01*
X100741059Y-101815070D01*
X100974260Y-101778135D01*
X101198803Y-101705175D01*
X101198820Y-101705168D01*
X101409177Y-101597986D01*
X101409182Y-101597983D01*
X101492115Y-101537729D01*
X101492115Y-101537728D01*
X100793244Y-100838857D01*
X100835302Y-100827588D01*
X100960718Y-100755180D01*
X101063120Y-100652778D01*
X101135528Y-100527362D01*
X101146797Y-100485304D01*
X101845668Y-101184175D01*
X101845669Y-101184175D01*
X101905923Y-101101242D01*
X101905926Y-101101237D01*
X102013108Y-100890880D01*
X102013115Y-100890863D01*
X102086075Y-100666320D01*
X102123010Y-100433119D01*
X102123010Y-100197020D01*
X105623010Y-100197020D01*
X105623010Y-100433119D01*
X105659944Y-100666320D01*
X105732904Y-100890863D01*
X105732908Y-100890875D01*
X105840096Y-101101241D01*
X105840100Y-101101248D01*
X105900350Y-101184175D01*
X106599222Y-100485303D01*
X106610492Y-100527362D01*
X106682900Y-100652778D01*
X106785302Y-100755180D01*
X106910718Y-100827588D01*
X106952775Y-100838857D01*
X106253903Y-101537728D01*
X106336838Y-101597983D01*
X106547204Y-101705171D01*
X106547216Y-101705175D01*
X106771759Y-101778135D01*
X107004961Y-101815070D01*
X107241059Y-101815070D01*
X107474260Y-101778135D01*
X107698803Y-101705175D01*
X107698820Y-101705168D01*
X107909177Y-101597986D01*
X107909182Y-101597983D01*
X107992115Y-101537729D01*
X107992115Y-101537728D01*
X107293244Y-100838857D01*
X107335302Y-100827588D01*
X107460718Y-100755180D01*
X107563120Y-100652778D01*
X107635528Y-100527362D01*
X107646797Y-100485304D01*
X108345668Y-101184175D01*
X108345669Y-101184175D01*
X108405923Y-101101242D01*
X108405926Y-101101237D01*
X108513108Y-100890880D01*
X108513115Y-100890863D01*
X108586075Y-100666320D01*
X108623010Y-100433119D01*
X108623010Y-100197020D01*
X108586075Y-99963819D01*
X108513115Y-99739276D01*
X108513111Y-99739264D01*
X108405923Y-99528898D01*
X108405923Y-99528897D01*
X108345668Y-99445963D01*
X107646797Y-100144834D01*
X107635528Y-100102778D01*
X107563120Y-99977362D01*
X107460718Y-99874960D01*
X107335302Y-99802552D01*
X107293243Y-99791282D01*
X107992115Y-99092410D01*
X107992115Y-99092409D01*
X107909188Y-99032160D01*
X107909181Y-99032156D01*
X107698815Y-98924968D01*
X107698803Y-98924964D01*
X107474260Y-98852004D01*
X107241059Y-98815070D01*
X107004961Y-98815070D01*
X106771759Y-98852004D01*
X106547216Y-98924964D01*
X106547204Y-98924968D01*
X106336838Y-99032156D01*
X106336833Y-99032159D01*
X106253903Y-99092409D01*
X106952776Y-99791282D01*
X106910718Y-99802552D01*
X106785302Y-99874960D01*
X106682900Y-99977362D01*
X106610492Y-100102778D01*
X106599222Y-100144836D01*
X105900349Y-99445963D01*
X105840099Y-99528893D01*
X105840096Y-99528898D01*
X105732908Y-99739264D01*
X105732904Y-99739276D01*
X105659944Y-99963819D01*
X105623010Y-100197020D01*
X102123010Y-100197020D01*
X102086075Y-99963819D01*
X102013115Y-99739276D01*
X102013111Y-99739264D01*
X101905923Y-99528898D01*
X101905923Y-99528897D01*
X101845668Y-99445963D01*
X101146797Y-100144834D01*
X101135528Y-100102778D01*
X101063120Y-99977362D01*
X100960718Y-99874960D01*
X100835302Y-99802552D01*
X100793243Y-99791282D01*
X101492115Y-99092410D01*
X101492115Y-99092409D01*
X101409188Y-99032160D01*
X101409181Y-99032156D01*
X101198815Y-98924968D01*
X101198803Y-98924964D01*
X100974260Y-98852004D01*
X100741059Y-98815070D01*
X100504961Y-98815070D01*
X100271759Y-98852004D01*
X100047216Y-98924964D01*
X100047204Y-98924968D01*
X99836838Y-99032156D01*
X99836833Y-99032159D01*
X99753903Y-99092409D01*
X100452776Y-99791282D01*
X100410718Y-99802552D01*
X100285302Y-99874960D01*
X100182900Y-99977362D01*
X100110492Y-100102778D01*
X100099222Y-100144836D01*
X99400349Y-99445963D01*
X99340099Y-99528893D01*
X99340096Y-99528898D01*
X99232908Y-99739264D01*
X99232904Y-99739276D01*
X99159944Y-99963819D01*
X99123010Y-100197020D01*
X84863560Y-100197020D01*
X85090707Y-99487259D01*
X85092834Y-99481086D01*
X85397286Y-98657237D01*
X85399704Y-98651116D01*
X85740301Y-97841535D01*
X85742969Y-97835567D01*
X86119051Y-97041829D01*
X86121976Y-97035994D01*
X86532789Y-96259688D01*
X86535965Y-96253992D01*
X86867679Y-95689108D01*
X99022510Y-95689108D01*
X99022510Y-95941032D01*
X99061920Y-96189855D01*
X99139769Y-96429449D01*
X99194840Y-96537533D01*
X99254141Y-96653916D01*
X99254141Y-96653917D01*
X99262450Y-96665353D01*
X99402217Y-96857726D01*
X99580354Y-97035863D01*
X99784165Y-97183940D01*
X100008631Y-97298311D01*
X100248225Y-97376160D01*
X100497048Y-97415570D01*
X100497053Y-97415570D01*
X100748967Y-97415570D01*
X100748972Y-97415570D01*
X100997795Y-97376160D01*
X101237389Y-97298311D01*
X101461855Y-97183940D01*
X101665666Y-97035863D01*
X101843803Y-96857726D01*
X101991880Y-96653915D01*
X102106251Y-96429449D01*
X102184100Y-96189855D01*
X102223510Y-95941032D01*
X102223510Y-95689108D01*
X105522510Y-95689108D01*
X105522510Y-95941032D01*
X105561920Y-96189855D01*
X105639769Y-96429449D01*
X105694840Y-96537533D01*
X105754141Y-96653916D01*
X105754141Y-96653917D01*
X105762450Y-96665353D01*
X105902217Y-96857726D01*
X106080354Y-97035863D01*
X106284165Y-97183940D01*
X106508631Y-97298311D01*
X106748225Y-97376160D01*
X106997048Y-97415570D01*
X106997053Y-97415570D01*
X107248967Y-97415570D01*
X107248972Y-97415570D01*
X107497795Y-97376160D01*
X107737389Y-97298311D01*
X107961855Y-97183940D01*
X108165666Y-97035863D01*
X108343803Y-96857726D01*
X108491880Y-96653915D01*
X108606251Y-96429449D01*
X108684100Y-96189855D01*
X108723510Y-95941032D01*
X108723510Y-95689108D01*
X108684100Y-95440285D01*
X108606251Y-95200691D01*
X108491880Y-94976225D01*
X108343803Y-94772414D01*
X108165666Y-94594277D01*
X107961855Y-94446200D01*
X107737389Y-94331829D01*
X107497795Y-94253980D01*
X107248972Y-94214570D01*
X106997048Y-94214570D01*
X106789695Y-94247411D01*
X106748224Y-94253980D01*
X106508637Y-94331827D01*
X106508631Y-94331829D01*
X106508625Y-94331831D01*
X106508625Y-94331832D01*
X106284163Y-94446201D01*
X106284162Y-94446201D01*
X106080355Y-94594276D01*
X106080352Y-94594278D01*
X105902218Y-94772412D01*
X105902216Y-94772415D01*
X105754141Y-94976222D01*
X105754141Y-94976223D01*
X105639772Y-95200685D01*
X105639767Y-95200697D01*
X105581619Y-95379659D01*
X105561920Y-95440285D01*
X105522510Y-95689108D01*
X102223510Y-95689108D01*
X102184100Y-95440285D01*
X102106251Y-95200691D01*
X101991880Y-94976225D01*
X101843803Y-94772414D01*
X101665666Y-94594277D01*
X101461855Y-94446200D01*
X101237389Y-94331829D01*
X100997795Y-94253980D01*
X100748972Y-94214570D01*
X100497048Y-94214570D01*
X100289695Y-94247411D01*
X100248224Y-94253980D01*
X100008637Y-94331827D01*
X100008631Y-94331829D01*
X100008625Y-94331831D01*
X100008625Y-94331832D01*
X99784163Y-94446201D01*
X99784162Y-94446201D01*
X99580355Y-94594276D01*
X99580352Y-94594278D01*
X99402218Y-94772412D01*
X99402216Y-94772415D01*
X99254141Y-94976222D01*
X99254141Y-94976223D01*
X99139772Y-95200685D01*
X99139767Y-95200697D01*
X99081619Y-95379659D01*
X99061920Y-95440285D01*
X99022510Y-95689108D01*
X86867679Y-95689108D01*
X86980732Y-95496588D01*
X86984190Y-95490989D01*
X87461997Y-94754041D01*
X87465677Y-94748631D01*
X87975647Y-94033493D01*
X87979550Y-94028270D01*
X88520632Y-93336419D01*
X88524770Y-93331362D01*
X88912241Y-92878706D01*
X92149500Y-92878706D01*
X92149500Y-93121293D01*
X92181160Y-93361781D01*
X92181161Y-93361787D01*
X92181162Y-93361789D01*
X92229737Y-93543073D01*
X92243947Y-93596103D01*
X92256006Y-93625216D01*
X92328696Y-93800706D01*
X92336778Y-93820216D01*
X92402349Y-93933788D01*
X92458064Y-94030289D01*
X92605735Y-94222738D01*
X92777262Y-94394265D01*
X92969711Y-94541936D01*
X93179788Y-94663224D01*
X93403900Y-94756054D01*
X93638211Y-94818838D01*
X93638217Y-94818838D01*
X93638218Y-94818839D01*
X93703600Y-94827446D01*
X93878712Y-94850500D01*
X94121288Y-94850500D01*
X94361789Y-94818838D01*
X94596100Y-94756054D01*
X94820212Y-94663224D01*
X95030289Y-94541936D01*
X95222738Y-94394265D01*
X95394265Y-94222738D01*
X95541936Y-94030289D01*
X95663224Y-93820212D01*
X95756054Y-93596100D01*
X95818838Y-93361789D01*
X95850500Y-93121288D01*
X95850500Y-92878712D01*
X95850499Y-92878706D01*
X118149500Y-92878706D01*
X118149500Y-93121293D01*
X118181160Y-93361781D01*
X118181161Y-93361787D01*
X118181162Y-93361789D01*
X118229737Y-93543073D01*
X118243947Y-93596103D01*
X118256006Y-93625216D01*
X118328696Y-93800706D01*
X118336778Y-93820216D01*
X118402349Y-93933788D01*
X118458064Y-94030289D01*
X118605735Y-94222738D01*
X118777262Y-94394265D01*
X118969711Y-94541936D01*
X119179788Y-94663224D01*
X119403900Y-94756054D01*
X119638211Y-94818838D01*
X119638217Y-94818838D01*
X119638218Y-94818839D01*
X119703600Y-94827446D01*
X119878712Y-94850500D01*
X120121288Y-94850500D01*
X120361789Y-94818838D01*
X120596100Y-94756054D01*
X120820212Y-94663224D01*
X121030289Y-94541936D01*
X121222738Y-94394265D01*
X121394265Y-94222738D01*
X121541936Y-94030289D01*
X121663224Y-93820212D01*
X121756054Y-93596100D01*
X121818838Y-93361789D01*
X121850500Y-93121288D01*
X121850500Y-92878712D01*
X121818838Y-92638211D01*
X121756054Y-92403900D01*
X121663224Y-92179788D01*
X121541936Y-91969711D01*
X121394265Y-91777262D01*
X121222738Y-91605735D01*
X121030289Y-91458064D01*
X120920328Y-91394578D01*
X120820216Y-91336778D01*
X120820214Y-91336777D01*
X120820212Y-91336776D01*
X120688932Y-91282398D01*
X120596103Y-91243947D01*
X120596101Y-91243946D01*
X120596100Y-91243946D01*
X120361789Y-91181162D01*
X120361787Y-91181161D01*
X120361781Y-91181160D01*
X120121293Y-91149500D01*
X120121288Y-91149500D01*
X119878712Y-91149500D01*
X119878706Y-91149500D01*
X119638218Y-91181160D01*
X119403896Y-91243947D01*
X119179783Y-91336778D01*
X118969712Y-91458063D01*
X118969711Y-91458064D01*
X118777262Y-91605735D01*
X118777260Y-91605736D01*
X118777256Y-91605740D01*
X118605740Y-91777256D01*
X118605736Y-91777260D01*
X118605735Y-91777262D01*
X118512714Y-91898488D01*
X118458063Y-91969712D01*
X118336778Y-92179783D01*
X118243947Y-92403896D01*
X118181160Y-92638218D01*
X118149500Y-92878706D01*
X95850499Y-92878706D01*
X95818838Y-92638211D01*
X95756054Y-92403900D01*
X95663224Y-92179788D01*
X95541936Y-91969711D01*
X95394265Y-91777262D01*
X95222738Y-91605735D01*
X95030289Y-91458064D01*
X94920328Y-91394578D01*
X94820216Y-91336778D01*
X94820214Y-91336777D01*
X94820212Y-91336776D01*
X94688932Y-91282398D01*
X94596103Y-91243947D01*
X94596101Y-91243946D01*
X94596100Y-91243946D01*
X94361789Y-91181162D01*
X94361787Y-91181161D01*
X94361781Y-91181160D01*
X94121293Y-91149500D01*
X94121288Y-91149500D01*
X93878712Y-91149500D01*
X93878706Y-91149500D01*
X93638218Y-91181160D01*
X93403896Y-91243947D01*
X93179783Y-91336778D01*
X92969712Y-91458063D01*
X92969711Y-91458064D01*
X92777262Y-91605735D01*
X92777260Y-91605736D01*
X92777256Y-91605740D01*
X92605740Y-91777256D01*
X92605736Y-91777260D01*
X92605735Y-91777262D01*
X92512714Y-91898488D01*
X92458063Y-91969712D01*
X92336778Y-92179783D01*
X92243947Y-92403896D01*
X92181160Y-92638218D01*
X92149500Y-92878706D01*
X88912241Y-92878706D01*
X89095951Y-92664090D01*
X89100291Y-92659242D01*
X89700434Y-92017884D01*
X89704972Y-92013244D01*
X90332888Y-91399069D01*
X90337675Y-91394590D01*
X90992115Y-90808816D01*
X90997071Y-90804573D01*
X91676795Y-90248309D01*
X91681967Y-90244265D01*
X92385605Y-89718632D01*
X92390922Y-89714839D01*
X93117176Y-89220808D01*
X93122653Y-89217257D01*
X93870025Y-88755849D01*
X93875595Y-88752577D01*
X94642713Y-88324640D01*
X94648470Y-88321594D01*
X95433702Y-87928041D01*
X95439586Y-87925253D01*
X96241463Y-87566817D01*
X96247489Y-87564282D01*
X97064440Y-87241664D01*
X97070530Y-87239414D01*
X97900943Y-86953252D01*
X97907141Y-86951267D01*
X98749451Y-86702101D01*
X98755726Y-86700395D01*
X99608142Y-86488754D01*
X99614544Y-86487314D01*
X100475520Y-86313579D01*
X100481933Y-86312432D01*
X101349782Y-86176945D01*
X101356235Y-86176084D01*
X102229196Y-86079122D01*
X102235686Y-86078546D01*
X103112068Y-86020293D01*
X103118629Y-86020002D01*
X103998373Y-86000535D01*
X104001669Y-86000500D01*
X104092710Y-86000500D01*
X195907290Y-86000500D01*
X195998331Y-86000500D01*
X196001626Y-86000535D01*
G37*
%TD.AperFunction*%
%TD*%
M02*
