%TF.GenerationSoftware,KiCad,Pcbnew,9.0.3*%
%TF.CreationDate,2025-07-14T12:36:22+02:00*%
%TF.ProjectId,CalliopeGamePad,43616c6c-696f-4706-9547-616d65506164,rev?*%
%TF.SameCoordinates,Original*%
%TF.FileFunction,Soldermask,Top*%
%TF.FilePolarity,Negative*%
%FSLAX46Y46*%
G04 Gerber Fmt 4.6, Leading zero omitted, Abs format (unit mm)*
G04 Created by KiCad (PCBNEW 9.0.3) date 2025-07-14 12:36:22*
%MOMM*%
%LPD*%
G01*
G04 APERTURE LIST*
%ADD10C,0.203200*%
%ADD11C,3.200000*%
%ADD12C,2.000000*%
%ADD13R,1.700000X1.700000*%
%ADD14C,1.700000*%
%ADD15C,4.000000*%
%ADD16C,1.600000*%
G04 APERTURE END LIST*
D10*
X150315790Y-109052640D02*
X150315790Y-110198180D01*
X148614000Y-109052640D02*
X148395560Y-109052640D01*
X148832440Y-109215200D02*
X148723220Y-109105980D01*
X151931230Y-109105980D02*
X152040450Y-109215200D01*
X151766130Y-109052640D02*
X151931230Y-109105980D01*
X148888320Y-109324420D02*
X148832440Y-109215200D01*
X151385130Y-109052640D02*
X151766130Y-109052640D01*
X150315790Y-109052640D02*
X151024450Y-109052640D01*
X148723220Y-109105980D02*
X148614000Y-109052640D01*
X151385130Y-109052640D02*
X151385130Y-110198180D01*
X152040450Y-109215200D02*
X152093790Y-109324420D01*
X149302340Y-109052640D02*
X149302340Y-110198180D01*
X148286340Y-109105980D02*
X148177120Y-109215200D01*
X148395560Y-109052640D02*
X148286340Y-109105980D01*
X148177120Y-109215200D02*
X148123780Y-109324420D01*
D11*
%TO.C,H4*%
X94000000Y-93000000D03*
%TD*%
D12*
%TO.C,U8*%
X196839673Y-109876443D03*
X202468838Y-113126443D03*
X194589673Y-113773557D03*
X200218838Y-117023557D03*
%TD*%
%TO.C,U6*%
X201739673Y-100826443D03*
X207368838Y-104076443D03*
X199489672Y-104723558D03*
X205118839Y-107973558D03*
%TD*%
%TO.C,U2*%
X92611800Y-103599760D03*
X99111800Y-103599760D03*
X92611800Y-108099760D03*
X99111800Y-108099760D03*
%TD*%
%TO.C,U4*%
X100639400Y-111564760D03*
X107139400Y-111564760D03*
X100639400Y-116064760D03*
X107139400Y-116064760D03*
%TD*%
D13*
%TO.C,J2*%
X146000000Y-110000000D03*
D14*
X148540000Y-110000000D03*
X151080000Y-110000000D03*
X153620000Y-110000000D03*
%TD*%
D12*
%TO.C,U7*%
X186389673Y-103876443D03*
X192018838Y-107126443D03*
X184139673Y-107773557D03*
X189768838Y-111023557D03*
%TD*%
D11*
%TO.C,H8*%
X206000000Y-93000000D03*
%TD*%
D15*
%TO.C,H1*%
X169050000Y-107550000D03*
%TD*%
D12*
%TO.C,U3*%
X108615000Y-103538360D03*
X115115000Y-103538360D03*
X108615000Y-108038360D03*
X115115000Y-108038360D03*
%TD*%
D11*
%TO.C,H5*%
X120000000Y-119000000D03*
%TD*%
%TO.C,H7*%
X180000000Y-93000000D03*
%TD*%
%TO.C,H6*%
X180000000Y-119000000D03*
%TD*%
D12*
%TO.C,U5*%
X191239673Y-94976443D03*
X196868838Y-98226443D03*
X188989673Y-98873557D03*
X194618838Y-102123557D03*
%TD*%
D11*
%TO.C,H3*%
X120000000Y-93000000D03*
%TD*%
D15*
%TO.C,H2*%
X130950000Y-107550000D03*
%TD*%
D12*
%TO.C,U1*%
X100623010Y-95815070D03*
X107123010Y-95815070D03*
X100623010Y-100315070D03*
X107123010Y-100315070D03*
%TD*%
D16*
%TO.C,R4*%
X142720951Y-113969293D03*
X127480951Y-113969293D03*
%TD*%
%TO.C,R1*%
X142720951Y-119969293D03*
X127480951Y-119969293D03*
%TD*%
%TO.C,R7*%
X157000000Y-114000000D03*
X172240000Y-114000000D03*
%TD*%
%TO.C,R3*%
X142720951Y-122969293D03*
X127480951Y-122969293D03*
%TD*%
%TO.C,R5*%
X157000000Y-120000000D03*
X172240000Y-120000000D03*
%TD*%
%TO.C,R8*%
X157000000Y-123000000D03*
X172240000Y-123000000D03*
%TD*%
%TO.C,R6*%
X157000000Y-117000000D03*
X172240000Y-117000000D03*
%TD*%
%TO.C,R2*%
X142720951Y-116969293D03*
X127480951Y-116969293D03*
%TD*%
D13*
%TO.C,J1*%
X132540000Y-92500000D03*
D14*
X132540000Y-95040000D03*
X135080000Y-92500000D03*
X135080000Y-95040000D03*
X137620000Y-92500000D03*
X137620000Y-95040000D03*
X140160000Y-92500000D03*
X140160000Y-95040000D03*
X142700000Y-92500000D03*
X142700000Y-95040000D03*
X145240000Y-92500000D03*
X145240000Y-95040000D03*
X147780000Y-92500000D03*
X147780000Y-95040000D03*
X150320000Y-92500000D03*
X150320000Y-95040000D03*
X152860000Y-92500000D03*
X152860000Y-95040000D03*
X155400000Y-92500000D03*
X155400000Y-95040000D03*
X157940000Y-92500000D03*
X157940000Y-95040000D03*
X160480000Y-92500000D03*
X160480000Y-95040000D03*
X163020000Y-92500000D03*
X163020000Y-95040000D03*
X165560000Y-92500000D03*
X165560000Y-95040000D03*
X168100000Y-92500000D03*
X168100000Y-95040000D03*
%TD*%
M02*
