%TF.GenerationSoftware,KiCad,Pcbnew,9.0.3*%
%TF.CreationDate,2025-07-14T12:36:22+02:00*%
%TF.ProjectId,CalliopeGamePad,43616c6c-696f-4706-9547-616d65506164,rev?*%
%TF.SameCoordinates,Original*%
%TF.FileFunction,Copper,L1,Top*%
%TF.FilePolarity,Positive*%
%FSLAX46Y46*%
G04 Gerber Fmt 4.6, Leading zero omitted, Abs format (unit mm)*
G04 Created by KiCad (PCBNEW 9.0.3) date 2025-07-14 12:36:22*
%MOMM*%
%LPD*%
G01*
G04 APERTURE LIST*
%TA.AperFunction,ComponentPad*%
%ADD10C,2.000000*%
%TD*%
%TA.AperFunction,ComponentPad*%
%ADD11R,1.700000X1.700000*%
%TD*%
%TA.AperFunction,ComponentPad*%
%ADD12C,1.700000*%
%TD*%
%TA.AperFunction,ComponentPad*%
%ADD13C,1.600000*%
%TD*%
%TA.AperFunction,ViaPad*%
%ADD14C,1.600000*%
%TD*%
%TA.AperFunction,Conductor*%
%ADD15C,0.600000*%
%TD*%
%TA.AperFunction,Conductor*%
%ADD16C,1.200000*%
%TD*%
%TA.AperFunction,Conductor*%
%ADD17C,0.300000*%
%TD*%
G04 APERTURE END LIST*
D10*
%TO.P,U8,1,1*%
%TO.N,/C14*%
X196839673Y-109876443D03*
X202468838Y-113126443D03*
%TO.P,U8,2,2*%
%TO.N,GND*%
X194589673Y-113773557D03*
X200218838Y-117023557D03*
%TD*%
%TO.P,U6,1,1*%
%TO.N,/C9*%
X201739673Y-100826443D03*
X207368838Y-104076443D03*
%TO.P,U6,2,2*%
%TO.N,GND*%
X199489672Y-104723558D03*
X205118839Y-107973558D03*
%TD*%
%TO.P,U2,1,1*%
%TO.N,/P1*%
X92611800Y-103599760D03*
X99111800Y-103599760D03*
%TO.P,U2,2,2*%
%TO.N,GND*%
X92611800Y-108099760D03*
X99111800Y-108099760D03*
%TD*%
%TO.P,U4,1,1*%
%TO.N,/P3*%
X100639400Y-111564760D03*
X107139400Y-111564760D03*
%TO.P,U4,2,2*%
%TO.N,GND*%
X100639400Y-116064760D03*
X107139400Y-116064760D03*
%TD*%
D11*
%TO.P,J2,1,Pin_1*%
%TO.N,GND*%
X146000000Y-110000000D03*
D12*
%TO.P,J2,2,Pin_2*%
%TO.N,+3.3V*%
X148540000Y-110000000D03*
%TO.P,J2,3,Pin_3*%
%TO.N,/SCL*%
X151080000Y-110000000D03*
%TO.P,J2,4,Pin_4*%
%TO.N,/SDA*%
X153620000Y-110000000D03*
%TD*%
D10*
%TO.P,U7,1,1*%
%TO.N,/C13*%
X186389673Y-103876443D03*
X192018838Y-107126443D03*
%TO.P,U7,2,2*%
%TO.N,GND*%
X184139673Y-107773557D03*
X189768838Y-111023557D03*
%TD*%
%TO.P,U3,1,1*%
%TO.N,/P2*%
X108615000Y-103538360D03*
X115115000Y-103538360D03*
%TO.P,U3,2,2*%
%TO.N,GND*%
X108615000Y-108038360D03*
X115115000Y-108038360D03*
%TD*%
%TO.P,U5,1,1*%
%TO.N,/C8*%
X191239673Y-94976443D03*
X196868838Y-98226443D03*
%TO.P,U5,2,2*%
%TO.N,GND*%
X188989673Y-98873557D03*
X194618838Y-102123557D03*
%TD*%
%TO.P,U1,1,1*%
%TO.N,/P0*%
X100623010Y-95815070D03*
X107123010Y-95815070D03*
%TO.P,U1,2,2*%
%TO.N,GND*%
X100623010Y-100315070D03*
X107123010Y-100315070D03*
%TD*%
D13*
%TO.P,R4,1*%
%TO.N,+3.3V*%
X142720951Y-113969293D03*
%TO.P,R4,2*%
%TO.N,/P0*%
X127480951Y-113969293D03*
%TD*%
%TO.P,R1,1*%
%TO.N,+3.3V*%
X142720951Y-119969293D03*
%TO.P,R1,2*%
%TO.N,/P1*%
X127480951Y-119969293D03*
%TD*%
%TO.P,R7,1*%
%TO.N,+3.3V*%
X157000000Y-114000000D03*
%TO.P,R7,2*%
%TO.N,/C14*%
X172240000Y-114000000D03*
%TD*%
%TO.P,R3,1*%
%TO.N,+3.3V*%
X142720951Y-122969293D03*
%TO.P,R3,2*%
%TO.N,/P3*%
X127480951Y-122969293D03*
%TD*%
%TO.P,R5,1*%
%TO.N,+3.3V*%
X157000000Y-120000000D03*
%TO.P,R5,2*%
%TO.N,/C13*%
X172240000Y-120000000D03*
%TD*%
%TO.P,R8,1*%
%TO.N,+3.3V*%
X157000000Y-123000000D03*
%TO.P,R8,2*%
%TO.N,/C9*%
X172240000Y-123000000D03*
%TD*%
%TO.P,R6,1*%
%TO.N,+3.3V*%
X157000000Y-117000000D03*
%TO.P,R6,2*%
%TO.N,/C8*%
X172240000Y-117000000D03*
%TD*%
%TO.P,R2,1*%
%TO.N,+3.3V*%
X142720951Y-116969293D03*
%TO.P,R2,2*%
%TO.N,/P2*%
X127480951Y-116969293D03*
%TD*%
D11*
%TO.P,J1,1,Pin_1*%
%TO.N,GND*%
X132540000Y-92500000D03*
D12*
%TO.P,J1,2,Pin_2*%
%TO.N,+3.3V*%
X132540000Y-95040000D03*
%TO.P,J1,3,Pin_3*%
%TO.N,/P0*%
X135080000Y-92500000D03*
%TO.P,J1,4,Pin_4*%
%TO.N,/P1*%
X135080000Y-95040000D03*
%TO.P,J1,5,Pin_5*%
%TO.N,/P2*%
X137620000Y-92500000D03*
%TO.P,J1,6,Pin_6*%
%TO.N,/P3*%
X137620000Y-95040000D03*
%TO.P,J1,7,Pin_7*%
%TO.N,/C4*%
X140160000Y-92500000D03*
%TO.P,J1,8,Pin_8*%
%TO.N,/C5*%
X140160000Y-95040000D03*
%TO.P,J1,9,Pin_9*%
%TO.N,/C6*%
X142700000Y-92500000D03*
%TO.P,J1,10,Pin_10*%
%TO.N,/C7*%
X142700000Y-95040000D03*
%TO.P,J1,11,Pin_11*%
%TO.N,/C8*%
X145240000Y-92500000D03*
%TO.P,J1,12,Pin_12*%
%TO.N,/C9*%
X145240000Y-95040000D03*
%TO.P,J1,13,Pin_13*%
%TO.N,/C10*%
X147780000Y-92500000D03*
%TO.P,J1,14,Pin_14*%
%TO.N,/C11*%
X147780000Y-95040000D03*
%TO.P,J1,15,Pin_15*%
%TO.N,/C12*%
X150320000Y-92500000D03*
%TO.P,J1,16,Pin_16*%
%TO.N,/C13*%
X150320000Y-95040000D03*
%TO.P,J1,17,Pin_17*%
%TO.N,/C14*%
X152860000Y-92500000D03*
%TO.P,J1,18,Pin_18*%
%TO.N,/C15*%
X152860000Y-95040000D03*
%TO.P,J1,19,Pin_19*%
%TO.N,/C16*%
X155400000Y-92500000D03*
%TO.P,J1,20,Pin_20*%
%TO.N,/C17*%
X155400000Y-95040000D03*
%TO.P,J1,21,Pin_21*%
%TO.N,/C18*%
X157940000Y-92500000D03*
%TO.P,J1,22,Pin_22*%
%TO.N,/SCL*%
X157940000Y-95040000D03*
%TO.P,J1,23,Pin_23*%
%TO.N,/SDA*%
X160480000Y-92500000D03*
%TO.P,J1,24,Pin_24*%
%TO.N,GND*%
X160480000Y-95040000D03*
%TO.P,J1,25,Pin_25*%
%TO.N,/M0+*%
X163020000Y-92500000D03*
%TO.P,J1,26,Pin_26*%
%TO.N,/M1+*%
X163020000Y-95040000D03*
%TO.P,J1,27,Pin_27*%
%TO.N,/M0-*%
X165560000Y-92500000D03*
%TO.P,J1,28,Pin_28*%
%TO.N,/M1-*%
X165560000Y-95040000D03*
%TO.P,J1,29,Pin_29*%
%TO.N,/VM+*%
X168100000Y-92500000D03*
%TO.P,J1,30,Pin_30*%
%TO.N,GND*%
X168100000Y-95040000D03*
%TD*%
D14*
%TO.N,GND*%
X154000000Y-104000000D03*
X149000000Y-101000000D03*
X121750000Y-110250000D03*
X133000000Y-120000000D03*
X167000000Y-116500000D03*
X196750000Y-106250000D03*
X104000000Y-107500000D03*
X117750000Y-109250000D03*
X134000000Y-102500000D03*
X141500000Y-97750000D03*
X165000000Y-98250000D03*
%TO.N,/C8*%
X182250000Y-99500000D03*
%TO.N,GND*%
X129500000Y-98750000D03*
X104500000Y-124000000D03*
X143750000Y-104500000D03*
X212250000Y-107750000D03*
X188250000Y-89750000D03*
X177500000Y-101750000D03*
X190000000Y-120000000D03*
X87000000Y-102750000D03*
X102500000Y-89000000D03*
X92750000Y-115000000D03*
X112250000Y-116750000D03*
X144750000Y-89000000D03*
%TO.N,/P0*%
X121000000Y-99750000D03*
%TO.N,/P3*%
X136500000Y-120500000D03*
%TO.N,/P1*%
X125750000Y-103250000D03*
%TO.N,/P2*%
X127000000Y-98000000D03*
%TD*%
D15*
%TO.N,/C9*%
X156707107Y-101957107D02*
X157500000Y-102750000D01*
X155000000Y-101250000D02*
G75*
G02*
X156707104Y-101957110I0J-2414200D01*
G01*
X158810660Y-105914213D02*
X158810660Y-108560660D01*
X154818020Y-101250000D02*
X155000000Y-101250000D01*
X157500000Y-102750000D02*
G75*
G02*
X158810655Y-105914213I-3164200J-3164200D01*
G01*
X151287689Y-99787689D02*
G75*
G03*
X154818020Y-101249998I3530311J3530289D01*
G01*
X165914214Y-123000000D02*
X172240000Y-123000000D01*
X163000000Y-121750000D02*
X163073223Y-121823223D01*
X160000000Y-111060661D02*
X160000000Y-114507359D01*
X158810660Y-108560660D02*
X159073223Y-108823223D01*
X150000000Y-98500000D02*
X151287689Y-99787689D01*
X146500000Y-97750000D02*
X148189372Y-97750000D01*
X146265305Y-97515305D02*
X146500000Y-97750000D01*
X163073223Y-121823223D02*
G75*
G03*
X165914214Y-122999981I2840977J2841023D01*
G01*
X159073223Y-108823223D02*
G75*
G02*
X160000032Y-111060661I-2237423J-2237477D01*
G01*
X148189372Y-97750000D02*
G75*
G02*
X150000018Y-98499982I28J-2560600D01*
G01*
X160000000Y-114507359D02*
G75*
G03*
X162999988Y-121750012I10242600J-41D01*
G01*
X145240000Y-95040000D02*
G75*
G03*
X146265307Y-97515303I3500600J0D01*
G01*
D16*
%TO.N,+3.3V*%
X148540000Y-104290000D02*
X148540000Y-110000000D01*
X144350000Y-100100000D02*
X148540000Y-104290000D01*
X132540000Y-98040000D02*
X134600000Y-100100000D01*
X132540000Y-95040000D02*
X132540000Y-98040000D01*
X134600000Y-100100000D02*
X144350000Y-100100000D01*
D15*
%TO.N,/C8*%
X180535534Y-99500000D02*
X182250000Y-99500000D01*
X174500000Y-94164214D02*
X174500000Y-97000000D01*
X171914213Y-90164214D02*
X173500000Y-91750000D01*
X146116812Y-90383187D02*
X146496164Y-90003836D01*
X149523192Y-88750000D02*
X168500000Y-88750000D01*
X174500000Y-97000000D02*
G75*
G03*
X180535534Y-99499986I6035500J6035500D01*
G01*
X146496164Y-90003836D02*
G75*
G02*
X149523192Y-88750005I3027036J-3027064D01*
G01*
X173500000Y-91750000D02*
G75*
G02*
X174499994Y-94164214I-2414200J-2414200D01*
G01*
X168500000Y-88750000D02*
G75*
G02*
X171914208Y-90164219I0J-4828400D01*
G01*
X145240000Y-92500000D02*
G75*
G02*
X146116818Y-90383193I2993600J0D01*
G01*
%TO.N,GND*%
X167987437Y-97012563D02*
X168000000Y-97000000D01*
X165000000Y-98250000D02*
G75*
G03*
X167987442Y-97012568I0J4224900D01*
G01*
X168000000Y-97000000D02*
X168000000Y-95281421D01*
X168000000Y-95281421D02*
G75*
G02*
X168099994Y-95039994I341400J21D01*
G01*
%TO.N,/C14*%
X159250000Y-98000000D02*
G75*
G03*
X157439340Y-97249984I-1810700J-1810700D01*
G01*
X163000000Y-107053301D02*
G75*
G03*
X159250000Y-98000000I-12803300J1D01*
G01*
X163000000Y-112000000D02*
X163000000Y-107053301D01*
X157439340Y-97250000D02*
X154750000Y-97250000D01*
D17*
X154070196Y-95608808D02*
G75*
G03*
X154750002Y-97249998I2321004J8D01*
G01*
X154070196Y-93892349D02*
X154070196Y-95608808D01*
X154019816Y-93782026D02*
X154070196Y-93892349D01*
X153896126Y-93573547D02*
X153961694Y-93675578D01*
X153823447Y-93476454D02*
X153896126Y-93573547D01*
X153744026Y-93384793D02*
X153823447Y-93476454D01*
X153701530Y-93341530D02*
X153744026Y-93384793D01*
X153961694Y-93675578D02*
X154019816Y-93782026D01*
X152860000Y-92500000D02*
X153701530Y-93341530D01*
D15*
%TO.N,/C13*%
X150320000Y-96581005D02*
X150320000Y-95040000D01*
X150762563Y-97262563D02*
X150250000Y-96750000D01*
X157714466Y-100714466D02*
X156737437Y-99737437D01*
X161250000Y-114128680D02*
X161250000Y-109250000D01*
X172240000Y-120000000D02*
X168181981Y-120000000D01*
X150250000Y-96750000D02*
G75*
G03*
X150320002Y-96581005I-169000J169000D01*
G01*
X153750000Y-98500000D02*
G75*
G02*
X150762558Y-97262568I0J4224900D01*
G01*
X156737437Y-99737437D02*
G75*
G03*
X153750000Y-98500008I-2987437J-2987463D01*
G01*
X161250000Y-109250000D02*
G75*
G03*
X157714473Y-100714459I-12071100J0D01*
G01*
X162750000Y-117750000D02*
G75*
G02*
X161250008Y-114128680I3621300J3621300D01*
G01*
X168181981Y-120000000D02*
G75*
G02*
X162750006Y-117749994I19J7682000D01*
G01*
%TO.N,/C14*%
X167828427Y-114000000D02*
G75*
G02*
X162999992Y-112000008I-27J6828400D01*
G01*
X172240000Y-114000000D02*
X167828427Y-114000000D01*
X187464466Y-117250000D02*
G75*
G03*
X190939354Y-115810674I34J4914200D01*
G01*
X186769996Y-117250000D02*
X187464466Y-117250000D01*
X195930859Y-109500000D02*
G75*
G02*
X196839702Y-109876414I41J-1285300D01*
G01*
X194500000Y-109500000D02*
X195930859Y-109500000D01*
X192883883Y-111116116D02*
X194500000Y-109500000D01*
X192000000Y-113250000D02*
G75*
G02*
X192883877Y-111116110I3017800J0D01*
G01*
X190939340Y-115810660D02*
G75*
G03*
X192000006Y-113250000I-2560640J2560660D01*
G01*
X185029997Y-116529269D02*
G75*
G03*
X186769996Y-117250012I1740003J1739969D01*
G01*
X185000000Y-116500000D02*
X185029997Y-116529269D01*
X172240000Y-114000000D02*
X178964466Y-114000000D01*
X178964466Y-114000000D02*
G75*
G02*
X185000010Y-116499990I34J-8535500D01*
G01*
%TO.N,/C9*%
X209000000Y-117000000D02*
X204866560Y-121133440D01*
X209109276Y-105816881D02*
X207368838Y-104076443D01*
X209999525Y-107966132D02*
G75*
G03*
X209109297Y-105816860I-3039525J32D01*
G01*
X210000000Y-108000000D02*
X209999525Y-107966132D01*
X188533868Y-124999525D02*
X195533005Y-124999525D01*
X210000000Y-114585786D02*
X210000000Y-108000000D01*
X188500000Y-125000000D02*
X188533868Y-124999525D01*
X209000000Y-117000000D02*
G75*
G03*
X209999994Y-114585786I-2414200J2414200D01*
G01*
X177068427Y-125000000D02*
X188500000Y-125000000D01*
X195533005Y-124999525D02*
G75*
G03*
X204866554Y-121133434I-5J13199625D01*
G01*
X172240000Y-123000000D02*
G75*
G03*
X177068427Y-124999989I4828400J4828400D01*
G01*
%TO.N,/P0*%
X121000000Y-99750000D02*
X116622771Y-99750000D01*
X116622771Y-99750000D02*
G75*
G02*
X107123023Y-95815057I29J13434700D01*
G01*
%TO.N,/P3*%
X130538599Y-122969293D02*
G75*
G03*
X136500000Y-120500000I1J8430693D01*
G01*
X127480951Y-122969293D02*
X130538599Y-122969293D01*
X126927687Y-122969293D02*
X127480951Y-122969293D01*
X125883883Y-122883884D02*
X126250000Y-123250000D01*
X125000000Y-116310660D02*
X125000000Y-120750000D01*
X123664213Y-113914214D02*
X124250000Y-114500000D01*
X109397269Y-112500000D02*
X120250000Y-112500000D01*
X126250000Y-123250000D02*
G75*
G02*
X126927687Y-122969287I677700J-677700D01*
G01*
X125000000Y-120750000D02*
G75*
G03*
X125883877Y-122883890I3017800J0D01*
G01*
X124250000Y-114500000D02*
G75*
G02*
X125000016Y-116310660I-1810700J-1810700D01*
G01*
X120250000Y-112500000D02*
G75*
G02*
X123664208Y-113914219I0J-4828400D01*
G01*
X107139400Y-111564760D02*
G75*
G03*
X109397269Y-112500025I2257900J2257860D01*
G01*
%TO.N,/P1*%
X104302939Y-105750000D02*
X117250000Y-105750000D01*
X119714466Y-105750000D02*
G75*
G03*
X125750010Y-103250010I34J8535500D01*
G01*
X99111800Y-103599760D02*
G75*
G03*
X104302939Y-105749966I5191100J5191160D01*
G01*
X117250000Y-105750000D02*
X119714466Y-105750000D01*
%TO.N,/P2*%
X125949392Y-99050608D02*
X127000000Y-98000000D01*
X115115000Y-103538360D02*
G75*
G03*
X125949395Y-99050611I0J15322160D01*
G01*
%TO.N,/P0*%
X107123010Y-95815070D02*
X108902683Y-94035397D01*
%TO.N,/C14*%
X200901161Y-111558767D02*
X202468838Y-113126443D01*
X196839673Y-109876443D02*
G75*
G02*
X200901184Y-111558744I27J-5743857D01*
G01*
%TO.N,/C13*%
X190451161Y-105558767D02*
X192018838Y-107126443D01*
X186389673Y-103876443D02*
G75*
G02*
X190451184Y-105558744I27J-5743857D01*
G01*
%TO.N,/C9*%
X205801161Y-102508767D02*
X207368838Y-104076443D01*
X201739673Y-100826443D02*
G75*
G02*
X205801184Y-102508744I27J-5743857D01*
G01*
%TO.N,/C8*%
X195301161Y-96658767D02*
X196868838Y-98226443D01*
X191239673Y-94976443D02*
G75*
G02*
X195301184Y-96658744I27J-5743857D01*
G01*
%TO.N,/P3*%
X106688037Y-111113398D02*
X107139400Y-111564760D01*
X100934309Y-111269851D02*
G75*
G02*
X104000000Y-109999988I3065691J-3065649D01*
G01*
X100639400Y-111564760D02*
X100934309Y-111269851D01*
X104000000Y-110000000D02*
X104000029Y-109999988D01*
X104000029Y-109999988D02*
G75*
G02*
X106688022Y-111113413I-29J-3801412D01*
G01*
%TO.N,/P1*%
X98581213Y-103069174D02*
X99111800Y-103599760D01*
X96000017Y-102000007D02*
G75*
G02*
X98581211Y-103069176I-17J-3650393D01*
G01*
X92946942Y-103264618D02*
G75*
G02*
X96000000Y-102000007I3053058J-3053082D01*
G01*
X96000000Y-102000000D02*
X96000017Y-102000007D01*
X92611800Y-103599760D02*
X92946942Y-103264618D01*
%TO.N,/P2*%
X114691493Y-103114853D02*
X115115000Y-103538360D01*
X112000000Y-102000000D02*
G75*
G02*
X114691484Y-103114862I0J-3806300D01*
G01*
X108847589Y-103305771D02*
G75*
G02*
X112000000Y-102000005I3152411J-3152429D01*
G01*
X108615000Y-103538360D02*
X108847589Y-103305771D01*
%TO.N,/P0*%
X106232793Y-94924853D02*
X107123010Y-95815070D01*
X101333636Y-95104444D02*
G75*
G02*
X104000000Y-93999998I2666364J-2666356D01*
G01*
X104000000Y-94000000D02*
G75*
G02*
X106232783Y-94924863I0J-3157600D01*
G01*
X100623010Y-95815070D02*
X101333636Y-95104444D01*
X121059207Y-89000000D02*
X130171573Y-89000000D01*
X135000000Y-91000000D02*
G75*
G02*
X135079985Y-91193137I-193100J-193100D01*
G01*
X130171573Y-89000000D02*
G75*
G02*
X135000008Y-90999992I27J-6828400D01*
G01*
X108902683Y-94035397D02*
G75*
G02*
X121059207Y-88999999I12156517J-12156503D01*
G01*
X135080000Y-91193137D02*
X135080000Y-92500000D01*
D16*
%TO.N,+3.3V*%
X149840000Y-114000000D02*
X148540000Y-112700000D01*
X157000000Y-114000000D02*
X149840000Y-114000000D01*
X147270707Y-113969293D02*
X148540000Y-112700000D01*
X142720951Y-113969293D02*
X147270707Y-113969293D01*
X148540000Y-112700000D02*
X148540000Y-115500000D01*
X150040000Y-117000000D02*
X148540000Y-115500000D01*
X157000000Y-117000000D02*
X150040000Y-117000000D01*
X147070707Y-116969293D02*
X148540000Y-115500000D01*
X148540000Y-115500000D02*
X148540000Y-118100000D01*
X142720951Y-116969293D02*
X147070707Y-116969293D01*
X150200000Y-120000000D02*
X157000000Y-120000000D01*
X148540000Y-118540000D02*
X150100000Y-120100000D01*
X148540000Y-118100000D02*
X148540000Y-118540000D01*
X150100000Y-120100000D02*
X150200000Y-120000000D01*
X148540000Y-118560000D02*
X147130707Y-119969293D01*
X147130707Y-119969293D02*
X142720951Y-119969293D01*
X148540000Y-118100000D02*
X148540000Y-118560000D01*
X148540000Y-118100000D02*
X148540000Y-121640000D01*
X147210707Y-122969293D02*
X142720951Y-122969293D01*
X148540000Y-121640000D02*
X147210707Y-122969293D01*
X150000000Y-123100000D02*
X150100000Y-123000000D01*
X148540000Y-121640000D02*
X150000000Y-123100000D01*
X148540000Y-110000000D02*
X148540000Y-112700000D01*
X150100000Y-123000000D02*
X157000000Y-123000000D01*
%TD*%
%TA.AperFunction,Conductor*%
%TO.N,GND*%
G36*
X196001626Y-86000535D02*
G01*
X196881368Y-86020002D01*
X196887933Y-86020293D01*
X197764309Y-86078546D01*
X197770807Y-86079122D01*
X198643758Y-86176083D01*
X198650223Y-86176946D01*
X199518059Y-86312430D01*
X199524487Y-86313580D01*
X200385446Y-86487312D01*
X200391867Y-86488757D01*
X201244261Y-86700392D01*
X201250560Y-86702104D01*
X202092845Y-86951263D01*
X202099069Y-86953256D01*
X202929454Y-87239408D01*
X202935574Y-87241670D01*
X203752494Y-87564276D01*
X203758552Y-87566824D01*
X204560396Y-87925245D01*
X204566315Y-87928050D01*
X205107819Y-88199448D01*
X205351511Y-88321585D01*
X205357304Y-88324650D01*
X206124384Y-88752566D01*
X206129994Y-88755861D01*
X206648444Y-89075939D01*
X206877318Y-89217240D01*
X206882844Y-89220822D01*
X207608408Y-89714384D01*
X207609052Y-89714822D01*
X207614415Y-89718647D01*
X207735612Y-89809184D01*
X208318021Y-90244257D01*
X208323214Y-90248318D01*
X208726128Y-90578049D01*
X208927290Y-90742674D01*
X209002901Y-90804551D01*
X209007906Y-90808835D01*
X209130307Y-90918394D01*
X209662310Y-91394578D01*
X209667124Y-91399082D01*
X209874763Y-91602177D01*
X210295004Y-92013222D01*
X210299587Y-92017908D01*
X210451060Y-92179783D01*
X210899690Y-92659223D01*
X210904086Y-92664135D01*
X211475210Y-93331340D01*
X211479385Y-93336442D01*
X212020427Y-94028242D01*
X212024373Y-94033523D01*
X212534307Y-94748610D01*
X212538015Y-94754061D01*
X213015809Y-95490989D01*
X213019272Y-95496598D01*
X213464016Y-96253962D01*
X213467227Y-96259720D01*
X213878008Y-97035965D01*
X213880962Y-97041858D01*
X214257018Y-97835542D01*
X214259709Y-97841561D01*
X214600295Y-98651116D01*
X214602716Y-98657247D01*
X214907154Y-99481056D01*
X214909302Y-99487289D01*
X215177003Y-100323768D01*
X215178873Y-100330090D01*
X215409314Y-101177595D01*
X215410902Y-101183993D01*
X215603626Y-102040842D01*
X215604930Y-102047304D01*
X215759564Y-102911848D01*
X215760581Y-102918361D01*
X215876823Y-103788901D01*
X215877551Y-103795453D01*
X215955174Y-104670295D01*
X215955611Y-104676873D01*
X215994460Y-105554271D01*
X215994606Y-105560862D01*
X215994606Y-106439137D01*
X215994460Y-106445728D01*
X215955611Y-107323126D01*
X215955174Y-107329704D01*
X215877551Y-108204546D01*
X215876823Y-108211098D01*
X215760581Y-109081638D01*
X215759564Y-109088151D01*
X215604930Y-109952695D01*
X215603626Y-109959157D01*
X215410902Y-110816006D01*
X215409314Y-110822404D01*
X215178873Y-111669909D01*
X215177003Y-111676231D01*
X214909302Y-112512710D01*
X214907154Y-112518943D01*
X214602716Y-113342752D01*
X214600295Y-113348883D01*
X214259709Y-114158438D01*
X214257018Y-114164457D01*
X213880962Y-114958141D01*
X213878008Y-114964034D01*
X213467227Y-115740279D01*
X213464016Y-115746037D01*
X213019272Y-116503401D01*
X213015809Y-116509010D01*
X212538015Y-117245938D01*
X212534307Y-117251389D01*
X212024373Y-117966476D01*
X212020427Y-117971757D01*
X211479385Y-118663557D01*
X211475210Y-118668659D01*
X210904086Y-119335864D01*
X210899690Y-119340776D01*
X210299600Y-119982078D01*
X210294990Y-119986791D01*
X209667124Y-120600917D01*
X209662310Y-120605421D01*
X209007909Y-121191161D01*
X209002901Y-121195448D01*
X208323214Y-121751681D01*
X208318021Y-121755742D01*
X207614419Y-122281349D01*
X207609052Y-122285177D01*
X206882850Y-122779173D01*
X206877318Y-122782759D01*
X206130014Y-123244126D01*
X206124351Y-123247452D01*
X205561513Y-123561432D01*
X205357338Y-123675331D01*
X205351511Y-123678414D01*
X204566334Y-124071940D01*
X204560376Y-124074763D01*
X203758561Y-124433171D01*
X203752485Y-124435727D01*
X202935606Y-124758317D01*
X202929422Y-124760602D01*
X202099096Y-125046734D01*
X202092818Y-125048744D01*
X201250591Y-125297886D01*
X201244229Y-125299615D01*
X200391867Y-125511242D01*
X200385436Y-125512689D01*
X199524522Y-125686412D01*
X199518032Y-125687573D01*
X199056607Y-125759609D01*
X198979919Y-125751377D01*
X198917622Y-125705904D01*
X198886407Y-125635375D01*
X198894639Y-125558687D01*
X198940112Y-125496390D01*
X198997414Y-125467859D01*
X199294826Y-125393362D01*
X199957295Y-125192403D01*
X200609106Y-124959181D01*
X201248687Y-124694258D01*
X201874499Y-124398270D01*
X202485034Y-124071932D01*
X203078820Y-123716029D01*
X203654428Y-123331419D01*
X204210471Y-122919029D01*
X204745609Y-122479852D01*
X205258553Y-122014946D01*
X205432097Y-121841399D01*
X205432114Y-121841385D01*
X205440594Y-121832904D01*
X205440596Y-121832904D01*
X209593105Y-117680395D01*
X209593123Y-117680384D01*
X209636753Y-117636753D01*
X209636754Y-117636754D01*
X209769962Y-117503546D01*
X210012145Y-117214923D01*
X210228251Y-116906291D01*
X210416635Y-116579999D01*
X210575864Y-116238529D01*
X210704727Y-115884481D01*
X210706085Y-115879415D01*
X210802238Y-115520560D01*
X210802237Y-115520560D01*
X210802241Y-115520549D01*
X210867665Y-115149503D01*
X210900501Y-114774167D01*
X210900500Y-114585782D01*
X210900500Y-114497091D01*
X210900500Y-108082318D01*
X210901655Y-108076054D01*
X210900500Y-107993685D01*
X210900500Y-107911309D01*
X210900500Y-107909136D01*
X210899994Y-107898847D01*
X210899994Y-107887468D01*
X210899996Y-107794118D01*
X210870014Y-107451381D01*
X210810275Y-107112560D01*
X210809591Y-107110007D01*
X210721237Y-106780249D01*
X210721232Y-106780233D01*
X210603566Y-106456936D01*
X210580902Y-106408331D01*
X210458169Y-106145122D01*
X210286150Y-105847167D01*
X210088816Y-105565338D01*
X209867671Y-105301781D01*
X209813350Y-105247458D01*
X209813323Y-105247428D01*
X208995533Y-104429638D01*
X208956969Y-104362843D01*
X208953726Y-104300972D01*
X208969338Y-104202405D01*
X208969338Y-103950481D01*
X208929928Y-103701658D01*
X208852079Y-103462064D01*
X208737708Y-103237598D01*
X208589631Y-103033787D01*
X208411494Y-102855650D01*
X208207683Y-102707573D01*
X207983217Y-102593202D01*
X207743623Y-102515353D01*
X207494800Y-102475943D01*
X207242876Y-102475943D01*
X207218991Y-102479726D01*
X207144306Y-102491554D01*
X207067600Y-102483491D01*
X207015640Y-102449747D01*
X206500621Y-101934728D01*
X206500620Y-101934726D01*
X206480913Y-101915019D01*
X206480848Y-101914907D01*
X206270131Y-101704194D01*
X205911436Y-101393389D01*
X205911430Y-101393385D01*
X205531516Y-101108989D01*
X205531495Y-101108975D01*
X205525800Y-101105315D01*
X205132235Y-100852390D01*
X205125898Y-100848930D01*
X204795685Y-100668623D01*
X204715682Y-100624939D01*
X204589601Y-100567361D01*
X204283965Y-100427784D01*
X204210815Y-100400501D01*
X203839283Y-100261929D01*
X203554411Y-100178285D01*
X203383889Y-100128216D01*
X203223820Y-100093397D01*
X203155265Y-100058055D01*
X203122735Y-100015452D01*
X203108543Y-99987598D01*
X202960466Y-99783787D01*
X202782329Y-99605650D01*
X202578518Y-99457573D01*
X202354052Y-99343202D01*
X202114458Y-99265353D01*
X201865635Y-99225943D01*
X201613711Y-99225943D01*
X201406358Y-99258784D01*
X201364887Y-99265353D01*
X201216193Y-99313667D01*
X201125294Y-99343202D01*
X201125288Y-99343204D01*
X201125288Y-99343205D01*
X200900826Y-99457574D01*
X200900825Y-99457574D01*
X200697018Y-99605649D01*
X200697015Y-99605651D01*
X200518881Y-99783785D01*
X200518879Y-99783788D01*
X200370804Y-99987595D01*
X200370804Y-99987596D01*
X200256435Y-100212058D01*
X200256430Y-100212070D01*
X200181167Y-100443706D01*
X200178583Y-100451658D01*
X200139173Y-100700481D01*
X200139173Y-100952405D01*
X200178583Y-101201228D01*
X200256432Y-101440822D01*
X200364580Y-101653075D01*
X200370804Y-101665289D01*
X200370804Y-101665290D01*
X200440575Y-101761321D01*
X200518880Y-101869099D01*
X200697017Y-102047236D01*
X200900828Y-102195313D01*
X201125294Y-102309684D01*
X201364888Y-102387533D01*
X201613711Y-102426943D01*
X201613716Y-102426943D01*
X201865630Y-102426943D01*
X201865635Y-102426943D01*
X202114458Y-102387533D01*
X202354052Y-102309684D01*
X202578518Y-102195313D01*
X202782329Y-102047236D01*
X202885393Y-101944171D01*
X202886262Y-101943669D01*
X202886778Y-101942803D01*
X202919592Y-101924425D01*
X202952185Y-101905608D01*
X202953193Y-101905608D01*
X202954072Y-101905116D01*
X202991678Y-101905608D01*
X203029313Y-101905608D01*
X203031151Y-101906113D01*
X203230726Y-101962398D01*
X203241824Y-101966003D01*
X203587653Y-102093584D01*
X203598460Y-102098060D01*
X203933198Y-102252373D01*
X203943613Y-102257680D01*
X204245858Y-102426943D01*
X204265202Y-102437776D01*
X204275177Y-102443888D01*
X204581663Y-102648672D01*
X204591117Y-102655541D01*
X204715231Y-102753383D01*
X204880582Y-102883733D01*
X204889478Y-102891331D01*
X205161675Y-103142943D01*
X205165894Y-103146999D01*
X205742142Y-103723247D01*
X205780706Y-103790042D01*
X205783949Y-103851913D01*
X205768338Y-103950481D01*
X205768338Y-104202405D01*
X205807748Y-104451228D01*
X205885597Y-104690822D01*
X205992349Y-104900335D01*
X205999969Y-104915289D01*
X205999969Y-104915290D01*
X206050419Y-104984728D01*
X206148045Y-105119099D01*
X206326182Y-105297236D01*
X206529993Y-105445313D01*
X206754459Y-105559684D01*
X206994053Y-105637533D01*
X207242876Y-105676943D01*
X207242881Y-105676943D01*
X207494795Y-105676943D01*
X207494800Y-105676943D01*
X207593367Y-105661331D01*
X207670071Y-105669393D01*
X207722033Y-105703138D01*
X208469555Y-106450660D01*
X208475298Y-106456735D01*
X208626770Y-106626237D01*
X208637188Y-106639301D01*
X208766314Y-106821292D01*
X208775203Y-106835439D01*
X208866417Y-107000484D01*
X208883128Y-107030720D01*
X208890378Y-107045775D01*
X208975767Y-107251930D01*
X208981285Y-107267701D01*
X209043053Y-107482111D01*
X209046771Y-107498401D01*
X209084144Y-107718379D01*
X209086015Y-107734983D01*
X209098740Y-107961614D01*
X209098959Y-107967863D01*
X209099009Y-107971404D01*
X209099024Y-107973508D01*
X209099024Y-108057282D01*
X209099500Y-108066966D01*
X209099500Y-114581602D01*
X209099266Y-114589956D01*
X209084164Y-114858883D01*
X209082293Y-114875487D01*
X209037879Y-115136894D01*
X209034161Y-115153184D01*
X208960756Y-115407980D01*
X208955237Y-115423752D01*
X208853769Y-115668719D01*
X208846519Y-115683773D01*
X208718262Y-115915838D01*
X208709373Y-115929986D01*
X208555930Y-116146244D01*
X208545511Y-116159308D01*
X208366111Y-116360055D01*
X208360370Y-116366128D01*
X204231192Y-120495306D01*
X204228398Y-120498028D01*
X203765558Y-120937248D01*
X203759761Y-120942467D01*
X203276083Y-121355568D01*
X203270021Y-121360478D01*
X202765350Y-121747726D01*
X202759039Y-121752311D01*
X202234798Y-122112613D01*
X202228255Y-122116861D01*
X201685915Y-122449208D01*
X201679160Y-122453109D01*
X201120116Y-122756646D01*
X201113165Y-122760187D01*
X200539042Y-123034030D01*
X200531916Y-123037203D01*
X199944233Y-123280630D01*
X199936950Y-123283426D01*
X199337315Y-123495768D01*
X199329896Y-123498178D01*
X198719998Y-123678838D01*
X198712464Y-123680857D01*
X198093938Y-123829353D01*
X198086307Y-123830975D01*
X197460843Y-123946898D01*
X197453138Y-123948118D01*
X196822496Y-124031144D01*
X196814738Y-124031960D01*
X196180575Y-124081870D01*
X196172786Y-124082278D01*
X195609778Y-124097021D01*
X195535218Y-124098974D01*
X195531320Y-124099025D01*
X188616186Y-124099025D01*
X188609922Y-124097870D01*
X188527554Y-124099025D01*
X188442698Y-124099025D01*
X188433035Y-124099500D01*
X177071081Y-124099500D01*
X177065763Y-124099405D01*
X176650844Y-124084587D01*
X176640235Y-124083828D01*
X176230091Y-124039734D01*
X176219563Y-124038221D01*
X175813585Y-123964977D01*
X175803192Y-123962716D01*
X175403484Y-123860698D01*
X175393278Y-123857701D01*
X175001867Y-123727428D01*
X174991913Y-123723715D01*
X174823798Y-123654080D01*
X174610792Y-123565850D01*
X174601117Y-123561432D01*
X174394319Y-123457917D01*
X174232209Y-123376771D01*
X174222890Y-123371681D01*
X173868122Y-123161188D01*
X173859174Y-123155438D01*
X173704522Y-123048061D01*
X173654711Y-122989174D01*
X173640500Y-122925669D01*
X173640500Y-122889781D01*
X173635353Y-122857286D01*
X173606015Y-122672049D01*
X173606014Y-122672048D01*
X173606014Y-122672043D01*
X173543566Y-122479848D01*
X173537895Y-122462394D01*
X173437815Y-122265978D01*
X173308242Y-122087635D01*
X173152365Y-121931758D01*
X173028008Y-121841408D01*
X172974024Y-121802186D01*
X172974023Y-121802185D01*
X172777612Y-121702107D01*
X172769361Y-121699426D01*
X172591717Y-121641707D01*
X172527034Y-121599701D01*
X172492018Y-121530979D01*
X172496054Y-121453957D01*
X172538061Y-121389272D01*
X172591717Y-121358292D01*
X172777606Y-121297895D01*
X172974022Y-121197815D01*
X173152365Y-121068242D01*
X173308242Y-120912365D01*
X173437815Y-120734022D01*
X173537895Y-120537606D01*
X173585926Y-120389781D01*
X173606014Y-120327956D01*
X173606015Y-120327951D01*
X173640500Y-120110222D01*
X173640500Y-119889778D01*
X173606015Y-119672049D01*
X173606014Y-119672048D01*
X173606014Y-119672043D01*
X173554792Y-119514399D01*
X173537895Y-119462394D01*
X173437815Y-119265978D01*
X173308242Y-119087635D01*
X173152365Y-118931758D01*
X173079345Y-118878706D01*
X178149500Y-118878706D01*
X178149500Y-119121293D01*
X178181160Y-119361781D01*
X178243947Y-119596103D01*
X178275405Y-119672049D01*
X178336776Y-119820212D01*
X178458064Y-120030289D01*
X178605735Y-120222738D01*
X178777262Y-120394265D01*
X178969711Y-120541936D01*
X179179788Y-120663224D01*
X179403900Y-120756054D01*
X179638211Y-120818838D01*
X179638217Y-120818838D01*
X179638218Y-120818839D01*
X179703600Y-120827446D01*
X179878712Y-120850500D01*
X180121288Y-120850500D01*
X180361789Y-120818838D01*
X180596100Y-120756054D01*
X180820212Y-120663224D01*
X181030289Y-120541936D01*
X181222738Y-120394265D01*
X181394265Y-120222738D01*
X181541936Y-120030289D01*
X181663224Y-119820212D01*
X181756054Y-119596100D01*
X181818838Y-119361789D01*
X181850500Y-119121288D01*
X181850500Y-118878712D01*
X181823008Y-118669883D01*
X181818839Y-118638218D01*
X181818838Y-118638217D01*
X181818838Y-118638211D01*
X181756054Y-118403900D01*
X181663224Y-118179788D01*
X181541936Y-117969711D01*
X181394265Y-117777262D01*
X181222738Y-117605735D01*
X181030289Y-117458064D01*
X180886084Y-117374807D01*
X180820216Y-117336778D01*
X180820214Y-117336777D01*
X180820212Y-117336776D01*
X180688932Y-117282398D01*
X180596103Y-117243947D01*
X180596101Y-117243946D01*
X180596100Y-117243946D01*
X180361789Y-117181162D01*
X180361787Y-117181161D01*
X180361781Y-117181160D01*
X180121293Y-117149500D01*
X180121288Y-117149500D01*
X179878712Y-117149500D01*
X179878706Y-117149500D01*
X179638218Y-117181160D01*
X179403896Y-117243947D01*
X179179783Y-117336778D01*
X178969712Y-117458063D01*
X178920736Y-117495644D01*
X178777262Y-117605735D01*
X178777260Y-117605736D01*
X178777256Y-117605740D01*
X178605740Y-117777256D01*
X178605736Y-117777260D01*
X178605735Y-117777262D01*
X178572842Y-117820129D01*
X178458063Y-117969712D01*
X178336778Y-118179783D01*
X178243947Y-118403896D01*
X178181160Y-118638218D01*
X178149500Y-118878706D01*
X173079345Y-118878706D01*
X173002833Y-118823117D01*
X172974024Y-118802186D01*
X172974023Y-118802185D01*
X172777612Y-118702107D01*
X172689875Y-118673600D01*
X172591717Y-118641707D01*
X172527034Y-118599701D01*
X172492018Y-118530979D01*
X172496054Y-118453957D01*
X172538061Y-118389272D01*
X172591717Y-118358292D01*
X172777606Y-118297895D01*
X172974022Y-118197815D01*
X173152365Y-118068242D01*
X173308242Y-117912365D01*
X173437815Y-117734022D01*
X173537895Y-117537606D01*
X173579825Y-117408556D01*
X173606014Y-117327956D01*
X173607727Y-117317141D01*
X173640500Y-117110222D01*
X173640500Y-116889778D01*
X173606015Y-116672049D01*
X173606014Y-116672048D01*
X173606014Y-116672043D01*
X173564460Y-116544155D01*
X173537895Y-116462394D01*
X173437815Y-116265978D01*
X173414489Y-116233873D01*
X173378726Y-116184649D01*
X173308242Y-116087635D01*
X173152365Y-115931758D01*
X173043231Y-115852468D01*
X172974024Y-115802186D01*
X172974023Y-115802185D01*
X172777612Y-115702107D01*
X172777606Y-115702105D01*
X172591717Y-115641707D01*
X172527034Y-115599701D01*
X172492018Y-115530979D01*
X172496054Y-115453957D01*
X172538061Y-115389272D01*
X172591717Y-115358292D01*
X172777606Y-115297895D01*
X172974022Y-115197815D01*
X173152365Y-115068242D01*
X173276466Y-114944141D01*
X173343261Y-114905577D01*
X173381825Y-114900500D01*
X178875778Y-114900500D01*
X178962040Y-114900500D01*
X178966914Y-114900580D01*
X179458939Y-114916685D01*
X179468668Y-114917322D01*
X179956202Y-114965338D01*
X179965850Y-114966608D01*
X180310377Y-115023489D01*
X180449176Y-115046405D01*
X180458739Y-115048307D01*
X180493728Y-115056465D01*
X180935844Y-115159550D01*
X180945214Y-115162061D01*
X181414014Y-115304269D01*
X181423226Y-115307396D01*
X181881725Y-115479962D01*
X181890695Y-115483677D01*
X182336925Y-115685860D01*
X182345666Y-115690171D01*
X182777697Y-115921096D01*
X182786121Y-115925959D01*
X183202137Y-116184654D01*
X183210231Y-116190062D01*
X183276269Y-116237384D01*
X183608421Y-116475401D01*
X183616156Y-116481336D01*
X183810163Y-116640553D01*
X183987819Y-116786351D01*
X183994831Y-116792105D01*
X184002157Y-116798530D01*
X184164781Y-116950844D01*
X184359226Y-117132963D01*
X184361416Y-117135056D01*
X184366484Y-117140000D01*
X184367796Y-117141296D01*
X184427352Y-117200851D01*
X184435284Y-117208040D01*
X184510010Y-117282768D01*
X184765298Y-117492281D01*
X185039893Y-117675762D01*
X185331150Y-117831445D01*
X185636264Y-117957829D01*
X185952296Y-118053698D01*
X186276204Y-118118129D01*
X186604868Y-118150500D01*
X186604873Y-118150500D01*
X187560448Y-118150500D01*
X187560861Y-118150479D01*
X187692920Y-118150480D01*
X188148433Y-118114634D01*
X188599729Y-118043158D01*
X189044026Y-117936495D01*
X189478584Y-117795300D01*
X189900725Y-117620446D01*
X189900737Y-117620440D01*
X190098361Y-117519747D01*
X190225700Y-117454865D01*
X190307846Y-117413010D01*
X190697436Y-117174271D01*
X191067094Y-116905701D01*
X191067321Y-116905507D01*
X198718838Y-116905507D01*
X198718838Y-117141605D01*
X198722644Y-117165640D01*
X199680108Y-116909087D01*
X199668838Y-116951148D01*
X199668838Y-117095966D01*
X199706320Y-117235849D01*
X199778728Y-117361265D01*
X199809514Y-117392051D01*
X198853612Y-117648185D01*
X198935924Y-117809729D01*
X198935929Y-117809738D01*
X199074696Y-118000734D01*
X199241660Y-118167698D01*
X199432656Y-118306465D01*
X199432670Y-118306473D01*
X199643027Y-118413655D01*
X199643044Y-118413662D01*
X199867587Y-118486622D01*
X200100789Y-118523557D01*
X200336889Y-118523557D01*
X200360921Y-118519749D01*
X200104369Y-117562287D01*
X200146429Y-117573557D01*
X200291247Y-117573557D01*
X200431130Y-117536075D01*
X200556546Y-117463667D01*
X200587333Y-117432879D01*
X200843466Y-118388780D01*
X201005017Y-118306466D01*
X201196015Y-118167698D01*
X201362979Y-118000734D01*
X201501746Y-117809738D01*
X201501754Y-117809724D01*
X201608936Y-117599367D01*
X201608943Y-117599350D01*
X201681903Y-117374807D01*
X201718838Y-117141606D01*
X201718838Y-116905509D01*
X201718837Y-116905501D01*
X201715030Y-116881472D01*
X200757568Y-117138023D01*
X200768838Y-117095966D01*
X200768838Y-116951148D01*
X200731356Y-116811265D01*
X200658948Y-116685849D01*
X200628159Y-116655060D01*
X201584062Y-116398927D01*
X201501751Y-116237384D01*
X201501746Y-116237375D01*
X201362979Y-116046379D01*
X201196015Y-115879415D01*
X201005019Y-115740648D01*
X201005005Y-115740640D01*
X200794648Y-115633458D01*
X200794631Y-115633451D01*
X200570088Y-115560491D01*
X200336887Y-115523557D01*
X200100783Y-115523557D01*
X200076752Y-115527362D01*
X200333304Y-116484826D01*
X200291247Y-116473557D01*
X200146429Y-116473557D01*
X200006546Y-116511039D01*
X199881130Y-116583447D01*
X199850341Y-116614235D01*
X199594208Y-115658331D01*
X199432669Y-115740640D01*
X199241657Y-115879418D01*
X199074696Y-116046379D01*
X198935929Y-116237375D01*
X198935921Y-116237389D01*
X198828739Y-116447746D01*
X198828732Y-116447763D01*
X198755772Y-116672306D01*
X198718838Y-116905507D01*
X191067321Y-116905507D01*
X191414540Y-116608956D01*
X191513369Y-116510127D01*
X191513372Y-116510126D01*
X191576087Y-116447412D01*
X191576086Y-116447411D01*
X191576087Y-116447411D01*
X191576088Y-116447411D01*
X191638802Y-116384697D01*
X191638805Y-116384692D01*
X191644537Y-116378960D01*
X191644586Y-116378904D01*
X191715686Y-116307807D01*
X191969494Y-116005332D01*
X191978584Y-115992351D01*
X192107485Y-115808261D01*
X192195974Y-115681887D01*
X192393402Y-115339934D01*
X192560275Y-114982075D01*
X192695324Y-114611033D01*
X192797520Y-114229634D01*
X192800039Y-114215352D01*
X192838514Y-113997146D01*
X192871109Y-113927244D01*
X192934289Y-113883005D01*
X193011123Y-113876283D01*
X193066401Y-113898057D01*
X193093478Y-113915641D01*
X194050943Y-113659087D01*
X194039673Y-113701148D01*
X194039673Y-113845966D01*
X194077155Y-113985849D01*
X194149563Y-114111265D01*
X194180349Y-114142051D01*
X193224447Y-114398185D01*
X193306759Y-114559729D01*
X193306764Y-114559738D01*
X193445531Y-114750734D01*
X193612495Y-114917698D01*
X193803491Y-115056465D01*
X193803505Y-115056473D01*
X194013862Y-115163655D01*
X194013879Y-115163662D01*
X194238422Y-115236622D01*
X194471624Y-115273557D01*
X194707724Y-115273557D01*
X194731756Y-115269749D01*
X194475204Y-114312287D01*
X194517264Y-114323557D01*
X194662082Y-114323557D01*
X194801965Y-114286075D01*
X194927381Y-114213667D01*
X194958168Y-114182879D01*
X195214301Y-115138780D01*
X195375852Y-115056466D01*
X195566850Y-114917698D01*
X195733814Y-114750734D01*
X195872581Y-114559738D01*
X195872589Y-114559724D01*
X195979771Y-114349367D01*
X195979778Y-114349350D01*
X196052738Y-114124807D01*
X196089673Y-113891606D01*
X196089673Y-113655509D01*
X196089672Y-113655501D01*
X196085865Y-113631472D01*
X195128403Y-113888023D01*
X195139673Y-113845966D01*
X195139673Y-113701148D01*
X195102191Y-113561265D01*
X195029783Y-113435849D01*
X194998994Y-113405060D01*
X195954897Y-113148927D01*
X195872586Y-112987384D01*
X195872581Y-112987375D01*
X195733814Y-112796379D01*
X195566850Y-112629415D01*
X195375854Y-112490648D01*
X195375840Y-112490640D01*
X195165483Y-112383458D01*
X195165466Y-112383451D01*
X194940923Y-112310491D01*
X194707722Y-112273557D01*
X194471618Y-112273557D01*
X194447587Y-112277362D01*
X194704139Y-113234826D01*
X194662082Y-113223557D01*
X194517264Y-113223557D01*
X194377381Y-113261039D01*
X194251965Y-113333447D01*
X194221176Y-113364235D01*
X193965043Y-112408331D01*
X193803504Y-112490640D01*
X193612492Y-112629418D01*
X193445531Y-112796379D01*
X193306764Y-112987375D01*
X193306756Y-112987389D01*
X193199574Y-113197746D01*
X193199568Y-113197760D01*
X193196417Y-113207459D01*
X193185584Y-113224139D01*
X193179368Y-113243031D01*
X193164945Y-113255920D01*
X193154410Y-113272143D01*
X193136690Y-113281171D01*
X193121859Y-113294426D01*
X193102920Y-113298377D01*
X193085688Y-113307158D01*
X193065828Y-113306117D01*
X193046357Y-113310180D01*
X193027981Y-113304133D01*
X193008665Y-113303121D01*
X192991984Y-113292288D01*
X192973093Y-113286072D01*
X192960203Y-113271649D01*
X192943981Y-113261114D01*
X192934952Y-113243394D01*
X192921698Y-113228563D01*
X192917746Y-113209624D01*
X192908966Y-113192392D01*
X192905944Y-113153061D01*
X192907018Y-113133928D01*
X192913344Y-113021276D01*
X192915211Y-113004706D01*
X192952183Y-112787102D01*
X192955897Y-112770829D01*
X193017002Y-112558728D01*
X193022512Y-112542985D01*
X193106974Y-112339072D01*
X193114216Y-112324034D01*
X193220985Y-112130847D01*
X193229860Y-112116722D01*
X193357580Y-111936715D01*
X193367993Y-111923658D01*
X193517746Y-111756080D01*
X193523427Y-111750070D01*
X193548724Y-111724773D01*
X194181414Y-111092084D01*
X194829359Y-110444141D01*
X194846346Y-110434333D01*
X194860218Y-110420462D01*
X194879166Y-110415384D01*
X194896154Y-110405577D01*
X194934718Y-110400500D01*
X195219461Y-110400500D01*
X195293961Y-110420462D01*
X195348499Y-110475000D01*
X195353737Y-110485623D01*
X195353774Y-110485605D01*
X195356431Y-110490820D01*
X195356432Y-110490822D01*
X195455803Y-110685849D01*
X195470804Y-110715289D01*
X195470804Y-110715290D01*
X195531598Y-110798965D01*
X195618880Y-110919099D01*
X195797017Y-111097236D01*
X196000828Y-111245313D01*
X196225294Y-111359684D01*
X196464888Y-111437533D01*
X196713711Y-111476943D01*
X196713716Y-111476943D01*
X196965630Y-111476943D01*
X196965635Y-111476943D01*
X197214458Y-111437533D01*
X197454052Y-111359684D01*
X197678518Y-111245313D01*
X197882329Y-111097236D01*
X197985393Y-110994171D01*
X197986262Y-110993669D01*
X197986778Y-110992803D01*
X198019592Y-110974425D01*
X198052185Y-110955608D01*
X198053193Y-110955608D01*
X198054072Y-110955116D01*
X198091678Y-110955608D01*
X198129313Y-110955608D01*
X198131151Y-110956113D01*
X198330726Y-111012398D01*
X198341824Y-111016003D01*
X198682291Y-111141606D01*
X198687653Y-111143584D01*
X198698460Y-111148060D01*
X199033198Y-111302373D01*
X199043613Y-111307680D01*
X199337099Y-111472038D01*
X199365202Y-111487776D01*
X199375177Y-111493888D01*
X199681663Y-111698672D01*
X199691117Y-111705541D01*
X199824055Y-111810339D01*
X199980582Y-111933733D01*
X199989478Y-111941331D01*
X200261675Y-112192943D01*
X200265894Y-112196999D01*
X200842142Y-112773247D01*
X200880706Y-112840042D01*
X200883949Y-112901913D01*
X200868338Y-113000481D01*
X200868338Y-113252405D01*
X200907748Y-113501228D01*
X200985597Y-113740822D01*
X201079931Y-113925964D01*
X201099969Y-113965289D01*
X201099969Y-113965290D01*
X201159931Y-114047820D01*
X201248045Y-114169099D01*
X201426182Y-114347236D01*
X201629993Y-114495313D01*
X201854459Y-114609684D01*
X202094053Y-114687533D01*
X202342876Y-114726943D01*
X202342881Y-114726943D01*
X202594795Y-114726943D01*
X202594800Y-114726943D01*
X202843623Y-114687533D01*
X203083217Y-114609684D01*
X203307683Y-114495313D01*
X203511494Y-114347236D01*
X203689631Y-114169099D01*
X203837708Y-113965288D01*
X203952079Y-113740822D01*
X204029928Y-113501228D01*
X204069338Y-113252405D01*
X204069338Y-113000481D01*
X204029928Y-112751658D01*
X203952079Y-112512064D01*
X203837708Y-112287598D01*
X203689631Y-112083787D01*
X203511494Y-111905650D01*
X203307683Y-111757573D01*
X203083217Y-111643202D01*
X202843623Y-111565353D01*
X202594800Y-111525943D01*
X202342876Y-111525943D01*
X202318991Y-111529726D01*
X202244306Y-111541554D01*
X202167600Y-111533491D01*
X202115640Y-111499747D01*
X201600621Y-110984728D01*
X201600620Y-110984726D01*
X201580913Y-110965019D01*
X201580848Y-110964907D01*
X201370131Y-110754194D01*
X201011436Y-110443389D01*
X201011430Y-110443385D01*
X200631516Y-110158989D01*
X200631495Y-110158975D01*
X200561756Y-110114157D01*
X200232235Y-109902390D01*
X200201936Y-109885846D01*
X199815680Y-109674938D01*
X199383965Y-109477784D01*
X199251733Y-109428465D01*
X198939283Y-109311929D01*
X198713535Y-109245645D01*
X198483889Y-109178216D01*
X198323820Y-109143397D01*
X198255265Y-109108055D01*
X198222735Y-109065452D01*
X198208543Y-109037598D01*
X198060466Y-108833787D01*
X197882329Y-108655650D01*
X197678518Y-108507573D01*
X197454052Y-108393202D01*
X197214458Y-108315353D01*
X196965635Y-108275943D01*
X196713711Y-108275943D01*
X196506358Y-108308784D01*
X196464887Y-108315353D01*
X196278027Y-108376068D01*
X196225294Y-108393202D01*
X196225288Y-108393204D01*
X196225288Y-108393205D01*
X196000826Y-108507574D01*
X196000825Y-108507574D01*
X195913467Y-108571044D01*
X195841461Y-108598684D01*
X195825887Y-108599500D01*
X194411309Y-108599500D01*
X194237336Y-108634104D01*
X194237334Y-108634105D01*
X194136276Y-108675965D01*
X194136275Y-108675965D01*
X194073455Y-108701985D01*
X193989625Y-108757997D01*
X193989626Y-108757998D01*
X193925968Y-108800533D01*
X193925961Y-108800539D01*
X192309845Y-110416654D01*
X192290775Y-110435724D01*
X192290744Y-110435741D01*
X192126148Y-110600340D01*
X191906239Y-110862421D01*
X191906234Y-110862429D01*
X191906231Y-110862432D01*
X191906227Y-110862438D01*
X191798697Y-111016008D01*
X191709973Y-111142720D01*
X191709972Y-111142722D01*
X191538915Y-111439004D01*
X191538910Y-111439015D01*
X191538907Y-111439020D01*
X191538906Y-111439023D01*
X191521224Y-111476943D01*
X191487123Y-111550072D01*
X191437545Y-111609155D01*
X191365068Y-111635534D01*
X191289112Y-111622141D01*
X191230029Y-111572563D01*
X191203650Y-111500086D01*
X191210376Y-111441055D01*
X191231903Y-111374803D01*
X191268838Y-111141606D01*
X191268838Y-110905509D01*
X191268837Y-110905501D01*
X191265030Y-110881472D01*
X190307568Y-111138023D01*
X190318838Y-111095966D01*
X190318838Y-110951148D01*
X190281356Y-110811265D01*
X190208948Y-110685849D01*
X190178159Y-110655060D01*
X191134062Y-110398927D01*
X191051751Y-110237384D01*
X191051746Y-110237375D01*
X190912979Y-110046379D01*
X190746015Y-109879415D01*
X190555019Y-109740648D01*
X190555005Y-109740640D01*
X190344648Y-109633458D01*
X190344631Y-109633451D01*
X190120088Y-109560491D01*
X189886887Y-109523557D01*
X189650783Y-109523557D01*
X189626752Y-109527362D01*
X189883304Y-110484826D01*
X189841247Y-110473557D01*
X189696429Y-110473557D01*
X189556546Y-110511039D01*
X189431130Y-110583447D01*
X189400341Y-110614235D01*
X189144208Y-109658331D01*
X188982669Y-109740640D01*
X188791657Y-109879418D01*
X188624696Y-110046379D01*
X188485929Y-110237375D01*
X188485921Y-110237389D01*
X188378739Y-110447746D01*
X188378732Y-110447763D01*
X188305772Y-110672306D01*
X188268838Y-110905507D01*
X188268838Y-111141605D01*
X188272644Y-111165640D01*
X189230108Y-110909087D01*
X189218838Y-110951148D01*
X189218838Y-111095966D01*
X189256320Y-111235849D01*
X189328728Y-111361265D01*
X189359514Y-111392051D01*
X188403612Y-111648185D01*
X188485924Y-111809729D01*
X188485929Y-111809738D01*
X188624696Y-112000734D01*
X188791660Y-112167698D01*
X188982656Y-112306465D01*
X188982670Y-112306473D01*
X189193027Y-112413655D01*
X189193044Y-112413662D01*
X189417587Y-112486622D01*
X189650789Y-112523557D01*
X189886889Y-112523557D01*
X189910921Y-112519749D01*
X189654369Y-111562287D01*
X189696429Y-111573557D01*
X189841247Y-111573557D01*
X189981130Y-111536075D01*
X190106546Y-111463667D01*
X190137333Y-111432879D01*
X190393466Y-112388780D01*
X190555017Y-112306466D01*
X190746015Y-112167698D01*
X190912979Y-112000734D01*
X191051746Y-111809738D01*
X191051751Y-111809730D01*
X191067686Y-111778455D01*
X191119294Y-111721136D01*
X191192646Y-111697300D01*
X191268089Y-111713334D01*
X191325408Y-111764942D01*
X191349244Y-111838294D01*
X191340463Y-111897056D01*
X191332054Y-111920161D01*
X191277287Y-112070633D01*
X191277284Y-112070640D01*
X191277283Y-112070646D01*
X191188735Y-112401113D01*
X191188729Y-112401141D01*
X191129322Y-112738058D01*
X191129318Y-112738090D01*
X191099500Y-113078924D01*
X191099500Y-113245811D01*
X191099266Y-113254166D01*
X191082861Y-113546280D01*
X191080990Y-113562884D01*
X191032684Y-113847187D01*
X191028966Y-113863476D01*
X190949131Y-114140590D01*
X190943612Y-114156362D01*
X190833254Y-114422787D01*
X190826004Y-114437841D01*
X190686510Y-114690236D01*
X190677620Y-114704385D01*
X190510747Y-114939567D01*
X190500330Y-114952629D01*
X190307518Y-115168387D01*
X190297080Y-115178957D01*
X190049224Y-115406074D01*
X190039266Y-115414429D01*
X189771802Y-115619660D01*
X189761154Y-115627116D01*
X189476810Y-115808261D01*
X189465553Y-115814760D01*
X189166506Y-115970432D01*
X189154726Y-115975925D01*
X188843248Y-116104943D01*
X188831032Y-116109389D01*
X188509496Y-116210766D01*
X188496940Y-116214130D01*
X188167795Y-116287097D01*
X188154995Y-116289354D01*
X187820740Y-116333358D01*
X187807791Y-116334491D01*
X187467244Y-116349358D01*
X187460745Y-116349500D01*
X186774875Y-116349500D01*
X186765131Y-116349181D01*
X186748777Y-116348109D01*
X186576093Y-116336790D01*
X186556770Y-116334246D01*
X186375761Y-116298241D01*
X186356934Y-116293196D01*
X186338967Y-116287097D01*
X186195865Y-116238519D01*
X186182179Y-116233873D01*
X186164173Y-116226415D01*
X185998644Y-116144784D01*
X185981765Y-116135038D01*
X185828322Y-116032509D01*
X185812859Y-116020644D01*
X185670535Y-115895826D01*
X185664755Y-115890481D01*
X185663443Y-115889201D01*
X185662174Y-115887947D01*
X185645963Y-115871736D01*
X185604039Y-115829811D01*
X185604035Y-115829808D01*
X185602472Y-115828245D01*
X185594920Y-115821400D01*
X185435139Y-115661620D01*
X185435134Y-115661615D01*
X185008319Y-115283490D01*
X185008308Y-115283481D01*
X185008302Y-115283476D01*
X184559407Y-114931790D01*
X184090097Y-114607849D01*
X184090084Y-114607841D01*
X184090081Y-114607839D01*
X183602114Y-114312853D01*
X183602081Y-114312834D01*
X183097158Y-114047830D01*
X183097149Y-114047826D01*
X183097147Y-114047825D01*
X182913757Y-113965288D01*
X182577143Y-113813790D01*
X182577135Y-113813787D01*
X182043955Y-113611579D01*
X182043951Y-113611578D01*
X182043944Y-113611575D01*
X182043934Y-113611572D01*
X181499500Y-113441921D01*
X181499497Y-113441920D01*
X181499477Y-113441914D01*
X180945814Y-113305451D01*
X180945812Y-113305450D01*
X180384914Y-113202664D01*
X180384917Y-113202664D01*
X180384901Y-113202662D01*
X179818804Y-113133928D01*
X179818798Y-113133927D01*
X179818793Y-113133927D01*
X179249591Y-113099499D01*
X179249590Y-113099499D01*
X178964462Y-113099500D01*
X173381825Y-113099500D01*
X173307325Y-113079538D01*
X173276466Y-113055859D01*
X173152366Y-112931759D01*
X173152365Y-112931758D01*
X173006714Y-112825937D01*
X172974024Y-112802186D01*
X172974023Y-112802185D01*
X172777606Y-112702105D01*
X172567956Y-112633985D01*
X172446990Y-112614826D01*
X172350222Y-112599500D01*
X172129778Y-112599500D01*
X172042686Y-112613294D01*
X171912043Y-112633985D01*
X171702393Y-112702105D01*
X171505976Y-112802185D01*
X171505975Y-112802186D01*
X171327636Y-112931757D01*
X171327633Y-112931759D01*
X171203534Y-113055859D01*
X171136739Y-113094423D01*
X171098175Y-113099500D01*
X167831081Y-113099500D01*
X167825763Y-113099405D01*
X167410844Y-113084587D01*
X167400235Y-113083828D01*
X166990091Y-113039734D01*
X166979563Y-113038221D01*
X166573585Y-112964977D01*
X166563192Y-112962716D01*
X166163484Y-112860698D01*
X166153278Y-112857701D01*
X166100221Y-112840042D01*
X165761867Y-112727428D01*
X165751913Y-112723715D01*
X165524251Y-112629415D01*
X165370792Y-112565850D01*
X165361117Y-112561432D01*
X165177305Y-112469423D01*
X164992209Y-112376771D01*
X164982890Y-112371681D01*
X164628122Y-112161188D01*
X164619174Y-112155438D01*
X164570626Y-112121731D01*
X164280308Y-111920160D01*
X164271813Y-111913801D01*
X164091533Y-111768522D01*
X163956007Y-111659308D01*
X163910524Y-111597018D01*
X163900500Y-111543291D01*
X163900500Y-107402488D01*
X166799500Y-107402488D01*
X166799500Y-107697511D01*
X166838004Y-107989977D01*
X166838007Y-107989994D01*
X166914359Y-108274948D01*
X166914359Y-108274949D01*
X166963343Y-108393205D01*
X167025165Y-108542457D01*
X167027259Y-108547511D01*
X167056516Y-108598186D01*
X167168883Y-108792812D01*
X167174764Y-108802997D01*
X167174764Y-108802998D01*
X167316114Y-108987207D01*
X167354354Y-109037042D01*
X167562958Y-109245646D01*
X167693661Y-109345938D01*
X167789306Y-109419330D01*
X167797006Y-109425238D01*
X168052493Y-109572743D01*
X168253713Y-109656091D01*
X168325050Y-109685640D01*
X168467527Y-109723816D01*
X168610007Y-109761993D01*
X168610021Y-109761994D01*
X168610022Y-109761995D01*
X168622145Y-109763591D01*
X168902489Y-109800499D01*
X168902492Y-109800500D01*
X168902494Y-109800500D01*
X169197508Y-109800500D01*
X169197509Y-109800499D01*
X169489993Y-109761993D01*
X169774948Y-109685640D01*
X169774949Y-109685640D01*
X169774950Y-109685639D01*
X169774952Y-109685639D01*
X170047507Y-109572743D01*
X170302994Y-109425238D01*
X170537042Y-109245646D01*
X170745646Y-109037042D01*
X170925238Y-108802994D01*
X171072743Y-108547507D01*
X171185639Y-108274952D01*
X171197336Y-108231300D01*
X171232581Y-108099759D01*
X171261993Y-107989993D01*
X171300500Y-107697506D01*
X171300500Y-107655507D01*
X182639673Y-107655507D01*
X182639673Y-107891605D01*
X182643479Y-107915640D01*
X183600943Y-107659087D01*
X183589673Y-107701148D01*
X183589673Y-107845966D01*
X183627155Y-107985849D01*
X183699563Y-108111265D01*
X183730349Y-108142051D01*
X182774447Y-108398185D01*
X182856759Y-108559729D01*
X182856764Y-108559738D01*
X182995531Y-108750734D01*
X183162495Y-108917698D01*
X183353491Y-109056465D01*
X183353505Y-109056473D01*
X183563862Y-109163655D01*
X183563879Y-109163662D01*
X183788422Y-109236622D01*
X184021624Y-109273557D01*
X184257724Y-109273557D01*
X184281756Y-109269749D01*
X184025204Y-108312287D01*
X184067264Y-108323557D01*
X184212082Y-108323557D01*
X184351965Y-108286075D01*
X184477381Y-108213667D01*
X184508168Y-108182879D01*
X184764301Y-109138780D01*
X184925852Y-109056466D01*
X185116850Y-108917698D01*
X185283814Y-108750734D01*
X185422581Y-108559738D01*
X185422589Y-108559724D01*
X185529771Y-108349367D01*
X185529778Y-108349350D01*
X185602738Y-108124807D01*
X185639673Y-107891606D01*
X185639673Y-107655509D01*
X185639672Y-107655501D01*
X185635865Y-107631472D01*
X184678403Y-107888023D01*
X184689673Y-107845966D01*
X184689673Y-107701148D01*
X184652191Y-107561265D01*
X184579783Y-107435849D01*
X184548994Y-107405060D01*
X185504897Y-107148927D01*
X185422586Y-106987384D01*
X185422581Y-106987375D01*
X185283814Y-106796379D01*
X185116850Y-106629415D01*
X184925854Y-106490648D01*
X184925840Y-106490640D01*
X184715483Y-106383458D01*
X184715466Y-106383451D01*
X184490923Y-106310491D01*
X184257722Y-106273557D01*
X184021618Y-106273557D01*
X183997587Y-106277362D01*
X184254139Y-107234826D01*
X184212082Y-107223557D01*
X184067264Y-107223557D01*
X183927381Y-107261039D01*
X183801965Y-107333447D01*
X183771176Y-107364235D01*
X183515043Y-106408331D01*
X183353504Y-106490640D01*
X183162492Y-106629418D01*
X182995531Y-106796379D01*
X182856764Y-106987375D01*
X182856756Y-106987389D01*
X182749574Y-107197746D01*
X182749567Y-107197763D01*
X182676607Y-107422306D01*
X182639673Y-107655507D01*
X171300500Y-107655507D01*
X171300500Y-107402494D01*
X171261993Y-107110007D01*
X171186810Y-106829419D01*
X171185640Y-106825051D01*
X171185640Y-106825050D01*
X171160483Y-106764316D01*
X171072743Y-106552493D01*
X170925238Y-106297006D01*
X170925235Y-106297002D01*
X170925235Y-106297001D01*
X170745645Y-106062957D01*
X170537042Y-105854354D01*
X170302997Y-105674764D01*
X170293694Y-105669393D01*
X170123553Y-105571162D01*
X170047511Y-105527259D01*
X170047509Y-105527258D01*
X170047507Y-105527257D01*
X169959106Y-105490640D01*
X169774949Y-105414359D01*
X169489994Y-105338007D01*
X169489977Y-105338004D01*
X169197511Y-105299500D01*
X169197506Y-105299500D01*
X168902494Y-105299500D01*
X168902488Y-105299500D01*
X168610022Y-105338004D01*
X168610005Y-105338007D01*
X168325051Y-105414359D01*
X168325050Y-105414359D01*
X168052488Y-105527259D01*
X167797002Y-105674764D01*
X167797001Y-105674764D01*
X167562957Y-105854354D01*
X167354354Y-106062957D01*
X167174764Y-106297001D01*
X167174764Y-106297002D01*
X167027259Y-106552488D01*
X166914359Y-106825050D01*
X166914359Y-106825051D01*
X166838007Y-107110005D01*
X166838004Y-107110022D01*
X166799500Y-107402488D01*
X163900500Y-107402488D01*
X163900500Y-106958468D01*
X163900499Y-106958442D01*
X163900499Y-106716906D01*
X163900499Y-106716892D01*
X163867486Y-106044883D01*
X163801538Y-105375304D01*
X163801535Y-105375285D01*
X163801534Y-105375273D01*
X163713903Y-104784515D01*
X163702815Y-104709768D01*
X163701070Y-104700996D01*
X163571559Y-104049898D01*
X163571555Y-104049877D01*
X163496560Y-103750481D01*
X184789173Y-103750481D01*
X184789173Y-104002405D01*
X184828583Y-104251228D01*
X184906432Y-104490822D01*
X185019258Y-104712256D01*
X185020804Y-104715289D01*
X185020804Y-104715290D01*
X185089918Y-104810417D01*
X185168880Y-104919099D01*
X185347017Y-105097236D01*
X185550828Y-105245313D01*
X185775294Y-105359684D01*
X186014888Y-105437533D01*
X186263711Y-105476943D01*
X186263716Y-105476943D01*
X186515630Y-105476943D01*
X186515635Y-105476943D01*
X186764458Y-105437533D01*
X187004052Y-105359684D01*
X187228518Y-105245313D01*
X187432329Y-105097236D01*
X187535393Y-104994171D01*
X187536262Y-104993669D01*
X187536778Y-104992803D01*
X187569592Y-104974425D01*
X187602185Y-104955608D01*
X187603193Y-104955608D01*
X187604072Y-104955116D01*
X187641678Y-104955608D01*
X187679313Y-104955608D01*
X187681151Y-104956113D01*
X187880726Y-105012398D01*
X187891824Y-105016003D01*
X188171285Y-105119100D01*
X188237653Y-105143584D01*
X188248460Y-105148060D01*
X188583198Y-105302373D01*
X188593613Y-105307680D01*
X188825485Y-105437533D01*
X188915202Y-105487776D01*
X188925177Y-105493888D01*
X189231663Y-105698672D01*
X189241117Y-105705541D01*
X189440471Y-105862696D01*
X189530582Y-105933733D01*
X189539478Y-105941331D01*
X189796197Y-106178636D01*
X189811675Y-106192943D01*
X189815894Y-106196999D01*
X190392142Y-106773247D01*
X190430706Y-106840042D01*
X190433949Y-106901913D01*
X190418338Y-107000481D01*
X190418338Y-107252405D01*
X190457748Y-107501228D01*
X190535597Y-107740822D01*
X190635942Y-107937761D01*
X190649969Y-107965289D01*
X190649969Y-107965290D01*
X190715012Y-108054814D01*
X190798045Y-108169099D01*
X190976182Y-108347236D01*
X191179993Y-108495313D01*
X191404459Y-108609684D01*
X191644053Y-108687533D01*
X191892876Y-108726943D01*
X191892881Y-108726943D01*
X192144795Y-108726943D01*
X192144800Y-108726943D01*
X192393623Y-108687533D01*
X192633217Y-108609684D01*
X192857683Y-108495313D01*
X193061494Y-108347236D01*
X193239631Y-108169099D01*
X193387708Y-107965288D01*
X193443643Y-107855508D01*
X203618839Y-107855508D01*
X203618839Y-108091606D01*
X203622645Y-108115641D01*
X204580109Y-107859088D01*
X204568839Y-107901149D01*
X204568839Y-108045967D01*
X204606321Y-108185850D01*
X204678729Y-108311266D01*
X204709515Y-108342052D01*
X203753613Y-108598186D01*
X203835925Y-108759730D01*
X203835930Y-108759739D01*
X203974697Y-108950735D01*
X204141661Y-109117699D01*
X204332657Y-109256466D01*
X204332671Y-109256474D01*
X204543028Y-109363656D01*
X204543045Y-109363663D01*
X204767588Y-109436623D01*
X205000790Y-109473558D01*
X205236890Y-109473558D01*
X205260922Y-109469750D01*
X205004370Y-108512288D01*
X205046430Y-108523558D01*
X205191248Y-108523558D01*
X205331131Y-108486076D01*
X205456547Y-108413668D01*
X205487334Y-108382880D01*
X205743467Y-109338781D01*
X205905018Y-109256467D01*
X206096016Y-109117699D01*
X206262980Y-108950735D01*
X206401747Y-108759739D01*
X206401755Y-108759725D01*
X206508937Y-108549368D01*
X206508944Y-108549351D01*
X206581904Y-108324808D01*
X206618839Y-108091607D01*
X206618839Y-107855510D01*
X206618838Y-107855502D01*
X206615031Y-107831473D01*
X205657569Y-108088024D01*
X205668839Y-108045967D01*
X205668839Y-107901149D01*
X205631357Y-107761266D01*
X205558949Y-107635850D01*
X205528160Y-107605061D01*
X206484063Y-107348928D01*
X206401752Y-107187385D01*
X206401747Y-107187376D01*
X206262980Y-106996380D01*
X206096016Y-106829416D01*
X205905020Y-106690649D01*
X205905006Y-106690641D01*
X205694649Y-106583459D01*
X205694632Y-106583452D01*
X205470089Y-106510492D01*
X205236888Y-106473558D01*
X205000784Y-106473558D01*
X204976753Y-106477363D01*
X205233305Y-107434827D01*
X205191248Y-107423558D01*
X205046430Y-107423558D01*
X204906547Y-107461040D01*
X204781131Y-107533448D01*
X204750342Y-107564236D01*
X204494209Y-106608332D01*
X204332670Y-106690641D01*
X204141658Y-106829419D01*
X203974697Y-106996380D01*
X203835930Y-107187376D01*
X203835922Y-107187390D01*
X203728740Y-107397747D01*
X203728733Y-107397764D01*
X203655773Y-107622307D01*
X203618839Y-107855508D01*
X193443643Y-107855508D01*
X193474919Y-107794126D01*
X193481095Y-107782006D01*
X193481095Y-107782005D01*
X193502079Y-107740822D01*
X193579928Y-107501228D01*
X193619338Y-107252405D01*
X193619338Y-107000481D01*
X193579928Y-106751658D01*
X193502079Y-106512064D01*
X193387708Y-106287598D01*
X193239631Y-106083787D01*
X193061494Y-105905650D01*
X192857683Y-105757573D01*
X192633217Y-105643202D01*
X192393623Y-105565353D01*
X192144800Y-105525943D01*
X191892876Y-105525943D01*
X191868991Y-105529726D01*
X191794306Y-105541554D01*
X191763454Y-105538311D01*
X191732435Y-105538311D01*
X191725530Y-105534324D01*
X191717600Y-105533491D01*
X191665640Y-105499747D01*
X191150621Y-104984728D01*
X191150620Y-104984726D01*
X191130913Y-104965019D01*
X191130848Y-104964907D01*
X190920131Y-104754195D01*
X190907929Y-104743622D01*
X190871731Y-104712257D01*
X190871731Y-104712256D01*
X190748535Y-104605508D01*
X197989672Y-104605508D01*
X197989672Y-104841606D01*
X197993478Y-104865641D01*
X198950942Y-104609088D01*
X198939672Y-104651149D01*
X198939672Y-104795967D01*
X198977154Y-104935850D01*
X199049562Y-105061266D01*
X199080348Y-105092052D01*
X198124446Y-105348186D01*
X198206758Y-105509730D01*
X198206763Y-105509739D01*
X198345530Y-105700735D01*
X198512494Y-105867699D01*
X198703490Y-106006466D01*
X198703504Y-106006474D01*
X198913861Y-106113656D01*
X198913878Y-106113663D01*
X199138421Y-106186623D01*
X199371623Y-106223558D01*
X199607723Y-106223558D01*
X199631755Y-106219750D01*
X199375203Y-105262288D01*
X199417263Y-105273558D01*
X199562081Y-105273558D01*
X199701964Y-105236076D01*
X199827380Y-105163668D01*
X199858167Y-105132880D01*
X200114300Y-106088781D01*
X200275851Y-106006467D01*
X200466849Y-105867699D01*
X200633813Y-105700735D01*
X200772580Y-105509739D01*
X200772588Y-105509725D01*
X200879770Y-105299368D01*
X200879777Y-105299351D01*
X200952737Y-105074808D01*
X200989672Y-104841607D01*
X200989672Y-104605510D01*
X200989671Y-104605502D01*
X200985864Y-104581473D01*
X200028402Y-104838024D01*
X200039672Y-104795967D01*
X200039672Y-104651149D01*
X200002190Y-104511266D01*
X199929782Y-104385850D01*
X199898993Y-104355061D01*
X200854896Y-104098928D01*
X200772585Y-103937385D01*
X200772580Y-103937376D01*
X200633813Y-103746380D01*
X200466849Y-103579416D01*
X200275853Y-103440649D01*
X200275839Y-103440641D01*
X200065482Y-103333459D01*
X200065465Y-103333452D01*
X199840922Y-103260492D01*
X199607721Y-103223558D01*
X199371617Y-103223558D01*
X199347586Y-103227363D01*
X199604138Y-104184827D01*
X199562081Y-104173558D01*
X199417263Y-104173558D01*
X199277380Y-104211040D01*
X199151964Y-104283448D01*
X199121175Y-104314236D01*
X198865042Y-103358332D01*
X198703503Y-103440641D01*
X198512491Y-103579419D01*
X198345530Y-103746380D01*
X198206763Y-103937376D01*
X198206755Y-103937390D01*
X198099573Y-104147747D01*
X198099566Y-104147764D01*
X198026606Y-104372307D01*
X197989672Y-104605508D01*
X190748535Y-104605508D01*
X190561452Y-104443402D01*
X190561430Y-104443385D01*
X190181516Y-104158989D01*
X190181495Y-104158975D01*
X190180977Y-104158642D01*
X189782235Y-103902390D01*
X189648147Y-103829174D01*
X189365680Y-103674938D01*
X188933965Y-103477784D01*
X188840629Y-103442972D01*
X188489283Y-103311929D01*
X188256642Y-103243621D01*
X188033889Y-103178216D01*
X187873820Y-103143397D01*
X187858640Y-103135571D01*
X187841835Y-103132520D01*
X187829503Y-103120550D01*
X187805265Y-103108055D01*
X187783004Y-103082643D01*
X187777294Y-103074399D01*
X187758543Y-103037598D01*
X187614061Y-102838735D01*
X187614045Y-102838712D01*
X187610471Y-102833793D01*
X187610464Y-102833785D01*
X187432330Y-102655651D01*
X187432329Y-102655650D01*
X187228518Y-102507573D01*
X187004052Y-102393202D01*
X186764458Y-102315353D01*
X186515635Y-102275943D01*
X186263711Y-102275943D01*
X186056358Y-102308784D01*
X186014887Y-102315353D01*
X185792744Y-102387532D01*
X185775294Y-102393202D01*
X185775288Y-102393204D01*
X185775288Y-102393205D01*
X185550826Y-102507574D01*
X185550825Y-102507574D01*
X185347018Y-102655649D01*
X185347015Y-102655651D01*
X185168881Y-102833785D01*
X185168879Y-102833788D01*
X185020804Y-103037595D01*
X185020804Y-103037596D01*
X184906435Y-103262058D01*
X184906430Y-103262070D01*
X184828583Y-103501657D01*
X184827590Y-103507927D01*
X184789173Y-103750481D01*
X163496560Y-103750481D01*
X163408073Y-103397221D01*
X163212764Y-102753374D01*
X162986098Y-102119885D01*
X162938721Y-102005507D01*
X193118838Y-102005507D01*
X193118838Y-102241605D01*
X193122644Y-102265640D01*
X194080108Y-102009087D01*
X194068838Y-102051148D01*
X194068838Y-102195966D01*
X194106320Y-102335849D01*
X194178728Y-102461265D01*
X194209514Y-102492051D01*
X193253612Y-102748185D01*
X193335924Y-102909729D01*
X193335929Y-102909738D01*
X193474696Y-103100734D01*
X193641660Y-103267698D01*
X193832656Y-103406465D01*
X193832670Y-103406473D01*
X194043027Y-103513655D01*
X194043044Y-103513662D01*
X194267587Y-103586622D01*
X194500789Y-103623557D01*
X194736889Y-103623557D01*
X194760921Y-103619749D01*
X194504369Y-102662287D01*
X194546429Y-102673557D01*
X194691247Y-102673557D01*
X194831130Y-102636075D01*
X194956546Y-102563667D01*
X194987333Y-102532879D01*
X195243466Y-103488780D01*
X195405017Y-103406466D01*
X195596015Y-103267698D01*
X195762979Y-103100734D01*
X195901746Y-102909738D01*
X195901754Y-102909724D01*
X196008936Y-102699367D01*
X196008943Y-102699350D01*
X196081903Y-102474807D01*
X196118838Y-102241606D01*
X196118838Y-102005509D01*
X196118837Y-102005501D01*
X196115030Y-101981472D01*
X195157568Y-102238023D01*
X195168838Y-102195966D01*
X195168838Y-102051148D01*
X195131356Y-101911265D01*
X195058948Y-101785849D01*
X195028159Y-101755060D01*
X195984062Y-101498927D01*
X195901751Y-101337384D01*
X195901746Y-101337375D01*
X195762979Y-101146379D01*
X195596015Y-100979415D01*
X195405019Y-100840648D01*
X195405005Y-100840640D01*
X195194648Y-100733458D01*
X195194631Y-100733451D01*
X194970088Y-100660491D01*
X194736887Y-100623557D01*
X194500783Y-100623557D01*
X194476752Y-100627362D01*
X194733304Y-101584826D01*
X194691247Y-101573557D01*
X194546429Y-101573557D01*
X194406546Y-101611039D01*
X194281130Y-101683447D01*
X194250341Y-101714235D01*
X193994208Y-100758331D01*
X193832669Y-100840640D01*
X193641657Y-100979418D01*
X193474696Y-101146379D01*
X193335929Y-101337375D01*
X193335921Y-101337389D01*
X193228739Y-101547746D01*
X193228732Y-101547763D01*
X193155772Y-101772306D01*
X193118838Y-102005507D01*
X162938721Y-102005507D01*
X162728622Y-101498282D01*
X162701965Y-101441921D01*
X162440977Y-100890107D01*
X162440973Y-100890100D01*
X162440955Y-100890061D01*
X162123790Y-100296687D01*
X162123784Y-100296677D01*
X162123773Y-100296657D01*
X161777894Y-99719594D01*
X161777890Y-99719588D01*
X161404096Y-99160166D01*
X161404079Y-99160142D01*
X161003305Y-98619761D01*
X160947847Y-98552185D01*
X160576464Y-98099654D01*
X160141556Y-97619806D01*
X160124628Y-97601129D01*
X159957969Y-97434471D01*
X159949465Y-97425967D01*
X159949464Y-97425965D01*
X159886750Y-97363250D01*
X159824035Y-97300536D01*
X159823964Y-97300488D01*
X159766505Y-97243030D01*
X159726373Y-97210094D01*
X159503638Y-97027299D01*
X159503631Y-97027293D01*
X159220873Y-96838358D01*
X159220872Y-96838357D01*
X158920960Y-96678049D01*
X158895213Y-96667384D01*
X158667523Y-96573070D01*
X158606337Y-96526119D01*
X158576822Y-96454862D01*
X158586889Y-96378393D01*
X158633842Y-96317204D01*
X158656903Y-96302654D01*
X158657512Y-96302344D01*
X158700228Y-96280579D01*
X158884937Y-96146379D01*
X159046379Y-95984937D01*
X159152344Y-95839089D01*
X159153081Y-95838111D01*
X159182521Y-95815091D01*
X159211510Y-95791617D01*
X159212805Y-95791411D01*
X159213840Y-95790603D01*
X159250794Y-95785394D01*
X159287688Y-95779551D01*
X159288914Y-95780021D01*
X159290213Y-95779839D01*
X159324829Y-95793808D01*
X159340451Y-95799805D01*
X159364729Y-95801716D01*
X159997037Y-95169408D01*
X160014075Y-95232993D01*
X160079901Y-95347007D01*
X160172993Y-95440099D01*
X160287007Y-95505925D01*
X160350590Y-95522962D01*
X159718282Y-96155270D01*
X159772444Y-96194621D01*
X159772444Y-96194622D01*
X159961779Y-96291093D01*
X160163871Y-96356757D01*
X160373758Y-96390000D01*
X160586242Y-96390000D01*
X160796128Y-96356757D01*
X160998220Y-96291093D01*
X161187555Y-96194622D01*
X161187557Y-96194620D01*
X161241716Y-96155270D01*
X161241716Y-96155269D01*
X160609409Y-95522962D01*
X160672993Y-95505925D01*
X160787007Y-95440099D01*
X160880099Y-95347007D01*
X160945925Y-95232993D01*
X160962962Y-95169409D01*
X161595269Y-95801716D01*
X161616910Y-95800013D01*
X161627281Y-95791616D01*
X161703459Y-95779550D01*
X161775465Y-95807189D01*
X161808426Y-95840150D01*
X161913621Y-95984937D01*
X162075063Y-96146379D01*
X162259772Y-96280579D01*
X162463201Y-96384231D01*
X162680340Y-96454784D01*
X162905843Y-96490500D01*
X162905847Y-96490500D01*
X163134153Y-96490500D01*
X163134157Y-96490500D01*
X163359660Y-96454784D01*
X163576799Y-96384231D01*
X163780228Y-96280579D01*
X163964937Y-96146379D01*
X164126379Y-95984937D01*
X164169459Y-95925642D01*
X164229396Y-95877107D01*
X164305575Y-95865041D01*
X164377580Y-95892681D01*
X164410538Y-95925639D01*
X164453621Y-95984937D01*
X164615063Y-96146379D01*
X164799772Y-96280579D01*
X165003201Y-96384231D01*
X165220340Y-96454784D01*
X165445843Y-96490500D01*
X165445847Y-96490500D01*
X165674153Y-96490500D01*
X165674157Y-96490500D01*
X165899660Y-96454784D01*
X166116799Y-96384231D01*
X166320228Y-96280579D01*
X166504937Y-96146379D01*
X166666379Y-95984937D01*
X166772344Y-95839089D01*
X166773081Y-95838111D01*
X166802521Y-95815091D01*
X166831510Y-95791617D01*
X166832805Y-95791411D01*
X166833840Y-95790603D01*
X166870794Y-95785394D01*
X166907688Y-95779551D01*
X166908914Y-95780021D01*
X166910213Y-95779839D01*
X166944829Y-95793808D01*
X166960451Y-95799805D01*
X166984729Y-95801716D01*
X167617037Y-95169408D01*
X167634075Y-95232993D01*
X167699901Y-95347007D01*
X167792993Y-95440099D01*
X167907007Y-95505925D01*
X167970590Y-95522962D01*
X167338282Y-96155270D01*
X167392444Y-96194621D01*
X167392444Y-96194622D01*
X167581779Y-96291093D01*
X167783871Y-96356757D01*
X167993758Y-96390000D01*
X168206242Y-96390000D01*
X168416128Y-96356757D01*
X168618220Y-96291093D01*
X168807555Y-96194622D01*
X168807557Y-96194620D01*
X168861716Y-96155270D01*
X168861716Y-96155269D01*
X168229409Y-95522962D01*
X168292993Y-95505925D01*
X168407007Y-95440099D01*
X168500099Y-95347007D01*
X168565925Y-95232993D01*
X168582962Y-95169409D01*
X169215269Y-95801716D01*
X169215270Y-95801716D01*
X169254620Y-95747557D01*
X169254622Y-95747555D01*
X169351093Y-95558220D01*
X169416757Y-95356128D01*
X169450000Y-95146242D01*
X169450000Y-94933757D01*
X169416757Y-94723871D01*
X169351093Y-94521779D01*
X169254621Y-94332444D01*
X169215270Y-94278282D01*
X168582962Y-94910589D01*
X168565925Y-94847007D01*
X168500099Y-94732993D01*
X168407007Y-94639901D01*
X168292993Y-94574075D01*
X168229407Y-94557037D01*
X168861716Y-93924729D01*
X168860012Y-93903085D01*
X168851616Y-93892716D01*
X168839551Y-93816537D01*
X168867192Y-93744532D01*
X168900155Y-93711570D01*
X169044937Y-93606379D01*
X169206379Y-93444937D01*
X169340579Y-93260228D01*
X169444231Y-93056799D01*
X169514784Y-92839660D01*
X169550500Y-92614157D01*
X169550500Y-92385843D01*
X169514784Y-92160340D01*
X169444231Y-91943201D01*
X169340579Y-91739772D01*
X169206379Y-91555063D01*
X169044937Y-91393621D01*
X169043841Y-91392825D01*
X168956837Y-91329612D01*
X168860228Y-91259421D01*
X168656799Y-91155769D01*
X168439660Y-91085216D01*
X168214157Y-91049500D01*
X167985843Y-91049500D01*
X167760340Y-91085216D01*
X167701243Y-91104418D01*
X167543201Y-91155769D01*
X167543195Y-91155771D01*
X167543195Y-91155772D01*
X167339773Y-91259420D01*
X167155066Y-91393618D01*
X166993618Y-91555066D01*
X166981281Y-91572047D01*
X166953676Y-91610043D01*
X166950543Y-91614355D01*
X166890603Y-91662893D01*
X166814424Y-91674958D01*
X166742419Y-91647317D01*
X166709457Y-91614355D01*
X166706324Y-91610043D01*
X166666379Y-91555063D01*
X166504937Y-91393621D01*
X166503841Y-91392825D01*
X166416837Y-91329612D01*
X166320228Y-91259421D01*
X166116799Y-91155769D01*
X165899660Y-91085216D01*
X165674157Y-91049500D01*
X165445843Y-91049500D01*
X165220340Y-91085216D01*
X165161243Y-91104418D01*
X165003201Y-91155769D01*
X165003195Y-91155771D01*
X165003195Y-91155772D01*
X164799773Y-91259420D01*
X164615066Y-91393618D01*
X164453618Y-91555066D01*
X164441281Y-91572047D01*
X164413676Y-91610043D01*
X164410543Y-91614355D01*
X164350603Y-91662893D01*
X164274424Y-91674958D01*
X164202419Y-91647317D01*
X164169457Y-91614355D01*
X164166324Y-91610043D01*
X164126379Y-91555063D01*
X163964937Y-91393621D01*
X163963841Y-91392825D01*
X163876837Y-91329612D01*
X163780228Y-91259421D01*
X163576799Y-91155769D01*
X163359660Y-91085216D01*
X163134157Y-91049500D01*
X162905843Y-91049500D01*
X162680340Y-91085216D01*
X162621243Y-91104418D01*
X162463201Y-91155769D01*
X162463195Y-91155771D01*
X162463195Y-91155772D01*
X162259773Y-91259420D01*
X162075066Y-91393618D01*
X161913618Y-91555066D01*
X161901281Y-91572047D01*
X161873676Y-91610043D01*
X161870543Y-91614355D01*
X161810603Y-91662893D01*
X161734424Y-91674958D01*
X161662419Y-91647317D01*
X161629457Y-91614355D01*
X161626324Y-91610043D01*
X161586379Y-91555063D01*
X161424937Y-91393621D01*
X161423841Y-91392825D01*
X161336837Y-91329612D01*
X161240228Y-91259421D01*
X161036799Y-91155769D01*
X160819660Y-91085216D01*
X160594157Y-91049500D01*
X160365843Y-91049500D01*
X160140340Y-91085216D01*
X160081243Y-91104418D01*
X159923201Y-91155769D01*
X159923195Y-91155771D01*
X159923195Y-91155772D01*
X159719773Y-91259420D01*
X159535066Y-91393618D01*
X159373618Y-91555066D01*
X159361281Y-91572047D01*
X159333676Y-91610043D01*
X159330543Y-91614355D01*
X159270603Y-91662893D01*
X159194424Y-91674958D01*
X159122419Y-91647317D01*
X159089457Y-91614355D01*
X159086324Y-91610043D01*
X159046379Y-91555063D01*
X158884937Y-91393621D01*
X158883841Y-91392825D01*
X158796837Y-91329612D01*
X158700228Y-91259421D01*
X158496799Y-91155769D01*
X158279660Y-91085216D01*
X158054157Y-91049500D01*
X157825843Y-91049500D01*
X157600340Y-91085216D01*
X157541243Y-91104418D01*
X157383201Y-91155769D01*
X157383195Y-91155771D01*
X157383195Y-91155772D01*
X157179773Y-91259420D01*
X156995066Y-91393618D01*
X156833618Y-91555066D01*
X156821281Y-91572047D01*
X156793676Y-91610043D01*
X156790543Y-91614355D01*
X156730603Y-91662893D01*
X156654424Y-91674958D01*
X156582419Y-91647317D01*
X156549457Y-91614355D01*
X156546324Y-91610043D01*
X156506379Y-91555063D01*
X156344937Y-91393621D01*
X156343841Y-91392825D01*
X156256837Y-91329612D01*
X156160228Y-91259421D01*
X155956799Y-91155769D01*
X155739660Y-91085216D01*
X155514157Y-91049500D01*
X155285843Y-91049500D01*
X155060340Y-91085216D01*
X155001243Y-91104418D01*
X154843201Y-91155769D01*
X154843195Y-91155771D01*
X154843195Y-91155772D01*
X154639773Y-91259420D01*
X154455066Y-91393618D01*
X154293618Y-91555066D01*
X154281281Y-91572047D01*
X154253676Y-91610043D01*
X154250543Y-91614355D01*
X154190603Y-91662893D01*
X154114424Y-91674958D01*
X154042419Y-91647317D01*
X154009457Y-91614355D01*
X154006324Y-91610043D01*
X153966379Y-91555063D01*
X153804937Y-91393621D01*
X153803841Y-91392825D01*
X153716837Y-91329612D01*
X153620228Y-91259421D01*
X153416799Y-91155769D01*
X153199660Y-91085216D01*
X152974157Y-91049500D01*
X152745843Y-91049500D01*
X152520340Y-91085216D01*
X152461243Y-91104418D01*
X152303201Y-91155769D01*
X152303195Y-91155771D01*
X152303195Y-91155772D01*
X152099773Y-91259420D01*
X151915066Y-91393618D01*
X151753618Y-91555066D01*
X151741281Y-91572047D01*
X151713676Y-91610043D01*
X151710543Y-91614355D01*
X151650603Y-91662893D01*
X151574424Y-91674958D01*
X151502419Y-91647317D01*
X151469457Y-91614355D01*
X151466324Y-91610043D01*
X151426379Y-91555063D01*
X151264937Y-91393621D01*
X151263841Y-91392825D01*
X151176837Y-91329612D01*
X151080228Y-91259421D01*
X150876799Y-91155769D01*
X150659660Y-91085216D01*
X150434157Y-91049500D01*
X150205843Y-91049500D01*
X149980340Y-91085216D01*
X149921243Y-91104418D01*
X149763201Y-91155769D01*
X149763195Y-91155771D01*
X149763195Y-91155772D01*
X149559773Y-91259420D01*
X149375066Y-91393618D01*
X149213618Y-91555066D01*
X149201281Y-91572047D01*
X149173676Y-91610043D01*
X149170543Y-91614355D01*
X149110603Y-91662893D01*
X149034424Y-91674958D01*
X148962419Y-91647317D01*
X148929457Y-91614355D01*
X148926324Y-91610043D01*
X148886379Y-91555063D01*
X148724937Y-91393621D01*
X148723841Y-91392825D01*
X148636837Y-91329612D01*
X148540228Y-91259421D01*
X148336799Y-91155769D01*
X148119660Y-91085216D01*
X147894157Y-91049500D01*
X147665843Y-91049500D01*
X147440340Y-91085216D01*
X147381243Y-91104418D01*
X147223201Y-91155769D01*
X147223195Y-91155771D01*
X147223195Y-91155772D01*
X147019773Y-91259420D01*
X146835066Y-91393618D01*
X146779800Y-91448884D01*
X146756914Y-91462096D01*
X146736568Y-91478954D01*
X146724024Y-91481085D01*
X146713005Y-91487447D01*
X146686580Y-91487447D01*
X146660530Y-91491873D01*
X146648602Y-91487447D01*
X146635877Y-91487447D01*
X146612991Y-91474234D01*
X146588219Y-91465042D01*
X146580101Y-91455244D01*
X146569082Y-91448882D01*
X146555869Y-91425996D01*
X146539012Y-91405650D01*
X146536880Y-91393106D01*
X146530519Y-91382087D01*
X146530519Y-91355662D01*
X146526093Y-91329612D01*
X146530519Y-91317683D01*
X146530519Y-91304959D01*
X146552922Y-91257304D01*
X146592316Y-91201783D01*
X146602729Y-91188728D01*
X146695234Y-91085216D01*
X146750887Y-91022940D01*
X146756601Y-91016896D01*
X146816273Y-90957226D01*
X146816276Y-90957222D01*
X147130345Y-90643154D01*
X147135602Y-90638149D01*
X147373297Y-90422716D01*
X147384575Y-90413460D01*
X147639289Y-90224554D01*
X147651437Y-90216438D01*
X147705037Y-90184311D01*
X147923422Y-90053415D01*
X147936311Y-90046527D01*
X148222974Y-89910946D01*
X148236469Y-89905355D01*
X148535047Y-89798523D01*
X148549004Y-89794289D01*
X148856623Y-89717236D01*
X148870960Y-89714384D01*
X149184617Y-89667857D01*
X149199158Y-89666424D01*
X149519654Y-89650678D01*
X149526961Y-89650500D01*
X149611885Y-89650500D01*
X168411309Y-89650500D01*
X168496753Y-89650500D01*
X168503252Y-89650642D01*
X168521093Y-89651420D01*
X168835847Y-89665163D01*
X168848787Y-89666295D01*
X169175625Y-89709324D01*
X169188422Y-89711581D01*
X169236178Y-89722168D01*
X169510277Y-89782934D01*
X169522801Y-89786290D01*
X169837227Y-89885429D01*
X169849439Y-89889874D01*
X170154018Y-90016035D01*
X170165769Y-90021515D01*
X170458199Y-90173745D01*
X170469430Y-90180230D01*
X170622578Y-90277796D01*
X170747475Y-90357365D01*
X170758123Y-90364821D01*
X171019655Y-90565503D01*
X171029612Y-90573858D01*
X171275172Y-90798873D01*
X171279867Y-90803367D01*
X171340175Y-90863676D01*
X171340178Y-90863678D01*
X171345383Y-90868883D01*
X172800536Y-92324035D01*
X172800537Y-92324036D01*
X172860290Y-92383790D01*
X172866031Y-92389863D01*
X173045510Y-92590701D01*
X173055927Y-92603764D01*
X173209367Y-92820017D01*
X173218257Y-92834165D01*
X173346512Y-93066226D01*
X173353762Y-93081280D01*
X173455233Y-93326252D01*
X173460752Y-93342024D01*
X173534155Y-93596817D01*
X173537873Y-93613107D01*
X173582287Y-93874512D01*
X173584158Y-93891116D01*
X173599266Y-94160149D01*
X173599500Y-94168503D01*
X173599500Y-97088691D01*
X173634105Y-97262663D01*
X173634106Y-97262667D01*
X173701986Y-97426546D01*
X173701989Y-97426551D01*
X173738698Y-97481489D01*
X173800536Y-97574035D01*
X173819600Y-97593100D01*
X173819629Y-97593149D01*
X173863240Y-97636759D01*
X173863240Y-97636760D01*
X173990652Y-97764171D01*
X174064860Y-97838379D01*
X174064865Y-97838384D01*
X174491680Y-98216509D01*
X174491689Y-98216516D01*
X174491698Y-98216524D01*
X174940593Y-98568210D01*
X175409903Y-98892151D01*
X175464189Y-98924968D01*
X175897885Y-99187146D01*
X175897896Y-99187152D01*
X175897917Y-99187165D01*
X176108896Y-99297895D01*
X176402841Y-99452169D01*
X176402844Y-99452170D01*
X176402853Y-99452175D01*
X176743859Y-99605649D01*
X176922856Y-99686209D01*
X176922861Y-99686211D01*
X176922868Y-99686214D01*
X177204539Y-99793037D01*
X177456044Y-99888420D01*
X177456046Y-99888420D01*
X177456066Y-99888428D01*
X178000500Y-100058079D01*
X178000513Y-100058082D01*
X178000522Y-100058085D01*
X178554185Y-100194548D01*
X178554187Y-100194549D01*
X178816732Y-100242661D01*
X179115083Y-100297335D01*
X179115099Y-100297338D01*
X179681196Y-100366072D01*
X180250410Y-100400501D01*
X180535538Y-100400500D01*
X180624229Y-100400500D01*
X181108175Y-100400500D01*
X181182675Y-100420462D01*
X181213534Y-100444141D01*
X181337635Y-100568242D01*
X181444523Y-100645900D01*
X181515975Y-100697813D01*
X181515976Y-100697814D01*
X181515978Y-100697815D01*
X181712394Y-100797895D01*
X181799512Y-100826201D01*
X181922043Y-100866014D01*
X181922048Y-100866014D01*
X181922049Y-100866015D01*
X182139778Y-100900500D01*
X182139782Y-100900500D01*
X182360218Y-100900500D01*
X182360222Y-100900500D01*
X182577951Y-100866015D01*
X182577952Y-100866014D01*
X182577956Y-100866014D01*
X182658556Y-100839825D01*
X182787606Y-100797895D01*
X182984022Y-100697815D01*
X183162365Y-100568242D01*
X183318242Y-100412365D01*
X183447815Y-100234022D01*
X183547895Y-100037606D01*
X183596365Y-99888428D01*
X183616014Y-99827956D01*
X183616015Y-99827951D01*
X183650500Y-99610222D01*
X183650500Y-99389778D01*
X183616015Y-99172049D01*
X183616014Y-99172048D01*
X183616014Y-99172043D01*
X183547894Y-98962390D01*
X183473963Y-98817296D01*
X183447815Y-98765978D01*
X183440207Y-98755507D01*
X187489673Y-98755507D01*
X187489673Y-98991605D01*
X187493479Y-99015640D01*
X188450943Y-98759087D01*
X188439673Y-98801148D01*
X188439673Y-98945966D01*
X188477155Y-99085849D01*
X188549563Y-99211265D01*
X188580349Y-99242051D01*
X187624447Y-99498185D01*
X187706759Y-99659729D01*
X187706764Y-99659738D01*
X187845531Y-99850734D01*
X188012495Y-100017698D01*
X188203491Y-100156465D01*
X188203505Y-100156473D01*
X188413862Y-100263655D01*
X188413879Y-100263662D01*
X188638422Y-100336622D01*
X188871624Y-100373557D01*
X189107724Y-100373557D01*
X189131756Y-100369749D01*
X188875204Y-99412287D01*
X188917264Y-99423557D01*
X189062082Y-99423557D01*
X189201965Y-99386075D01*
X189327381Y-99313667D01*
X189358168Y-99282879D01*
X189614301Y-100238780D01*
X189775852Y-100156466D01*
X189966850Y-100017698D01*
X190133814Y-99850734D01*
X190272581Y-99659738D01*
X190272589Y-99659724D01*
X190379771Y-99449367D01*
X190379778Y-99449350D01*
X190452738Y-99224807D01*
X190489673Y-98991606D01*
X190489673Y-98755509D01*
X190489672Y-98755501D01*
X190485865Y-98731472D01*
X189528403Y-98988023D01*
X189539673Y-98945966D01*
X189539673Y-98801148D01*
X189502191Y-98661265D01*
X189429783Y-98535849D01*
X189398994Y-98505060D01*
X190354897Y-98248927D01*
X190272586Y-98087384D01*
X190272581Y-98087375D01*
X190133814Y-97896379D01*
X189966850Y-97729415D01*
X189775854Y-97590648D01*
X189775840Y-97590640D01*
X189565483Y-97483458D01*
X189565466Y-97483451D01*
X189340923Y-97410491D01*
X189107722Y-97373557D01*
X188871618Y-97373557D01*
X188847587Y-97377362D01*
X189104139Y-98334826D01*
X189062082Y-98323557D01*
X188917264Y-98323557D01*
X188777381Y-98361039D01*
X188651965Y-98433447D01*
X188621176Y-98464235D01*
X188365043Y-97508331D01*
X188203504Y-97590640D01*
X188012492Y-97729418D01*
X187845531Y-97896379D01*
X187706764Y-98087375D01*
X187706756Y-98087389D01*
X187599574Y-98297746D01*
X187599567Y-98297763D01*
X187526607Y-98522306D01*
X187489673Y-98755507D01*
X183440207Y-98755507D01*
X183403625Y-98705156D01*
X183318242Y-98587635D01*
X183162365Y-98431758D01*
X183053144Y-98352405D01*
X182984024Y-98302186D01*
X182984023Y-98302185D01*
X182787606Y-98202105D01*
X182577956Y-98133985D01*
X182456990Y-98114826D01*
X182360222Y-98099500D01*
X182139778Y-98099500D01*
X182052686Y-98113294D01*
X181922043Y-98133985D01*
X181712393Y-98202105D01*
X181515976Y-98302185D01*
X181515975Y-98302186D01*
X181337636Y-98431757D01*
X181337633Y-98431759D01*
X181213534Y-98555859D01*
X181146739Y-98594423D01*
X181108175Y-98599500D01*
X180537960Y-98599500D01*
X180533086Y-98599420D01*
X180517012Y-98598893D01*
X180041060Y-98583314D01*
X180031331Y-98582677D01*
X179543807Y-98534662D01*
X179534140Y-98533389D01*
X179050823Y-98453594D01*
X179041260Y-98451692D01*
X178564179Y-98340455D01*
X178554761Y-98337931D01*
X178521861Y-98327951D01*
X178343154Y-98273741D01*
X178085995Y-98195733D01*
X178076762Y-98192599D01*
X177738483Y-98065281D01*
X177618289Y-98020043D01*
X177609285Y-98016314D01*
X177608989Y-98016180D01*
X177412010Y-97926930D01*
X177163074Y-97814139D01*
X177154329Y-97809826D01*
X176722312Y-97578909D01*
X176713868Y-97574034D01*
X176568209Y-97483458D01*
X176297869Y-97315350D01*
X176289762Y-97309933D01*
X175891578Y-97024598D01*
X175883843Y-97018663D01*
X175505168Y-96707894D01*
X175497836Y-96701464D01*
X175447644Y-96654453D01*
X175406915Y-96588955D01*
X175400500Y-96545704D01*
X175400500Y-94067706D01*
X175400494Y-94067594D01*
X175400494Y-94027330D01*
X175400495Y-93975833D01*
X175367659Y-93600497D01*
X175366884Y-93596100D01*
X175302238Y-93229468D01*
X175302232Y-93229440D01*
X175217282Y-92912398D01*
X175208254Y-92878706D01*
X178149500Y-92878706D01*
X178149500Y-93121293D01*
X178181160Y-93361781D01*
X178181161Y-93361787D01*
X178181162Y-93361789D01*
X178232827Y-93554605D01*
X178243947Y-93596103D01*
X178269742Y-93658377D01*
X178328696Y-93800706D01*
X178336778Y-93820216D01*
X178402349Y-93933788D01*
X178458064Y-94030289D01*
X178605735Y-94222738D01*
X178777262Y-94394265D01*
X178969711Y-94541936D01*
X179179788Y-94663224D01*
X179403900Y-94756054D01*
X179638211Y-94818838D01*
X179638217Y-94818838D01*
X179638218Y-94818839D01*
X179703600Y-94827446D01*
X179878712Y-94850500D01*
X180121288Y-94850500D01*
X180121432Y-94850481D01*
X189639173Y-94850481D01*
X189639173Y-95102405D01*
X189678583Y-95351228D01*
X189756432Y-95590822D01*
X189866676Y-95807189D01*
X189870804Y-95815289D01*
X189870804Y-95815290D01*
X189926417Y-95891834D01*
X190018880Y-96019099D01*
X190197017Y-96197236D01*
X190400828Y-96345313D01*
X190625294Y-96459684D01*
X190864888Y-96537533D01*
X191113711Y-96576943D01*
X191113716Y-96576943D01*
X191365630Y-96576943D01*
X191365635Y-96576943D01*
X191614458Y-96537533D01*
X191854052Y-96459684D01*
X192078518Y-96345313D01*
X192282329Y-96197236D01*
X192385393Y-96094171D01*
X192386262Y-96093669D01*
X192386778Y-96092803D01*
X192419592Y-96074425D01*
X192452185Y-96055608D01*
X192453193Y-96055608D01*
X192454072Y-96055116D01*
X192491678Y-96055608D01*
X192529313Y-96055608D01*
X192531151Y-96056113D01*
X192730726Y-96112398D01*
X192741824Y-96116003D01*
X193011955Y-96215658D01*
X193087653Y-96243584D01*
X193098460Y-96248060D01*
X193433198Y-96402373D01*
X193443613Y-96407680D01*
X193675485Y-96537533D01*
X193765202Y-96587776D01*
X193775177Y-96593888D01*
X194081663Y-96798672D01*
X194091117Y-96805541D01*
X194290471Y-96962696D01*
X194380582Y-97033733D01*
X194389478Y-97041331D01*
X194661675Y-97292943D01*
X194665894Y-97296999D01*
X195242142Y-97873247D01*
X195280706Y-97940042D01*
X195283949Y-98001913D01*
X195281357Y-98018280D01*
X195268338Y-98100481D01*
X195268338Y-98352405D01*
X195307748Y-98601228D01*
X195385597Y-98840822D01*
X195483088Y-99032160D01*
X195499969Y-99065289D01*
X195499969Y-99065290D01*
X195549347Y-99133253D01*
X195648045Y-99269099D01*
X195826182Y-99447236D01*
X196029993Y-99595313D01*
X196254459Y-99709684D01*
X196494053Y-99787533D01*
X196742876Y-99826943D01*
X196742881Y-99826943D01*
X196994795Y-99826943D01*
X196994800Y-99826943D01*
X197243623Y-99787533D01*
X197483217Y-99709684D01*
X197707683Y-99595313D01*
X197911494Y-99447236D01*
X198089631Y-99269099D01*
X198237708Y-99065288D01*
X198352079Y-98840822D01*
X198429928Y-98601228D01*
X198469338Y-98352405D01*
X198469338Y-98100481D01*
X198429928Y-97851658D01*
X198352079Y-97612064D01*
X198237708Y-97387598D01*
X198209602Y-97348914D01*
X198171884Y-97296999D01*
X198089631Y-97183787D01*
X197911494Y-97005650D01*
X197707683Y-96857573D01*
X197483217Y-96743202D01*
X197243623Y-96665353D01*
X196994800Y-96625943D01*
X196742876Y-96625943D01*
X196718991Y-96629726D01*
X196644306Y-96641554D01*
X196567600Y-96633491D01*
X196515640Y-96599747D01*
X196000621Y-96084728D01*
X196000620Y-96084726D01*
X195980913Y-96065019D01*
X195980848Y-96064907D01*
X195770131Y-95854194D01*
X195411436Y-95543389D01*
X195411430Y-95543385D01*
X195031516Y-95258989D01*
X195031495Y-95258975D01*
X195019568Y-95251310D01*
X194632235Y-95002390D01*
X194580560Y-94974174D01*
X194215680Y-94774938D01*
X193783965Y-94577784D01*
X193530390Y-94483207D01*
X193339283Y-94411929D01*
X193085843Y-94337514D01*
X192883889Y-94278216D01*
X192723820Y-94243397D01*
X192655265Y-94208055D01*
X192622735Y-94165452D01*
X192608543Y-94137598D01*
X192460466Y-93933787D01*
X192282329Y-93755650D01*
X192078518Y-93607573D01*
X191854052Y-93493202D01*
X191614458Y-93415353D01*
X191365635Y-93375943D01*
X191113711Y-93375943D01*
X190931258Y-93404841D01*
X190864887Y-93415353D01*
X190625300Y-93493200D01*
X190625294Y-93493202D01*
X190625288Y-93493204D01*
X190625288Y-93493205D01*
X190400826Y-93607574D01*
X190400825Y-93607574D01*
X190197018Y-93755649D01*
X190197015Y-93755651D01*
X190018881Y-93933785D01*
X190018879Y-93933788D01*
X189870804Y-94137595D01*
X189870804Y-94137596D01*
X189756435Y-94362058D01*
X189756430Y-94362070D01*
X189680982Y-94594276D01*
X189678583Y-94601658D01*
X189639173Y-94850481D01*
X180121432Y-94850481D01*
X180361789Y-94818838D01*
X180596100Y-94756054D01*
X180820212Y-94663224D01*
X181030289Y-94541936D01*
X181222738Y-94394265D01*
X181394265Y-94222738D01*
X181541936Y-94030289D01*
X181663224Y-93820212D01*
X181756054Y-93596100D01*
X181818838Y-93361789D01*
X181850500Y-93121288D01*
X181850500Y-92878712D01*
X181850499Y-92878706D01*
X204149500Y-92878706D01*
X204149500Y-93121293D01*
X204181160Y-93361781D01*
X204181161Y-93361787D01*
X204181162Y-93361789D01*
X204232827Y-93554605D01*
X204243947Y-93596103D01*
X204269742Y-93658377D01*
X204328696Y-93800706D01*
X204336778Y-93820216D01*
X204402349Y-93933788D01*
X204458064Y-94030289D01*
X204605735Y-94222738D01*
X204777262Y-94394265D01*
X204969711Y-94541936D01*
X205179788Y-94663224D01*
X205403900Y-94756054D01*
X205638211Y-94818838D01*
X205638217Y-94818838D01*
X205638218Y-94818839D01*
X205703600Y-94827446D01*
X205878712Y-94850500D01*
X206121288Y-94850500D01*
X206361789Y-94818838D01*
X206596100Y-94756054D01*
X206820212Y-94663224D01*
X207030289Y-94541936D01*
X207222738Y-94394265D01*
X207394265Y-94222738D01*
X207541936Y-94030289D01*
X207663224Y-93820212D01*
X207756054Y-93596100D01*
X207818838Y-93361789D01*
X207850500Y-93121288D01*
X207850500Y-92878712D01*
X207818838Y-92638211D01*
X207756054Y-92403900D01*
X207663224Y-92179788D01*
X207541936Y-91969711D01*
X207394265Y-91777262D01*
X207222738Y-91605735D01*
X207030289Y-91458064D01*
X206920328Y-91394578D01*
X206820216Y-91336778D01*
X206820214Y-91336777D01*
X206820212Y-91336776D01*
X206688932Y-91282398D01*
X206596103Y-91243947D01*
X206596101Y-91243946D01*
X206596100Y-91243946D01*
X206361789Y-91181162D01*
X206361787Y-91181161D01*
X206361781Y-91181160D01*
X206121293Y-91149500D01*
X206121288Y-91149500D01*
X205878712Y-91149500D01*
X205878706Y-91149500D01*
X205638218Y-91181160D01*
X205403896Y-91243947D01*
X205179783Y-91336778D01*
X204969712Y-91458063D01*
X204939709Y-91481085D01*
X204777262Y-91605735D01*
X204777260Y-91605736D01*
X204777256Y-91605740D01*
X204605740Y-91777256D01*
X204458063Y-91969712D01*
X204336778Y-92179783D01*
X204243947Y-92403896D01*
X204181160Y-92638218D01*
X204149500Y-92878706D01*
X181850499Y-92878706D01*
X181818838Y-92638211D01*
X181756054Y-92403900D01*
X181663224Y-92179788D01*
X181541936Y-91969711D01*
X181394265Y-91777262D01*
X181222738Y-91605735D01*
X181030289Y-91458064D01*
X180920328Y-91394578D01*
X180820216Y-91336778D01*
X180820214Y-91336777D01*
X180820212Y-91336776D01*
X180688932Y-91282398D01*
X180596103Y-91243947D01*
X180596101Y-91243946D01*
X180596100Y-91243946D01*
X180361789Y-91181162D01*
X180361787Y-91181161D01*
X180361781Y-91181160D01*
X180121293Y-91149500D01*
X180121288Y-91149500D01*
X179878712Y-91149500D01*
X179878706Y-91149500D01*
X179638218Y-91181160D01*
X179403896Y-91243947D01*
X179179783Y-91336778D01*
X178969712Y-91458063D01*
X178939709Y-91481085D01*
X178777262Y-91605735D01*
X178777260Y-91605736D01*
X178777256Y-91605740D01*
X178605740Y-91777256D01*
X178458063Y-91969712D01*
X178336778Y-92179783D01*
X178243947Y-92403896D01*
X178181160Y-92638218D01*
X178149500Y-92878706D01*
X175208254Y-92878706D01*
X175204722Y-92865523D01*
X175140720Y-92689679D01*
X175075859Y-92511473D01*
X174916630Y-92170004D01*
X174728246Y-91843712D01*
X174512140Y-91535080D01*
X174512137Y-91535077D01*
X174512134Y-91535072D01*
X174269959Y-91246459D01*
X174199466Y-91175967D01*
X174199465Y-91175966D01*
X174199464Y-91175964D01*
X172488248Y-89464750D01*
X172483509Y-89460011D01*
X172483406Y-89459917D01*
X172391795Y-89368306D01*
X172214920Y-89217240D01*
X172049479Y-89075939D01*
X172049474Y-89075935D01*
X172049468Y-89075930D01*
X171685278Y-88811329D01*
X171362952Y-88613806D01*
X171301435Y-88576108D01*
X170900322Y-88371730D01*
X170779262Y-88321585D01*
X170484421Y-88199456D01*
X170484398Y-88199448D01*
X170056268Y-88060339D01*
X169618522Y-87955245D01*
X169618525Y-87955245D01*
X169396202Y-87920033D01*
X169173883Y-87884821D01*
X168725090Y-87849500D01*
X168588691Y-87849500D01*
X149434501Y-87849500D01*
X149427193Y-87849500D01*
X149427091Y-87849505D01*
X149319614Y-87849505D01*
X148913718Y-87881450D01*
X148712648Y-87913296D01*
X148511576Y-87945143D01*
X148115668Y-88040192D01*
X148115660Y-88040195D01*
X147728470Y-88166000D01*
X147728440Y-88166011D01*
X147352287Y-88321819D01*
X147352276Y-88321824D01*
X146989529Y-88506652D01*
X146989520Y-88506657D01*
X146989517Y-88506659D01*
X146876180Y-88576112D01*
X146642359Y-88719397D01*
X146312975Y-88958705D01*
X146312973Y-88958707D01*
X146003386Y-89223117D01*
X146003367Y-89223135D01*
X145965020Y-89261482D01*
X145929815Y-89296686D01*
X145929814Y-89296685D01*
X145821665Y-89404833D01*
X145821666Y-89404834D01*
X145412911Y-89813587D01*
X145412797Y-89813711D01*
X145359855Y-89866654D01*
X145359848Y-89866662D01*
X145280035Y-89961778D01*
X145141267Y-90127152D01*
X144946234Y-90405685D01*
X144946229Y-90405694D01*
X144776204Y-90700183D01*
X144632501Y-91008354D01*
X144632491Y-91008377D01*
X144575157Y-91165896D01*
X144530918Y-91229075D01*
X144502793Y-91247691D01*
X144479770Y-91259422D01*
X144479767Y-91259424D01*
X144295066Y-91393618D01*
X144133618Y-91555066D01*
X144121281Y-91572047D01*
X144093676Y-91610043D01*
X144090543Y-91614355D01*
X144030603Y-91662893D01*
X143954424Y-91674958D01*
X143882419Y-91647317D01*
X143849457Y-91614355D01*
X143846324Y-91610043D01*
X143806379Y-91555063D01*
X143644937Y-91393621D01*
X143643841Y-91392825D01*
X143556837Y-91329612D01*
X143460228Y-91259421D01*
X143256799Y-91155769D01*
X143039660Y-91085216D01*
X142814157Y-91049500D01*
X142585843Y-91049500D01*
X142360340Y-91085216D01*
X142301243Y-91104418D01*
X142143201Y-91155769D01*
X142143195Y-91155771D01*
X142143195Y-91155772D01*
X141939773Y-91259420D01*
X141755066Y-91393618D01*
X141593618Y-91555066D01*
X141581281Y-91572047D01*
X141553676Y-91610043D01*
X141550543Y-91614355D01*
X141490603Y-91662893D01*
X141414424Y-91674958D01*
X141342419Y-91647317D01*
X141309457Y-91614355D01*
X141306324Y-91610043D01*
X141266379Y-91555063D01*
X141104937Y-91393621D01*
X141103841Y-91392825D01*
X141016837Y-91329612D01*
X140920228Y-91259421D01*
X140716799Y-91155769D01*
X140499660Y-91085216D01*
X140274157Y-91049500D01*
X140045843Y-91049500D01*
X139820340Y-91085216D01*
X139761243Y-91104418D01*
X139603201Y-91155769D01*
X139603195Y-91155771D01*
X139603195Y-91155772D01*
X139399773Y-91259420D01*
X139215066Y-91393618D01*
X139053618Y-91555066D01*
X139041281Y-91572047D01*
X139013676Y-91610043D01*
X139010543Y-91614355D01*
X138950603Y-91662893D01*
X138874424Y-91674958D01*
X138802419Y-91647317D01*
X138769457Y-91614355D01*
X138766324Y-91610043D01*
X138726379Y-91555063D01*
X138564937Y-91393621D01*
X138563841Y-91392825D01*
X138476837Y-91329612D01*
X138380228Y-91259421D01*
X138176799Y-91155769D01*
X137959660Y-91085216D01*
X137734157Y-91049500D01*
X137505843Y-91049500D01*
X137280340Y-91085216D01*
X137221243Y-91104418D01*
X137063201Y-91155769D01*
X137063195Y-91155771D01*
X137063195Y-91155772D01*
X136859773Y-91259420D01*
X136675066Y-91393618D01*
X136513618Y-91555066D01*
X136501281Y-91572047D01*
X136473676Y-91610043D01*
X136470543Y-91614355D01*
X136410603Y-91662893D01*
X136334424Y-91674958D01*
X136262419Y-91647317D01*
X136229457Y-91614355D01*
X136226324Y-91610043D01*
X136186379Y-91555063D01*
X136024937Y-91393621D01*
X136024936Y-91393620D01*
X136024141Y-91392825D01*
X136014333Y-91375837D01*
X136000464Y-91361969D01*
X135995386Y-91343020D01*
X135985577Y-91326030D01*
X135980500Y-91287469D01*
X135980500Y-91287306D01*
X135980500Y-91104446D01*
X135980496Y-91104427D01*
X135980496Y-91100889D01*
X135980495Y-91100885D01*
X135980494Y-91100884D01*
X135980495Y-91100880D01*
X135951613Y-90918394D01*
X135894534Y-90742674D01*
X135833679Y-90623224D01*
X135810664Y-90578048D01*
X135702076Y-90428580D01*
X135702069Y-90428572D01*
X135699466Y-90425969D01*
X135699464Y-90425965D01*
X135680394Y-90406895D01*
X135680371Y-90406855D01*
X135551311Y-90277796D01*
X135457846Y-90184331D01*
X135457843Y-90184328D01*
X135457825Y-90184311D01*
X135077402Y-89850691D01*
X135077381Y-89850673D01*
X134811761Y-89646856D01*
X134675918Y-89542620D01*
X134319352Y-89304371D01*
X134255164Y-89261482D01*
X134255162Y-89261481D01*
X134178534Y-89217240D01*
X133816920Y-89008462D01*
X133816917Y-89008460D01*
X133816911Y-89008457D01*
X133816908Y-89008455D01*
X133363075Y-88784651D01*
X132895549Y-88590996D01*
X132895546Y-88590995D01*
X132416353Y-88428333D01*
X131927574Y-88297366D01*
X131431252Y-88198643D01*
X131431254Y-88198643D01*
X130929548Y-88132593D01*
X130544537Y-88107360D01*
X130424589Y-88099499D01*
X130424583Y-88099499D01*
X130171569Y-88099500D01*
X121120926Y-88099500D01*
X121120922Y-88099498D01*
X120664424Y-88099498D01*
X120226204Y-88118631D01*
X119875625Y-88133938D01*
X119613441Y-88156876D01*
X119089065Y-88202752D01*
X118306272Y-88305809D01*
X117528716Y-88442913D01*
X116860759Y-88590996D01*
X116757870Y-88613806D01*
X115995217Y-88818158D01*
X115549440Y-88958711D01*
X115242197Y-89055584D01*
X114500268Y-89325624D01*
X113770809Y-89627775D01*
X113055237Y-89961452D01*
X112891810Y-90046527D01*
X112354883Y-90326034D01*
X112354876Y-90326037D01*
X112354876Y-90326038D01*
X111671102Y-90720815D01*
X111005210Y-91145036D01*
X110358429Y-91597916D01*
X109732039Y-92078562D01*
X109127200Y-92586083D01*
X108545088Y-93119491D01*
X108328648Y-93335933D01*
X107476204Y-94188374D01*
X107409409Y-94226938D01*
X107347538Y-94230181D01*
X107248972Y-94214570D01*
X106997048Y-94214570D01*
X106967209Y-94219295D01*
X106898464Y-94230183D01*
X106821759Y-94222120D01*
X106769799Y-94188376D01*
X106744252Y-94162829D01*
X106472803Y-93935052D01*
X106472801Y-93935051D01*
X106472799Y-93935050D01*
X106472796Y-93935047D01*
X106182518Y-93731789D01*
X106182515Y-93731787D01*
X106182511Y-93731784D01*
X105875633Y-93554605D01*
X105554464Y-93404840D01*
X105221479Y-93283641D01*
X105221472Y-93283639D01*
X104879182Y-93191921D01*
X104879179Y-93191920D01*
X104879170Y-93191918D01*
X104879166Y-93191917D01*
X104530214Y-93130388D01*
X104530186Y-93130384D01*
X104177183Y-93099500D01*
X104061720Y-93099500D01*
X104061713Y-93099498D01*
X104000000Y-93099498D01*
X103796046Y-93099498D01*
X103796045Y-93099498D01*
X103389704Y-93135048D01*
X103389672Y-93135052D01*
X102988000Y-93205877D01*
X102987980Y-93205882D01*
X102593972Y-93311457D01*
X102593962Y-93311460D01*
X102210663Y-93450970D01*
X102210658Y-93450972D01*
X101840983Y-93623354D01*
X101487719Y-93827310D01*
X101153583Y-94061276D01*
X101153572Y-94061284D01*
X100987672Y-94200490D01*
X100917770Y-94233086D01*
X100868590Y-94233515D01*
X100796055Y-94222027D01*
X100748972Y-94214570D01*
X100497048Y-94214570D01*
X100289695Y-94247411D01*
X100248224Y-94253980D01*
X100008637Y-94331827D01*
X100008631Y-94331829D01*
X100008625Y-94331831D01*
X100008625Y-94331832D01*
X99784163Y-94446201D01*
X99784162Y-94446201D01*
X99580355Y-94594276D01*
X99580352Y-94594278D01*
X99402218Y-94772412D01*
X99402216Y-94772415D01*
X99254141Y-94976222D01*
X99254141Y-94976223D01*
X99139772Y-95200685D01*
X99139767Y-95200697D01*
X99081619Y-95379659D01*
X99061920Y-95440285D01*
X99022510Y-95689108D01*
X99022510Y-95941032D01*
X99061920Y-96189855D01*
X99139769Y-96429449D01*
X99253893Y-96653431D01*
X99254141Y-96653916D01*
X99254141Y-96653917D01*
X99319009Y-96743200D01*
X99402217Y-96857726D01*
X99580354Y-97035863D01*
X99784165Y-97183940D01*
X100008631Y-97298311D01*
X100248225Y-97376160D01*
X100497048Y-97415570D01*
X100497053Y-97415570D01*
X100748967Y-97415570D01*
X100748972Y-97415570D01*
X100997795Y-97376160D01*
X101237389Y-97298311D01*
X101461855Y-97183940D01*
X101665666Y-97035863D01*
X101843803Y-96857726D01*
X101991880Y-96653915D01*
X102106251Y-96429449D01*
X102184100Y-96189855D01*
X102223510Y-95941032D01*
X102223510Y-95689108D01*
X102213539Y-95626154D01*
X102213879Y-95622910D01*
X102212680Y-95619874D01*
X102217890Y-95584749D01*
X102221600Y-95549449D01*
X102223518Y-95546808D01*
X102223997Y-95543581D01*
X102246073Y-95515764D01*
X102266935Y-95487051D01*
X102271898Y-95483202D01*
X102399489Y-95388574D01*
X102411599Y-95380482D01*
X102640688Y-95243171D01*
X102653551Y-95236297D01*
X102894968Y-95122115D01*
X102908461Y-95116526D01*
X103159918Y-95026552D01*
X103173872Y-95022319D01*
X103432940Y-94957426D01*
X103447273Y-94954575D01*
X103711417Y-94915393D01*
X103725959Y-94913960D01*
X103992161Y-94900883D01*
X104007798Y-94900937D01*
X104244378Y-94914224D01*
X104260954Y-94916092D01*
X104494007Y-94955690D01*
X104510296Y-94959408D01*
X104659476Y-95002386D01*
X104734822Y-95024093D01*
X104737440Y-95024847D01*
X104753207Y-95030364D01*
X104971609Y-95120830D01*
X104986649Y-95128073D01*
X105118049Y-95200697D01*
X105193540Y-95242420D01*
X105207688Y-95251310D01*
X105400476Y-95388103D01*
X105413531Y-95398515D01*
X105484428Y-95461873D01*
X105488724Y-95465712D01*
X105530973Y-95530240D01*
X105536604Y-95600119D01*
X105532481Y-95626154D01*
X105522510Y-95689108D01*
X105522510Y-95941032D01*
X105561920Y-96189855D01*
X105639769Y-96429449D01*
X105753893Y-96653431D01*
X105754141Y-96653916D01*
X105754141Y-96653917D01*
X105819009Y-96743200D01*
X105902217Y-96857726D01*
X106080354Y-97035863D01*
X106284165Y-97183940D01*
X106508631Y-97298311D01*
X106748225Y-97376160D01*
X106997048Y-97415570D01*
X106997053Y-97415570D01*
X107248967Y-97415570D01*
X107248972Y-97415570D01*
X107436720Y-97385833D01*
X107513424Y-97393895D01*
X107554551Y-97417820D01*
X107565189Y-97426551D01*
X107800648Y-97619788D01*
X107800657Y-97619795D01*
X107800661Y-97619798D01*
X108142397Y-97873247D01*
X108365972Y-98039062D01*
X108951167Y-98430078D01*
X108951172Y-98430081D01*
X108951175Y-98430083D01*
X109206559Y-98583155D01*
X109536873Y-98781139D01*
X109554859Y-98791919D01*
X109957245Y-99006999D01*
X110175552Y-99123687D01*
X110175571Y-99123697D01*
X110811807Y-99424616D01*
X110811814Y-99424619D01*
X111443355Y-99686214D01*
X111462056Y-99693960D01*
X112124731Y-99931070D01*
X112798243Y-100135378D01*
X113480968Y-100306393D01*
X114171262Y-100443703D01*
X114867455Y-100546975D01*
X114867451Y-100546975D01*
X115134426Y-100573270D01*
X115567890Y-100615963D01*
X116270860Y-100650499D01*
X116516727Y-100650499D01*
X116516735Y-100650500D01*
X116534080Y-100650500D01*
X116622769Y-100650500D01*
X116711461Y-100650500D01*
X119858175Y-100650500D01*
X119932675Y-100670462D01*
X119963534Y-100694141D01*
X120087635Y-100818242D01*
X120200854Y-100900500D01*
X120265975Y-100947813D01*
X120265976Y-100947814D01*
X120265978Y-100947815D01*
X120462394Y-101047895D01*
X120549512Y-101076201D01*
X120672043Y-101116014D01*
X120672048Y-101116014D01*
X120672049Y-101116015D01*
X120850465Y-101144273D01*
X120882360Y-101158474D01*
X120914931Y-101171038D01*
X120917371Y-101174062D01*
X120920922Y-101175643D01*
X120941441Y-101203885D01*
X120963371Y-101231057D01*
X120963972Y-101234897D01*
X120966257Y-101238041D01*
X120969905Y-101272749D01*
X120975312Y-101307255D01*
X120973913Y-101310880D01*
X120974320Y-101314746D01*
X120960117Y-101346644D01*
X120947554Y-101379215D01*
X120944529Y-101381655D01*
X120942949Y-101385206D01*
X120887535Y-101427655D01*
X120637270Y-101538590D01*
X120630513Y-101541389D01*
X119976926Y-101793505D01*
X119970041Y-101795969D01*
X119304853Y-102015718D01*
X119297854Y-102017841D01*
X118622699Y-102204681D01*
X118615605Y-102206458D01*
X117932076Y-102359949D01*
X117924903Y-102361375D01*
X117234696Y-102481137D01*
X117227462Y-102482210D01*
X116532202Y-102567962D01*
X116524923Y-102568679D01*
X116478475Y-102572105D01*
X116402709Y-102557677D01*
X116346972Y-102511090D01*
X116335796Y-102495708D01*
X116335791Y-102495702D01*
X116157657Y-102317568D01*
X116157656Y-102317567D01*
X115953845Y-102169490D01*
X115729379Y-102055119D01*
X115489785Y-101977270D01*
X115240962Y-101937860D01*
X114989038Y-101937860D01*
X114798926Y-101967970D01*
X114722222Y-101959908D01*
X114688039Y-101941348D01*
X114617003Y-101889737D01*
X114447475Y-101785849D01*
X114301640Y-101696480D01*
X113972088Y-101528563D01*
X113630378Y-101387020D01*
X113630376Y-101387019D01*
X113630368Y-101387016D01*
X113278619Y-101272725D01*
X113278603Y-101272721D01*
X112918972Y-101186380D01*
X112797199Y-101167093D01*
X112553658Y-101128519D01*
X112184933Y-101099500D01*
X112000000Y-101099500D01*
X111911309Y-101099500D01*
X111904001Y-101099500D01*
X111903899Y-101099505D01*
X111789457Y-101099505D01*
X111369669Y-101132542D01*
X111205943Y-101158474D01*
X110953764Y-101198415D01*
X110544307Y-101296716D01*
X110544307Y-101296717D01*
X110143850Y-101426833D01*
X110143828Y-101426841D01*
X109754801Y-101587981D01*
X109754790Y-101587986D01*
X109379628Y-101779140D01*
X109379619Y-101779145D01*
X109379616Y-101779147D01*
X109264810Y-101849500D01*
X109089513Y-101956921D01*
X109015561Y-101978826D01*
X108988353Y-101977043D01*
X108905901Y-101963984D01*
X108740962Y-101937860D01*
X108489038Y-101937860D01*
X108281685Y-101970701D01*
X108240214Y-101977270D01*
X108044561Y-102040842D01*
X108000621Y-102055119D01*
X108000615Y-102055121D01*
X108000615Y-102055122D01*
X107776153Y-102169491D01*
X107776152Y-102169491D01*
X107572345Y-102317566D01*
X107572342Y-102317568D01*
X107394208Y-102495702D01*
X107394206Y-102495705D01*
X107246131Y-102699512D01*
X107246131Y-102699513D01*
X107131762Y-102923975D01*
X107131757Y-102923987D01*
X107060614Y-103142943D01*
X107053910Y-103163575D01*
X107014500Y-103412398D01*
X107014500Y-103664322D01*
X107053910Y-103913145D01*
X107131759Y-104152739D01*
X107245493Y-104375955D01*
X107246131Y-104377206D01*
X107246131Y-104377207D01*
X107297430Y-104447814D01*
X107389670Y-104574772D01*
X107394206Y-104581014D01*
X107394208Y-104581017D01*
X107408332Y-104595141D01*
X107446896Y-104661936D01*
X107446896Y-104739064D01*
X107408332Y-104805859D01*
X107341537Y-104844423D01*
X107302973Y-104849500D01*
X104305591Y-104849500D01*
X104300274Y-104849405D01*
X104287291Y-104848941D01*
X103848760Y-104833281D01*
X103838151Y-104832522D01*
X103391598Y-104784515D01*
X103381071Y-104783002D01*
X102939057Y-104703257D01*
X102928663Y-104700996D01*
X102493471Y-104589922D01*
X102483275Y-104586928D01*
X102255943Y-104511266D01*
X102057119Y-104445092D01*
X102047159Y-104441378D01*
X101632179Y-104269491D01*
X101622531Y-104265084D01*
X101520741Y-104214132D01*
X101220889Y-104064038D01*
X101211582Y-104058957D01*
X100825286Y-103829761D01*
X100816346Y-103824015D01*
X100776322Y-103796226D01*
X100726511Y-103737340D01*
X100712300Y-103673834D01*
X100712300Y-103473802D01*
X100712300Y-103473798D01*
X100672890Y-103224975D01*
X100595041Y-102985381D01*
X100480670Y-102760915D01*
X100332593Y-102557104D01*
X100154456Y-102378967D01*
X99950645Y-102230890D01*
X99726179Y-102116519D01*
X99486585Y-102038670D01*
X99237762Y-101999260D01*
X98985838Y-101999260D01*
X98933451Y-102007557D01*
X98828392Y-102024196D01*
X98751687Y-102016133D01*
X98719622Y-101999084D01*
X98447525Y-101808560D01*
X98268450Y-101705171D01*
X98103372Y-101609863D01*
X98077902Y-101597986D01*
X97743220Y-101441921D01*
X97743215Y-101441919D01*
X97369801Y-101306006D01*
X97369796Y-101306004D01*
X97369792Y-101306003D01*
X97172819Y-101253224D01*
X96985938Y-101203149D01*
X96985928Y-101203147D01*
X96594590Y-101134143D01*
X96594593Y-101134143D01*
X96253585Y-101104307D01*
X96198716Y-101099507D01*
X96198714Y-101099507D01*
X96096121Y-101099507D01*
X96091951Y-101099449D01*
X96091701Y-101099442D01*
X96091251Y-101099307D01*
X95995718Y-101099507D01*
X95794978Y-101099507D01*
X95386197Y-101131679D01*
X95306687Y-101144272D01*
X94981198Y-101195823D01*
X94981196Y-101195824D01*
X94582476Y-101291547D01*
X94582476Y-101291548D01*
X94192520Y-101418252D01*
X94192498Y-101418260D01*
X93813676Y-101575173D01*
X93448337Y-101761321D01*
X93448328Y-101761326D01*
X93448325Y-101761328D01*
X93391796Y-101795969D01*
X93098701Y-101975575D01*
X93057264Y-102005681D01*
X92985258Y-102033320D01*
X92946379Y-102032302D01*
X92737762Y-101999260D01*
X92485838Y-101999260D01*
X92278485Y-102032101D01*
X92237014Y-102038670D01*
X91997427Y-102116517D01*
X91997421Y-102116519D01*
X91997415Y-102116521D01*
X91997415Y-102116522D01*
X91772953Y-102230891D01*
X91772952Y-102230891D01*
X91569145Y-102378966D01*
X91569142Y-102378968D01*
X91391008Y-102557102D01*
X91391006Y-102557105D01*
X91242931Y-102760912D01*
X91242931Y-102760913D01*
X91128562Y-102985375D01*
X91128557Y-102985387D01*
X91050710Y-103224974D01*
X91050332Y-103227363D01*
X91011300Y-103473798D01*
X91011300Y-103725722D01*
X91050710Y-103974545D01*
X91128559Y-104214139D01*
X91240435Y-104433709D01*
X91242931Y-104438606D01*
X91242931Y-104438607D01*
X91280868Y-104490822D01*
X91391007Y-104642416D01*
X91569144Y-104820553D01*
X91772955Y-104968630D01*
X91997421Y-105083001D01*
X92237015Y-105160850D01*
X92485838Y-105200260D01*
X92485843Y-105200260D01*
X92737757Y-105200260D01*
X92737762Y-105200260D01*
X92986585Y-105160850D01*
X93226179Y-105083001D01*
X93450645Y-104968630D01*
X93654456Y-104820553D01*
X93832593Y-104642416D01*
X93980670Y-104438605D01*
X94095041Y-104214139D01*
X94172890Y-103974545D01*
X94212300Y-103725722D01*
X94212300Y-103494409D01*
X94221979Y-103458283D01*
X94231061Y-103422030D01*
X94231935Y-103421125D01*
X94232262Y-103419909D01*
X94284696Y-103366609D01*
X94382891Y-103307754D01*
X94395753Y-103300879D01*
X94685701Y-103163745D01*
X94699181Y-103158161D01*
X95001174Y-103050107D01*
X95015120Y-103045877D01*
X95326250Y-102967943D01*
X95340584Y-102965092D01*
X95657814Y-102918036D01*
X95672360Y-102916604D01*
X95979587Y-102901509D01*
X95992712Y-102900865D01*
X96007316Y-102900865D01*
X96262244Y-102913390D01*
X96276773Y-102914820D01*
X96529245Y-102952273D01*
X96543575Y-102955123D01*
X96791172Y-103017143D01*
X96805137Y-103021379D01*
X97026917Y-103100734D01*
X97045452Y-103107366D01*
X97058960Y-103112961D01*
X97289678Y-103222083D01*
X97302557Y-103228967D01*
X97442312Y-103312732D01*
X97495950Y-103368155D01*
X97514691Y-103442972D01*
X97512878Y-103463831D01*
X97511300Y-103473798D01*
X97511300Y-103725722D01*
X97550710Y-103974545D01*
X97628559Y-104214139D01*
X97740435Y-104433709D01*
X97742931Y-104438606D01*
X97742931Y-104438607D01*
X97780868Y-104490822D01*
X97891007Y-104642416D01*
X98069144Y-104820553D01*
X98272955Y-104968630D01*
X98497421Y-105083001D01*
X98737015Y-105160850D01*
X98985838Y-105200260D01*
X98985843Y-105200260D01*
X99237757Y-105200260D01*
X99237762Y-105200260D01*
X99486585Y-105160850D01*
X99486595Y-105160846D01*
X99487006Y-105160748D01*
X99487196Y-105160752D01*
X99492367Y-105159934D01*
X99492518Y-105160891D01*
X99564108Y-105162757D01*
X99604585Y-105181736D01*
X99948326Y-105411413D01*
X99948336Y-105411419D01*
X99948338Y-105411420D01*
X100415653Y-105681221D01*
X100415663Y-105681226D01*
X100899611Y-105919880D01*
X100899627Y-105919887D01*
X100899630Y-105919889D01*
X101398178Y-106126391D01*
X101909164Y-106299845D01*
X102430401Y-106439507D01*
X102430408Y-106439508D01*
X102430417Y-106439511D01*
X102959651Y-106544778D01*
X102959655Y-106544779D01*
X103494660Y-106615211D01*
X103579935Y-106620799D01*
X104033132Y-106650501D01*
X104302944Y-106650500D01*
X107597707Y-106650500D01*
X107672207Y-106670462D01*
X107726745Y-106725000D01*
X107746707Y-106799500D01*
X107746248Y-106811190D01*
X107745893Y-106815699D01*
X108444766Y-107514572D01*
X108402708Y-107525842D01*
X108277292Y-107598250D01*
X108174890Y-107700652D01*
X108102482Y-107826068D01*
X108091212Y-107868126D01*
X107392339Y-107169253D01*
X107332089Y-107252183D01*
X107332086Y-107252188D01*
X107224898Y-107462554D01*
X107224894Y-107462566D01*
X107151934Y-107687109D01*
X107115000Y-107920310D01*
X107115000Y-108156409D01*
X107151934Y-108389610D01*
X107224894Y-108614153D01*
X107224898Y-108614165D01*
X107332086Y-108824531D01*
X107332090Y-108824538D01*
X107392340Y-108907465D01*
X108091212Y-108208593D01*
X108102482Y-108250652D01*
X108174890Y-108376068D01*
X108277292Y-108478470D01*
X108402708Y-108550878D01*
X108444765Y-108562147D01*
X107745893Y-109261018D01*
X107828828Y-109321273D01*
X108039194Y-109428461D01*
X108039206Y-109428465D01*
X108263749Y-109501425D01*
X108496951Y-109538360D01*
X108733049Y-109538360D01*
X108966250Y-109501425D01*
X109190793Y-109428465D01*
X109190810Y-109428458D01*
X109401167Y-109321276D01*
X109401172Y-109321273D01*
X109484105Y-109261019D01*
X109484105Y-109261018D01*
X108785234Y-108562147D01*
X108827292Y-108550878D01*
X108952708Y-108478470D01*
X109055110Y-108376068D01*
X109127518Y-108250652D01*
X109138787Y-108208594D01*
X109837658Y-108907465D01*
X109837659Y-108907465D01*
X109897913Y-108824532D01*
X109897916Y-108824527D01*
X110005098Y-108614170D01*
X110005105Y-108614153D01*
X110078065Y-108389610D01*
X110115000Y-108156409D01*
X110115000Y-107920310D01*
X110078065Y-107687109D01*
X110005105Y-107462566D01*
X110005101Y-107462554D01*
X109897913Y-107252188D01*
X109897913Y-107252187D01*
X109837658Y-107169253D01*
X109138787Y-107868124D01*
X109127518Y-107826068D01*
X109055110Y-107700652D01*
X108952708Y-107598250D01*
X108827292Y-107525842D01*
X108785233Y-107514572D01*
X109484105Y-106815700D01*
X109483751Y-106811190D01*
X109497807Y-106735353D01*
X109547898Y-106676705D01*
X109620602Y-106650959D01*
X109632292Y-106650500D01*
X114097707Y-106650500D01*
X114172207Y-106670462D01*
X114226745Y-106725000D01*
X114246707Y-106799500D01*
X114246248Y-106811190D01*
X114245893Y-106815699D01*
X114944766Y-107514572D01*
X114902708Y-107525842D01*
X114777292Y-107598250D01*
X114674890Y-107700652D01*
X114602482Y-107826068D01*
X114591212Y-107868126D01*
X113892339Y-107169253D01*
X113832089Y-107252183D01*
X113832086Y-107252188D01*
X113724898Y-107462554D01*
X113724894Y-107462566D01*
X113651934Y-107687109D01*
X113615000Y-107920310D01*
X113615000Y-108156409D01*
X113651934Y-108389610D01*
X113724894Y-108614153D01*
X113724898Y-108614165D01*
X113832086Y-108824531D01*
X113832090Y-108824538D01*
X113892340Y-108907465D01*
X114591212Y-108208593D01*
X114602482Y-108250652D01*
X114674890Y-108376068D01*
X114777292Y-108478470D01*
X114902708Y-108550878D01*
X114944765Y-108562147D01*
X114245893Y-109261018D01*
X114328828Y-109321273D01*
X114539194Y-109428461D01*
X114539206Y-109428465D01*
X114763749Y-109501425D01*
X114996951Y-109538360D01*
X115233049Y-109538360D01*
X115466250Y-109501425D01*
X115690793Y-109428465D01*
X115690810Y-109428458D01*
X115901167Y-109321276D01*
X115901172Y-109321273D01*
X115984105Y-109261019D01*
X115984105Y-109261018D01*
X115285234Y-108562147D01*
X115327292Y-108550878D01*
X115452708Y-108478470D01*
X115555110Y-108376068D01*
X115627518Y-108250652D01*
X115638787Y-108208594D01*
X116337658Y-108907465D01*
X116337659Y-108907465D01*
X116397913Y-108824532D01*
X116397916Y-108824527D01*
X116505098Y-108614170D01*
X116505105Y-108614153D01*
X116578065Y-108389610D01*
X116615000Y-108156409D01*
X116615000Y-107920310D01*
X116578065Y-107687109D01*
X116505105Y-107462566D01*
X116505101Y-107462554D01*
X116474496Y-107402488D01*
X128699500Y-107402488D01*
X128699500Y-107697511D01*
X128738004Y-107989977D01*
X128738007Y-107989994D01*
X128814359Y-108274948D01*
X128814359Y-108274949D01*
X128863343Y-108393205D01*
X128925165Y-108542457D01*
X128927259Y-108547511D01*
X128956516Y-108598186D01*
X129068883Y-108792812D01*
X129074764Y-108802997D01*
X129074764Y-108802998D01*
X129216114Y-108987207D01*
X129254354Y-109037042D01*
X129462958Y-109245646D01*
X129593661Y-109345938D01*
X129689306Y-109419330D01*
X129697006Y-109425238D01*
X129952493Y-109572743D01*
X130153713Y-109656091D01*
X130225050Y-109685640D01*
X130367527Y-109723816D01*
X130510007Y-109761993D01*
X130510021Y-109761994D01*
X130510022Y-109761995D01*
X130522145Y-109763591D01*
X130802489Y-109800499D01*
X130802492Y-109800500D01*
X130802494Y-109800500D01*
X131097508Y-109800500D01*
X131097509Y-109800499D01*
X131389993Y-109761993D01*
X131674948Y-109685640D01*
X131674949Y-109685640D01*
X131674950Y-109685639D01*
X131674952Y-109685639D01*
X131947507Y-109572743D01*
X132202994Y-109425238D01*
X132437042Y-109245646D01*
X132645646Y-109037042D01*
X132825238Y-108802994D01*
X132972743Y-108547507D01*
X133085639Y-108274952D01*
X133161993Y-107989993D01*
X133200500Y-107697506D01*
X133200500Y-107402494D01*
X133161993Y-107110007D01*
X133086810Y-106829419D01*
X133085640Y-106825051D01*
X133085640Y-106825050D01*
X133060483Y-106764316D01*
X132972743Y-106552493D01*
X132825238Y-106297006D01*
X132825235Y-106297002D01*
X132825235Y-106297001D01*
X132645645Y-106062957D01*
X132437042Y-105854354D01*
X132202997Y-105674764D01*
X132193694Y-105669393D01*
X132023553Y-105571162D01*
X131947511Y-105527259D01*
X131947509Y-105527258D01*
X131947507Y-105527257D01*
X131859106Y-105490640D01*
X131674949Y-105414359D01*
X131389994Y-105338007D01*
X131389977Y-105338004D01*
X131097511Y-105299500D01*
X131097506Y-105299500D01*
X130802494Y-105299500D01*
X130802488Y-105299500D01*
X130510022Y-105338004D01*
X130510005Y-105338007D01*
X130225051Y-105414359D01*
X130225050Y-105414359D01*
X129952488Y-105527259D01*
X129697002Y-105674764D01*
X129697001Y-105674764D01*
X129462957Y-105854354D01*
X129254354Y-106062957D01*
X129074764Y-106297001D01*
X129074764Y-106297002D01*
X128927259Y-106552488D01*
X128814359Y-106825050D01*
X128814359Y-106825051D01*
X128738007Y-107110005D01*
X128738004Y-107110022D01*
X128699500Y-107402488D01*
X116474496Y-107402488D01*
X116397913Y-107252188D01*
X116397913Y-107252187D01*
X116337658Y-107169253D01*
X115638787Y-107868124D01*
X115627518Y-107826068D01*
X115555110Y-107700652D01*
X115452708Y-107598250D01*
X115327292Y-107525842D01*
X115285233Y-107514572D01*
X115984105Y-106815700D01*
X115983751Y-106811190D01*
X115997807Y-106735353D01*
X116047898Y-106676705D01*
X116120602Y-106650959D01*
X116132292Y-106650500D01*
X119810566Y-106650500D01*
X119810860Y-106650485D01*
X119999589Y-106650486D01*
X120568803Y-106616057D01*
X121134899Y-106547323D01*
X121444168Y-106490648D01*
X121695809Y-106444534D01*
X121695810Y-106444533D01*
X121695812Y-106444533D01*
X122249496Y-106308064D01*
X122793929Y-106138413D01*
X123327126Y-105936200D01*
X123847141Y-105702161D01*
X124352076Y-105437152D01*
X124840088Y-105142139D01*
X125309398Y-104818198D01*
X125491920Y-104675200D01*
X125562872Y-104644970D01*
X125607118Y-104645327D01*
X125639778Y-104650500D01*
X125860218Y-104650500D01*
X125860222Y-104650500D01*
X126077951Y-104616015D01*
X126077952Y-104616014D01*
X126077956Y-104616014D01*
X126167482Y-104586925D01*
X126287606Y-104547895D01*
X126484022Y-104447815D01*
X126662365Y-104318242D01*
X126818242Y-104162365D01*
X126947815Y-103984022D01*
X127047895Y-103787606D01*
X127101197Y-103623557D01*
X127116014Y-103577956D01*
X127118013Y-103565337D01*
X127150500Y-103360222D01*
X127150500Y-103139778D01*
X127116015Y-102922049D01*
X127116014Y-102922048D01*
X127116014Y-102922043D01*
X127063660Y-102760915D01*
X127047895Y-102712394D01*
X126947815Y-102515978D01*
X126941708Y-102507573D01*
X126917903Y-102474807D01*
X126818242Y-102337635D01*
X126662365Y-102181758D01*
X126547165Y-102098061D01*
X126484024Y-102052186D01*
X126484023Y-102052185D01*
X126287606Y-101952105D01*
X126077956Y-101883985D01*
X125956990Y-101864826D01*
X125860222Y-101849500D01*
X125639778Y-101849500D01*
X125552686Y-101863294D01*
X125422043Y-101883985D01*
X125212393Y-101952105D01*
X125015976Y-102052185D01*
X125015975Y-102052186D01*
X124837636Y-102181757D01*
X124837633Y-102181759D01*
X124681759Y-102337633D01*
X124681757Y-102337636D01*
X124552186Y-102515975D01*
X124552185Y-102515976D01*
X124452105Y-102712393D01*
X124383985Y-102922043D01*
X124363134Y-103053697D01*
X124350167Y-103135571D01*
X124349500Y-103139781D01*
X124349500Y-103204438D01*
X124329538Y-103278938D01*
X124287289Y-103325552D01*
X123960229Y-103559920D01*
X123952122Y-103565337D01*
X123536124Y-103824021D01*
X123527680Y-103828896D01*
X123095663Y-104059813D01*
X123086918Y-104064126D01*
X122640708Y-104266300D01*
X122631700Y-104270031D01*
X122173232Y-104442585D01*
X122163999Y-104445719D01*
X121695234Y-104587915D01*
X121685816Y-104590439D01*
X121208736Y-104701677D01*
X121199173Y-104703579D01*
X120715857Y-104783374D01*
X120706190Y-104784647D01*
X120218668Y-104832662D01*
X120208939Y-104833299D01*
X119716442Y-104849420D01*
X119711567Y-104849500D01*
X116427027Y-104849500D01*
X116417706Y-104847002D01*
X116408145Y-104848299D01*
X116380930Y-104837148D01*
X116352527Y-104829538D01*
X116345704Y-104822715D01*
X116336775Y-104819057D01*
X116318783Y-104795794D01*
X116297989Y-104775000D01*
X116295491Y-104765678D01*
X116289589Y-104758047D01*
X116285638Y-104728907D01*
X116278027Y-104700500D01*
X116280524Y-104691179D01*
X116279228Y-104681618D01*
X116287726Y-104664301D01*
X116297989Y-104626000D01*
X116308470Y-104610248D01*
X116314556Y-104602252D01*
X116335793Y-104581016D01*
X116441891Y-104434982D01*
X116442861Y-104433709D01*
X116472095Y-104411098D01*
X116500813Y-104387843D01*
X116502853Y-104387309D01*
X116503871Y-104386523D01*
X116508011Y-104385961D01*
X116547669Y-104375597D01*
X116685313Y-104362843D01*
X116984999Y-104335074D01*
X116985023Y-104335071D01*
X116985046Y-104335069D01*
X117727475Y-104231505D01*
X118464329Y-104093763D01*
X119194035Y-103922138D01*
X119915037Y-103716995D01*
X120625795Y-103478774D01*
X121034115Y-103320590D01*
X121324762Y-103207993D01*
X121324773Y-103207988D01*
X121324792Y-103207981D01*
X122010538Y-102905195D01*
X122681568Y-102571062D01*
X123336451Y-102206295D01*
X123912695Y-101849500D01*
X123973765Y-101811687D01*
X123973766Y-101811686D01*
X123973789Y-101811672D01*
X124592222Y-101388036D01*
X125190430Y-100936291D01*
X125767136Y-100457401D01*
X126321111Y-99952387D01*
X126514934Y-99758564D01*
X126514941Y-99758558D01*
X126523426Y-99750073D01*
X126523428Y-99750072D01*
X126829358Y-99444140D01*
X126896153Y-99405577D01*
X126934717Y-99400500D01*
X127110218Y-99400500D01*
X127110222Y-99400500D01*
X127327951Y-99366015D01*
X127327952Y-99366014D01*
X127327956Y-99366014D01*
X127408556Y-99339825D01*
X127537606Y-99297895D01*
X127734022Y-99197815D01*
X127912365Y-99068242D01*
X128068242Y-98912365D01*
X128197815Y-98734022D01*
X128297895Y-98537606D01*
X128352805Y-98368608D01*
X128366014Y-98327956D01*
X128371139Y-98295600D01*
X128400500Y-98110222D01*
X128400500Y-97889778D01*
X128366015Y-97672049D01*
X128366014Y-97672048D01*
X128366014Y-97672043D01*
X128314229Y-97512666D01*
X128297895Y-97462394D01*
X128197815Y-97265978D01*
X128195409Y-97262667D01*
X128142452Y-97189777D01*
X128068242Y-97087635D01*
X127912365Y-96931758D01*
X127823193Y-96866971D01*
X127734024Y-96802186D01*
X127734023Y-96802185D01*
X127537606Y-96702105D01*
X127327956Y-96633985D01*
X127206990Y-96614826D01*
X127110222Y-96599500D01*
X126889778Y-96599500D01*
X126802686Y-96613294D01*
X126672043Y-96633985D01*
X126462393Y-96702105D01*
X126265976Y-96802185D01*
X126265975Y-96802186D01*
X126087636Y-96931757D01*
X126087633Y-96931759D01*
X125931759Y-97087633D01*
X125931757Y-97087636D01*
X125802186Y-97265975D01*
X125802185Y-97265976D01*
X125702105Y-97462393D01*
X125633985Y-97672043D01*
X125612163Y-97809826D01*
X125602119Y-97873247D01*
X125599500Y-97889781D01*
X125599500Y-98065281D01*
X125579538Y-98139781D01*
X125555859Y-98170640D01*
X125313904Y-98412594D01*
X125311286Y-98415148D01*
X124802637Y-98899421D01*
X124797219Y-98904332D01*
X124266762Y-99361907D01*
X124261108Y-99366547D01*
X123708840Y-99797541D01*
X123702966Y-99801897D01*
X123130232Y-100205261D01*
X123124152Y-100209324D01*
X122532298Y-100584111D01*
X122526024Y-100587871D01*
X122421436Y-100647119D01*
X122346776Y-100666471D01*
X122272441Y-100645900D01*
X122218352Y-100590917D01*
X122199000Y-100516257D01*
X122215235Y-100449833D01*
X122276248Y-100330090D01*
X122297894Y-100287609D01*
X122366014Y-100077956D01*
X122366052Y-100077718D01*
X122400500Y-99860222D01*
X122400500Y-99639778D01*
X122366015Y-99422049D01*
X122366014Y-99422048D01*
X122366014Y-99422043D01*
X122322528Y-99288207D01*
X122297895Y-99212394D01*
X122197815Y-99015978D01*
X122197569Y-99015640D01*
X122155899Y-98958285D01*
X122068242Y-98837635D01*
X121912365Y-98681758D01*
X121792158Y-98594423D01*
X121734024Y-98552186D01*
X121734023Y-98552185D01*
X121537606Y-98452105D01*
X121327956Y-98383985D01*
X121206990Y-98364826D01*
X121110222Y-98349500D01*
X120889778Y-98349500D01*
X120802686Y-98363294D01*
X120672043Y-98383985D01*
X120462393Y-98452105D01*
X120265976Y-98552185D01*
X120265975Y-98552186D01*
X120087636Y-98681757D01*
X120087633Y-98681759D01*
X119963534Y-98805859D01*
X119896739Y-98844423D01*
X119858175Y-98849500D01*
X116624727Y-98849500D01*
X116620826Y-98849449D01*
X115970690Y-98832423D01*
X115962900Y-98832015D01*
X115316472Y-98781139D01*
X115308714Y-98780323D01*
X114665866Y-98695688D01*
X114658162Y-98694468D01*
X114020607Y-98576304D01*
X114012976Y-98574682D01*
X113382483Y-98423312D01*
X113374949Y-98421293D01*
X112753234Y-98237132D01*
X112745815Y-98234721D01*
X112134608Y-98018280D01*
X112127325Y-98015485D01*
X111528255Y-97767340D01*
X111521146Y-97764175D01*
X110935898Y-97485025D01*
X110928967Y-97481494D01*
X110622968Y-97315350D01*
X110359108Y-97172085D01*
X110352353Y-97168184D01*
X109799504Y-96829397D01*
X109792961Y-96825149D01*
X109759550Y-96802186D01*
X109258567Y-96457869D01*
X109252263Y-96453288D01*
X109250094Y-96451624D01*
X108894368Y-96178664D01*
X108778792Y-96089979D01*
X108731840Y-96028789D01*
X108721773Y-95952321D01*
X108722319Y-95948549D01*
X108723510Y-95941032D01*
X108723510Y-95689108D01*
X108707898Y-95590539D01*
X108715961Y-95513835D01*
X108749703Y-95461875D01*
X109476716Y-94734862D01*
X109476719Y-94734861D01*
X109538247Y-94673331D01*
X109540637Y-94670996D01*
X110081256Y-94154794D01*
X110086337Y-94150162D01*
X110100779Y-94137595D01*
X110648901Y-93660625D01*
X110654162Y-93656255D01*
X111238742Y-93193215D01*
X111244228Y-93189073D01*
X111675587Y-92878706D01*
X118149500Y-92878706D01*
X118149500Y-93121293D01*
X118181160Y-93361781D01*
X118181161Y-93361787D01*
X118181162Y-93361789D01*
X118232827Y-93554605D01*
X118243947Y-93596103D01*
X118269742Y-93658377D01*
X118328696Y-93800706D01*
X118336778Y-93820216D01*
X118402349Y-93933788D01*
X118458064Y-94030289D01*
X118605735Y-94222738D01*
X118777262Y-94394265D01*
X118969711Y-94541936D01*
X119179788Y-94663224D01*
X119403900Y-94756054D01*
X119638211Y-94818838D01*
X119638217Y-94818838D01*
X119638218Y-94818839D01*
X119703600Y-94827446D01*
X119878712Y-94850500D01*
X120121288Y-94850500D01*
X120361789Y-94818838D01*
X120596100Y-94756054D01*
X120820212Y-94663224D01*
X121030289Y-94541936D01*
X121222738Y-94394265D01*
X121394265Y-94222738D01*
X121541936Y-94030289D01*
X121663224Y-93820212D01*
X121756054Y-93596100D01*
X121818838Y-93361789D01*
X121850500Y-93121288D01*
X121850500Y-92878712D01*
X121818838Y-92638211D01*
X121756054Y-92403900D01*
X121663224Y-92179788D01*
X121541936Y-91969711D01*
X121394265Y-91777262D01*
X121222738Y-91605735D01*
X121030289Y-91458064D01*
X120920328Y-91394578D01*
X120820216Y-91336778D01*
X120820214Y-91336777D01*
X120820212Y-91336776D01*
X120688932Y-91282398D01*
X120596103Y-91243947D01*
X120596101Y-91243946D01*
X120596100Y-91243946D01*
X120361789Y-91181162D01*
X120361787Y-91181161D01*
X120361781Y-91181160D01*
X120121293Y-91149500D01*
X120121288Y-91149500D01*
X119878712Y-91149500D01*
X119878706Y-91149500D01*
X119638218Y-91181160D01*
X119403896Y-91243947D01*
X119179783Y-91336778D01*
X118969712Y-91458063D01*
X118939709Y-91481085D01*
X118777262Y-91605735D01*
X118777260Y-91605736D01*
X118777256Y-91605740D01*
X118605740Y-91777256D01*
X118458063Y-91969712D01*
X118336778Y-92179783D01*
X118243947Y-92403896D01*
X118181160Y-92638218D01*
X118149500Y-92878706D01*
X111675587Y-92878706D01*
X111849564Y-92753528D01*
X111855151Y-92749699D01*
X111856215Y-92749006D01*
X111856220Y-92749005D01*
X111856224Y-92749001D01*
X112480010Y-92342543D01*
X112485824Y-92338943D01*
X113128792Y-91961094D01*
X113134733Y-91957784D01*
X113794485Y-91610023D01*
X113800585Y-91606986D01*
X114475667Y-91290078D01*
X114481913Y-91287320D01*
X115170905Y-91001930D01*
X115177273Y-90999462D01*
X115878738Y-90746188D01*
X115885189Y-90744026D01*
X116597560Y-90523429D01*
X116604159Y-90521551D01*
X117325959Y-90334091D01*
X117332632Y-90332522D01*
X118062317Y-90178597D01*
X118069068Y-90177336D01*
X118805069Y-90057276D01*
X118811841Y-90056331D01*
X119552629Y-89970388D01*
X119559438Y-89969758D01*
X120303401Y-89918118D01*
X120310225Y-89917803D01*
X121019055Y-89901426D01*
X121057434Y-89900540D01*
X121060875Y-89900500D01*
X121147898Y-89900500D01*
X130082885Y-89900500D01*
X130168919Y-89900500D01*
X130174237Y-89900595D01*
X130589160Y-89915412D01*
X130599759Y-89916170D01*
X131009910Y-89960265D01*
X131020435Y-89961777D01*
X131426428Y-90035025D01*
X131436794Y-90037280D01*
X131836535Y-90139307D01*
X131846700Y-90142292D01*
X132238147Y-90272577D01*
X132248071Y-90276278D01*
X132629212Y-90434151D01*
X132638878Y-90438565D01*
X133007800Y-90623233D01*
X133017099Y-90628312D01*
X133371884Y-90838815D01*
X133380818Y-90844556D01*
X133415855Y-90868883D01*
X133429862Y-90878608D01*
X133479673Y-90937495D01*
X133493367Y-91013397D01*
X133467276Y-91085978D01*
X133408389Y-91135789D01*
X133344884Y-91150000D01*
X132790000Y-91150000D01*
X132790000Y-92066988D01*
X132732993Y-92034075D01*
X132605826Y-92000000D01*
X132474174Y-92000000D01*
X132347007Y-92034075D01*
X132290000Y-92066988D01*
X132290000Y-91150000D01*
X131642177Y-91150000D01*
X131642157Y-91150001D01*
X131582622Y-91156401D01*
X131447915Y-91206645D01*
X131447905Y-91206650D01*
X131332812Y-91292809D01*
X131332809Y-91292812D01*
X131246650Y-91407905D01*
X131246645Y-91407915D01*
X131196401Y-91542622D01*
X131190001Y-91602157D01*
X131190000Y-91602177D01*
X131190000Y-92250000D01*
X132106988Y-92250000D01*
X132074075Y-92307007D01*
X132040000Y-92434174D01*
X132040000Y-92565826D01*
X132074075Y-92692993D01*
X132106988Y-92750000D01*
X131190000Y-92750000D01*
X131190000Y-93397822D01*
X131190001Y-93397842D01*
X131196401Y-93457377D01*
X131246645Y-93592084D01*
X131246650Y-93592094D01*
X131332809Y-93707187D01*
X131332812Y-93707190D01*
X131447905Y-93793349D01*
X131457260Y-93798457D01*
X131455596Y-93801504D01*
X131502832Y-93835129D01*
X131534884Y-93905282D01*
X131527565Y-93982062D01*
X131493311Y-94035373D01*
X131433618Y-94095066D01*
X131299420Y-94279773D01*
X131272895Y-94331832D01*
X131195769Y-94483201D01*
X131125216Y-94700340D01*
X131089500Y-94925843D01*
X131089500Y-95154157D01*
X131125216Y-95379660D01*
X131195769Y-95596799D01*
X131299311Y-95800013D01*
X131299422Y-95800229D01*
X131311043Y-95816224D01*
X131338684Y-95888229D01*
X131339500Y-95903805D01*
X131339500Y-97945519D01*
X131339500Y-98134481D01*
X131369060Y-98321118D01*
X131427453Y-98500832D01*
X131427457Y-98500841D01*
X131427458Y-98500842D01*
X131465908Y-98576304D01*
X131513240Y-98669199D01*
X131624310Y-98822074D01*
X133684310Y-100882073D01*
X133817927Y-101015690D01*
X133970801Y-101126760D01*
X134139168Y-101212547D01*
X134318882Y-101270940D01*
X134505519Y-101300500D01*
X143791018Y-101300500D01*
X143865518Y-101320462D01*
X143896377Y-101344141D01*
X147295859Y-104743622D01*
X147334423Y-104810417D01*
X147339500Y-104848981D01*
X147339500Y-108594192D01*
X147319538Y-108668692D01*
X147265000Y-108723230D01*
X147190500Y-108743192D01*
X147116000Y-108723230D01*
X147101207Y-108713472D01*
X147092095Y-108706650D01*
X147092084Y-108706645D01*
X146957376Y-108656401D01*
X146957378Y-108656401D01*
X146897842Y-108650001D01*
X146897823Y-108650000D01*
X146250000Y-108650000D01*
X146250000Y-109566988D01*
X146192993Y-109534075D01*
X146065826Y-109500000D01*
X145934174Y-109500000D01*
X145807007Y-109534075D01*
X145750000Y-109566988D01*
X145750000Y-108650000D01*
X145102177Y-108650000D01*
X145102157Y-108650001D01*
X145042622Y-108656401D01*
X144907915Y-108706645D01*
X144907905Y-108706650D01*
X144792812Y-108792809D01*
X144792809Y-108792812D01*
X144706650Y-108907905D01*
X144706645Y-108907915D01*
X144656401Y-109042622D01*
X144650001Y-109102157D01*
X144650000Y-109102177D01*
X144650000Y-109750000D01*
X145566988Y-109750000D01*
X145534075Y-109807007D01*
X145500000Y-109934174D01*
X145500000Y-110065826D01*
X145534075Y-110192993D01*
X145566988Y-110250000D01*
X144650000Y-110250000D01*
X144650000Y-110897822D01*
X144650001Y-110897842D01*
X144656401Y-110957377D01*
X144706645Y-111092084D01*
X144706650Y-111092094D01*
X144792809Y-111207187D01*
X144792812Y-111207190D01*
X144907905Y-111293349D01*
X144907915Y-111293354D01*
X145042623Y-111343598D01*
X145042621Y-111343598D01*
X145102157Y-111349998D01*
X145102177Y-111350000D01*
X145750000Y-111350000D01*
X145750000Y-110433012D01*
X145807007Y-110465925D01*
X145934174Y-110500000D01*
X146065826Y-110500000D01*
X146192993Y-110465925D01*
X146250000Y-110433012D01*
X146250000Y-111350000D01*
X146897823Y-111350000D01*
X146897842Y-111349998D01*
X146957377Y-111343598D01*
X147092084Y-111293354D01*
X147092092Y-111293350D01*
X147101203Y-111286530D01*
X147172805Y-111257861D01*
X147249148Y-111268835D01*
X147309777Y-111316510D01*
X147338446Y-111388112D01*
X147339500Y-111405807D01*
X147339500Y-112141018D01*
X147319538Y-112215518D01*
X147295859Y-112246377D01*
X146817084Y-112725152D01*
X146750289Y-112763716D01*
X146711725Y-112768793D01*
X143485476Y-112768793D01*
X143417831Y-112752553D01*
X143258557Y-112671398D01*
X143048907Y-112603278D01*
X142927941Y-112584119D01*
X142831173Y-112568793D01*
X142610729Y-112568793D01*
X142523637Y-112582587D01*
X142392994Y-112603278D01*
X142183344Y-112671398D01*
X141986927Y-112771478D01*
X141986926Y-112771479D01*
X141808587Y-112901050D01*
X141808584Y-112901052D01*
X141652710Y-113056926D01*
X141652708Y-113056929D01*
X141523137Y-113235268D01*
X141523136Y-113235269D01*
X141423056Y-113431686D01*
X141354936Y-113641336D01*
X141334793Y-113768517D01*
X141320451Y-113859071D01*
X141320451Y-114079515D01*
X141332951Y-114158438D01*
X141354936Y-114297249D01*
X141423056Y-114506899D01*
X141523136Y-114703316D01*
X141523137Y-114703317D01*
X141545447Y-114734024D01*
X141652709Y-114881658D01*
X141808586Y-115037535D01*
X141858826Y-115074036D01*
X141986926Y-115167106D01*
X141986927Y-115167107D01*
X141986929Y-115167108D01*
X142183345Y-115267188D01*
X142261799Y-115292679D01*
X142369231Y-115327586D01*
X142433916Y-115369592D01*
X142468932Y-115438314D01*
X142464895Y-115515336D01*
X142422889Y-115580021D01*
X142369231Y-115611000D01*
X142183344Y-115671398D01*
X141986927Y-115771478D01*
X141986926Y-115771479D01*
X141808587Y-115901050D01*
X141808584Y-115901052D01*
X141652710Y-116056926D01*
X141652708Y-116056929D01*
X141523137Y-116235268D01*
X141523136Y-116235269D01*
X141423056Y-116431686D01*
X141354936Y-116641336D01*
X141342894Y-116717370D01*
X141320451Y-116859071D01*
X141320451Y-117079515D01*
X141331536Y-117149500D01*
X141354936Y-117297249D01*
X141423056Y-117506899D01*
X141523136Y-117703316D01*
X141523137Y-117703317D01*
X141556985Y-117749905D01*
X141652709Y-117881658D01*
X141808586Y-118037535D01*
X141919515Y-118118129D01*
X141986926Y-118167106D01*
X141986927Y-118167107D01*
X141986929Y-118167108D01*
X142183345Y-118267188D01*
X142263092Y-118293099D01*
X142369231Y-118327586D01*
X142433916Y-118369592D01*
X142468932Y-118438314D01*
X142464895Y-118515336D01*
X142422889Y-118580021D01*
X142369231Y-118611000D01*
X142183344Y-118671398D01*
X141986927Y-118771478D01*
X141986926Y-118771479D01*
X141808587Y-118901050D01*
X141808584Y-118901052D01*
X141652710Y-119056926D01*
X141652708Y-119056929D01*
X141523137Y-119235268D01*
X141523136Y-119235269D01*
X141423056Y-119431686D01*
X141354936Y-119641336D01*
X141331946Y-119786494D01*
X141320451Y-119859071D01*
X141320451Y-120079515D01*
X141325314Y-120110218D01*
X141354936Y-120297249D01*
X141423056Y-120506899D01*
X141523136Y-120703316D01*
X141523137Y-120703317D01*
X141545447Y-120734024D01*
X141652709Y-120881658D01*
X141808586Y-121037535D01*
X141914992Y-121114843D01*
X141986926Y-121167106D01*
X141986927Y-121167107D01*
X141986929Y-121167108D01*
X142183345Y-121267188D01*
X142253311Y-121289921D01*
X142369231Y-121327586D01*
X142433916Y-121369592D01*
X142468932Y-121438314D01*
X142464895Y-121515336D01*
X142422889Y-121580021D01*
X142369231Y-121611000D01*
X142183344Y-121671398D01*
X141986927Y-121771478D01*
X141986926Y-121771479D01*
X141808587Y-121901050D01*
X141808584Y-121901052D01*
X141652710Y-122056926D01*
X141652708Y-122056929D01*
X141523137Y-122235268D01*
X141523136Y-122235269D01*
X141423056Y-122431686D01*
X141354936Y-122641336D01*
X141336113Y-122760187D01*
X141320451Y-122859071D01*
X141320451Y-123079515D01*
X141325314Y-123110218D01*
X141354936Y-123297249D01*
X141423056Y-123506899D01*
X141523136Y-123703316D01*
X141523137Y-123703317D01*
X141569966Y-123767771D01*
X141652709Y-123881658D01*
X141808586Y-124037535D01*
X141949937Y-124140232D01*
X141986926Y-124167106D01*
X141986927Y-124167107D01*
X141986929Y-124167108D01*
X142183345Y-124267188D01*
X142270463Y-124295494D01*
X142392994Y-124335307D01*
X142392999Y-124335307D01*
X142393000Y-124335308D01*
X142610729Y-124369793D01*
X142610733Y-124369793D01*
X142831169Y-124369793D01*
X142831173Y-124369793D01*
X143048902Y-124335308D01*
X143048903Y-124335307D01*
X143048907Y-124335307D01*
X143129507Y-124309118D01*
X143258557Y-124267188D01*
X143417831Y-124186033D01*
X143485476Y-124169793D01*
X147305183Y-124169793D01*
X147305188Y-124169793D01*
X147491825Y-124140233D01*
X147671539Y-124081840D01*
X147839906Y-123996053D01*
X147992781Y-123884983D01*
X148434641Y-123443121D01*
X148501436Y-123404558D01*
X148578564Y-123404558D01*
X148645359Y-123443122D01*
X149080564Y-123878327D01*
X149080571Y-123878335D01*
X149084309Y-123882073D01*
X149084310Y-123882074D01*
X149217926Y-124015690D01*
X149217929Y-124015692D01*
X149333280Y-124099500D01*
X149355845Y-124115894D01*
X149370801Y-124126760D01*
X149539168Y-124212547D01*
X149718882Y-124270940D01*
X149905519Y-124300500D01*
X149905524Y-124300500D01*
X150094477Y-124300500D01*
X150094482Y-124300500D01*
X150281118Y-124270940D01*
X150460832Y-124212547D01*
X150460839Y-124212542D01*
X150462542Y-124211839D01*
X150463749Y-124211598D01*
X150466399Y-124210738D01*
X150466500Y-124211051D01*
X150519554Y-124200500D01*
X156235475Y-124200500D01*
X156303120Y-124216740D01*
X156462394Y-124297895D01*
X156549512Y-124326201D01*
X156672043Y-124366014D01*
X156672048Y-124366014D01*
X156672049Y-124366015D01*
X156889778Y-124400500D01*
X156889782Y-124400500D01*
X157110218Y-124400500D01*
X157110222Y-124400500D01*
X157327951Y-124366015D01*
X157327952Y-124366014D01*
X157327956Y-124366014D01*
X157422462Y-124335307D01*
X157537606Y-124297895D01*
X157734022Y-124197815D01*
X157912365Y-124068242D01*
X158068242Y-123912365D01*
X158197815Y-123734022D01*
X158297895Y-123537606D01*
X158342718Y-123399653D01*
X158366014Y-123327956D01*
X158366015Y-123327951D01*
X158400500Y-123110222D01*
X158400500Y-122889778D01*
X158366015Y-122672049D01*
X158366014Y-122672048D01*
X158366014Y-122672043D01*
X158303566Y-122479848D01*
X158297895Y-122462394D01*
X158197815Y-122265978D01*
X158068242Y-122087635D01*
X157912365Y-121931758D01*
X157788008Y-121841408D01*
X157734024Y-121802186D01*
X157734023Y-121802185D01*
X157537612Y-121702107D01*
X157529361Y-121699426D01*
X157351717Y-121641707D01*
X157287034Y-121599701D01*
X157252018Y-121530979D01*
X157256054Y-121453957D01*
X157298061Y-121389272D01*
X157351717Y-121358292D01*
X157537606Y-121297895D01*
X157734022Y-121197815D01*
X157912365Y-121068242D01*
X158068242Y-120912365D01*
X158197815Y-120734022D01*
X158297895Y-120537606D01*
X158345926Y-120389781D01*
X158366014Y-120327956D01*
X158366015Y-120327951D01*
X158400500Y-120110222D01*
X158400500Y-119889778D01*
X158366015Y-119672049D01*
X158366014Y-119672048D01*
X158366014Y-119672043D01*
X158314792Y-119514399D01*
X158297895Y-119462394D01*
X158197815Y-119265978D01*
X158068242Y-119087635D01*
X157912365Y-118931758D01*
X157762833Y-118823117D01*
X157734024Y-118802186D01*
X157734023Y-118802185D01*
X157537612Y-118702107D01*
X157449875Y-118673600D01*
X157351717Y-118641707D01*
X157287034Y-118599701D01*
X157252018Y-118530979D01*
X157256054Y-118453957D01*
X157298061Y-118389272D01*
X157351717Y-118358292D01*
X157537606Y-118297895D01*
X157734022Y-118197815D01*
X157912365Y-118068242D01*
X158068242Y-117912365D01*
X158197815Y-117734022D01*
X158297895Y-117537606D01*
X158339825Y-117408556D01*
X158366014Y-117327956D01*
X158367727Y-117317141D01*
X158400500Y-117110222D01*
X158400500Y-116889778D01*
X158366015Y-116672049D01*
X158366014Y-116672048D01*
X158366014Y-116672043D01*
X158324460Y-116544155D01*
X158297895Y-116462394D01*
X158197815Y-116265978D01*
X158174489Y-116233873D01*
X158138726Y-116184649D01*
X158068242Y-116087635D01*
X157912365Y-115931758D01*
X157803231Y-115852468D01*
X157734024Y-115802186D01*
X157734023Y-115802185D01*
X157537612Y-115702107D01*
X157537606Y-115702105D01*
X157351717Y-115641707D01*
X157287034Y-115599701D01*
X157252018Y-115530979D01*
X157256054Y-115453957D01*
X157298061Y-115389272D01*
X157351717Y-115358292D01*
X157537606Y-115297895D01*
X157734022Y-115197815D01*
X157912365Y-115068242D01*
X158068242Y-114912365D01*
X158197815Y-114734022D01*
X158297895Y-114537606D01*
X158359057Y-114349367D01*
X158366014Y-114327956D01*
X158367359Y-114319463D01*
X158400500Y-114110222D01*
X158400500Y-113889778D01*
X158366015Y-113672049D01*
X158366014Y-113672048D01*
X158366014Y-113672043D01*
X158325151Y-113546280D01*
X158297895Y-113462394D01*
X158197815Y-113265978D01*
X158190507Y-113255920D01*
X158167417Y-113224139D01*
X158068242Y-113087635D01*
X157912365Y-112931758D01*
X157766714Y-112825937D01*
X157734024Y-112802186D01*
X157734023Y-112802185D01*
X157537606Y-112702105D01*
X157327956Y-112633985D01*
X157206990Y-112614826D01*
X157110222Y-112599500D01*
X156889778Y-112599500D01*
X156802686Y-112613294D01*
X156672043Y-112633985D01*
X156462393Y-112702105D01*
X156303120Y-112783260D01*
X156235475Y-112799500D01*
X150398981Y-112799500D01*
X150324481Y-112779538D01*
X150293622Y-112755859D01*
X149784141Y-112246377D01*
X149745577Y-112179582D01*
X149740500Y-112141018D01*
X149740500Y-111071533D01*
X149760462Y-110997033D01*
X149815000Y-110942495D01*
X149889500Y-110922533D01*
X149964000Y-110942495D01*
X149994854Y-110966170D01*
X150135063Y-111106379D01*
X150319772Y-111240579D01*
X150523201Y-111344231D01*
X150740340Y-111414784D01*
X150965843Y-111450500D01*
X150965847Y-111450500D01*
X151194153Y-111450500D01*
X151194157Y-111450500D01*
X151419660Y-111414784D01*
X151636799Y-111344231D01*
X151840228Y-111240579D01*
X152024937Y-111106379D01*
X152186379Y-110944937D01*
X152229459Y-110885642D01*
X152289396Y-110837107D01*
X152365575Y-110825041D01*
X152437580Y-110852681D01*
X152470538Y-110885639D01*
X152513621Y-110944937D01*
X152675063Y-111106379D01*
X152859772Y-111240579D01*
X153063201Y-111344231D01*
X153280340Y-111414784D01*
X153505843Y-111450500D01*
X153505847Y-111450500D01*
X153734153Y-111450500D01*
X153734157Y-111450500D01*
X153959660Y-111414784D01*
X154176799Y-111344231D01*
X154380228Y-111240579D01*
X154564937Y-111106379D01*
X154726379Y-110944937D01*
X154860579Y-110760228D01*
X154964231Y-110556799D01*
X155034784Y-110339660D01*
X155070500Y-110114157D01*
X155070500Y-109885843D01*
X155034784Y-109660340D01*
X154964231Y-109443201D01*
X154860579Y-109239772D01*
X154726379Y-109055063D01*
X154564937Y-108893621D01*
X154380228Y-108759421D01*
X154176799Y-108655769D01*
X153959660Y-108585216D01*
X153734157Y-108549500D01*
X153505843Y-108549500D01*
X153288952Y-108583852D01*
X153280340Y-108585216D01*
X153205036Y-108609684D01*
X153063201Y-108655769D01*
X153063195Y-108655771D01*
X153063195Y-108655772D01*
X152859773Y-108759420D01*
X152675066Y-108893618D01*
X152513618Y-109055066D01*
X152489581Y-109088151D01*
X152479391Y-109102177D01*
X152470543Y-109114355D01*
X152410603Y-109162893D01*
X152334424Y-109174958D01*
X152262419Y-109147317D01*
X152229457Y-109114355D01*
X152220609Y-109102177D01*
X152186379Y-109055063D01*
X152024937Y-108893621D01*
X151840228Y-108759421D01*
X151636799Y-108655769D01*
X151419660Y-108585216D01*
X151194157Y-108549500D01*
X150965843Y-108549500D01*
X150748952Y-108583852D01*
X150740340Y-108585216D01*
X150665036Y-108609684D01*
X150523201Y-108655769D01*
X150523195Y-108655771D01*
X150523195Y-108655772D01*
X150319773Y-108759420D01*
X150135066Y-108893618D01*
X150135063Y-108893621D01*
X149994856Y-109033827D01*
X149928064Y-109072390D01*
X149850936Y-109072390D01*
X149784141Y-109033826D01*
X149745577Y-108967031D01*
X149740500Y-108928467D01*
X149740500Y-104195523D01*
X149740500Y-104195519D01*
X149710940Y-104008882D01*
X149652547Y-103829168D01*
X149566760Y-103660801D01*
X149455690Y-103507927D01*
X149322073Y-103374310D01*
X145132074Y-99184310D01*
X144979199Y-99073240D01*
X144810832Y-98987453D01*
X144631118Y-98929060D01*
X144444481Y-98899500D01*
X144444476Y-98899500D01*
X135158981Y-98899500D01*
X135084481Y-98879538D01*
X135053622Y-98855859D01*
X133784141Y-97586377D01*
X133745577Y-97519582D01*
X133740500Y-97481018D01*
X133740500Y-96111533D01*
X133760462Y-96037033D01*
X133815000Y-95982495D01*
X133889500Y-95962533D01*
X133964000Y-95982495D01*
X133994854Y-96006170D01*
X134135063Y-96146379D01*
X134319772Y-96280579D01*
X134523201Y-96384231D01*
X134740340Y-96454784D01*
X134965843Y-96490500D01*
X134965847Y-96490500D01*
X135194153Y-96490500D01*
X135194157Y-96490500D01*
X135419660Y-96454784D01*
X135636799Y-96384231D01*
X135840228Y-96280579D01*
X136024937Y-96146379D01*
X136186379Y-95984937D01*
X136229459Y-95925642D01*
X136289396Y-95877107D01*
X136365575Y-95865041D01*
X136437580Y-95892681D01*
X136470538Y-95925639D01*
X136513621Y-95984937D01*
X136675063Y-96146379D01*
X136859772Y-96280579D01*
X137063201Y-96384231D01*
X137280340Y-96454784D01*
X137505843Y-96490500D01*
X137505847Y-96490500D01*
X137734153Y-96490500D01*
X137734157Y-96490500D01*
X137959660Y-96454784D01*
X138176799Y-96384231D01*
X138380228Y-96280579D01*
X138564937Y-96146379D01*
X138726379Y-95984937D01*
X138769459Y-95925642D01*
X138829396Y-95877107D01*
X138905575Y-95865041D01*
X138977580Y-95892681D01*
X139010538Y-95925639D01*
X139053621Y-95984937D01*
X139215063Y-96146379D01*
X139399772Y-96280579D01*
X139603201Y-96384231D01*
X139820340Y-96454784D01*
X140045843Y-96490500D01*
X140045847Y-96490500D01*
X140274153Y-96490500D01*
X140274157Y-96490500D01*
X140499660Y-96454784D01*
X140716799Y-96384231D01*
X140920228Y-96280579D01*
X141104937Y-96146379D01*
X141266379Y-95984937D01*
X141309459Y-95925642D01*
X141369396Y-95877107D01*
X141445575Y-95865041D01*
X141517580Y-95892681D01*
X141550538Y-95925639D01*
X141593621Y-95984937D01*
X141755063Y-96146379D01*
X141939772Y-96280579D01*
X142143201Y-96384231D01*
X142360340Y-96454784D01*
X142585843Y-96490500D01*
X142585847Y-96490500D01*
X142814153Y-96490500D01*
X142814157Y-96490500D01*
X143039660Y-96454784D01*
X143256799Y-96384231D01*
X143460228Y-96280579D01*
X143644937Y-96146379D01*
X143806379Y-95984937D01*
X143849459Y-95925642D01*
X143909396Y-95877107D01*
X143985575Y-95865041D01*
X144057580Y-95892681D01*
X144090538Y-95925639D01*
X144133621Y-95984937D01*
X144295063Y-96146379D01*
X144479772Y-96280579D01*
X144479774Y-96280580D01*
X144482886Y-96282841D01*
X144531424Y-96342781D01*
X144538103Y-96361640D01*
X144538221Y-96361604D01*
X144539200Y-96364710D01*
X144670640Y-96725838D01*
X144670642Y-96725843D01*
X144818537Y-97043005D01*
X144833058Y-97074144D01*
X144896361Y-97183787D01*
X145025212Y-97406965D01*
X145078773Y-97483458D01*
X145245649Y-97721780D01*
X145492682Y-98016180D01*
X145492693Y-98016191D01*
X145561483Y-98084981D01*
X145561489Y-98084988D01*
X145565838Y-98089337D01*
X145565841Y-98089341D01*
X145925964Y-98449464D01*
X145983862Y-98488150D01*
X146073448Y-98548010D01*
X146073457Y-98548015D01*
X146115323Y-98565356D01*
X146237334Y-98615895D01*
X146411308Y-98650500D01*
X148100685Y-98650500D01*
X148100690Y-98650501D01*
X148184508Y-98650500D01*
X148194249Y-98650818D01*
X148396332Y-98664061D01*
X148415646Y-98666604D01*
X148609484Y-98705159D01*
X148628285Y-98710196D01*
X148815447Y-98773728D01*
X148833429Y-98781176D01*
X149010701Y-98868596D01*
X149027555Y-98878327D01*
X149191889Y-98988131D01*
X149207343Y-98999990D01*
X149225189Y-99015640D01*
X149359301Y-99133253D01*
X149366418Y-99139918D01*
X150588223Y-100361722D01*
X150607295Y-100380794D01*
X150607299Y-100380801D01*
X150799768Y-100573270D01*
X150909811Y-100668623D01*
X151117895Y-100848930D01*
X151256121Y-100952405D01*
X151454874Y-101101190D01*
X151454873Y-101101190D01*
X151454879Y-101101194D01*
X151454882Y-101101196D01*
X151809006Y-101328778D01*
X151927332Y-101393389D01*
X152178452Y-101530512D01*
X152178455Y-101530513D01*
X152178464Y-101530518D01*
X152561373Y-101705386D01*
X152955781Y-101852493D01*
X153359679Y-101971087D01*
X153359688Y-101971089D01*
X153359686Y-101971089D01*
X153610566Y-102025664D01*
X153771008Y-102060566D01*
X153771012Y-102060566D01*
X153771014Y-102060567D01*
X153771026Y-102060569D01*
X154014743Y-102095609D01*
X154187673Y-102120472D01*
X154607549Y-102150500D01*
X154729329Y-102150500D01*
X154911309Y-102150500D01*
X154995122Y-102150500D01*
X155004867Y-102150819D01*
X155187834Y-102162811D01*
X155207155Y-102165354D01*
X155382201Y-102200174D01*
X155401013Y-102205214D01*
X155570030Y-102262588D01*
X155588031Y-102270045D01*
X155725092Y-102337636D01*
X155748096Y-102348980D01*
X155764964Y-102358718D01*
X155913376Y-102457885D01*
X155928823Y-102469738D01*
X156066731Y-102590681D01*
X156073838Y-102597338D01*
X156860665Y-103384165D01*
X156865708Y-103389462D01*
X157093898Y-103641232D01*
X157103174Y-103652535D01*
X157303405Y-103922515D01*
X157311529Y-103934673D01*
X157484337Y-104222986D01*
X157491230Y-104235882D01*
X157634946Y-104539746D01*
X157640541Y-104553254D01*
X157746539Y-104849500D01*
X157753777Y-104869727D01*
X157758021Y-104883718D01*
X157767614Y-104922012D01*
X157839698Y-105209792D01*
X157842550Y-105224134D01*
X157891867Y-105556611D01*
X157893301Y-105571162D01*
X157899737Y-105702161D01*
X157909733Y-105905650D01*
X157909981Y-105910682D01*
X157910160Y-105917993D01*
X157910160Y-108649352D01*
X157940721Y-108802998D01*
X157944765Y-108823326D01*
X157973883Y-108893621D01*
X158012647Y-108987207D01*
X158071723Y-109075619D01*
X158075703Y-109081575D01*
X158075707Y-109081583D01*
X158111191Y-109134690D01*
X158111195Y-109134694D01*
X158111196Y-109134696D01*
X158373763Y-109397263D01*
X158373766Y-109397267D01*
X158395830Y-109419330D01*
X158433530Y-109457030D01*
X158439270Y-109463102D01*
X158600065Y-109643027D01*
X158610478Y-109656084D01*
X158638696Y-109695852D01*
X158747701Y-109849477D01*
X158756590Y-109863624D01*
X158871291Y-110071154D01*
X158878541Y-110086208D01*
X158969287Y-110305280D01*
X158974806Y-110321052D01*
X159040453Y-110548906D01*
X159044171Y-110565196D01*
X159083893Y-110798965D01*
X159085764Y-110815568D01*
X159092328Y-110932421D01*
X159096909Y-111013984D01*
X159099265Y-111055917D01*
X159099500Y-111064274D01*
X159099500Y-114602896D01*
X159099516Y-114603235D01*
X159099516Y-114820006D01*
X159104703Y-114912365D01*
X159134574Y-115444311D01*
X159134575Y-115444319D01*
X159134576Y-115444332D01*
X159204580Y-116065658D01*
X159204584Y-116065684D01*
X159309319Y-116682123D01*
X159309322Y-116682138D01*
X159448453Y-117291719D01*
X159448461Y-117291751D01*
X159508019Y-117498482D01*
X159621562Y-117892601D01*
X159621568Y-117892618D01*
X159828073Y-118482784D01*
X159828086Y-118482818D01*
X159918918Y-118702105D01*
X160067369Y-119060500D01*
X160067372Y-119060506D01*
X160067376Y-119060515D01*
X160338666Y-119623856D01*
X160338677Y-119623878D01*
X160590496Y-120079511D01*
X160641138Y-120171141D01*
X160973813Y-120700592D01*
X161335651Y-121210557D01*
X161486966Y-121400299D01*
X161725511Y-121699426D01*
X162142174Y-122165673D01*
X162300535Y-122324035D01*
X162392824Y-122416324D01*
X162392860Y-122416387D01*
X162436465Y-122459991D01*
X162573107Y-122596631D01*
X162866989Y-122847627D01*
X163179659Y-123074791D01*
X163509188Y-123276724D01*
X163509190Y-123276725D01*
X163853531Y-123452173D01*
X163853555Y-123452184D01*
X164066092Y-123540218D01*
X164210605Y-123600076D01*
X164578168Y-123719503D01*
X164953969Y-123809723D01*
X165335690Y-123870180D01*
X165720978Y-123900501D01*
X165914217Y-123900500D01*
X166002909Y-123900500D01*
X171098175Y-123900500D01*
X171172675Y-123920462D01*
X171203534Y-123944141D01*
X171327635Y-124068242D01*
X171431379Y-124143616D01*
X171505975Y-124197813D01*
X171505976Y-124197814D01*
X171505978Y-124197815D01*
X171702394Y-124297895D01*
X171789512Y-124326201D01*
X171912043Y-124366014D01*
X171912048Y-124366014D01*
X171912049Y-124366015D01*
X172129778Y-124400500D01*
X172129782Y-124400500D01*
X172350222Y-124400500D01*
X172402819Y-124392169D01*
X172479523Y-124400230D01*
X172516830Y-124421123D01*
X172564082Y-124457380D01*
X172984838Y-124738519D01*
X173423080Y-124991538D01*
X173423087Y-124991541D01*
X173423088Y-124991542D01*
X173423091Y-124991544D01*
X173876924Y-125215348D01*
X173876929Y-125215350D01*
X173876933Y-125215352D01*
X174344452Y-125409004D01*
X174823635Y-125571663D01*
X175312431Y-125702635D01*
X175321122Y-125704363D01*
X175390295Y-125738476D01*
X175433145Y-125802606D01*
X175438189Y-125879569D01*
X175404076Y-125948743D01*
X175339946Y-125991593D01*
X175292052Y-125999500D01*
X104001669Y-125999500D01*
X103998373Y-125999464D01*
X103118642Y-125979997D01*
X103112056Y-125979705D01*
X102235724Y-125921456D01*
X102229157Y-125920873D01*
X101356276Y-125823920D01*
X101349742Y-125823048D01*
X100481967Y-125687573D01*
X100475477Y-125686412D01*
X99614563Y-125512689D01*
X99608132Y-125511242D01*
X98755770Y-125299615D01*
X98749408Y-125297886D01*
X98470387Y-125215348D01*
X98328294Y-125173315D01*
X97907181Y-125048744D01*
X97900903Y-125046734D01*
X97070577Y-124760602D01*
X97064400Y-124758319D01*
X96772872Y-124643194D01*
X96247514Y-124435727D01*
X96241438Y-124433171D01*
X95439623Y-124074763D01*
X95433665Y-124071940D01*
X94648488Y-123678414D01*
X94642678Y-123675340D01*
X93875629Y-123247441D01*
X93869985Y-123244126D01*
X93735645Y-123161188D01*
X93343406Y-122919029D01*
X93122681Y-122782759D01*
X93117149Y-122779173D01*
X92390947Y-122285177D01*
X92385580Y-122281349D01*
X91681978Y-121755742D01*
X91676785Y-121751681D01*
X90997098Y-121195448D01*
X90992090Y-121191161D01*
X90337689Y-120605421D01*
X90332875Y-120600917D01*
X89831202Y-120110222D01*
X89704995Y-119986777D01*
X89700413Y-119982092D01*
X89130836Y-119373400D01*
X89100309Y-119340776D01*
X89095913Y-119335864D01*
X88783358Y-118970727D01*
X88704588Y-118878706D01*
X118149500Y-118878706D01*
X118149500Y-119121293D01*
X118181160Y-119361781D01*
X118243947Y-119596103D01*
X118275405Y-119672049D01*
X118336776Y-119820212D01*
X118458064Y-120030289D01*
X118605735Y-120222738D01*
X118777262Y-120394265D01*
X118969711Y-120541936D01*
X119179788Y-120663224D01*
X119403900Y-120756054D01*
X119638211Y-120818838D01*
X119638217Y-120818838D01*
X119638218Y-120818839D01*
X119703600Y-120827446D01*
X119878712Y-120850500D01*
X120121288Y-120850500D01*
X120361789Y-120818838D01*
X120596100Y-120756054D01*
X120820212Y-120663224D01*
X121030289Y-120541936D01*
X121222738Y-120394265D01*
X121394265Y-120222738D01*
X121541936Y-120030289D01*
X121663224Y-119820212D01*
X121756054Y-119596100D01*
X121818838Y-119361789D01*
X121850500Y-119121288D01*
X121850500Y-118878712D01*
X121823008Y-118669883D01*
X121818839Y-118638218D01*
X121818838Y-118638217D01*
X121818838Y-118638211D01*
X121756054Y-118403900D01*
X121663224Y-118179788D01*
X121541936Y-117969711D01*
X121394265Y-117777262D01*
X121222738Y-117605735D01*
X121030289Y-117458064D01*
X120886084Y-117374807D01*
X120820216Y-117336778D01*
X120820214Y-117336777D01*
X120820212Y-117336776D01*
X120688932Y-117282398D01*
X120596103Y-117243947D01*
X120596101Y-117243946D01*
X120596100Y-117243946D01*
X120361789Y-117181162D01*
X120361787Y-117181161D01*
X120361781Y-117181160D01*
X120121293Y-117149500D01*
X120121288Y-117149500D01*
X119878712Y-117149500D01*
X119878706Y-117149500D01*
X119638218Y-117181160D01*
X119403896Y-117243947D01*
X119179783Y-117336778D01*
X118969712Y-117458063D01*
X118920736Y-117495644D01*
X118777262Y-117605735D01*
X118777260Y-117605736D01*
X118777256Y-117605740D01*
X118605740Y-117777256D01*
X118605736Y-117777260D01*
X118605735Y-117777262D01*
X118572842Y-117820129D01*
X118458063Y-117969712D01*
X118336778Y-118179783D01*
X118243947Y-118403896D01*
X118181160Y-118638218D01*
X118149500Y-118878706D01*
X88704588Y-118878706D01*
X88524789Y-118668659D01*
X88520614Y-118663557D01*
X88357569Y-118455080D01*
X87979567Y-117971750D01*
X87975626Y-117966476D01*
X87954246Y-117936495D01*
X87465692Y-117251389D01*
X87461984Y-117245938D01*
X86984190Y-116509010D01*
X86980727Y-116503401D01*
X86792467Y-116182809D01*
X86653823Y-115946710D01*
X99139400Y-115946710D01*
X99139400Y-116182809D01*
X99176334Y-116416010D01*
X99249294Y-116640553D01*
X99249298Y-116640565D01*
X99356486Y-116850931D01*
X99356490Y-116850938D01*
X99416740Y-116933865D01*
X100115612Y-116234993D01*
X100126882Y-116277052D01*
X100199290Y-116402468D01*
X100301692Y-116504870D01*
X100427108Y-116577278D01*
X100469165Y-116588547D01*
X99770293Y-117287418D01*
X99853228Y-117347673D01*
X100063594Y-117454861D01*
X100063606Y-117454865D01*
X100288149Y-117527825D01*
X100521351Y-117564760D01*
X100757449Y-117564760D01*
X100990650Y-117527825D01*
X101215193Y-117454865D01*
X101215210Y-117454858D01*
X101425567Y-117347676D01*
X101425572Y-117347673D01*
X101508505Y-117287419D01*
X101508505Y-117287418D01*
X100809634Y-116588547D01*
X100851692Y-116577278D01*
X100977108Y-116504870D01*
X101079510Y-116402468D01*
X101151918Y-116277052D01*
X101163187Y-116234994D01*
X101862058Y-116933865D01*
X101862059Y-116933865D01*
X101922313Y-116850932D01*
X101922316Y-116850927D01*
X102029498Y-116640570D01*
X102029505Y-116640553D01*
X102102465Y-116416010D01*
X102139400Y-116182809D01*
X102139400Y-115946710D01*
X105639400Y-115946710D01*
X105639400Y-116182809D01*
X105676334Y-116416010D01*
X105749294Y-116640553D01*
X105749298Y-116640565D01*
X105856486Y-116850931D01*
X105856490Y-116850938D01*
X105916740Y-116933865D01*
X106615612Y-116234993D01*
X106626882Y-116277052D01*
X106699290Y-116402468D01*
X106801692Y-116504870D01*
X106927108Y-116577278D01*
X106969165Y-116588547D01*
X106270293Y-117287418D01*
X106353228Y-117347673D01*
X106563594Y-117454861D01*
X106563606Y-117454865D01*
X106788149Y-117527825D01*
X107021351Y-117564760D01*
X107257449Y-117564760D01*
X107490650Y-117527825D01*
X107715193Y-117454865D01*
X107715210Y-117454858D01*
X107925567Y-117347676D01*
X107925572Y-117347673D01*
X108008505Y-117287419D01*
X108008505Y-117287418D01*
X107309634Y-116588547D01*
X107351692Y-116577278D01*
X107477108Y-116504870D01*
X107579510Y-116402468D01*
X107651918Y-116277052D01*
X107663187Y-116234994D01*
X108362058Y-116933865D01*
X108362059Y-116933865D01*
X108422313Y-116850932D01*
X108422316Y-116850927D01*
X108529498Y-116640570D01*
X108529505Y-116640553D01*
X108602465Y-116416010D01*
X108639400Y-116182809D01*
X108639400Y-115946710D01*
X108602465Y-115713509D01*
X108529505Y-115488966D01*
X108529501Y-115488954D01*
X108422313Y-115278588D01*
X108422313Y-115278587D01*
X108362058Y-115195653D01*
X107663187Y-115894524D01*
X107651918Y-115852468D01*
X107579510Y-115727052D01*
X107477108Y-115624650D01*
X107351692Y-115552242D01*
X107309633Y-115540972D01*
X108008505Y-114842100D01*
X108008505Y-114842099D01*
X107925578Y-114781850D01*
X107925571Y-114781846D01*
X107715205Y-114674658D01*
X107715193Y-114674654D01*
X107490650Y-114601694D01*
X107257449Y-114564760D01*
X107021351Y-114564760D01*
X106788149Y-114601694D01*
X106563606Y-114674654D01*
X106563594Y-114674658D01*
X106353228Y-114781846D01*
X106353223Y-114781849D01*
X106270293Y-114842099D01*
X106969166Y-115540972D01*
X106927108Y-115552242D01*
X106801692Y-115624650D01*
X106699290Y-115727052D01*
X106626882Y-115852468D01*
X106615612Y-115894526D01*
X105916739Y-115195653D01*
X105856489Y-115278583D01*
X105856486Y-115278588D01*
X105749298Y-115488954D01*
X105749294Y-115488966D01*
X105676334Y-115713509D01*
X105639400Y-115946710D01*
X102139400Y-115946710D01*
X102102465Y-115713509D01*
X102029505Y-115488966D01*
X102029501Y-115488954D01*
X101922313Y-115278588D01*
X101922313Y-115278587D01*
X101862058Y-115195653D01*
X101163187Y-115894524D01*
X101151918Y-115852468D01*
X101079510Y-115727052D01*
X100977108Y-115624650D01*
X100851692Y-115552242D01*
X100809633Y-115540972D01*
X101508505Y-114842100D01*
X101508505Y-114842099D01*
X101425578Y-114781850D01*
X101425571Y-114781846D01*
X101215205Y-114674658D01*
X101215193Y-114674654D01*
X100990650Y-114601694D01*
X100757449Y-114564760D01*
X100521351Y-114564760D01*
X100288149Y-114601694D01*
X100063606Y-114674654D01*
X100063594Y-114674658D01*
X99853228Y-114781846D01*
X99853223Y-114781849D01*
X99770293Y-114842099D01*
X100469166Y-115540972D01*
X100427108Y-115552242D01*
X100301692Y-115624650D01*
X100199290Y-115727052D01*
X100126882Y-115852468D01*
X100115612Y-115894526D01*
X99416739Y-115195653D01*
X99356489Y-115278583D01*
X99356486Y-115278588D01*
X99249298Y-115488954D01*
X99249294Y-115488966D01*
X99176334Y-115713509D01*
X99139400Y-115946710D01*
X86653823Y-115946710D01*
X86535976Y-115746026D01*
X86532772Y-115740279D01*
X86121976Y-114964005D01*
X86119037Y-114958141D01*
X86116425Y-114952629D01*
X85742977Y-114164448D01*
X85740290Y-114158438D01*
X85729052Y-114131727D01*
X85447459Y-113462394D01*
X85399704Y-113348883D01*
X85397283Y-113342752D01*
X85301878Y-113084587D01*
X85092839Y-112518927D01*
X85090697Y-112512710D01*
X85090492Y-112512070D01*
X84822996Y-111676231D01*
X84821126Y-111669909D01*
X84767324Y-111472038D01*
X84758286Y-111438798D01*
X99038900Y-111438798D01*
X99038900Y-111690722D01*
X99078310Y-111939545D01*
X99156159Y-112179139D01*
X99269266Y-112401125D01*
X99270531Y-112403606D01*
X99270531Y-112403607D01*
X99287198Y-112426547D01*
X99418607Y-112607416D01*
X99596744Y-112785553D01*
X99800555Y-112933630D01*
X100025021Y-113048001D01*
X100264615Y-113125850D01*
X100513438Y-113165260D01*
X100513443Y-113165260D01*
X100765357Y-113165260D01*
X100765362Y-113165260D01*
X101014185Y-113125850D01*
X101253779Y-113048001D01*
X101478245Y-112933630D01*
X101682056Y-112785553D01*
X101860193Y-112607416D01*
X102008270Y-112403605D01*
X102122641Y-112179139D01*
X102200490Y-111939545D01*
X102239900Y-111690722D01*
X102239900Y-111474917D01*
X102249581Y-111438785D01*
X102258660Y-111402540D01*
X102259535Y-111401635D01*
X102259862Y-111400417D01*
X102312294Y-111347118D01*
X102374478Y-111309846D01*
X102387337Y-111302973D01*
X102678848Y-111165097D01*
X102692356Y-111159502D01*
X102731184Y-111145609D01*
X102995985Y-111050860D01*
X103009938Y-111046627D01*
X103322766Y-110968268D01*
X103337100Y-110965417D01*
X103656063Y-110918103D01*
X103670609Y-110916671D01*
X103992702Y-110900846D01*
X104007308Y-110900846D01*
X104277057Y-110914100D01*
X104291587Y-110915530D01*
X104558728Y-110955159D01*
X104573058Y-110958009D01*
X104835005Y-111023626D01*
X104848990Y-111027867D01*
X105103264Y-111118851D01*
X105116772Y-111124447D01*
X105360874Y-111239900D01*
X105373770Y-111246793D01*
X105466710Y-111302500D01*
X105520348Y-111357923D01*
X105539088Y-111432740D01*
X105538900Y-111436701D01*
X105538900Y-111438798D01*
X105538900Y-111690722D01*
X105578310Y-111939545D01*
X105656159Y-112179139D01*
X105769266Y-112401125D01*
X105770531Y-112403606D01*
X105770531Y-112403607D01*
X105787198Y-112426547D01*
X105918607Y-112607416D01*
X106096744Y-112785553D01*
X106300555Y-112933630D01*
X106525021Y-113048001D01*
X106764615Y-113125850D01*
X107013438Y-113165260D01*
X107013443Y-113165260D01*
X107265357Y-113165260D01*
X107265362Y-113165260D01*
X107514185Y-113125850D01*
X107686203Y-113069956D01*
X107763222Y-113065920D01*
X107795208Y-113076622D01*
X107829219Y-113092482D01*
X107829225Y-113092484D01*
X107829229Y-113092486D01*
X107985392Y-113149326D01*
X108165121Y-113214744D01*
X108510401Y-113307264D01*
X108862430Y-113369340D01*
X109218530Y-113400498D01*
X109308573Y-113400499D01*
X109308578Y-113400500D01*
X109397260Y-113400500D01*
X109485952Y-113400501D01*
X109485957Y-113400500D01*
X120161309Y-113400500D01*
X120246753Y-113400500D01*
X120253252Y-113400642D01*
X120585847Y-113415163D01*
X120598787Y-113416295D01*
X120925625Y-113459324D01*
X120938422Y-113461581D01*
X120964535Y-113467370D01*
X121260277Y-113532934D01*
X121272801Y-113536290D01*
X121574677Y-113631472D01*
X121587227Y-113635429D01*
X121599439Y-113639874D01*
X121904018Y-113766035D01*
X121915769Y-113771515D01*
X122208199Y-113923745D01*
X122219430Y-113930230D01*
X122453753Y-114079511D01*
X122497475Y-114107365D01*
X122508123Y-114114821D01*
X122769655Y-114315503D01*
X122779612Y-114323858D01*
X122904002Y-114437841D01*
X123003616Y-114529121D01*
X123025172Y-114548873D01*
X123029867Y-114553367D01*
X123090175Y-114613676D01*
X123090178Y-114613678D01*
X123095383Y-114618883D01*
X123550536Y-115074035D01*
X123550537Y-115074036D01*
X123609800Y-115133300D01*
X123616464Y-115140415D01*
X123749996Y-115292679D01*
X123761858Y-115308137D01*
X123871666Y-115472475D01*
X123881406Y-115489347D01*
X123966363Y-115661620D01*
X123968815Y-115666591D01*
X123976274Y-115684598D01*
X124039800Y-115871736D01*
X124044845Y-115890561D01*
X124083404Y-116084400D01*
X124085948Y-116103722D01*
X124099181Y-116305562D01*
X124099500Y-116315310D01*
X124099500Y-120845959D01*
X124099509Y-120846140D01*
X124099509Y-120921075D01*
X124129327Y-121261908D01*
X124129331Y-121261940D01*
X124188737Y-121598852D01*
X124188741Y-121598869D01*
X124188742Y-121598873D01*
X124207439Y-121668650D01*
X124277291Y-121929348D01*
X124277293Y-121929355D01*
X124277296Y-121929364D01*
X124394316Y-122250880D01*
X124491819Y-122459978D01*
X124538914Y-122560972D01*
X124538923Y-122560991D01*
X124709980Y-122857272D01*
X124709988Y-122857286D01*
X124833745Y-123034030D01*
X124887091Y-123110218D01*
X124906233Y-123137555D01*
X124906246Y-123137573D01*
X125126154Y-123399653D01*
X125180675Y-123454175D01*
X125180689Y-123454190D01*
X125184419Y-123457920D01*
X125184420Y-123457921D01*
X125675965Y-123949465D01*
X125706389Y-123969793D01*
X125823453Y-124048013D01*
X125905931Y-124082176D01*
X125987335Y-124115895D01*
X126126704Y-124143616D01*
X126161309Y-124150500D01*
X126161310Y-124150500D01*
X126161312Y-124150500D01*
X126338692Y-124150500D01*
X126338693Y-124150500D01*
X126512667Y-124115894D01*
X126539880Y-124104621D01*
X126616347Y-124094555D01*
X126684478Y-124121736D01*
X126746920Y-124167102D01*
X126746927Y-124167107D01*
X126746929Y-124167108D01*
X126943345Y-124267188D01*
X127030463Y-124295494D01*
X127152994Y-124335307D01*
X127152999Y-124335307D01*
X127153000Y-124335308D01*
X127370729Y-124369793D01*
X127370733Y-124369793D01*
X127591169Y-124369793D01*
X127591173Y-124369793D01*
X127808902Y-124335308D01*
X127808903Y-124335307D01*
X127808907Y-124335307D01*
X127889507Y-124309118D01*
X128018557Y-124267188D01*
X128214973Y-124167108D01*
X128393316Y-124037535D01*
X128517417Y-123913434D01*
X128584212Y-123874870D01*
X128622776Y-123869793D01*
X130634639Y-123869793D01*
X130634659Y-123869792D01*
X130820557Y-123869792D01*
X130820558Y-123869792D01*
X131383447Y-123835744D01*
X131943253Y-123767771D01*
X132417528Y-123680857D01*
X132497929Y-123666123D01*
X132497930Y-123666122D01*
X132497934Y-123666122D01*
X133045465Y-123531168D01*
X133328014Y-123443122D01*
X133583813Y-123363412D01*
X133583822Y-123363408D01*
X133583850Y-123363400D01*
X134111122Y-123163432D01*
X134625359Y-122931993D01*
X135124683Y-122669928D01*
X135607273Y-122378192D01*
X136071369Y-122057850D01*
X136240891Y-121925037D01*
X136311843Y-121894807D01*
X136356089Y-121895164D01*
X136389778Y-121900500D01*
X136610218Y-121900500D01*
X136610222Y-121900500D01*
X136827951Y-121866015D01*
X136827952Y-121866014D01*
X136827956Y-121866014D01*
X136908556Y-121839825D01*
X137037606Y-121797895D01*
X137234022Y-121697815D01*
X137412365Y-121568242D01*
X137568242Y-121412365D01*
X137697815Y-121234022D01*
X137797895Y-121037606D01*
X137842443Y-120900498D01*
X137866014Y-120827956D01*
X137869387Y-120806659D01*
X137900500Y-120610222D01*
X137900500Y-120389778D01*
X137866015Y-120172049D01*
X137866014Y-120172048D01*
X137866014Y-120172043D01*
X137819954Y-120030287D01*
X137797895Y-119962394D01*
X137697815Y-119765978D01*
X137568242Y-119587635D01*
X137412365Y-119431758D01*
X137291844Y-119344195D01*
X137234024Y-119302186D01*
X137234023Y-119302185D01*
X137037606Y-119202105D01*
X136827956Y-119133985D01*
X136706990Y-119114826D01*
X136610222Y-119099500D01*
X136389778Y-119099500D01*
X136302686Y-119113294D01*
X136172043Y-119133985D01*
X135962393Y-119202105D01*
X135765976Y-119302185D01*
X135765975Y-119302186D01*
X135587636Y-119431757D01*
X135587633Y-119431759D01*
X135431759Y-119587633D01*
X135431757Y-119587636D01*
X135302186Y-119765975D01*
X135302185Y-119765976D01*
X135202105Y-119962393D01*
X135133985Y-120172043D01*
X135114156Y-120297244D01*
X135101250Y-120378733D01*
X135099500Y-120389781D01*
X135099500Y-120452785D01*
X135079538Y-120527285D01*
X135037289Y-120573899D01*
X134726115Y-120796884D01*
X134718008Y-120802301D01*
X134307836Y-121057363D01*
X134299392Y-121062238D01*
X133873425Y-121289921D01*
X133864680Y-121294234D01*
X133424718Y-121493578D01*
X133415710Y-121497309D01*
X132963662Y-121667448D01*
X132954430Y-121670582D01*
X132621819Y-121771479D01*
X132529447Y-121799500D01*
X132492232Y-121810789D01*
X132482813Y-121813313D01*
X132012414Y-121922995D01*
X132002851Y-121924897D01*
X131526304Y-122003574D01*
X131516637Y-122004847D01*
X131035940Y-122052191D01*
X131026212Y-122052828D01*
X130624437Y-122065981D01*
X130541006Y-122068713D01*
X130536142Y-122068793D01*
X128622776Y-122068793D01*
X128548276Y-122048831D01*
X128517417Y-122025152D01*
X128393317Y-121901052D01*
X128393316Y-121901051D01*
X128299519Y-121832904D01*
X128214975Y-121771479D01*
X128214974Y-121771478D01*
X128018563Y-121671400D01*
X128018557Y-121671398D01*
X127832668Y-121611000D01*
X127767985Y-121568994D01*
X127732969Y-121500272D01*
X127737005Y-121423250D01*
X127779012Y-121358565D01*
X127832668Y-121327585D01*
X128018557Y-121267188D01*
X128028920Y-121261908D01*
X128108936Y-121221137D01*
X128214973Y-121167108D01*
X128393316Y-121037535D01*
X128549193Y-120881658D01*
X128678766Y-120703315D01*
X128778846Y-120506899D01*
X128820776Y-120377849D01*
X128846965Y-120297249D01*
X128846966Y-120297244D01*
X128881451Y-120079515D01*
X128881451Y-119859071D01*
X128846966Y-119641342D01*
X128846965Y-119641341D01*
X128846965Y-119641336D01*
X128800510Y-119498362D01*
X128778846Y-119431687D01*
X128678766Y-119235271D01*
X128549193Y-119056928D01*
X128393316Y-118901051D01*
X128304144Y-118836264D01*
X128214975Y-118771479D01*
X128214974Y-118771478D01*
X128018563Y-118671400D01*
X128002433Y-118666159D01*
X127832668Y-118611000D01*
X127767985Y-118568994D01*
X127732969Y-118500272D01*
X127737005Y-118423250D01*
X127779012Y-118358565D01*
X127832668Y-118327585D01*
X128018557Y-118267188D01*
X128214973Y-118167108D01*
X128393316Y-118037535D01*
X128549193Y-117881658D01*
X128678766Y-117703315D01*
X128778846Y-117506899D01*
X128834121Y-117336778D01*
X128846965Y-117297249D01*
X128849259Y-117282768D01*
X128881451Y-117079515D01*
X128881451Y-116859071D01*
X128846966Y-116641342D01*
X128846965Y-116641341D01*
X128846965Y-116641336D01*
X128797966Y-116490533D01*
X128778846Y-116431687D01*
X128678766Y-116235271D01*
X128549193Y-116056928D01*
X128393316Y-115901051D01*
X128265601Y-115808261D01*
X128214975Y-115771479D01*
X128214974Y-115771478D01*
X128018563Y-115671400D01*
X127988463Y-115661620D01*
X127832668Y-115611000D01*
X127767985Y-115568994D01*
X127732969Y-115500272D01*
X127737005Y-115423250D01*
X127779012Y-115358565D01*
X127832668Y-115327585D01*
X128018557Y-115267188D01*
X128214973Y-115167108D01*
X128393316Y-115037535D01*
X128549193Y-114881658D01*
X128678766Y-114703315D01*
X128778846Y-114506899D01*
X128825295Y-114363942D01*
X128846965Y-114297249D01*
X128857676Y-114229622D01*
X128881451Y-114079515D01*
X128881451Y-113859071D01*
X128846966Y-113641342D01*
X128846965Y-113641341D01*
X128846965Y-113641336D01*
X128788823Y-113462394D01*
X128778846Y-113431687D01*
X128678766Y-113235271D01*
X128673892Y-113228563D01*
X128619037Y-113153061D01*
X128549193Y-113056928D01*
X128393316Y-112901051D01*
X128275797Y-112815669D01*
X128214975Y-112771479D01*
X128214974Y-112771478D01*
X128018557Y-112671398D01*
X127808907Y-112603278D01*
X127687941Y-112584119D01*
X127591173Y-112568793D01*
X127370729Y-112568793D01*
X127283637Y-112582587D01*
X127152994Y-112603278D01*
X126943344Y-112671398D01*
X126746927Y-112771478D01*
X126746926Y-112771479D01*
X126568587Y-112901050D01*
X126568584Y-112901052D01*
X126412710Y-113056926D01*
X126412708Y-113056929D01*
X126283137Y-113235268D01*
X126283136Y-113235269D01*
X126183056Y-113431686D01*
X126114936Y-113641336D01*
X126094793Y-113768517D01*
X126080451Y-113859071D01*
X126080451Y-114079515D01*
X126092951Y-114158438D01*
X126114936Y-114297249D01*
X126183056Y-114506899D01*
X126283136Y-114703316D01*
X126283137Y-114703317D01*
X126305447Y-114734024D01*
X126412709Y-114881658D01*
X126568586Y-115037535D01*
X126618826Y-115074036D01*
X126746926Y-115167106D01*
X126746927Y-115167107D01*
X126746929Y-115167108D01*
X126943345Y-115267188D01*
X127021799Y-115292679D01*
X127129231Y-115327586D01*
X127193916Y-115369592D01*
X127228932Y-115438314D01*
X127224895Y-115515336D01*
X127182889Y-115580021D01*
X127129231Y-115611000D01*
X126943344Y-115671398D01*
X126746927Y-115771478D01*
X126746926Y-115771479D01*
X126568587Y-115901050D01*
X126568584Y-115901052D01*
X126412710Y-116056926D01*
X126412708Y-116056929D01*
X126283137Y-116235268D01*
X126283133Y-116235274D01*
X126182275Y-116433216D01*
X126130666Y-116490533D01*
X126057312Y-116514366D01*
X125981870Y-116498329D01*
X125924553Y-116446720D01*
X125900720Y-116373366D01*
X125900516Y-116365572D01*
X125900515Y-116310646D01*
X125900516Y-116310646D01*
X125900513Y-116140611D01*
X125899964Y-116135038D01*
X125867178Y-115802194D01*
X125867177Y-115802186D01*
X125867176Y-115802178D01*
X125800828Y-115468643D01*
X125702107Y-115143217D01*
X125571965Y-114829033D01*
X125411655Y-114529119D01*
X125324167Y-114398185D01*
X125222725Y-114246366D01*
X125222722Y-114246362D01*
X125059790Y-114047830D01*
X125006982Y-113983484D01*
X124949465Y-113925967D01*
X124949463Y-113925964D01*
X124886749Y-113863250D01*
X124886750Y-113863250D01*
X124824035Y-113800536D01*
X124824034Y-113800535D01*
X124238248Y-113214750D01*
X124233509Y-113210011D01*
X124233406Y-113209917D01*
X124141795Y-113118306D01*
X123923375Y-112931757D01*
X123799479Y-112825939D01*
X123799474Y-112825935D01*
X123799468Y-112825930D01*
X123435278Y-112561329D01*
X123194309Y-112413662D01*
X123051435Y-112326108D01*
X122650322Y-112121730D01*
X122526964Y-112070633D01*
X122234421Y-111949456D01*
X122234398Y-111949448D01*
X121806268Y-111810339D01*
X121368522Y-111705245D01*
X121368525Y-111705245D01*
X121145419Y-111669909D01*
X120923883Y-111634821D01*
X120475090Y-111599500D01*
X120475082Y-111599500D01*
X109401468Y-111599500D01*
X109393112Y-111599266D01*
X109148942Y-111585551D01*
X109132338Y-111583680D01*
X108895370Y-111543415D01*
X108879081Y-111539696D01*
X108841077Y-111528747D01*
X108775015Y-111488941D01*
X108737707Y-111421436D01*
X108735165Y-111408907D01*
X108700490Y-111189975D01*
X108622641Y-110950381D01*
X108508270Y-110725915D01*
X108360193Y-110522104D01*
X108182056Y-110343967D01*
X108133687Y-110308825D01*
X108133686Y-110308823D01*
X107978255Y-110195896D01*
X107978246Y-110195891D01*
X107978247Y-110195891D01*
X107978245Y-110195890D01*
X107753779Y-110081519D01*
X107514185Y-110003670D01*
X107265362Y-109964260D01*
X107013438Y-109964260D01*
X106923080Y-109978571D01*
X106831835Y-109993022D01*
X106755130Y-109984959D01*
X106720947Y-109966399D01*
X106614287Y-109888905D01*
X106480643Y-109807007D01*
X106299255Y-109695851D01*
X106110669Y-109599760D01*
X105970055Y-109528112D01*
X105877720Y-109489865D01*
X105628699Y-109386715D01*
X105628692Y-109386712D01*
X105628688Y-109386711D01*
X105503204Y-109345938D01*
X105277312Y-109272539D01*
X105277301Y-109272536D01*
X104918029Y-109186279D01*
X104918019Y-109186278D01*
X104553135Y-109128484D01*
X104553121Y-109128482D01*
X104553112Y-109128481D01*
X104293603Y-109108055D01*
X104184763Y-109099488D01*
X104000165Y-109099488D01*
X104000040Y-109099487D01*
X104000040Y-109099488D01*
X104000038Y-109099487D01*
X103998908Y-109099487D01*
X103911660Y-109099457D01*
X103911508Y-109099487D01*
X103911344Y-109099487D01*
X103903995Y-109099487D01*
X103903975Y-109099488D01*
X103794275Y-109099488D01*
X103384093Y-109131770D01*
X103187593Y-109162893D01*
X102977705Y-109196136D01*
X102577617Y-109292189D01*
X102186323Y-109419330D01*
X102186313Y-109419334D01*
X101806182Y-109576791D01*
X101623642Y-109669801D01*
X101439579Y-109763587D01*
X101439574Y-109763589D01*
X101439572Y-109763591D01*
X101235081Y-109888905D01*
X101120442Y-109959157D01*
X101087769Y-109979179D01*
X101013817Y-110001085D01*
X100986608Y-109999302D01*
X100933903Y-109990954D01*
X100765362Y-109964260D01*
X100513438Y-109964260D01*
X100306085Y-109997101D01*
X100264614Y-110003670D01*
X100073319Y-110065826D01*
X100025021Y-110081519D01*
X100025015Y-110081521D01*
X100025015Y-110081522D01*
X99800553Y-110195891D01*
X99800552Y-110195891D01*
X99596745Y-110343966D01*
X99596742Y-110343968D01*
X99418608Y-110522102D01*
X99418606Y-110522105D01*
X99270531Y-110725912D01*
X99270531Y-110725913D01*
X99156162Y-110950375D01*
X99156157Y-110950387D01*
X99091929Y-111148061D01*
X99078310Y-111189975D01*
X99038900Y-111438798D01*
X84758286Y-111438798D01*
X84590685Y-110822404D01*
X84589097Y-110816006D01*
X84540588Y-110600334D01*
X84396368Y-109959132D01*
X84395074Y-109952720D01*
X84240434Y-109088145D01*
X84239418Y-109081638D01*
X84235869Y-109055063D01*
X84123175Y-108211096D01*
X84122448Y-108204546D01*
X84114560Y-108115641D01*
X84102677Y-107981710D01*
X91111800Y-107981710D01*
X91111800Y-108217809D01*
X91148734Y-108451010D01*
X91221694Y-108675553D01*
X91221698Y-108675565D01*
X91328886Y-108885931D01*
X91328890Y-108885938D01*
X91389140Y-108968865D01*
X92088012Y-108269993D01*
X92099282Y-108312052D01*
X92171690Y-108437468D01*
X92274092Y-108539870D01*
X92399508Y-108612278D01*
X92441565Y-108623547D01*
X91742693Y-109322418D01*
X91825628Y-109382673D01*
X92035994Y-109489861D01*
X92036006Y-109489865D01*
X92260549Y-109562825D01*
X92493751Y-109599760D01*
X92729849Y-109599760D01*
X92963050Y-109562825D01*
X93187593Y-109489865D01*
X93187610Y-109489858D01*
X93397967Y-109382676D01*
X93397972Y-109382673D01*
X93480905Y-109322419D01*
X93480905Y-109322418D01*
X92782034Y-108623547D01*
X92824092Y-108612278D01*
X92949508Y-108539870D01*
X93051910Y-108437468D01*
X93124318Y-108312052D01*
X93135587Y-108269994D01*
X93834458Y-108968865D01*
X93834459Y-108968865D01*
X93894713Y-108885932D01*
X93894716Y-108885927D01*
X94001898Y-108675570D01*
X94001905Y-108675553D01*
X94074865Y-108451010D01*
X94111800Y-108217809D01*
X94111800Y-107981710D01*
X97611800Y-107981710D01*
X97611800Y-108217809D01*
X97648734Y-108451010D01*
X97721694Y-108675553D01*
X97721698Y-108675565D01*
X97828886Y-108885931D01*
X97828890Y-108885938D01*
X97889140Y-108968865D01*
X98588012Y-108269993D01*
X98599282Y-108312052D01*
X98671690Y-108437468D01*
X98774092Y-108539870D01*
X98899508Y-108612278D01*
X98941565Y-108623547D01*
X98242693Y-109322418D01*
X98325628Y-109382673D01*
X98535994Y-109489861D01*
X98536006Y-109489865D01*
X98760549Y-109562825D01*
X98993751Y-109599760D01*
X99229849Y-109599760D01*
X99463050Y-109562825D01*
X99687593Y-109489865D01*
X99687610Y-109489858D01*
X99897967Y-109382676D01*
X99897972Y-109382673D01*
X99980905Y-109322419D01*
X99980905Y-109322418D01*
X99282034Y-108623547D01*
X99324092Y-108612278D01*
X99449508Y-108539870D01*
X99551910Y-108437468D01*
X99624318Y-108312052D01*
X99635587Y-108269994D01*
X100334458Y-108968865D01*
X100334459Y-108968865D01*
X100394713Y-108885932D01*
X100394716Y-108885927D01*
X100501898Y-108675570D01*
X100501905Y-108675553D01*
X100574865Y-108451010D01*
X100611800Y-108217809D01*
X100611800Y-107981711D01*
X100604839Y-107937762D01*
X100604839Y-107937761D01*
X100574865Y-107748509D01*
X100501905Y-107523966D01*
X100501901Y-107523954D01*
X100394713Y-107313588D01*
X100394713Y-107313587D01*
X100334458Y-107230653D01*
X99635587Y-107929524D01*
X99624318Y-107887468D01*
X99551910Y-107762052D01*
X99449508Y-107659650D01*
X99324092Y-107587242D01*
X99282033Y-107575972D01*
X99980905Y-106877100D01*
X99980905Y-106877099D01*
X99897978Y-106816850D01*
X99897971Y-106816846D01*
X99687605Y-106709658D01*
X99687593Y-106709654D01*
X99463050Y-106636694D01*
X99229849Y-106599760D01*
X98993751Y-106599760D01*
X98760549Y-106636694D01*
X98536006Y-106709654D01*
X98535994Y-106709658D01*
X98325628Y-106816846D01*
X98325623Y-106816849D01*
X98242693Y-106877099D01*
X98941566Y-107575972D01*
X98899508Y-107587242D01*
X98774092Y-107659650D01*
X98671690Y-107762052D01*
X98599282Y-107887468D01*
X98588012Y-107929526D01*
X97889139Y-107230653D01*
X97828889Y-107313583D01*
X97828886Y-107313588D01*
X97721698Y-107523954D01*
X97721694Y-107523966D01*
X97648734Y-107748509D01*
X97611800Y-107981710D01*
X94111800Y-107981710D01*
X94074865Y-107748509D01*
X94001905Y-107523966D01*
X94001901Y-107523954D01*
X93894713Y-107313588D01*
X93894713Y-107313587D01*
X93834458Y-107230653D01*
X93135587Y-107929524D01*
X93124318Y-107887468D01*
X93051910Y-107762052D01*
X92949508Y-107659650D01*
X92824092Y-107587242D01*
X92782033Y-107575972D01*
X93480905Y-106877100D01*
X93480905Y-106877099D01*
X93397978Y-106816850D01*
X93397971Y-106816846D01*
X93187605Y-106709658D01*
X93187593Y-106709654D01*
X92963050Y-106636694D01*
X92729849Y-106599760D01*
X92493751Y-106599760D01*
X92260549Y-106636694D01*
X92036006Y-106709654D01*
X92035994Y-106709658D01*
X91825628Y-106816846D01*
X91825623Y-106816849D01*
X91742693Y-106877099D01*
X92441566Y-107575972D01*
X92399508Y-107587242D01*
X92274092Y-107659650D01*
X92171690Y-107762052D01*
X92099282Y-107887468D01*
X92088012Y-107929526D01*
X91389139Y-107230653D01*
X91328889Y-107313583D01*
X91328886Y-107313588D01*
X91221698Y-107523954D01*
X91221694Y-107523966D01*
X91148734Y-107748509D01*
X91111800Y-107981710D01*
X84102677Y-107981710D01*
X84044822Y-107329665D01*
X84044390Y-107323165D01*
X84005540Y-106445728D01*
X84005394Y-106439137D01*
X84005394Y-105560862D01*
X84005540Y-105554271D01*
X84010726Y-105437152D01*
X84044390Y-104676831D01*
X84044822Y-104670336D01*
X84122448Y-103795446D01*
X84123176Y-103788901D01*
X84124254Y-103780831D01*
X84239420Y-102918347D01*
X84240435Y-102911848D01*
X84395075Y-102047270D01*
X84396366Y-102040876D01*
X84589098Y-101183985D01*
X84590685Y-101177595D01*
X84604507Y-101126761D01*
X84821129Y-100330079D01*
X84822996Y-100323768D01*
X84824157Y-100320142D01*
X84863560Y-100197020D01*
X99123010Y-100197020D01*
X99123010Y-100433119D01*
X99159944Y-100666320D01*
X99232904Y-100890863D01*
X99232908Y-100890875D01*
X99340096Y-101101241D01*
X99340100Y-101101248D01*
X99400350Y-101184175D01*
X100099222Y-100485303D01*
X100110492Y-100527362D01*
X100182900Y-100652778D01*
X100285302Y-100755180D01*
X100410718Y-100827588D01*
X100452775Y-100838857D01*
X99753903Y-101537728D01*
X99836838Y-101597983D01*
X100047204Y-101705171D01*
X100047216Y-101705175D01*
X100271759Y-101778135D01*
X100504961Y-101815070D01*
X100741059Y-101815070D01*
X100974260Y-101778135D01*
X101198803Y-101705175D01*
X101198820Y-101705168D01*
X101409177Y-101597986D01*
X101409182Y-101597983D01*
X101492115Y-101537729D01*
X101492115Y-101537728D01*
X100793244Y-100838857D01*
X100835302Y-100827588D01*
X100960718Y-100755180D01*
X101063120Y-100652778D01*
X101135528Y-100527362D01*
X101146797Y-100485304D01*
X101845668Y-101184175D01*
X101845669Y-101184175D01*
X101905923Y-101101242D01*
X101905926Y-101101237D01*
X102013108Y-100890880D01*
X102013115Y-100890863D01*
X102086075Y-100666320D01*
X102123010Y-100433119D01*
X102123010Y-100197020D01*
X105623010Y-100197020D01*
X105623010Y-100433119D01*
X105659944Y-100666320D01*
X105732904Y-100890863D01*
X105732908Y-100890875D01*
X105840096Y-101101241D01*
X105840100Y-101101248D01*
X105900350Y-101184175D01*
X106599222Y-100485303D01*
X106610492Y-100527362D01*
X106682900Y-100652778D01*
X106785302Y-100755180D01*
X106910718Y-100827588D01*
X106952775Y-100838857D01*
X106253903Y-101537728D01*
X106336838Y-101597983D01*
X106547204Y-101705171D01*
X106547216Y-101705175D01*
X106771759Y-101778135D01*
X107004961Y-101815070D01*
X107241059Y-101815070D01*
X107474260Y-101778135D01*
X107698803Y-101705175D01*
X107698820Y-101705168D01*
X107909177Y-101597986D01*
X107909182Y-101597983D01*
X107992115Y-101537729D01*
X107992115Y-101537728D01*
X107293244Y-100838857D01*
X107335302Y-100827588D01*
X107460718Y-100755180D01*
X107563120Y-100652778D01*
X107635528Y-100527362D01*
X107646797Y-100485304D01*
X108345668Y-101184175D01*
X108345669Y-101184175D01*
X108405923Y-101101242D01*
X108405926Y-101101237D01*
X108513108Y-100890880D01*
X108513115Y-100890863D01*
X108586075Y-100666320D01*
X108623010Y-100433119D01*
X108623010Y-100197020D01*
X108586075Y-99963819D01*
X108513115Y-99739276D01*
X108513111Y-99739264D01*
X108405923Y-99528898D01*
X108405923Y-99528897D01*
X108345668Y-99445963D01*
X107646797Y-100144834D01*
X107635528Y-100102778D01*
X107563120Y-99977362D01*
X107460718Y-99874960D01*
X107335302Y-99802552D01*
X107293243Y-99791282D01*
X107992115Y-99092410D01*
X107992115Y-99092409D01*
X107909188Y-99032160D01*
X107909181Y-99032156D01*
X107698815Y-98924968D01*
X107698803Y-98924964D01*
X107474260Y-98852004D01*
X107241059Y-98815070D01*
X107004961Y-98815070D01*
X106771759Y-98852004D01*
X106547216Y-98924964D01*
X106547204Y-98924968D01*
X106336838Y-99032156D01*
X106336833Y-99032159D01*
X106253903Y-99092409D01*
X106952776Y-99791282D01*
X106910718Y-99802552D01*
X106785302Y-99874960D01*
X106682900Y-99977362D01*
X106610492Y-100102778D01*
X106599222Y-100144836D01*
X105900349Y-99445963D01*
X105840099Y-99528893D01*
X105840096Y-99528898D01*
X105732908Y-99739264D01*
X105732904Y-99739276D01*
X105659944Y-99963819D01*
X105623010Y-100197020D01*
X102123010Y-100197020D01*
X102086075Y-99963819D01*
X102013115Y-99739276D01*
X102013111Y-99739264D01*
X101905923Y-99528898D01*
X101905923Y-99528897D01*
X101845668Y-99445963D01*
X101146797Y-100144834D01*
X101135528Y-100102778D01*
X101063120Y-99977362D01*
X100960718Y-99874960D01*
X100835302Y-99802552D01*
X100793243Y-99791282D01*
X101492115Y-99092410D01*
X101492115Y-99092409D01*
X101409188Y-99032160D01*
X101409181Y-99032156D01*
X101198815Y-98924968D01*
X101198803Y-98924964D01*
X100974260Y-98852004D01*
X100741059Y-98815070D01*
X100504961Y-98815070D01*
X100271759Y-98852004D01*
X100047216Y-98924964D01*
X100047204Y-98924968D01*
X99836838Y-99032156D01*
X99836833Y-99032159D01*
X99753903Y-99092409D01*
X100452776Y-99791282D01*
X100410718Y-99802552D01*
X100285302Y-99874960D01*
X100182900Y-99977362D01*
X100110492Y-100102778D01*
X100099222Y-100144836D01*
X99400349Y-99445963D01*
X99340099Y-99528893D01*
X99340096Y-99528898D01*
X99232908Y-99739264D01*
X99232904Y-99739276D01*
X99159944Y-99963819D01*
X99123010Y-100197020D01*
X84863560Y-100197020D01*
X85090707Y-99487259D01*
X85092834Y-99481086D01*
X85397286Y-98657237D01*
X85399704Y-98651116D01*
X85403612Y-98641828D01*
X85740301Y-97841535D01*
X85742969Y-97835567D01*
X86119051Y-97041829D01*
X86121976Y-97035994D01*
X86532789Y-96259688D01*
X86535965Y-96253992D01*
X86980732Y-95496588D01*
X86984190Y-95490989D01*
X87461997Y-94754041D01*
X87465677Y-94748631D01*
X87975647Y-94033493D01*
X87979550Y-94028270D01*
X88520632Y-93336419D01*
X88524770Y-93331362D01*
X88912241Y-92878706D01*
X92149500Y-92878706D01*
X92149500Y-93121293D01*
X92181160Y-93361781D01*
X92181161Y-93361787D01*
X92181162Y-93361789D01*
X92232827Y-93554605D01*
X92243947Y-93596103D01*
X92269742Y-93658377D01*
X92328696Y-93800706D01*
X92336778Y-93820216D01*
X92402349Y-93933788D01*
X92458064Y-94030289D01*
X92605735Y-94222738D01*
X92777262Y-94394265D01*
X92969711Y-94541936D01*
X93179788Y-94663224D01*
X93403900Y-94756054D01*
X93638211Y-94818838D01*
X93638217Y-94818838D01*
X93638218Y-94818839D01*
X93703600Y-94827446D01*
X93878712Y-94850500D01*
X94121288Y-94850500D01*
X94361789Y-94818838D01*
X94596100Y-94756054D01*
X94820212Y-94663224D01*
X95030289Y-94541936D01*
X95222738Y-94394265D01*
X95394265Y-94222738D01*
X95541936Y-94030289D01*
X95663224Y-93820212D01*
X95756054Y-93596100D01*
X95818838Y-93361789D01*
X95850500Y-93121288D01*
X95850500Y-92878712D01*
X95818838Y-92638211D01*
X95756054Y-92403900D01*
X95663224Y-92179788D01*
X95541936Y-91969711D01*
X95394265Y-91777262D01*
X95222738Y-91605735D01*
X95030289Y-91458064D01*
X94920328Y-91394578D01*
X94820216Y-91336778D01*
X94820214Y-91336777D01*
X94820212Y-91336776D01*
X94688932Y-91282398D01*
X94596103Y-91243947D01*
X94596101Y-91243946D01*
X94596100Y-91243946D01*
X94361789Y-91181162D01*
X94361787Y-91181161D01*
X94361781Y-91181160D01*
X94121293Y-91149500D01*
X94121288Y-91149500D01*
X93878712Y-91149500D01*
X93878706Y-91149500D01*
X93638218Y-91181160D01*
X93403896Y-91243947D01*
X93179783Y-91336778D01*
X92969712Y-91458063D01*
X92939709Y-91481085D01*
X92777262Y-91605735D01*
X92777260Y-91605736D01*
X92777256Y-91605740D01*
X92605740Y-91777256D01*
X92458063Y-91969712D01*
X92336778Y-92179783D01*
X92243947Y-92403896D01*
X92181160Y-92638218D01*
X92149500Y-92878706D01*
X88912241Y-92878706D01*
X89095951Y-92664090D01*
X89100291Y-92659242D01*
X89700434Y-92017884D01*
X89704972Y-92013244D01*
X90332888Y-91399069D01*
X90337675Y-91394590D01*
X90992115Y-90808816D01*
X90997071Y-90804573D01*
X91676795Y-90248309D01*
X91681967Y-90244265D01*
X92385605Y-89718632D01*
X92390922Y-89714839D01*
X93117176Y-89220808D01*
X93122653Y-89217257D01*
X93870025Y-88755849D01*
X93875595Y-88752577D01*
X94642713Y-88324640D01*
X94648470Y-88321594D01*
X95433702Y-87928041D01*
X95439586Y-87925253D01*
X96241463Y-87566817D01*
X96247489Y-87564282D01*
X97064440Y-87241664D01*
X97070530Y-87239414D01*
X97900943Y-86953252D01*
X97907141Y-86951267D01*
X98749451Y-86702101D01*
X98755726Y-86700395D01*
X99608142Y-86488754D01*
X99614544Y-86487314D01*
X100475520Y-86313579D01*
X100481933Y-86312432D01*
X101349782Y-86176945D01*
X101356235Y-86176084D01*
X102229196Y-86079122D01*
X102235686Y-86078546D01*
X103112068Y-86020293D01*
X103118629Y-86020002D01*
X103998373Y-86000535D01*
X104001669Y-86000500D01*
X104092710Y-86000500D01*
X195907290Y-86000500D01*
X195998331Y-86000500D01*
X196001626Y-86000535D01*
G37*
%TD.AperFunction*%
%TA.AperFunction,Conductor*%
G36*
X162318448Y-112639810D02*
G01*
X162338064Y-112639810D01*
X162355051Y-112649617D01*
X162374000Y-112654695D01*
X162404855Y-112678371D01*
X162453915Y-112727430D01*
X162542156Y-112815671D01*
X162542174Y-112815688D01*
X162865802Y-113099500D01*
X162922614Y-113149323D01*
X163324082Y-113457380D01*
X163744838Y-113738519D01*
X164183080Y-113991538D01*
X164183087Y-113991541D01*
X164183088Y-113991542D01*
X164183091Y-113991544D01*
X164636924Y-114215348D01*
X164636929Y-114215350D01*
X164636933Y-114215352D01*
X165104452Y-114409004D01*
X165583635Y-114571663D01*
X166072431Y-114702635D01*
X166568747Y-114801356D01*
X166568745Y-114801356D01*
X167070451Y-114867406D01*
X167170413Y-114873957D01*
X167575411Y-114900501D01*
X167828431Y-114900500D01*
X167917122Y-114900500D01*
X171098175Y-114900500D01*
X171172675Y-114920462D01*
X171203534Y-114944141D01*
X171327635Y-115068242D01*
X171453302Y-115159544D01*
X171505975Y-115197813D01*
X171505976Y-115197814D01*
X171505978Y-115197815D01*
X171702394Y-115297895D01*
X171782141Y-115323806D01*
X171888280Y-115358293D01*
X171952965Y-115400299D01*
X171987981Y-115469021D01*
X171983944Y-115546043D01*
X171941938Y-115610728D01*
X171888280Y-115641707D01*
X171702393Y-115702105D01*
X171505976Y-115802185D01*
X171505975Y-115802186D01*
X171327636Y-115931757D01*
X171327633Y-115931759D01*
X171171759Y-116087633D01*
X171171757Y-116087636D01*
X171042186Y-116265975D01*
X171042185Y-116265976D01*
X170942105Y-116462393D01*
X170873985Y-116672043D01*
X170851935Y-116811265D01*
X170839500Y-116889778D01*
X170839500Y-117110222D01*
X170850736Y-117181160D01*
X170873985Y-117327956D01*
X170942105Y-117537606D01*
X171042185Y-117734023D01*
X171042186Y-117734024D01*
X171104745Y-117820129D01*
X171171758Y-117912365D01*
X171327635Y-118068242D01*
X171396298Y-118118128D01*
X171505975Y-118197813D01*
X171505976Y-118197814D01*
X171505978Y-118197815D01*
X171702394Y-118297895D01*
X171771794Y-118320444D01*
X171888280Y-118358293D01*
X171952965Y-118400299D01*
X171987981Y-118469021D01*
X171983944Y-118546043D01*
X171941938Y-118610728D01*
X171888280Y-118641707D01*
X171702393Y-118702105D01*
X171505976Y-118802185D01*
X171505975Y-118802186D01*
X171327636Y-118931757D01*
X171327633Y-118931759D01*
X171203534Y-119055859D01*
X171136739Y-119094423D01*
X171098175Y-119099500D01*
X168184642Y-119099500D01*
X168179323Y-119099405D01*
X167703513Y-119082409D01*
X167692904Y-119081650D01*
X167222178Y-119031041D01*
X167211650Y-119029528D01*
X166745712Y-118945463D01*
X166735319Y-118943202D01*
X166276573Y-118826114D01*
X166266367Y-118823117D01*
X165817146Y-118673600D01*
X165807181Y-118669883D01*
X165369765Y-118488699D01*
X165360090Y-118484280D01*
X164936729Y-118272360D01*
X164927394Y-118267263D01*
X164520221Y-118025676D01*
X164511273Y-118019926D01*
X164122369Y-117749905D01*
X164113854Y-117743530D01*
X163745196Y-117446446D01*
X163737158Y-117439481D01*
X163391019Y-117117215D01*
X163382696Y-117108826D01*
X163370912Y-117095966D01*
X163142374Y-116846561D01*
X163134032Y-116836619D01*
X162917782Y-116554797D01*
X162910332Y-116544155D01*
X162719481Y-116244578D01*
X162712981Y-116233321D01*
X162686686Y-116182809D01*
X162548961Y-115918240D01*
X162543473Y-115906472D01*
X162407535Y-115578285D01*
X162403096Y-115566088D01*
X162401331Y-115560491D01*
X162318535Y-115297892D01*
X162296281Y-115227310D01*
X162292917Y-115214754D01*
X162257826Y-115056466D01*
X162216034Y-114867957D01*
X162213782Y-114855181D01*
X162167417Y-114502996D01*
X162166285Y-114490054D01*
X162163348Y-114422787D01*
X162154293Y-114215352D01*
X162150642Y-114131727D01*
X162150500Y-114125228D01*
X162150500Y-112783733D01*
X162155577Y-112764785D01*
X162155577Y-112745169D01*
X162165384Y-112728181D01*
X162170462Y-112709233D01*
X162184333Y-112695361D01*
X162194141Y-112678374D01*
X162211128Y-112668566D01*
X162225000Y-112654695D01*
X162243948Y-112649617D01*
X162260936Y-112639810D01*
X162280552Y-112639810D01*
X162299500Y-112634733D01*
X162318448Y-112639810D01*
G37*
%TD.AperFunction*%
%TA.AperFunction,Conductor*%
G36*
X159297580Y-93352681D02*
G01*
X159330538Y-93385639D01*
X159373621Y-93444937D01*
X159535063Y-93606379D01*
X159679844Y-93711569D01*
X159728382Y-93771509D01*
X159740447Y-93847688D01*
X159720193Y-93900448D01*
X159718282Y-93924729D01*
X160350590Y-94557037D01*
X160287007Y-94574075D01*
X160172993Y-94639901D01*
X160079901Y-94732993D01*
X160014075Y-94847007D01*
X159997037Y-94910590D01*
X159364729Y-94278282D01*
X159343080Y-94279986D01*
X159332711Y-94288383D01*
X159256532Y-94300446D01*
X159184528Y-94272804D01*
X159151569Y-94239844D01*
X159144548Y-94230181D01*
X159046379Y-94095063D01*
X158884937Y-93933621D01*
X158825642Y-93890540D01*
X158777107Y-93830604D01*
X158765041Y-93754425D01*
X158792681Y-93682420D01*
X158825639Y-93649461D01*
X158884937Y-93606379D01*
X159046379Y-93444937D01*
X159089459Y-93385642D01*
X159149396Y-93337107D01*
X159225575Y-93325041D01*
X159297580Y-93352681D01*
G37*
%TD.AperFunction*%
%TA.AperFunction,Conductor*%
G36*
X166917580Y-93352681D02*
G01*
X166950538Y-93385639D01*
X166993621Y-93444937D01*
X167155063Y-93606379D01*
X167299844Y-93711569D01*
X167348382Y-93771509D01*
X167360447Y-93847688D01*
X167340193Y-93900448D01*
X167338282Y-93924729D01*
X167970590Y-94557037D01*
X167907007Y-94574075D01*
X167792993Y-94639901D01*
X167699901Y-94732993D01*
X167634075Y-94847007D01*
X167617037Y-94910590D01*
X166984729Y-94278282D01*
X166963080Y-94279986D01*
X166952711Y-94288383D01*
X166876532Y-94300446D01*
X166804528Y-94272804D01*
X166771569Y-94239844D01*
X166764548Y-94230181D01*
X166666379Y-94095063D01*
X166504937Y-93933621D01*
X166445642Y-93890540D01*
X166397107Y-93830604D01*
X166385041Y-93754425D01*
X166412681Y-93682420D01*
X166445639Y-93649461D01*
X166504937Y-93606379D01*
X166666379Y-93444937D01*
X166709459Y-93385642D01*
X166769396Y-93337107D01*
X166845575Y-93325041D01*
X166917580Y-93352681D01*
G37*
%TD.AperFunction*%
%TA.AperFunction,Conductor*%
G36*
X161837580Y-93352681D02*
G01*
X161870538Y-93385639D01*
X161913621Y-93444937D01*
X162075063Y-93606379D01*
X162134355Y-93649458D01*
X162182893Y-93709397D01*
X162194958Y-93785576D01*
X162167317Y-93857581D01*
X162134356Y-93890541D01*
X162117092Y-93903085D01*
X162075066Y-93933618D01*
X161913618Y-94095066D01*
X161808430Y-94239845D01*
X161748490Y-94288383D01*
X161672311Y-94300448D01*
X161619544Y-94280192D01*
X161595270Y-94278282D01*
X160962962Y-94910589D01*
X160945925Y-94847007D01*
X160880099Y-94732993D01*
X160787007Y-94639901D01*
X160672993Y-94574075D01*
X160609407Y-94557037D01*
X161241716Y-93924729D01*
X161240012Y-93903085D01*
X161231616Y-93892716D01*
X161219551Y-93816537D01*
X161247192Y-93744532D01*
X161280155Y-93711570D01*
X161424937Y-93606379D01*
X161586379Y-93444937D01*
X161629459Y-93385642D01*
X161689396Y-93337107D01*
X161765575Y-93325041D01*
X161837580Y-93352681D01*
G37*
%TD.AperFunction*%
%TD*%
M02*
