M48
; DRILL file {KiCad 9.0.3} date 2025-07-15T10:31:40+0200
; FORMAT={-:-/ absolute / metric / decimal}
; #@! TF.CreationDate,2025-07-15T10:31:40+02:00
; #@! TF.GenerationSoftware,Kicad,Pcbnew,9.0.3
; #@! TF.FileFunction,Plated,1,2,PTH
FMAT,2
METRIC
; #@! TA.AperFunction,Plated,PTH,ViaDrill
T1C0.600
; #@! TA.AperFunction,Plated,PTH,ViaDrill
T2C0.800
; #@! TA.AperFunction,Plated,PTH,ComponentDrill
T3C0.800
; #@! TA.AperFunction,Plated,PTH,ComponentDrill
T4C1.000
; #@! TA.AperFunction,Plated,PTH,ComponentDrill
T5C1.100
%
G90
G05
T1
X87.0Y-102.75
X92.75Y-115.0
X102.5Y-89.0
X104.0Y-107.5
X104.5Y-124.0
X112.25Y-116.75
X117.75Y-109.25
X121.0Y-99.75
X121.75Y-110.25
X125.75Y-103.25
X127.0Y-98.0
X133.0Y-120.0
X134.0Y-102.5
X136.5Y-120.5
X138.8Y-97.5
X141.5Y-97.75
X143.75Y-104.5
X144.75Y-89.0
X149.0Y-101.0
X154.0Y-104.0
X166.7Y-100.0
X167.0Y-116.5
X177.5Y-101.75
X182.25Y-99.5
X188.25Y-89.75
X190.0Y-120.0
X196.75Y-106.25
X212.25Y-107.75
T2
X129.5Y-99.5
X135.0Y-89.0
T3
X127.481Y-113.969
X127.481Y-116.969
X127.481Y-119.969
X127.481Y-122.969
X142.721Y-113.969
X142.721Y-116.969
X142.721Y-119.969
X142.721Y-122.969
X157.0Y-114.0
X157.0Y-117.0
X157.0Y-120.0
X157.0Y-123.0
X172.24Y-114.0
X172.24Y-117.0
X172.24Y-120.0
X172.24Y-123.0
T4
X132.54Y-92.235
X132.54Y-94.775
X135.08Y-92.235
X135.08Y-94.775
X137.62Y-92.235
X137.62Y-94.775
X140.16Y-92.235
X140.16Y-94.775
X142.7Y-92.235
X142.7Y-94.775
X145.24Y-92.235
X145.24Y-94.775
X146.0Y-110.0
X147.78Y-92.235
X147.78Y-94.775
X148.54Y-110.0
X150.32Y-92.235
X150.32Y-94.775
X151.08Y-110.0
X152.86Y-92.235
X152.86Y-94.775
X153.62Y-110.0
X155.4Y-92.235
X155.4Y-94.775
X157.94Y-92.235
X157.94Y-94.775
X160.48Y-92.235
X160.48Y-94.775
X163.02Y-92.235
X163.02Y-94.775
X165.56Y-92.235
X165.56Y-94.775
X168.1Y-92.235
X168.1Y-94.775
T5
X92.612Y-103.6
X92.612Y-108.1
X99.112Y-103.6
X99.112Y-108.1
X100.623Y-95.815
X100.623Y-100.315
X100.639Y-111.565
X100.639Y-116.065
X107.123Y-95.815
X107.123Y-100.315
X107.139Y-111.565
X107.139Y-116.065
X108.615Y-103.538
X108.615Y-108.038
X115.115Y-103.538
X115.115Y-108.038
X184.14Y-107.774
X186.39Y-103.876
X188.99Y-98.874
X189.769Y-111.024
X191.24Y-94.976
X192.019Y-107.126
X194.59Y-113.774
X194.619Y-102.124
X196.84Y-109.876
X196.869Y-98.226
X199.49Y-104.724
X200.219Y-117.024
X201.74Y-100.826
X202.469Y-113.126
X205.119Y-107.974
X207.369Y-104.076
M30
